<?xml version="1.0" standalone="no"?>
<!DOCTYPE svg PUBLIC "-//W3C//DTD SVG 1.1//EN" "http://www.w3.org/Graphics/SVG/1.1/DTD/svg11.dtd">
<svg xmlns="http://www.w3.org/2000/svg"><metadata>This SVG WebFont was generated by YouWorkForThem.
Copyright (c) 2015 by Jakob Runge, under exclusive license to type me! fonts. All rights reserved.</metadata><defs><font horiz-adv-x="1146" id="ywftsvg"><font-face ascent="1638" bbox="-381 -522 2900 1866" cap-height="1352" descent="-410" font-family="" font-stretch="normal" font-weight="900" panose-1="0 0 10 0 0 0 0 0 0 0" underline-position="0" underline-thickness="0" unicode-range="U+0020-F8FF" units-per-em="2048" x-height="1024"/><missing-glyph d="M135 1352h1198v-1352h-1198v1352zM1098 1139h-731l731 -946v946z" horiz-adv-x="1468"/><glyph d="M135 1352h1198v-1352h-1198v1352zM1098 1139h-731l731 -946v946z" glyph-name=".notdef" horiz-adv-x="1468"/><glyph glyph-name="glyph1" horiz-adv-x="0"/><glyph glyph-name="glyph2" horiz-adv-x="681"/><glyph glyph-name="space" horiz-adv-x="573" unicode=" "/><glyph d="M592 1352l-66 -811h-286l-68 811h420zM385 434q100 0 164.5 -66.5t64.5 -163.5t-64.5 -163t-164.5 -66t-165.5 65.5t-65.5 163.5t65.5 164t165.5 66z" glyph-name="exclam" horiz-adv-x="768" unicode="!"/><glyph d="M156 754v598h399l-133 -598h-266zM713 754v598h399l-133 -598h-266z" glyph-name="quotedbl" horiz-adv-x="1202" unicode="&quot;"/><glyph d="M1286 754h-199l-20 -156h178v-295h-217l-41 -303h-285l41 303h-245l-41 -303h-285l41 303h-160v295h199l20 156h-178v295h217l41 303h285l-41 -303h246l41 303h284l-41 -303h160v-295zM535 578h245l25 196h-246z" glyph-name="numbersign" horiz-adv-x="1339" unicode="#"/><glyph d="M1036 428q0 -147 -93 -244.5t-247 -130.5v-256h-295v262q-238 59 -346 273l234 178q106 -162 276 -162q127 0 127 74q0 33 -28.5 52.5t-94.5 41.5l-137 45q-154 53 -235.5 149.5t-81.5 223.5t77.5 219t208.5 129v250h295v-246q199 -49 299 -242l-233 -178 q-86 127 -207 127q-96 0 -96 -61q0 -47 102 -84l154 -47q321 -113 321 -373z" glyph-name="dollar" horiz-adv-x="1103" unicode="$"/><glyph d="M432.5 1376q149.5 0 254 -97t104.5 -242.5t-104.5 -244t-254 -98.5t-254 98.5t-104.5 244t104.5 242.5t254 97zM1395 1352l-783 -1352h-274l780 1352h277zM431 1139q-42 0 -66.5 -28t-24.5 -75t24.5 -74.5t66.5 -27.5t67.5 27.5t25.5 73.5t-25.5 75t-67.5 29zM1298.5 659 q149.5 0 254 -97t104.5 -242.5t-104.5 -244t-254 -98.5t-254 98.5t-104.5 244t104.5 242.5t254 97zM1298 422q-41 0 -66.5 -27.5t-25.5 -75t24.5 -75t66.5 -27.5t68 27.5t26 73.5t-26 75t-67 29z" glyph-name="percent" horiz-adv-x="1730" unicode="%"/><glyph d="M90 367q0 117 59.5 203.5t186.5 191.5q-98 130 -98 280t102 242t265 92t262.5 -86t99.5 -223q0 -98 -51.5 -176t-147.5 -162l152 -186q29 37 184 258l268 -197q-162 -227 -239 -321l231 -283h-408l-59 72q-159 -96 -357 -96t-324 108.5t-126 282.5zM604 1085 q-23 0 -40 -14t-17 -41t51 -92q59 49 59 90q0 57 -53 57zM574 279q64 0 124 36l-178 220q-86 -71 -86 -129t38 -92.5t102 -34.5z" glyph-name="ampersand" horiz-adv-x="1445" unicode="&amp;"/><glyph d="M156 754v598h399l-133 -598h-266z" glyph-name="quotesingle" horiz-adv-x="645" unicode="'"/><glyph d="M422 624.5q0 -479.5 319 -694.5l-137 -200q-211 92 -344 318t-133 576.5t133 577t344 318.5l137 -201q-319 -215 -319 -694.5z" glyph-name="parenleft" horiz-adv-x="790" unicode="("/><glyph d="M664 624.5q0 -350.5 -133.5 -576.5t-344.5 -318l-137 200q319 215 319.5 694.5t-319.5 694.5l137 201q211 -92 344.5 -318.5t133.5 -577z" glyph-name="parenright" horiz-adv-x="790" unicode=")"/><glyph d="M961 1221l-185 -144l185 -143l-99 -170l-217 88l-31 -231h-196l-31 231l-217 -88l-98 170l184 143l-184 144l98 170l217 -88l31 231h196l31 -231l217 88z" glyph-name="asterisk" horiz-adv-x="1032" unicode="*"/><glyph d="M1073 514h-332v-344h-331v344h-334v295h334v344h331v-344h332v-295z" glyph-name="plus" unicode="+"/><glyph d="M100 -362v659h400l-123 -659h-277z" glyph-name="comma" horiz-adv-x="552" unicode=","/><glyph d="M614 813v-295h-532v295h532z" glyph-name="hyphen" horiz-adv-x="696" unicode="-"/><glyph d="M279 434q100 0 164.5 -66.5t64.5 -163.5t-64.5 -163t-164.5 -66t-166 65.5t-66 163.5t66 164t166 66z" glyph-name="period" horiz-adv-x="552" unicode="."/><glyph d="M1434 1597l-1072 -1845h-362l1071 1845h363z" glyph-name="slash" horiz-adv-x="1433" unicode="/"/><glyph d="M671 1130q249 0 424 -166.5t175 -410.5t-175 -411t-424 -167t-423 167t-174 411t174 410.5t423 166.5zM670 807q-102 0 -169 -71.5t-67 -183.5t65 -182.5t169 -70.5t171.5 71.5t67.5 182.5t-67.5 182.5t-169.5 71.5z" glyph-name="zero" horiz-adv-x="1343" unicode="0"/><glyph d="M762 1106v-811h252v-295h-881v295h277v496h-258v315h610z" glyph-name="one" horiz-adv-x="1087" unicode="1"/><glyph d="M1122 295v-295h-1046v72l440 331q115 88 166 144.5t51 118.5t-40 101.5t-103.5 39.5t-100 -39t-36.5 -102q0 -23 6 -72h-346q-14 57 -15 108q0 170 139.5 299t357.5 129t358.5 -121.5t140.5 -301.5q0 -115 -62.5 -211.5t-189.5 -200.5h280z" glyph-name="two" horiz-adv-x="1226" unicode="2"/><glyph d="M1042 203q0 -205 -152.5 -340t-375.5 -135q-176 0 -310 87t-204 236l244 172q59 -90 118.5 -131t138.5 -41t130 39t51 111q0 143 -233 143h-193v90l240 357h-385v315h911v-92l-266 -398q121 -49 203.5 -157.5t82.5 -255.5z" glyph-name="three" horiz-adv-x="1124" unicode="3"/><glyph d="M1204 295v-295h-157v-248h-353v248h-667v92l387 1014h362l-313 -811h231v332h353v-332h157z" glyph-name="four" horiz-adv-x="1224" unicode="4"/><glyph d="M614 647q176 0 314.5 -120.5t138.5 -323.5t-154.5 -339t-386.5 -136q-180 0 -317 87t-207 236l244 172q59 -90 120.5 -131t146.5 -41t139.5 40t54.5 112q0 141 -234 141h-321v762h837v-315h-504v-158q76 14 129 14z" glyph-name="five" horiz-adv-x="1148" unicode="5"/><glyph d="M1104 462q0 -202 -155.5 -344.5t-365.5 -142.5t-365 142.5t-155 361.5q0 111 43.5 200t141.5 220l338 453h415l-301 -408q162 -20 283 -150t121 -332zM583.5 299q71.5 0 122 51t50.5 127t-50.5 125t-122 49t-121.5 -49t-50 -125t50 -127t121.5 -51z" glyph-name="six" horiz-adv-x="1167" unicode="6"/><glyph d="M82 1106h979v-92l-578 -1262h-383l494 1039h-512v315z" glyph-name="seven" horiz-adv-x="1105" unicode="7"/><glyph d="M610.5 -25q-231.5 0 -380 106.5t-148.5 289.5q0 223 233 327q-174 118 -174 300t131 280t337 98t337 -98t131 -280t-174 -300q233 -104 234 -327q0 -182 -147.5 -289t-379 -107zM609 1100q-62 0 -104 -31t-42 -78t36 -79.5t111 -69.5q76 37 111 70.5t35 80.5t-42.5 77 t-104.5 30zM609 256q89 0 134 36t45 93t-45 96t-135 72q-88 -33 -133 -72t-45 -96t45 -93t134 -36z" glyph-name="eight" horiz-adv-x="1218" unicode="8"/><glyph d="M585 1130q210 0 364.5 -142t154.5 -361q0 -111 -43 -200t-141 -220l-338 -455h-416l301 410q-162 20 -283 150t-121 332t156 344t366 142zM583.5 455q71.5 0 122 49t50.5 125t-50.5 127t-122 51t-121.5 -51t-50 -127t50 -125t121.5 -49z" glyph-name="nine" horiz-adv-x="1167" unicode="9"/><glyph d="M279 1049q100 0 164.5 -67t64.5 -164t-64.5 -162.5t-164.5 -65.5t-166 65.5t-66 162.5t66 164t166 67zM279 434q100 0 164.5 -66.5t64.5 -163.5t-64.5 -163t-164.5 -66t-166 65.5t-66 163.5t66 164t166 66z" glyph-name="colon" horiz-adv-x="552" unicode=":"/><glyph d="M279 1049q100 0 164.5 -67t64.5 -164t-64.5 -162.5t-164.5 -65.5t-166 65.5t-66 162.5t66 164t166 67zM100 -362v659h400l-123 -659h-277z" glyph-name="semicolon" horiz-adv-x="552" unicode=";"/><glyph d="M1040 1155v-301l-442 -188l442 -191v-301l-985 444v93z" glyph-name="less" unicode="&lt;"/><glyph d="M1053 1036v-295h-957v295h957zM1053 586v-295h-957v295h957z" glyph-name="equal" unicode="="/><glyph d="M104 1155l986 -444v-93l-986 -444v301l443 191l-443 188v301z" glyph-name="greater" unicode=">"/><glyph d="M462 1376q171 0 294 -101t123 -267q0 -90 -38 -150.5t-138 -144.5t-109.5 -106.5t-9.5 -39.5v-26h-295q-25 57 -25 102t31 90t53 65.5t88 71.5t74 70q8 14 8 43t-23.5 49.5t-58.5 20.5q-72 0 -129 -129l-287 127q89 325 442 325zM442 434q100 0 165 -66.5t65 -163.5 t-65 -163t-165 -66t-165.5 65.5t-65.5 163.5t65.5 164t165.5 66z" glyph-name="question" horiz-adv-x="933" unicode="?"/><glyph d="M1019 1376q396 0 652 -233.5t256 -569.5q0 -266 -170 -393t-457 -127h-135v82q-87 -104 -255 -104t-285 127t-117 325.5t116 325.5t286 127t255 -105v84h285v-598q102 6 153.5 64.5t51.5 189.5q0 246 -167 394.5t-466 148.5t-491.5 -174t-192.5 -460t190.5 -455.5 t468.5 -169.5q102 0 230 24l53 -235q-141 -49 -319 -50q-375 0 -635 250t-260 637t278.5 641t674.5 254zM987.5 315q65.5 0 111.5 43t46 125t-45 126t-112 44t-115 -44t-48 -125t48.5 -125t114 -44z" glyph-name="at" horiz-adv-x="1992" unicode="@"/><glyph d="M967 0l-49 113h-486l-49 -113h-379l614 1376h113l615 -1376h-379zM793 395l-117 314l-119 -314h236z" glyph-name="A" horiz-adv-x="1349" unicode="A"/><glyph d="M766 0h-631v1352h488q197 0 326.5 -111t129.5 -289q0 -135 -82 -227q225 -90 226 -324q0 -176 -130 -288.5t-327 -112.5zM600 1055h-127v-238h127q63 0 99 33t36 86t-36 86t-99 33zM743 297q135 0 135.5 119t-135.5 119h-270v-238h270z" glyph-name="B" horiz-adv-x="1277" unicode="B"/><glyph d="M797 1376q203 0 364.5 -95t253.5 -267l-268 -183q-131 221 -352 222q-162 0 -265.5 -104.5t-103.5 -274.5t102.5 -272.5t266.5 -102.5q221 0 352 221l268 -182q-92 -172 -254 -267.5t-366 -95.5q-307 0 -518 201t-211 499t212 499.5t519 201.5z" glyph-name="C" horiz-adv-x="1480" unicode="C"/><glyph d="M606 1352q319 0 528 -183.5t209 -486.5t-209.5 -492.5t-527.5 -189.5h-471v1352h471zM604 1032h-117v-715h117q166 0 272.5 97.5t106.5 267.5t-105.5 260t-273.5 90z" glyph-name="D" horiz-adv-x="1409" unicode="D"/><glyph d="M1073 1352v-318h-586v-186h418v-295h-418v-236h611v-317h-963v1352h938z" glyph-name="E" horiz-adv-x="1181" unicode="E"/><glyph d="M1053 1352v-318h-566v-258h459v-317h-459v-459h-352v1352h918z" glyph-name="F" horiz-adv-x="1110" unicode="F"/><glyph d="M801 1376q377 0 581 -301l-245 -209q-133 186 -342 187q-170 0 -269.5 -103.5t-99.5 -275.5t104 -278q106 -106 292 -106.5t290 120.5v63h-315v303h667v-426q-94 -168 -269 -271.5t-394 -103.5q-311 0 -523 201t-212 499t212 499.5t523 201.5z" glyph-name="G" horiz-adv-x="1529" unicode="G"/><glyph d="M1333 1352v-1352h-352v541h-494v-541h-352v1352h352v-494h494v494h352z" glyph-name="H" horiz-adv-x="1468" unicode="H"/><glyph d="M487 1352v-1352h-352v1352h352z" glyph-name="I" horiz-adv-x="622" unicode="I"/><glyph d="M682 1352v-961q0 -207 -115.5 -311.5t-335.5 -104.5q-104 0 -206 25v299q111 -4 129 -4q96 0 136 30.5t40 104.5v922h352z" glyph-name="J" horiz-adv-x="817" unicode="J"/><glyph d="M487 0h-352v1352h352v-613l447 613h409l-464 -643l540 -709h-418l-514 674v-674z" glyph-name="K" horiz-adv-x="1423" unicode="K"/><glyph d="M487 1352v-1035h560v-317h-912v1352h352z" glyph-name="L" horiz-adv-x="1095" unicode="L"/><glyph d="M1511 1376v-1376h-352v567l-280 -327h-113l-279 325v-565h-352v1376h113l575 -702l576 702h112z" glyph-name="M" horiz-adv-x="1646" unicode="M"/><glyph d="M981 1352h352v-1377h-112l-734 711v-686h-352v1376h113l733 -700v676z" glyph-name="N" horiz-adv-x="1468" unicode="N"/><glyph d="M792.5 1376q305.5 0 518.5 -201.5t213 -498.5t-213 -499t-518.5 -202t-516 202t-210.5 499t210.5 498.5t516 201.5zM793 1053q-162 0 -264.5 -104.5t-102.5 -273.5t102.5 -272.5t264.5 -103.5t266 103.5t104 272.5t-104 273.5t-266 104.5z" glyph-name="O" horiz-adv-x="1589" unicode="O"/><glyph d="M666 1352q227 0 374.5 -127t147.5 -336t-148.5 -339t-373.5 -130h-179v-420h-352v1352h531zM668 1044h-181v-317h181q74 0 117.5 44t43.5 115.5t-43.5 114.5t-117.5 43z" glyph-name="P" horiz-adv-x="1243" unicode="P"/><glyph d="M2003 -176q70 0 182 6v-276q-106 -29 -254 -29q-285 0 -528.5 118.5t-409.5 358.5q-92 -27 -200 -27q-305 0 -516 202t-211 499t210.5 498.5t516 201.5t518.5 -201.5t213 -507.5t-238 -513q133 -170 303 -250t414 -80zM426 675q0 -169 102.5 -272.5t264.5 -103.5 t266 103.5t104 272.5t-104.5 273.5t-266.5 104.5t-264 -104.5t-102 -273.5z" glyph-name="Q" horiz-adv-x="1589" unicode="Q"/><glyph d="M487 420v-420h-352v1352h531q227 0 374.5 -127t147.5 -338q0 -256 -213 -385l356 -502h-393l-305 420h-146zM487 1044v-317h181q74 0 117.5 44t43.5 115.5t-44 114.5t-117 43h-181z" glyph-name="R" horiz-adv-x="1335" unicode="R"/><glyph d="M580 1376q326 0 462 -272l-235 -180q-49 74 -100.5 108.5t-122.5 34.5q-121 0 -121 -86q0 -37 25.5 -60.5t91.5 -50.5l155 -65q176 -74 261 -169t85 -239q0 -195 -140 -309q-141 -114 -339 -113.5t-339.5 82.5t-215.5 222l238 180q129 -174 301 -174q139 0 139 98 q0 45 -28.5 67.5t-108.5 57.5l-139 61q-342 150 -343 408q0 180 132.5 289.5t341.5 109.5z" glyph-name="S" unicode="S"/><glyph d="M1184 1352v-318h-406v-1034h-352v1034h-406v318h1164z" glyph-name="T" horiz-adv-x="1204" unicode="T"/><glyph d="M1323 1352v-779q0 -268 -169 -433t-430 -165t-429 165t-168 433v779h352v-805q0 -115 68.5 -181.5t177.5 -66.5t177.5 66.5t68.5 181.5v805h352z" glyph-name="U" horiz-adv-x="1449" unicode="U"/><glyph d="M946 1352h400l-615 -1377h-113l-614 1377h399l273 -664z" glyph-name="V" horiz-adv-x="1349" unicode="V"/><glyph d="M1661 1352h393l-557 -1377h-113l-344 707l-346 -707h-112l-557 1377h393l254 -650l311 674h113l311 -674z" glyph-name="W" horiz-adv-x="2078" unicode="W"/><glyph d="M1272 0h-398l-237 379l-236 -379h-397l440 686l-415 666h397l211 -361l211 361h397l-409 -666z" glyph-name="X" horiz-adv-x="1275" unicode="X"/><glyph d="M821 0h-352v514l-465 838h389l252 -471l252 471h387l-463 -834v-518z" glyph-name="Y" horiz-adv-x="1288" unicode="Y"/><glyph d="M1155 317v-317h-1130v92l591 942h-503v318h1040v-92l-594 -943h596z" glyph-name="Z" horiz-adv-x="1202" unicode="Z"/><glyph d="M690 1495v-274h-231v-1213h231v-274h-522v1761h522z" glyph-name="bracketleft" horiz-adv-x="751" unicode="["/><glyph d="M0 1597h362l1072 -1845h-363z" glyph-name="backslash" horiz-adv-x="1433" unicode="\"/><glyph d="M584 1495v-1761h-523v274h232v1213h-232v274h523z" glyph-name="bracketright" horiz-adv-x="751" unicode="]"/><glyph d="M1042 553h-329l-148 299l-149 -299h-330l422 819h113z" glyph-name="asciicircum" horiz-adv-x="1128" unicode="^"/><glyph d="M963 -119v-274h-902v274h902z" glyph-name="underscore" horiz-adv-x="1024" unicode="_"/><glyph d="M61 1597h424l131 -421h-254l-301 360v61z" glyph-name="grave" horiz-adv-x="677" unicode="`"/><glyph d="M565 1049q215 0 340 -117t125 -338v-594h-321v84q-115 -109 -288 -109t-266.5 91.5t-93.5 230.5t107.5 220t294.5 81h215v16q0 59 -38 95t-113 36t-131 -29.5t-130 -94.5l-164 223q201 205 463 205zM522 225q68 0 112 40t44 110v8h-166q-94 0 -94 -79t104 -79z" glyph-name="a" horiz-adv-x="1136" unicode="a"/><glyph d="M729 1049q215 0 353.5 -152t138.5 -387.5t-138.5 -385t-344.5 -149.5t-302 131v-106h-321v1536h352v-582q100 95 262 95zM660 295q83 0 141.5 57.5t58.5 159.5t-59.5 159.5t-141 57.5t-140 -57.5t-58.5 -161.5t58 -159.5t141 -55.5z" glyph-name="b" horiz-adv-x="1284" unicode="b"/><glyph d="M623 1049q158 0 276.5 -74t181.5 -201l-243 -186q-88 137 -211 137q-92 0 -147.5 -59.5t-55.5 -153.5t55.5 -153.5t147.5 -59.5q123 0 211 135l243 -184q-63 -127 -182 -201t-276 -74q-236 0 -398 155t-162 382t162 382t398 155z" glyph-name="c" horiz-adv-x="1132" unicode="c"/><glyph d="M817 1536h352v-1536h-321v106q-96 -131 -302 -131t-344.5 149.5t-138.5 385t138.5 387.5t353.5 152q162 0 262 -95v582zM624 295q83 0 141 55.5t58 159.5t-58 161.5t-140 57.5t-141.5 -57.5t-59.5 -159.5t58.5 -159.5t141.5 -57.5z" glyph-name="d" horiz-adv-x="1284" unicode="d"/><glyph d="M1100 563q0 -92 -23 -174h-655q57 -117 229 -117q137 0 269 80l127 -239q-182 -137 -421 -137.5t-401 152.5t-162 382t158 384t384 155t360.5 -141.5t134.5 -344.5zM598 772q-68 0 -118 -40t-70 -114h356q-2 70 -51 112t-117 42z" glyph-name="e" horiz-adv-x="1163" unicode="e"/><glyph d="M696 1245q-90 0 -129 -31.5t-39 -103.5v-86h207v-295h-207v-729h-352v729h-143v295h143v121q0 205 113.5 310.5t316.5 105.5q100 0 170 -25v-295q-62 4 -80 4z" glyph-name="f" horiz-adv-x="753" unicode="f"/><glyph d="M848 1024h321v-899q0 -262 -149.5 -390t-398.5 -128q-299 0 -517 184l179 248q154 -117 301 -117q100 0 166.5 45t66.5 135v37q-96 -94 -268 -94q-213 0 -349.5 137t-136.5 366.5t137.5 365t344.5 135.5t303 -129v104zM625 336q82 0 140 58.5t58 160.5t-58 152.5 t-141 50.5t-141.5 -53.5t-58.5 -152.5t59.5 -157.5t141.5 -58.5z" glyph-name="g" horiz-adv-x="1284" unicode="g"/><glyph d="M740 1049q165 0 270.5 -115t105.5 -303v-631h-352v580q0 68 -42 109.5t-107.5 41.5t-106.5 -42t-41 -109v-580h-352v1536h352v-584q108 97 273 97z" glyph-name="h" horiz-adv-x="1222" unicode="h"/><glyph d="M289 1595q90 0 153.5 -59.5t63.5 -147.5t-63.5 -148t-153.5 -60t-152.5 59t-62.5 147.5t62.5 148.5t152.5 60zM467 1024v-1024h-352v1024h352z" glyph-name="i" horiz-adv-x="581" unicode="i"/><glyph d="M289 1595q90 0 153.5 -59.5t63.5 -147.5t-63.5 -148t-153.5 -60t-152.5 59t-62.5 147.5t62.5 148.5t152.5 60zM467 1024v-1001q0 -205 -113.5 -310.5t-316.5 -105.5q-100 0 -170 24v295q61 -4 80 -4q90 0 129 32t39 103v967h352z" glyph-name="j" horiz-adv-x="581" unicode="j"/><glyph d="M467 0h-352v1536h352v-926l319 414h408l-352 -457l377 -567h-388l-364 541v-541z" glyph-name="k" horiz-adv-x="1218" unicode="k"/><glyph d="M467 1536v-1536h-352v1536h352z" glyph-name="l" horiz-adv-x="581" unicode="l"/><glyph d="M1336 1049q196 0 302.5 -114t106.5 -304v-631h-352v580q0 72 -41 111.5t-104.5 39.5t-102.5 -40t-39 -111v-580h-352v580q0 72 -41 111.5t-104.5 39.5t-102.5 -40t-39 -111v-580h-352v1024h321v-80q111 104 291 104t287 -130q126 131 322 131z" glyph-name="m" horiz-adv-x="1851" unicode="m"/><glyph d="M727 1049q176 0 282.5 -114t106.5 -304v-631h-352v580q0 68 -42 109.5t-107.5 41.5t-106.5 -42t-41 -109v-580h-352v1024h321v-84q115 109 291 109z" glyph-name="n" horiz-adv-x="1222" unicode="n"/><glyph d="M620 1049q232 0 396 -155t164 -382t-164 -382t-396 -155t-394.5 155t-162.5 382t162.5 382t394.5 155zM621 725q-86 0 -141.5 -59.5t-55.5 -154.5t55.5 -153.5t141.5 -58.5t142 59.5t56 152.5t-56 153.5t-142 60.5z" glyph-name="o" horiz-adv-x="1243" unicode="o"/><glyph d="M738 1049q206 0 344.5 -149.5t138.5 -385t-138.5 -387.5t-353.5 -152q-162 0 -262 95v-439h-352v1393h321v-106q96 131 302 131zM659.5 295q81.5 0 141 57.5t59.5 159.5t-58.5 159.5t-141.5 57.5t-141 -55.5t-58 -159.5t58.5 -161.5t140 -57.5z" glyph-name="p" horiz-adv-x="1284" unicode="p"/><glyph d="M848 1024h321v-1393h-352v439q-100 -94 -262 -95q-215 0 -353.5 152t-138.5 387.5t138.5 385t344.5 149.5t302 -131v106zM625 295q82 0 140 57.5t58 161.5t-58 159.5t-141 55.5t-141.5 -57.5t-58.5 -159.5t59.5 -159.5t141.5 -57.5z" glyph-name="q" horiz-adv-x="1284" unicode="q"/><glyph d="M694 1040q55 0 101 -16v-311h-84q-121 0 -182.5 -58.5t-61.5 -187.5v-467h-352v1024h321v-109q98 125 258 125z" glyph-name="r" horiz-adv-x="829" unicode="r"/><glyph d="M485 1051q240 0 385 -152l-165 -215q-104 88 -218 88q-72 0 -71 -39q0 -26 21.5 -35.5t47.5 -19.5l103 -41q154 -61 226.5 -131t72.5 -191q0 -158 -119 -249t-305 -91q-291 0 -440 197l163 209q131 -127 283 -127q90 0 90 45q0 27 -59 51l-115 47q-152 61 -224.5 135 t-72.5 210.5t108.5 222.5t288.5 86z" glyph-name="s" horiz-adv-x="933" unicode="s"/><glyph d="M705 291q18 0 129 4v-295q-102 -25 -207 -25q-217 0 -334 104.5t-117 311.5v338h-156v295h156v246h352v-246h275v-295h-275v-303q0 -74 40.5 -104.5t136.5 -30.5z" glyph-name="t" horiz-adv-x="899" unicode="t"/><glyph d="M1108 1024v-547q0 -225 -140.5 -363.5t-359.5 -138.5t-360.5 138.5t-141.5 363.5v547h353v-575q0 -66 42 -108t106 -42t106.5 42t42.5 108v575h352z" glyph-name="u" horiz-adv-x="1214" unicode="u"/><glyph d="M793 1024h372l-524 -1049h-113l-524 1049h373l209 -461z" glyph-name="v" horiz-adv-x="1169" unicode="v"/><glyph d="M1386 1024h373l-504 -1049h-112l-260 490l-262 -490h-113l-504 1049h373l211 -477l237 502h113l244 -488z" glyph-name="w" horiz-adv-x="1763" unicode="w"/><glyph d="M1133 0h-392l-176 268l-174 -268h-391l371 526l-351 498h392l153 -242l156 242h391l-350 -498z" glyph-name="x" horiz-adv-x="1132" unicode="x"/><glyph d="M240 -393q-94 0 -197 24v295q99 -4 145 -4q119 0 174 121l17 35l-375 946h375l196 -575l220 575h372l-481 -1079q-78 -174 -183.5 -256t-262.5 -82z" glyph-name="y" horiz-adv-x="1171" unicode="y"/><glyph d="M958 295v-295h-938v92l431 637h-383v295h888v-92l-424 -637h426z" glyph-name="z" horiz-adv-x="978" unicode="z"/><glyph d="M453 612q157 -28 157 -162q0 -64 -20.5 -182t-20.5 -161t29 -71t80 -28h127v-274h-189q-338 0 -337 299q0 63 20 181t20 153q0 100 -104 100h-133v295h133q104 0 104 100q0 35 -20 153t-20 181q0 299 337 299h189v-274h-127q-51 0 -80 -28t-29 -71t20.5 -161.5 t20.5 -182.5q0 -134 -157 -166z" glyph-name="braceleft" horiz-adv-x="866" unicode="{"/><glyph d="M485 1597v-1845h-290v1845h290z" glyph-name="bar" horiz-adv-x="679" unicode="|"/><glyph d="M414 612q-158 30 -158 166q0 64 20.5 182.5t20.5 161.5t-28.5 71t-80.5 28h-127v274h189q338 0 338 -299q0 -63 -20.5 -181t-20.5 -153q0 -100 104 -100h133v-295h-133q-104 0 -104 -100q0 -35 20.5 -153t20.5 -181q0 -299 -338 -299h-189v274h127q51 0 80 27t29 71 t-20.5 162t-20.5 182q0 134 158 162z" glyph-name="braceright" horiz-adv-x="866" unicode="}"/><glyph d="M310 924q102 0 188 -54l172 -104q74 -43 104.5 -43t47 20.5t16.5 51.5v28h262q6 -41 6 -78q0 -150 -83 -244.5t-185 -94.5t-187 53l-172 104q-74 43 -104.5 43t-47 -20.5t-16.5 -50.5v-29h-262q-6 39 -6 78q0 150 82.5 245t184.5 95z" glyph-name="asciitilde" unicode="~"/><glyph d="M627 453q123 0 211 135l243 -185q-111 -223 -360 -266v-340h-295v365q-162 55 -262.5 191t-100.5 312.5t100.5 312.5t262.5 191v363h295v-338q250 -43 360 -266l-243 -187q-88 137 -211 138q-92 0 -147.5 -59.5t-55.5 -154t55.5 -153.5t147.5 -59z" glyph-name="cent" horiz-adv-x="1144" unicode="¢"/><glyph d="M1130 295v-295h-1064v72q137 106 202.5 190t67.5 180h-250v295h139q-57 119 -57 224q0 188 137 301.5t333 113.5t329 -98t184 -295l-289 -104q-55 174 -188 174q-70 0 -110 -42t-40 -112t56 -162h333v-295h-227q-4 -80 -39 -147h483z" glyph-name="sterling" horiz-adv-x="1218" unicode="£"/><glyph d="M1192 675q0 -132 -68 -245l219 -227l-208 -209l-232 242q-104 -50 -226 -50t-228 45l-218 -237l-208 209l202 221q-69 115 -69 247t69 247l-202 210l208 209l213 -223q109 51 234 51t231 -53l226 225l208 -209l-215 -213q64 -108 64 -240zM673 510q71 0 114.5 46 t43.5 120t-43.5 120t-115.5 46t-114 -46t-42 -121t43 -120t114 -45z" glyph-name="currency" horiz-adv-x="1366" unicode="¤"/><glyph d="M1171 786v-274h-350v-90h350v-275h-350v-147h-352v147h-350v275h350v90h-350v274h272l-387 566h389l252 -373l252 373h387l-387 -566h274z" glyph-name="yen" horiz-adv-x="1288" unicode="¥"/><glyph d="M485 1597v-614h-290v614h290zM485 367v-615h-290v615h290z" glyph-name="brokenbar" horiz-adv-x="679" unicode="¦"/><glyph d="M1210 449q0 -114 -61.5 -194.5t-163.5 -121.5q6 -35 6 -72q0 -160 -114.5 -257t-284.5 -97t-288 67.5t-169 178.5l211 172q80 -129 225 -129q98 0 99 70q0 29 -23.5 50t-103.5 66l-164 92q-178 94 -253 181t-75 201t61.5 195t163.5 122q-6 35 -6 71q0 160 115 257.5 t285 97.5t287.5 -67.5t168.5 -178.5l-211 -172q-78 129 -225 129q-98 0 -98 -70q0 -29 23.5 -50t103.5 -66l164 -93q178 -94 252.5 -181t74.5 -201zM889 423q0 44 -34 80t-126 87l-190 104q-78 45 -117 74q-49 -39 -49 -84t33.5 -81t125.5 -87l164 -90q90 -49 144 -90 q49 43 49 87z" glyph-name="section" horiz-adv-x="1261" unicode="§"/><glyph d="M263 1579q81 0 139.5 -55.5t58.5 -134.5t-59.5 -136t-138.5 -57t-140.5 59t-61.5 135t60.5 132.5t141.5 56.5zM785 1579q81 0 139.5 -55.5t58.5 -134.5t-59.5 -136t-138.5 -57t-140 59t-61 135t60 132.5t141 56.5z" glyph-name="dieresis" horiz-adv-x="1044" unicode="¨"/><glyph d="M795 1376q297 0 513 -202.5t216 -497.5t-217 -498t-514 -203t-512 202t-215 498t216 498.5t513 202.5zM790.5 1180q-206.5 0 -358 -137.5t-151.5 -369t151.5 -366.5t358 -135t362.5 135t156 365t-156 369t-362.5 139zM803 1049q190 0 311 -164l-172 -148q-58 82 -126 82 t-105 -40t-37 -103.5t37 -102t105 -38.5t126 79l172 -147q-121 -162 -313 -162q-160 0 -269.5 105.5t-109.5 265.5t109.5 266.5t271.5 106.5z" glyph-name="copyright" horiz-adv-x="1589" unicode="©"/><glyph d="M469 1063l223 -195l-266 -307l266 -307l-223 -195l-422 455v92zM1073 1063l223 -195l-266 -307l266 -307l-223 -195l-422 455v92z" glyph-name="guillemotleft" horiz-adv-x="1347" unicode="«"/><glyph d="M1008 811v-590h-324v295h-612v295h936z" glyph-name="logicalnot" unicode="¬"/><glyph d="M614 813v-295h-532v295h532z" glyph-name="uni00AD" horiz-adv-x="696" unicode="­"/><glyph d="M591 1427q222 0 378.5 -156.5t156.5 -378.5t-156.5 -379t-378.5 -157t-379 157t-157 379t157 378.5t379 156.5zM591 500q161 0 271.5 112.5t110.5 279.5t-110.5 279.5t-271.5 112.5t-271.5 -112.5t-110.5 -279.5t110.5 -279.5t271.5 -112.5zM539 776v-141h-158v514h217 q94 0 155.5 -49.5t61.5 -139.5t-78 -143l133 -182h-174l-110 141h-47zM539 1012v-99h59q55 0 55 49.5t-55 49.5h-59z" glyph-name="registered" horiz-adv-x="1181" unicode="®"/><glyph d="M717 1524v-275h-656v275h656z" glyph-name="macron" horiz-adv-x="778" unicode="¯"/><glyph d="M372 1376q138 0 234 -94t96 -228t-97 -230.5t-234.5 -96.5t-234.5 96.5t-97 229.5t97.5 228t235.5 95zM372 1165q-52 0 -84 -31.5t-32 -80.5t32 -82t84 -33t82.5 32t30.5 82t-30.5 81.5t-82.5 31.5z" glyph-name="degree" horiz-adv-x="741" unicode="°"/><glyph d="M741 1171v-243h312v-275h-312v-266h-331v266h-314v275h314v243h331zM1053 274v-274h-957v274h957z" glyph-name="plusminus" unicode="±"/><glyph d="M731 971v-226l-665 -2v52l305 335q92 102 92 178t-72 76q-70 0 -69 -84q0 -6 4 -55h-250q-8 35 -8 72q0 117 91 207t232 90t234.5 -81t93.5 -206q0 -88 -52.5 -174t-148.5 -182h213z" glyph-name="uni00B2" horiz-adv-x="808" unicode="²"/><glyph d="M684 1032q0 -129 -97.5 -216t-227.5 -87t-217 56.5t-130 154.5l172 121q66 -103 155 -103t89 74q0 68 -131 68h-109v61l136 211h-240v225h590v-65l-158 -244q72 -33 120 -99.5t48 -156.5z" glyph-name="uni00B3" horiz-adv-x="745" unicode="³"/><glyph d="M616 1597v-61l-301 -360h-254l132 421h423z" glyph-name="acute" horiz-adv-x="677" unicode="´"/><glyph d="M1196 291q25 0 55 2v-293q-78 -25 -176 -25q-158 0 -231 103q-78 -102 -192 -102t-185 75v-420h-352v1393h352v-575q0 -72 41 -114t106.5 -42t107.5 42t42 114v575h352v-623q0 -110 80 -110z" glyph-name="uni00B5" horiz-adv-x="1271" unicode="µ"/><glyph d="M694 1352v-932h-116q-225 0 -374 129t-149 339t147.5 337t375.5 127h116zM1186 1352v-1329q0 -207 -116 -311.5t-335 -104.5q-104 0 -207 24v299q111 -4 129 -4q96 0 136.5 31t40.5 104v1291h352z" glyph-name="paragraph" horiz-adv-x="1320" unicode="¶"/><glyph d="M279 893q100 0 164.5 -66.5t64.5 -163.5t-64.5 -163t-164.5 -66t-166 65t-66 163t66 164.5t166 66.5z" glyph-name="periodcentered" horiz-adv-x="552" unicode="·"/><glyph d="M569 -117q0 -119 -94 -197.5t-256 -78.5q-80 0 -158 18v230q55 -2 117 -2q118 0 117 104v98l135 58q139 -80 139 -230z" glyph-name="cedilla" horiz-adv-x="630" unicode="¸"/><glyph d="M539 1597v-626h170v-226h-629v226h209v401h-187v225h437z" glyph-name="uni00B9" horiz-adv-x="782" unicode="¹"/><glyph d="M274 1063l422 -457v-92l-422 -455l-223 195l266 307l-266 307zM879 1063l421 -457v-92l-421 -455l-224 195l267 307l-267 307z" glyph-name="guillemotright" horiz-adv-x="1347" unicode="»"/><glyph d="M709 725v-225h-629v225h209v401h-187v226h437v-627h170zM1300 1352h277l-782 -1352h-275zM1972 324v-205h-92v-119h-229v119h-441v65l248 668h258l-198 -528h133v194h229v-194h92z" glyph-name="onequarter" horiz-adv-x="1984" unicode="¼"/><glyph d="M709 725v-225h-629v225h209v401h-187v226h437v-627h170zM1300 1352h277l-782 -1352h-275zM1974 225v-225l-665 -2v51l305 336q92 102 92 178t-71 76t-70 -84q0 -6 4 -55h-250q-8 35 -8 71q0 117 91 207t232 90t234.5 -80.5t93.5 -205.5q0 -88 -47 -165t-139 -177l-15 -15 h213z" glyph-name="onehalf" horiz-adv-x="2052" unicode="½"/><glyph d="M684 786q0 -129 -97.5 -216t-227.5 -87t-217 56.5t-130 154.5l172 121q66 -102 155 -102t89 73q0 68 -131 68h-109v61l136 211h-240v226h590v-66l-158 -244q72 -33 120 -99.5t48 -156.5zM1192 1352h276l-782 -1352h-274zM1864 324v-205h-92v-119h-230v119h-440v65 l248 668h258l-199 -528h133v194h230v-194h92z" glyph-name="threequarters" horiz-adv-x="1875" unicode="¾"/><glyph d="M862 1169l209 -208l-291 -289l291 -289l-209 -209l-291 289l-288 -289l-209 209l288 289l-288 289l209 208l290 -288z" glyph-name="multiply" unicode="×"/><glyph d="M571 1249q84 0 143.5 -54t59.5 -134t-59.5 -135.5t-143.5 -55.5t-142 55.5t-58 135.5t58 134t142 54zM1071 811v-295h-997v295h997zM571 457q84 0 143.5 -55.5t59.5 -135.5t-59.5 -134t-143.5 -54t-142 54t-58 134t58 135.5t142 55.5z" glyph-name="divide" unicode="÷"/><glyph d="M782 1376q100 0 168 -24v-295q-61 4 -94 4q-150 0 -168 -135l-10 -86h172v-295h-207l-49 -402q-49 -416 -442 -415q-98 0 -166 24l-2 295q61 -4 94 -4q150 0 168 135l45 367h-144v295h179l14 121q49 415 442 415z" glyph-name="florin" horiz-adv-x="933" unicode="ƒ"/><glyph d="M823 1546q0 -166 -106.5 -273.5t-274.5 -107.5t-274.5 107.5t-106.5 273.5h273q0 -57 29.5 -90t79 -33t79 33t29.5 90h272z" glyph-name="breve" horiz-adv-x="884" unicode="˘"/><glyph d="M276.5 1595q90.5 0 154 -59.5t63.5 -147.5t-63.5 -148t-154 -60t-153 59t-62.5 147.5t62.5 148.5t153 60z" glyph-name="dotaccent" horiz-adv-x="555" unicode="˙"/><glyph d="M555 1597v-61l-260 -360h-234l132 421h362zM1004 1597v-61l-261 -360h-233l131 421h363z" glyph-name="hungarumlaut" horiz-adv-x="1064" unicode="˝"/><glyph d="M-381 -451v361h320l-54 -361h-266z" glyph-name="uni0326" horiz-adv-x="0" unicode="̦"/><glyph d="M1067 -20q-160 0 -244 93t-84 271v385h-272v-729h-352v1024h977v-623q0 -111 79 -110q25 0 56 2v-293q-78 -20 -160 -20z" glyph-name="pi" horiz-adv-x="1247" unicode="π"/><glyph d="M162 1864h424l131 -381h-254l-301 319v62zM1073 1352v-318h-586v-186h418v-295h-418v-236h611v-317h-963v1352h938z" glyph-name="uni0400" horiz-adv-x="1181" unicode="Ѐ"/><glyph d="M312 1866q81 0 139.5 -55.5t58.5 -134.5t-59.5 -136t-138.5 -57t-140 58t-61 135t60 133.5t141 56.5zM875 1864q81 0 139.5 -55.5t58.5 -134.5t-59.5 -136t-138.5 -57t-140 58t-61 135t60 133.5t141 56.5zM1073 1352v-318h-586v-186h418v-295h-418v-236h611v-317h-963 v1352h938z" glyph-name="afii10023" horiz-adv-x="1181" unicode="Ё"/><glyph d="M1184 1352v-318h-406v-168h223q227 0 375 -121.5t148 -327.5t-144.5 -313.5t-363.5 -128.5l-70 310q168 25 193.5 65.5t25.5 89.5t-42 84t-115 35h-230v-559h-352v1034h-406v318h1164z" glyph-name="afii10051" horiz-adv-x="1587" unicode="Ђ"/><glyph d="M1012 1864v-62l-301 -319h-254l131 381h424zM1047 1352v-318h-560v-1034h-352v1352h912z" glyph-name="afii10052" horiz-adv-x="1095" unicode="Ѓ"/><glyph d="M795 299q221 0 352 221l268 -182q-92 -172 -254 -267.5t-366 -95.5q-307 0 -518 201t-211 499t211.5 499.5t519.5 201.5q203 0 364.5 -95t253.5 -267l-268 -183q-131 221 -352 222q-115 0 -203 -54.5t-131 -150.5h489v-295h-508q35 -119 128.5 -186.5t224.5 -67.5z" glyph-name="afii10053" horiz-adv-x="1480" unicode="Є"/><glyph d="M580 1376q326 0 462 -272l-235 -180q-49 74 -100.5 108.5t-122.5 34.5q-121 0 -121 -86q0 -37 25.5 -60.5t91.5 -50.5l155 -65q176 -74 261 -169t85 -239q0 -195 -140 -309q-141 -114 -339 -113.5t-339.5 82.5t-215.5 222l238 180q129 -174 301 -174q139 0 139 98 q0 45 -28.5 67.5t-108.5 57.5l-139 61q-342 150 -343 408q0 180 132.5 289.5t341.5 109.5z" glyph-name="afii10054" unicode="Ѕ"/><glyph d="M487 1352v-1352h-352v1352h352z" glyph-name="afii10055" horiz-adv-x="622" unicode="І"/><glyph d="M32 1866q81 0 139 -55.5t58 -134.5t-59 -136t-138 -57t-140.5 58t-61.5 135t60.5 133.5t141.5 56.5zM595 1864q81 0 139.5 -55.5t58.5 -134.5t-59.5 -136t-138.5 -57t-140.5 58t-61.5 135t60.5 133.5t141.5 56.5zM487 1352v-1352h-352v1352h352z" glyph-name="afii10056" horiz-adv-x="622" unicode="Ї"/><glyph d="M682 1352v-961q0 -207 -115.5 -311.5t-335.5 -104.5q-104 0 -206 25v299q111 -4 129 -4q96 0 136 30.5t40 104.5v922h352z" glyph-name="afii10057" horiz-adv-x="817" unicode="Ј"/><glyph d="M1239 1352v-420h213q225 0 373.5 -130t148.5 -339t-147.5 -336t-374.5 -127h-565v1034h-260q0 -718 -167 -857.5t-256 -164t-204 -24.5v329q152 0 222.5 169t70.5 581v285h946zM1454 625h-215v-318h215q74 0 118 43t44 115t-44 116t-118 44z" glyph-name="afii10058" horiz-adv-x="2037" unicode="Љ"/><glyph d="M1313 1352v-420h213q225 0 373.5 -130t148.5 -339t-147.5 -336t-374.5 -127h-565v541h-474v-541h-352v1352h352v-494h474v494h352zM1528 625h-215v-318h215q74 0 118 43t44 115t-44 116t-118 44z" glyph-name="afii10059" horiz-adv-x="2111" unicode="Њ"/><glyph d="M971 864q260 0 409.5 -159.5t149.5 -415.5v-289h-352v274q0 135 -56.5 201t-187.5 66q-70 0 -156 -21v-520h-352v1034h-406v318h1164v-318h-406v-194q89 24 193 24z" glyph-name="afii10060" horiz-adv-x="1642" unicode="Ћ"/><glyph d="M1092 1864v-62l-301 -319h-254l131 381h424zM487 0h-352v1352h352v-613l447 613h409l-464 -643l540 -709h-418l-514 674v-674z" glyph-name="afii10061" horiz-adv-x="1423" unicode="Ќ"/><glyph d="M289 1864h424l131 -381h-254l-301 319v62zM1354 1376v-1376h-353v707l-753 -732h-113v1377h352v-697l754 721h113z" glyph-name="uni040D" horiz-adv-x="1488" unicode="Ѝ"/><glyph d="M713 1483q-168 0 -274.5 107.5t-106.5 273.5h272q0 -57 30 -90t79 -33t78.5 32.5t29.5 90.5h273q0 -166 -106.5 -273.5t-274.5 -107.5zM352 -25q-94 0 -196 25v303q98 -4 118 -4q152 0 218 80l-478 973h410l262 -584l225 584h404l-447 -1039q-145 -338 -516 -338z" glyph-name="afii10062" horiz-adv-x="1318" unicode="Ў"/><glyph d="M1292 1352v-1352h-401v-289h-352v289h-404v1352h352v-1035h453v1035h352z" glyph-name="afii10145" horiz-adv-x="1427" unicode="Џ"/><glyph d="M967 0l-49 113h-486l-49 -113h-379l614 1376h113l615 -1376h-379zM793 395l-117 314l-119 -314h236z" glyph-name="afii10017" horiz-adv-x="1349" unicode="А"/><glyph d="M1053 1352v-318h-566v-217h279q201 0 329 -108.5t128 -293.5t-129 -300t-328 -115h-631v1352h918zM743 535h-256v-238h256q135 0 135 119t-135 119z" glyph-name="afii10018" horiz-adv-x="1277" unicode="Б"/><glyph d="M766 0h-631v1352h488q197 0 326.5 -111t129.5 -289q0 -135 -82 -227q225 -90 226 -324q0 -176 -130 -288.5t-327 -112.5zM600 1055h-127v-238h127q63 0 99 33t36 86t-36 86t-99 33zM743 297q135 0 135.5 119t-135.5 119h-270v-238h270z" glyph-name="afii10019" horiz-adv-x="1277" unicode="В"/><glyph d="M1047 1352v-318h-560v-1034h-352v1352h912z" glyph-name="afii10020" horiz-adv-x="1095" unicode="Г"/><glyph d="M1307 317h190v-606h-352v289h-752v-289h-352v606h102q135 106 196.5 283.5t61.5 486.5v265h906v-1035zM954 317v717h-219q-8 -471 -198 -717h417z" glyph-name="afii10021" horiz-adv-x="1538" unicode="Д"/><glyph d="M1073 1352v-318h-586v-186h418v-295h-418v-236h611v-317h-963v1352h938z" glyph-name="afii10022" horiz-adv-x="1181" unicode="Е"/><glyph d="M1247 0h-352v672l-473 -672h-418l541 709l-465 643h409l406 -609v609h352v-609l406 609h409l-465 -643l541 -709h-418l-473 672v-672z" glyph-name="afii10024" horiz-adv-x="2142" unicode="Ж"/><glyph d="M1147 408.5q0 -195.5 -153.5 -314.5t-361.5 -119t-351.5 86t-214.5 238l243 172q115 -172 301 -172q84 0 138.5 30.5t54.5 88t-37 87.5t-98 30h-258v282h196q61 0 98 32t37 85t-43 86t-110 33q-154 0 -269 -172l-243 172q70 147 207 235t324.5 88t332.5 -119.5 t145.5 -288t-112.5 -268.5q174 -96 174 -291.5z" glyph-name="afii10025" horiz-adv-x="1212" unicode="З"/><glyph d="M1354 1376v-1376h-353v707l-753 -732h-113v1377h352v-697l754 721h113z" glyph-name="afii10026" horiz-adv-x="1488" unicode="И"/><glyph d="M719 1483q-168 0 -274.5 107.5t-106.5 273.5h272q0 -57 30 -90t79 -33t78.5 32.5t29.5 90.5h273q0 -166 -106.5 -273.5t-274.5 -107.5zM1354 1376v-1376h-353v707l-753 -732h-113v1377h352v-697l754 721h113z" glyph-name="afii10027" horiz-adv-x="1488" unicode="Й"/><glyph d="M487 0h-352v1352h352v-613l447 613h409l-464 -643l540 -709h-418l-514 674v-674z" glyph-name="afii10028" horiz-adv-x="1423" unicode="К"/><glyph d="M293 1352h946v-1352h-352v1034h-260q-6 -721 -171 -859t-252 -162.5t-204 -24.5v329q152 0 222.5 169t70.5 581v285z" glyph-name="afii10029" horiz-adv-x="1374" unicode="Л"/><glyph d="M1511 1376v-1376h-352v567l-280 -327h-113l-279 325v-565h-352v1376h113l575 -702l576 702h112z" glyph-name="afii10030" horiz-adv-x="1646" unicode="М"/><glyph d="M1333 1352v-1352h-352v541h-494v-541h-352v1352h352v-494h494v494h352z" glyph-name="afii10031" horiz-adv-x="1468" unicode="Н"/><glyph d="M792.5 1376q305.5 0 518.5 -201.5t213 -498.5t-213 -499t-518.5 -202t-516 202t-210.5 499t210.5 498.5t516 201.5zM793 1053q-162 0 -264.5 -104.5t-102.5 -273.5t102.5 -272.5t264.5 -103.5t266 103.5t104 272.5t-104 273.5t-266 104.5z" glyph-name="afii10032" horiz-adv-x="1589" unicode="О"/><glyph d="M1292 1352v-1352h-352v1034h-453v-1034h-352v1352h1157z" glyph-name="afii10033" horiz-adv-x="1427" unicode="П"/><glyph d="M666 1352q227 0 374.5 -127t147.5 -336t-148.5 -339t-373.5 -130h-179v-420h-352v1352h531zM668 1044h-181v-317h181q74 0 117.5 44t43.5 115.5t-43.5 114.5t-117.5 43z" glyph-name="afii10034" horiz-adv-x="1243" unicode="Р"/><glyph d="M797 1376q203 0 364.5 -95t253.5 -267l-268 -183q-131 221 -352 222q-162 0 -265.5 -104.5t-103.5 -274.5t102.5 -272.5t266.5 -102.5q221 0 352 221l268 -182q-92 -172 -254 -267.5t-366 -95.5q-307 0 -518 201t-211 499t212 499.5t519 201.5z" glyph-name="afii10035" horiz-adv-x="1480" unicode="С"/><glyph d="M1184 1352v-318h-406v-1034h-352v1034h-406v318h1164z" glyph-name="afii10036" horiz-adv-x="1204" unicode="Т"/><glyph d="M352 -25q-94 0 -196 25v303q98 -4 118 -4q152 0 218 80l-478 973h410l262 -584l225 584h404l-447 -1039q-145 -338 -516 -338z" glyph-name="afii10037" horiz-adv-x="1318" unicode="У"/><glyph d="M1704 688q0 -268 -178 -426t-465 -162v-166h-352v166q-285 4 -464 162t-179 426t178 422t465 158v153h352v-153q287 -4 465 -158t178 -422zM406 678q0 -135 78.5 -207t224.5 -74v574q-143 -2 -223 -80t-80 -213zM1364 678q0 135 -80 213t-223 80v-574q145 2 224 74 t79 207z" glyph-name="afii10038" horiz-adv-x="1769" unicode="Ф"/><glyph d="M1272 0h-398l-237 379l-236 -379h-397l440 686l-415 666h397l211 -361l211 361h397l-409 -666z" glyph-name="afii10039" horiz-adv-x="1275" unicode="Х"/><glyph d="M1292 1352v-1035h191v-606h-353v289h-995v1352h352v-1035h453v1035h352z" glyph-name="afii10040" horiz-adv-x="1523" unicode="Ц"/><glyph d="M860 1352h352v-1352h-352v410q-104 -25 -205 -25q-262 0 -425.5 145.5t-163.5 403.5v418h352v-383q0 -123 68 -191.5t168 -68.5t206 36v607z" glyph-name="afii10041" horiz-adv-x="1347" unicode="Ч"/><glyph d="M2011 1352v-1352h-1876v1352h352v-1035h410v1035h352v-1035h410v1035h352z" glyph-name="afii10042" horiz-adv-x="2146" unicode="Ш"/><glyph d="M2011 1352v-1035h191v-606h-353v289h-1714v1352h352v-1035h410v1035h352v-1035h410v1035h352z" glyph-name="afii10043" horiz-adv-x="2242" unicode="Щ"/><glyph d="M537 1352v-420h213q225 0 373.5 -130t148.5 -339t-147.5 -336t-374.5 -127h-566v1034h-204v318h557zM752 625h-215v-318h215q74 0 117.5 43t43.5 115t-43.5 116t-117.5 44z" glyph-name="afii10044" horiz-adv-x="1335" unicode="Ъ"/><glyph d="M487 1352v-420h213q225 0 374 -130t149 -339t-147.5 -336t-375.5 -127h-565v1352h352zM1774 1352v-1352h-353v1352h353zM702 625h-215v-318h215q74 0 118 43t44 115t-44 116t-118 44z" glyph-name="afii10045" horiz-adv-x="1908" unicode="Ы"/><glyph d="M487 1352v-420h213q225 0 374 -130t149 -339t-147.5 -336t-375.5 -127h-565v1352h352zM702 625h-215v-318h215q74 0 118 43t44 115t-44 116t-118 44z" glyph-name="afii10046" horiz-adv-x="1286" unicode="Ь"/><glyph d="M684 1376q307 0 519 -201.5t212 -499.5t-211 -499t-518 -201q-205 0 -366.5 95.5t-253.5 267.5l268 182q131 -221 352 -221q131 0 224.5 67.5t127.5 186.5h-508v295h490q-43 96 -131 150.5t-203 54.5q-221 0 -352 -222l-268 183q92 172 253.5 267t364.5 95z" glyph-name="afii10047" horiz-adv-x="1480" unicode="Э"/><glyph d="M1354 1376q301 0 514 -202.5t213 -498.5t-213 -498t-514 -202q-262 0 -457 159t-242 407h-168v-541h-352v1352h352v-494h179q59 229 247.5 373.5t440.5 144.5zM1353.5 299q157.5 0 262 104.5t104.5 271.5t-104.5 272.5t-262 105.5t-262 -105.5t-104.5 -272.5 t104.5 -271.5t262 -104.5z" glyph-name="afii10048" horiz-adv-x="2146" unicode="Ю"/><glyph d="M702 1352h494v-1352h-352v354h-178l-232 -354h-393l299 463q-197 143 -197 379t158.5 373t400.5 137zM844 662v382h-148q-86 0 -140 -53t-54 -137t54 -138t140 -54h148z" glyph-name="afii10049" horiz-adv-x="1331" unicode="Я"/><glyph d="M565 1049q215 0 340 -117t125 -338v-594h-321v84q-115 -109 -288 -109t-266.5 91.5t-93.5 230.5t107.5 220t294.5 81h215v16q0 59 -38 95t-113 36t-131 -29.5t-130 -94.5l-164 223q201 205 463 205zM522 225q68 0 112 40t44 110v8h-166q-94 0 -94 -79t104 -79z" glyph-name="afii10065" horiz-adv-x="1136" unicode="а"/><glyph d="M717 989q195 0 331 -145.5t136 -360.5t-149.5 -360.5t-395.5 -145.5t-397.5 166t-151.5 455v59q0 373 150.5 569.5t459.5 262.5l347 72l67 -306l-321 -69q-307 -63 -334 -295q104 98 258 98zM637 297q78 0 132 53t54 134t-54 133.5t-132 52.5t-132 -52.5t-54 -133.5 t54 -134t132 -53z" glyph-name="afii10066" horiz-adv-x="1247" unicode="б"/><glyph d="M1081 324q0 -148 -106.5 -236t-263.5 -88h-588v1024h500q166 0 275.5 -80t109.5 -219q0 -104 -70 -178q143 -75 143 -223zM455 750v-109h153q76 0 76 54t-76 55h-153zM680 279q80 0 80 65.5t-80 65.5h-225v-131h225z" glyph-name="afii10067" horiz-adv-x="1144" unicode="в"/><glyph d="M915 1024v-295h-440v-729h-352v1024h792z" glyph-name="afii10068" horiz-adv-x="950" unicode="г"/><glyph d="M1190 295h190v-584h-352v289h-635v-289h-352v584h102q94 76 138.5 205t44.5 354v170h864v-729zM838 295v434h-160q-6 -287 -123 -434h283z" glyph-name="afii10069" horiz-adv-x="1421" unicode="д"/><glyph d="M1100 563q0 -92 -23 -174h-655q57 -117 229 -117q137 0 269 80l127 -239q-182 -137 -421 -137.5t-401 152.5t-162 382t158 384t384 155t360.5 -141.5t134.5 -344.5zM598 772q-68 0 -118 -40t-70 -114h356q-2 70 -51 112t-117 42z" glyph-name="afii10070" horiz-adv-x="1163" unicode="е"/><glyph d="M1087 0h-352v518l-348 -518h-387l365 553l-340 471h407l303 -430v430h352v-430l304 430h407l-340 -471l365 -553h-387l-349 518v-518z" glyph-name="afii10072" horiz-adv-x="1822" unicode="ж"/><glyph d="M987 285q0 -147 -131 -228.5t-340 -81.5q-311 0 -465 187l189 211q100 -100 278 -101q131 0 131 64q0 57 -94 57h-190v246h170q74 0 73 55q0 57 -110 58q-168 0 -258 -90l-189 210q152 176 449 177q201 0 325.5 -83t124.5 -221.5t-96 -224.5q133 -88 133 -235z" glyph-name="afii10073" horiz-adv-x="1058" unicode="з"/><glyph d="M1141 1049v-1049h-353v446l-552 -471h-113v1049h352v-446l553 471h113z" glyph-name="afii10074" horiz-adv-x="1263" unicode="и"/><glyph d="M645 1165q-168 0 -274.5 107.5t-106.5 273.5h273q0 -57 29.5 -90t78.5 -33t79 33t30 90h272q0 -166 -106.5 -273.5t-274.5 -107.5zM1141 1049v-1049h-353v446l-552 -471h-113v1049h352v-446l553 471h113z" glyph-name="afii10075" horiz-adv-x="1263" unicode="й"/><glyph d="M475 0h-352v1024h352v-446l344 446h391l-366 -463l391 -561h-391l-369 532v-532z" glyph-name="afii10076" horiz-adv-x="1234" unicode="к"/><glyph d="M242 1024h888v-1024h-350v729h-188v-84q0 -657 -572 -657v307q117 0 169.5 107.5t52.5 392.5v229z" glyph-name="afii10077" horiz-adv-x="1253" unicode="л"/><glyph d="M1305 1049v-1049h-353v367l-184 -195h-113l-180 193v-365h-352v1049h113l477 -514l483 514h109z" glyph-name="afii10078" horiz-adv-x="1427" unicode="м"/><glyph d="M1126 1024v-1024h-352v375h-299v-375h-352v1024h352v-354h299v354h352z" glyph-name="afii10079" horiz-adv-x="1249" unicode="н"/><glyph d="M620 1049q232 0 396 -155t164 -382t-164 -382t-396 -155t-394.5 155t-162.5 382t162.5 382t394.5 155zM621 725q-86 0 -141.5 -59.5t-55.5 -154.5t55.5 -153.5t141.5 -58.5t142 59.5t56 152.5t-56 153.5t-142 60.5z" glyph-name="afii10080" horiz-adv-x="1243" unicode="о"/><glyph d="M1110 1024v-1024h-352v729h-283v-729h-352v1024h987z" glyph-name="afii10081" horiz-adv-x="1232" unicode="п"/><glyph d="M746 1049q206 0 344.5 -149.5t138.5 -385t-138.5 -387.5t-353.5 -152q-162 0 -262 95v-439h-352v1393h321v-106q96 131 302 131zM668 295q82 0 141 57.5t59 159.5t-58 159.5t-141 57.5t-141.5 -55.5t-58.5 -159.5t58.5 -161.5t140.5 -57.5z" glyph-name="afii10082" horiz-adv-x="1292" unicode="р"/><glyph d="M623 1049q158 0 276.5 -74t181.5 -201l-243 -186q-88 137 -211 137q-92 0 -147.5 -59.5t-55.5 -153.5t55.5 -153.5t147.5 -59.5q123 0 211 135l243 -184q-63 -127 -182 -201t-276 -74q-236 0 -398 155t-162 382t162 382t398 155z" glyph-name="afii10083" horiz-adv-x="1132" unicode="с"/><glyph d="M958 1028v-295h-299v-733h-352v733h-297v295h948z" glyph-name="afii10084" horiz-adv-x="968" unicode="т"/><glyph d="M240 -393q-94 0 -197 24v295q99 -4 145 -4q119 0 174 121l17 35l-375 946h375l196 -575l220 575h372l-481 -1079q-78 -174 -183.5 -256t-262.5 -82z" glyph-name="afii10085" horiz-adv-x="1171" unicode="у"/><glyph d="M1620 516q0 -250 -170 -393t-432 -148v-344h-352v344q-260 4 -431.5 147.5t-171.5 392.5t170 389t433 145v487h352v-487q262 -4 432 -143.5t170 -389.5zM406 511q0 -118 70.5 -179.5t193.5 -61.5h6v484h-6q-123 0 -193.5 -62.5t-70.5 -180.5zM1014 270q125 0 195.5 61.5 t70.5 179.5t-70.5 180.5t-195.5 62.5h-6v-484h6z" glyph-name="afii10086" horiz-adv-x="1683" unicode="ф"/><glyph d="M1133 0h-392l-176 268l-174 -268h-391l371 526l-351 498h392l153 -242l156 242h391l-350 -498z" glyph-name="afii10087" horiz-adv-x="1132" unicode="х"/><glyph d="M1087 1024v-729h191v-584h-352v289h-803v1024h350v-729h264v729h350z" glyph-name="afii10088" horiz-adv-x="1318" unicode="ц"/><glyph d="M713 1024h352v-1024h-352v326q-66 -18 -146 -19q-215 0 -359.5 134t-144.5 362v221h353v-197q0 -94 48 -145t134 -51q49 0 115 16v377z" glyph-name="afii10089" horiz-adv-x="1187" unicode="ч"/><glyph d="M1706 1024v-1024h-1583v1024h350v-729h266v729h351v-729h266v729h350z" glyph-name="afii10090" horiz-adv-x="1828" unicode="ш"/><glyph d="M1706 1024v-729h190v-584h-352v289h-1421v1024h350v-729h266v729h351v-729h266v729h350z" glyph-name="afii10091" horiz-adv-x="1937" unicode="щ"/><glyph d="M549 1024v-217h147q197 0 326 -106.5t129 -297t-129 -297t-326 -106.5h-499v729h-197v295h549zM670 512h-121v-217h121q51 0 87 25.5t36 79t-37 83t-86 29.5z" glyph-name="afii10092" horiz-adv-x="1214" unicode="ъ"/><glyph d="M475 1024v-217h148q197 0 325.5 -106.5t128.5 -297t-129 -297t-325 -106.5h-500v1024h352zM1567 1024v-1024h-353v1024h353zM596 512h-121v-217h121q51 0 87 25.5t36 79t-37 83t-86 29.5z" glyph-name="afii10093" horiz-adv-x="1689" unicode="ы"/><glyph d="M475 1024v-217h148q197 0 325.5 -106.5t128.5 -297t-129 -297t-325 -106.5h-500v1024h352zM596 512h-121v-217h121q51 0 87 25.5t36 79t-37 83t-86 29.5z" glyph-name="afii10094" horiz-adv-x="1140" unicode="ь"/><glyph d="M506 1049q240 0 401.5 -154t161.5 -383t-162 -383t-401 -154q-295 0 -455 273l232 176q96 -141 227 -141t190 114l-303 2v230h299q-57 113 -187 113t-226 -142l-232 176q160 273 455 273z" glyph-name="afii10095" horiz-adv-x="1132" unicode="э"/><glyph d="M1169 1049q229 0 393 -155t164 -382t-163.5 -382t-393.5 -155q-190 0 -334.5 111t-189.5 289h-170v-375h-352v1024h352v-354h176q49 168 191.5 273.5t326.5 105.5zM1167 299q86 0 142.5 59.5t56.5 153.5t-56.5 153.5t-142.5 59.5t-142 -59.5t-56 -153.5t56 -153.5 t142 -59.5z" glyph-name="afii10096" horiz-adv-x="1789" unicode="ю"/><glyph d="M580 1024h499v-1024h-352v217h-127l-184 -217h-391l245 311q-145 109 -145 305t129 302t326 106zM606 729q-51 0 -87 -25.5t-36 -79t37 -83t86 -29.5h121v217h-121z" glyph-name="afii10097" horiz-adv-x="1202" unicode="я"/><glyph d="M156 1597h424l131 -421h-254l-301 360v61zM1100 563q0 -92 -23 -174h-655q57 -117 229 -117q137 0 269 80l127 -239q-182 -137 -421 -137.5t-401 152.5t-162 382t158 384t384 155t360.5 -141.5t134.5 -344.5zM598 772q-68 0 -118 -40t-70 -114h356q-2 70 -51 112t-117 42 z" glyph-name="uni0450" horiz-adv-x="1163" unicode="ѐ"/><glyph d="M322 1196q-79 0 -140 58.5t-61 135t60.5 133t141 56.5t139 -55.5t58.5 -134.5t-59.5 -136t-138.5 -57zM845 1196q-79 0 -140.5 58.5t-61.5 135t60.5 133t141.5 56.5t139 -55.5t58 -134.5t-59 -136t-138 -57zM1100 563q0 -92 -23 -174h-655q57 -117 229 -117q137 0 269 80 l127 -239q-182 -137 -421 -137.5t-401 152.5t-162 382t158 384t384 155t360.5 -141.5t134.5 -344.5zM598 772q-68 0 -118 -40t-70 -114h356q-2 70 -51 112t-117 42z" glyph-name="afii10071" horiz-adv-x="1163" unicode="ё"/><glyph d="M761 967q165 0 270.5 -115t105.5 -303v-526q0 -205 -114 -310.5t-316 -105.5q-100 0 -170 24v295q61 -4 79 -4q90 0 129 32t39 103v441q0 68 -42 109.5t-107.5 41.5t-106.5 -42t-41 -109v-498h-352v1092h-155v284h155v160h352v-160h377v-284h-377v-222q109 97 274 97z " glyph-name="afii10099" horiz-adv-x="1249" unicode="ђ"/><glyph d="M936 1597v-61l-301 -360h-254l131 421h424zM915 1024v-295h-440v-729h-352v1024h792z" glyph-name="afii10100" horiz-adv-x="950" unicode="ѓ"/><glyph d="M623 283q131 0 227 141l231 -176q-160 -272 -454 -273q-240 0 -402 154t-162 383t162 383t402 154q295 0 454 -273l-231 -176q-96 141 -226 141t-188 -112h299v-230l-303 -2q60 -114 191 -114z" glyph-name="afii10101" horiz-adv-x="1144" unicode="є"/><glyph d="M485 1051q240 0 385 -152l-165 -215q-104 88 -218 88q-72 0 -71 -39q0 -26 21.5 -35.5t47.5 -19.5l103 -41q154 -61 226.5 -131t72.5 -191q0 -158 -119 -249t-305 -91q-291 0 -440 197l163 209q131 -127 283 -127q90 0 90 45q0 27 -59 51l-115 47q-152 61 -224.5 135 t-72.5 210.5t108.5 222.5t288.5 86z" glyph-name="afii10102" horiz-adv-x="933" unicode="ѕ"/><glyph d="M289 1595q90 0 153.5 -59.5t63.5 -147.5t-63.5 -148t-153.5 -60t-152.5 59t-62.5 147.5t62.5 148.5t152.5 60zM467 1024v-1024h-352v1024h352z" glyph-name="afii10103" horiz-adv-x="581" unicode="і"/><glyph d="M32 1569q81 0 139 -55.5t58 -134.5t-59 -136t-138 -57t-140.5 59t-61.5 135t60.5 132.5t141.5 56.5zM554 1569q81 0 139.5 -55.5t58.5 -134.5t-59.5 -136t-138.5 -57t-140.5 59t-61.5 135t60.5 132.5t141.5 56.5zM467 1024v-1024h-352v1024h352z" glyph-name="afii10104" horiz-adv-x="581" unicode="ї"/><glyph d="M289 1595q90 0 153.5 -59.5t63.5 -147.5t-63.5 -148t-153.5 -60t-152.5 59t-62.5 147.5t62.5 148.5t152.5 60zM467 1024v-1001q0 -205 -113.5 -310.5t-316.5 -105.5q-100 0 -170 24v295q61 -4 80 -4q90 0 129 32t39 103v967h352z" glyph-name="afii10105" horiz-adv-x="581" unicode="ј"/><glyph d="M1278 807q197 0 326 -106.5t129 -297t-129 -297t-326 -106.5h-498v729h-188v-84q0 -657 -572 -657v307q117 0 169.5 107.5t52.5 392.5v229h888v-217h148zM1251 295q51 0 87 25.5t36 79t-37 83t-86 29.5h-121v-217h121z" glyph-name="afii10106" horiz-adv-x="1796" unicode="љ"/><glyph d="M1264 807q197 0 325.5 -106.5t128.5 -297t-129 -297t-325 -106.5h-500v375h-289v-375h-352v1024h352v-354h289v354h352v-217h148zM1237 295q51 0 87 25.5t36 79t-37 83t-86 29.5h-121v-217h121z" glyph-name="afii10107" horiz-adv-x="1781" unicode="њ"/><glyph d="M761 967q165 0 270.5 -115t105.5 -303v-549h-353v498q0 68 -42 109.5t-107.5 41.5t-106.5 -42t-41 -109v-498h-352v1092h-155v284h155v160h352v-160h377v-284h-377v-222q109 97 274 97z" glyph-name="afii10108" horiz-adv-x="1249" unicode="ћ"/><glyph d="M1065 1597v-61l-301 -360h-254l131 421h424zM475 0h-352v1024h352v-446l344 446h391l-366 -463l391 -561h-391l-369 532v-532z" glyph-name="afii10109" horiz-adv-x="1234" unicode="ќ"/><glyph d="M219 1597h424l131 -421h-254l-301 360v61zM1141 1049v-1049h-353v446l-552 -471h-113v1049h352v-446l553 471h113z" glyph-name="uni045D" horiz-adv-x="1263" unicode="ѝ"/><glyph d="M586 1165q-168 0 -274.5 107.5t-106.5 273.5h272q0 -57 30 -90t79 -33t78.5 33t29.5 90h273q0 -166 -106.5 -273.5t-274.5 -107.5zM240 -393q-94 0 -197 24v295q99 -4 145 -4q119 0 174 121l17 35l-375 946h375l196 -575l220 575h372l-481 -1079q-78 -174 -183.5 -256 t-262.5 -82z" glyph-name="afii10110" horiz-adv-x="1171" unicode="ў"/><glyph d="M1090 1024v-1024h-308v-289h-352v289h-307v1024h350v-729h266v729h351z" glyph-name="afii10193" horiz-adv-x="1212" unicode="џ"/><glyph d="M487 1352v-99h521v-284h-521v-123h222q240 0 377 -115t137 -313.5t-139.5 -308t-383.5 -109.5h-565v969h-155v284h155v99h352zM711 543h-224v-236h224q72 0 112.5 32t40.5 85t-41.5 86t-111.5 33z" glyph-name="afii10146" horiz-adv-x="1286" unicode="Ѣ"/><glyph d="M487 1536v-430h398v-283h-398v-78h148q195 0 325 -97t130 -269t-130.5 -275.5t-324.5 -103.5h-500v823h-155v283h155v430h352zM608 471h-121v-176h121q123 0 123 88t-123 88z" glyph-name="afii10194" horiz-adv-x="1153" unicode="ѣ"/><glyph d="M792.5 1376q305.5 0 518.5 -201.5t213 -498.5t-213 -499t-518.5 -202t-516 202t-210.5 499t210.5 498.5t516 201.5zM792.5 1053q-112.5 0 -198.5 -52.5t-131 -146.5q77 31 149 31t181.5 -30t182.5 -30t148 31q-45 92 -132 144.5t-199.5 52.5zM795 299q129 0 225 70.5 t129 193.5q-84 -41 -165 -41t-190.5 30t-186.5 30t-163 -39q35 -113 128.5 -178.5t222.5 -65.5z" glyph-name="afii10147" horiz-adv-x="1589" unicode="Ѳ"/><glyph d="M622 1049q234 0 396 -155t162 -382t-162 -382t-396 -155t-396.5 155t-162.5 382t162.5 382t396.5 155zM628 752q-148 0 -208 -117q41 12 84 12t117.5 -20.5t120.5 -20.5t87 15q-53 131 -201 131zM616 272q150 0 207 119q-41 -12 -85 -12t-117.5 20.5t-119.5 20.5t-89 -14 q54 -134 204 -134z" glyph-name="afii10195" horiz-adv-x="1243" unicode="ѳ"/><glyph d="M1214 1376q88 0 168 -28v-301q-50 6 -90 6q-77 0 -133 -119l-428 -959h-113l-614 1377h399l273 -664l170 416q55 137 142 204.5t226 67.5z" glyph-name="afii10148" horiz-adv-x="1382" unicode="Ѵ"/><glyph d="M990 1049q100 0 169 -25v-295h-63q-78 0 -117 -76l-338 -678h-113l-524 1049h373l209 -461l108 242q55 125 125.5 184.5t170.5 59.5z" glyph-name="afii10196" horiz-adv-x="1159" unicode="ѵ"/><glyph d="M985 1599v-565h-498v-1034h-352v1352h498v247h352z" glyph-name="afii10050" horiz-adv-x="1034" unicode="Ґ"/><glyph d="M956 1294v-565h-481v-729h-352v1024h481v270h352z" glyph-name="afii10098" horiz-adv-x="991" unicode="ґ"/><glyph d="M1016 1034h-504v-258h397v-317h-397v-459h-352v459h-180v317h180v576h856v-318z" glyph-name="uni0492" horiz-adv-x="1073" unicode="Ғ"/><glyph d="M969 729h-482v-166h400v-284h-400v-279h-352v279h-155v284h155v461h834v-295z" glyph-name="uni0493" horiz-adv-x="1003" unicode="ғ"/><glyph d="M2138 317v-606h-352v289h-66l-473 672v-672h-352v672l-473 -672h-418l541 709l-465 643h409l406 -609v609h352v-609l406 609h409l-465 -641l299 -394h242z" glyph-name="uni0496" horiz-adv-x="2158" unicode="Җ"/><glyph d="M1847 295v-584h-352v289h-59l-349 518v-518h-352v518l-348 -518h-387l365 553l-340 471h407l303 -430v430h352v-430l304 430h407l-342 -471l170 -258h221z" glyph-name="uni0497" horiz-adv-x="1888" unicode="җ"/><glyph d="M1147 403q0 -147 -93 -252.5t-249 -148.5q29 -57 29 -119q0 -119 -94.5 -197.5t-256.5 -78.5q-80 0 -157 18v230q54 -2 116 -2q116 0 117 104v20q-170 12 -298 97.5t-195 224.5l243 172q115 -172 301 -172q84 0 138.5 30.5t54.5 88t-37 87.5t-98 30h-258v282h196 q61 0 98 32t37 85t-43 86t-110 33q-154 0 -269 -172l-243 172q70 147 207 235t324.5 88t332.5 -119.5t145 -288t-112 -268.5q174 -96 174 -297z" glyph-name="uni0498" horiz-adv-x="1212" unicode="Ҙ"/><glyph d="M987 283q0 -104 -70.5 -177t-193.5 -106q27 -57 27 -117q0 -119 -94.5 -197.5t-256.5 -78.5q-80 0 -157 18v230q54 -2 116 -2q116 0 117 104v18q-281 12 -424 187l189 211q100 -100 278 -101q131 0 131 64q0 57 -94 57h-190v246h170q74 0 73 55q0 57 -110 58 q-168 0 -258 -90l-189 210q152 176 449 177q201 0 325.5 -83t124.5 -221.5t-96 -224.5q133 -87 133 -237z" glyph-name="uni0499" horiz-adv-x="1058" unicode="ҙ"/><glyph d="M1419 317v-606h-352v289h-66l-514 674v-674h-352v1352h352v-613l447 613h409l-464 -641l299 -394h241z" glyph-name="uni049A" horiz-adv-x="1439" unicode="Қ"/><glyph d="M1247 295v-584h-352v289h-59l-361 522v-522h-352v1024h352v-434l336 434h391l-368 -463l188 -266h225z" glyph-name="uni049B" horiz-adv-x="1288" unicode="қ"/><glyph d="M569 0h-352v1034h-217v318h569v-613l447 613h409l-464 -643l540 -709h-418l-514 674v-674z" glyph-name="uni04A0" horiz-adv-x="1505" unicode="Ҡ"/><glyph d="M549 0h-352v729h-197v295h549v-446l344 446h391l-366 -463l391 -561h-391l-369 532v-532z" glyph-name="uni04A1" horiz-adv-x="1308" unicode="ҡ"/><glyph d="M1333 1352v-1035h191v-606h-353v289h-190v541h-494v-541h-352v1352h352v-494h494v494h352z" glyph-name="uni04A2" horiz-adv-x="1564" unicode="Ң"/><glyph d="M1126 1024v-729h191v-584h-373v289h-170v375h-299v-375h-352v1024h352v-354h299v354h352z" glyph-name="uni04A3" horiz-adv-x="1357" unicode="ң"/><glyph d="M795 299q221 0 352 221l268 -182q-145 -270 -436 -340q27 -57 27 -115q0 -119 -94.5 -197.5t-256.5 -78.5q-80 0 -157 18v230q54 -2 116 -2q116 0 117 104v20q-285 23 -475 219.5t-190 486.5t211.5 491.5t519.5 201.5q203 0 364.5 -95t253.5 -267l-268 -183 q-131 221 -352 222q-162 0 -265.5 -104.5t-103.5 -274.5t102.5 -272.5t266.5 -102.5z" glyph-name="uni04AA" horiz-adv-x="1480" unicode="Ҫ"/><glyph d="M627 299q123 0 211 135l243 -184q-92 -186 -284 -248q29 -53 28 -119q0 -119 -94 -197.5t-256 -78.5q-80 0 -158 18v230q55 -2 117 -2q118 0 117 104v23q-209 25 -348.5 174t-139.5 367t162 373t398 155q158 0 276.5 -74t181.5 -201l-243 -186q-88 137 -211 137 q-92 0 -147.5 -59.5t-55.5 -153.5t55.5 -153.5t147.5 -59.5z" glyph-name="uni04AB" horiz-adv-x="1132" unicode="ҫ"/><glyph d="M821 0h-352v514l-465 838h389l252 -471l252 471h387l-463 -834v-518z" glyph-name="uni04AE" horiz-adv-x="1288" unicode="Ү"/><glyph d="M760 -369h-352v508l-404 885h373l209 -520l207 520h372l-405 -891v-502z" glyph-name="uni04AF" horiz-adv-x="1169" unicode="ү"/><glyph d="M1192 590v-318h-348v-272h-352v272h-349v318h308l-424 762h389l252 -471l252 471h387l-424 -762h309z" glyph-name="uni04B0" horiz-adv-x="1333" unicode="Ұ"/><glyph d="M1067 285v-285h-299v-369h-352v369h-295v285h227l-336 739h373l209 -520l207 520h373l-336 -739h229z" glyph-name="uni04B1" horiz-adv-x="1185" unicode="ұ"/><glyph d="M1292 317v-606h-352v289h-66l-237 379l-236 -379h-397l440 686l-415 666h397l211 -361l211 361h397l-409 -666l235 -369h221z" glyph-name="uni04B2" horiz-adv-x="1312" unicode="Ҳ"/><glyph d="M1153 295v-584h-352v289h-60l-176 268l-174 -268h-391l371 526l-351 498h392l153 -242l156 242h391l-350 -498l162 -231h229z" glyph-name="uni04B3" horiz-adv-x="1193" unicode="ҳ"/><glyph d="M1212 317h191v-606h-352v289h-191v410q-104 -25 -205 -25q-262 0 -425.5 145.5t-163.5 403.5v418h352v-383q0 -123 68 -191.5t168 -68.5t206 36v607h352v-1035z" glyph-name="uni04B6" horiz-adv-x="1443" unicode="Ҷ"/><glyph d="M1065 295h190v-584h-352v289h-190v326q-66 -18 -146 -19q-215 0 -359.5 134t-144.5 362v221h353v-197q0 -94 48 -145t134 -51q49 0 115 16v377h352v-729z" glyph-name="uni04B7" horiz-adv-x="1296" unicode="ҷ"/><glyph d="M680 946q260 0 409.5 -159.5t149.5 -415.5v-371h-352v356q0 135 -56.5 201t-187.5 66q-70 0 -156 -21v-602h-352v1352h352v-430q91 24 193 24z" glyph-name="uni04BA" horiz-adv-x="1351" unicode="Һ"/><glyph d="M748 1049q165 0 270.5 -115t105.5 -303v-631h-352v580q0 68 -42 109.5t-107.5 41.5t-106.5 -42t-41 -109v-580h-352v1536h352v-584q108 97 273 97z" glyph-name="uni04BB" horiz-adv-x="1236" unicode="һ"/><glyph d="M487 1352v-1352h-352v1352h352z" glyph-name="uni04C0" horiz-adv-x="622" unicode="Ӏ"/><glyph d="M1071 1483q-168 0 -274.5 107.5t-106.5 273.5h273q0 -57 29.5 -90t78.5 -33t79 32.5t30 90.5h272q0 -166 -106.5 -273.5t-274.5 -107.5zM1247 0h-352v672l-473 -672h-418l541 709l-465 643h409l406 -609v609h352v-609l406 609h409l-465 -643l541 -709h-418l-473 672v-672 z" glyph-name="uni04C1" horiz-adv-x="2142" unicode="Ӂ"/><glyph d="M901 1165q-168 0 -274.5 107.5t-106.5 273.5h273q0 -57 29.5 -90t78.5 -33t79 33t30 90h272q0 -166 -106.5 -273.5t-274.5 -107.5zM1087 0h-352v518l-348 -518h-387l365 553l-340 471h407l303 -430v430h352v-430l304 430h407l-340 -471l365 -553h-387l-349 518v-518z" glyph-name="uni04C2" horiz-adv-x="1822" unicode="ӂ"/><glyph d="M475 1536v-1536h-352v1536h352z" glyph-name="uni04CF" horiz-adv-x="598" unicode="ӏ"/><glyph d="M676 1483q-168 0 -274.5 107.5t-106.5 273.5h272q0 -57 30 -90t79 -33t78.5 32.5t29.5 90.5h273q0 -166 -106.5 -273.5t-274.5 -107.5zM967 0l-49 113h-486l-49 -113h-379l614 1376h113l615 -1376h-379zM793 395l-117 314l-119 -314h236z" glyph-name="uni04D0" horiz-adv-x="1349" unicode="Ӑ"/><glyph d="M571 1165q-168 0 -274.5 107.5t-106.5 273.5h273q0 -57 29.5 -90t79 -33t79 33t29.5 90h272q0 -166 -106.5 -273.5t-274.5 -107.5zM565 1049q215 0 340 -117t125 -338v-594h-321v84q-115 -109 -288 -109t-266.5 91.5t-93.5 230.5t107.5 220t294.5 81h215v16q0 59 -38 95 t-113 36t-131 -29.5t-130 -94.5l-164 223q201 205 463 205zM522 225q68 0 112 40t44 110v8h-166q-94 0 -94 -79t104 -79z" glyph-name="uni04D1" horiz-adv-x="1136" unicode="ӑ"/><glyph d="M1704 317v-317h-780l-21 113h-467l-57 -113h-379l684 1352h995v-318h-587l30 -186h389v-295h-342l39 -236h496zM784 850l-211 -455h281z" glyph-name="uni04D4" horiz-adv-x="1787" unicode="Ӕ"/><glyph d="M1714 563q0 -94 -22 -176h-654q57 -115 226 -115q137 0 268 80l127 -239q-182 -137 -406 -138q-266 0 -415 181q-127 -180 -392 -181q-193 0 -289 89.5t-96 230.5t107.5 224t294.5 83h215v12q0 131 -154 131q-117 0 -258 -124l-164 223q201 205 463 205q211 0 336 -113 q131 113 338 113t341 -141.5t134 -344.5zM1213 772q-71 0 -122 -45t-71 -125h360q-2 78 -49 124t-118 46zM520 225q70 0 114 40t44 110v12h-166q-94 0 -94 -81t102 -81z" glyph-name="uni04D5" horiz-adv-x="1777" unicode="ӕ"/><glyph d="M973 1864q0 -166 -106.5 -273.5t-274.5 -107.5t-274.5 107.5t-106.5 273.5h272q0 -57 30 -90t79 -33t78.5 32.5t29.5 90.5h273zM1073 1352v-318h-586v-186h418v-295h-418v-236h611v-317h-963v1352h938z" glyph-name="uni04D6" horiz-adv-x="1181" unicode="Ӗ"/><glyph d="M582 1165q-168 0 -274.5 107.5t-106.5 273.5h272q0 -57 29.5 -90t79 -33t79 33t29.5 90h273q0 -166 -106.5 -273.5t-274.5 -107.5zM1100 563q0 -92 -23 -174h-655q57 -117 229 -117q137 0 269 80l127 -239q-182 -137 -421 -137.5t-401 152.5t-162 382t158 384t384 155 t360.5 -141.5t134.5 -344.5zM598 772q-68 0 -118 -40t-70 -114h356q-2 70 -51 112t-117 42z" glyph-name="uni04D7" horiz-adv-x="1163" unicode="ӗ"/><glyph d="M721 1376q299 0 508 -201.5t209 -497.5t-213 -499t-504 -203t-473 179.5t-182 451.5q0 115 22 197h977q-35 117 -128 184.5t-214 67.5q-201 0 -344 -197l-238 205q215 313 580 313zM716 299q116 0 203 54.5t130 152.5h-641q16 -100 104 -153.5t204 -53.5z" glyph-name="uni04D8" horiz-adv-x="1503" unicode="Ә"/><glyph d="M537.5 1049q238.5 0 400.5 -153t162 -382t-158 -384t-384 -155t-360.5 141.5t-134.5 344.5q0 92 23 174h655q-57 117 -229 117q-137 0 -268 -80l-127 239q182 138 420.5 138zM565 252q68 0 118 40t71 114h-357q2 -70 51 -112t117 -42z" glyph-name="afii10846" horiz-adv-x="1163" unicode="ә"/><glyph d="M1067 1800v-274h-696v274h696zM1354 1376v-1376h-353v707l-753 -732h-113v1377h352v-697l754 721h113z" glyph-name="uni04E2" horiz-adv-x="1488" unicode="Ӣ"/><glyph d="M973 1524v-275h-656v275h656zM1141 1049v-1049h-353v446l-552 -471h-113v1049h352v-446l553 471h113z" glyph-name="uni04E3" horiz-adv-x="1263" unicode="ӣ"/><glyph d="M515 1866q81 0 139.5 -55.5t58.5 -134.5t-59.5 -136t-138.5 -57t-140.5 58t-61.5 135t60.5 133.5t141.5 56.5zM1078 1864q81 0 139.5 -55.5t58.5 -134.5t-59.5 -136t-138.5 -57t-140 58t-61 135t60 133.5t141 56.5zM792.5 1376q305.5 0 518.5 -201.5t213 -498.5 t-213 -499t-518.5 -202t-516 202t-210.5 499t210.5 498.5t516 201.5zM793 1053q-162 0 -264.5 -104.5t-102.5 -273.5t102.5 -272.5t264.5 -103.5t266 103.5t104 272.5t-104 273.5t-266 104.5z" glyph-name="uni04E6" horiz-adv-x="1589" unicode="Ӧ"/><glyph d="M363 1579q81 0 139.5 -55.5t58.5 -134.5t-59.5 -136t-138.5 -57t-140 59t-61 135t60 132.5t141 56.5zM886 1579q81 0 139 -55.5t58 -134.5t-59 -136t-138 -57t-140.5 59t-61.5 135t60.5 132.5t141.5 56.5zM620 1049q232 0 396 -155t164 -382t-164 -382t-396 -155 t-394.5 155t-162.5 382t162.5 382t394.5 155zM621 725q-86 0 -141.5 -59.5t-55.5 -154.5t55.5 -153.5t141.5 -58.5t142 59.5t56 152.5t-56 153.5t-142 60.5z" glyph-name="uni04E7" horiz-adv-x="1243" unicode="ӧ"/><glyph d="M792.5 1376q305.5 0 518.5 -201.5t213 -498.5t-213 -499t-518.5 -202t-516 202t-210.5 499t210.5 498.5t516 201.5zM794 1053q-114 0 -202 -54.5t-131 -150.5h665q-43 96 -130.5 150.5t-201.5 54.5zM793 299q129 0 224 68.5t130 185.5h-705q35 -119 128.5 -186.5 t222.5 -67.5z" glyph-name="uni04E8" horiz-adv-x="1589" unicode="Ө"/><glyph d="M622 1049q234 0 396 -155t162 -382t-162 -382t-396 -155t-396.5 155t-162.5 382t162.5 382t396.5 155zM620.5 752q-149.5 0 -204.5 -125h411q-57 125 -206.5 125zM620.5 272q149.5 0 206.5 125h-411q55 -125 204.5 -125z" glyph-name="uni04E9" horiz-adv-x="1243" unicode="ө"/><glyph d="M1061 1800v-274h-696v274h696zM352 -25q-94 0 -196 25v303q98 -4 118 -4q152 0 218 80l-478 973h410l262 -584l225 584h404l-447 -1039q-145 -338 -516 -338z" glyph-name="uni04EE" horiz-adv-x="1318" unicode="Ӯ"/><glyph d="M913 1524v-275h-655v275h655zM240 -393q-94 0 -197 24v295q99 -4 145 -4q119 0 174 121l17 35l-375 946h375l196 -575l220 575h372l-481 -1079q-78 -174 -183.5 -256t-262.5 -82z" glyph-name="uni04EF" horiz-adv-x="1171" unicode="ӯ"/><glyph d="M838 1864v-62l-260 -319h-234l131 381h363zM1327 1864v-62l-260 -319h-233l131 381h362zM352 -25q-94 0 -196 25v303q98 -4 118 -4q152 0 218 80l-478 973h410l262 -584l225 584h404l-447 -1039q-145 -338 -516 -338z" glyph-name="uni04F2" horiz-adv-x="1318" unicode="Ӳ"/><glyph d="M731 1597v-61l-260 -360h-233l131 421h362zM1180 1597v-61l-260 -360h-234l131 421h363zM240 -393q-94 0 -197 24v295q99 -4 145 -4q119 0 174 121l17 35l-375 946h375l196 -575l220 575h372l-481 -1079q-78 -174 -183.5 -256t-262.5 -82z" glyph-name="uni04F3" horiz-adv-x="1171" unicode="ӳ"/><glyph glyph-name="uni2009" horiz-adv-x="303" unicode=" "/><glyph d="M963 813v-295h-902v295h902z" glyph-name="endash" horiz-adv-x="1024" unicode="–"/><glyph d="M1946 813v-295h-1844v295h1844z" glyph-name="emdash" horiz-adv-x="2048" unicode="—"/><glyph d="M1946 813v-295h-1844v295h1844z" glyph-name="afii00208" horiz-adv-x="2048" unicode="―"/><glyph d="M489 1352v-598h-399l133 598h266z" glyph-name="quoteleft" horiz-adv-x="645" unicode="‘"/><glyph d="M156 754v598h399l-133 -598h-266z" glyph-name="quoteright" horiz-adv-x="645" unicode="’"/><glyph d="M156 -301v598h399l-133 -598h-266z" glyph-name="quotesinglbase" horiz-adv-x="645" unicode="‚"/><glyph d="M489 1352v-598h-399l133 598h266zM1047 1352v-598h-400l133 598h267z" glyph-name="quotedblleft" horiz-adv-x="1202" unicode="“"/><glyph d="M156 754v598h399l-133 -598h-266zM713 754v598h399l-133 -598h-266z" glyph-name="quotedblright" horiz-adv-x="1202" unicode="”"/><glyph d="M156 -301v598h399l-133 -598h-266zM713 -301v598h399l-133 -598h-266z" glyph-name="quotedblbase" horiz-adv-x="1202" unicode="„"/><glyph d="M692 1536v-313h264v-295h-264v-522h-352v522h-264v295h264v313h352z" glyph-name="dagger" horiz-adv-x="1032" unicode="†"/><glyph d="M692 1536v-252h264v-295h-264v-248h264v-295h-264v-251h-352v251h-264v295h264v248h-264v295h264v252h352z" glyph-name="daggerdbl" horiz-adv-x="1032" unicode="‡"/><glyph d="M471 924q158 0 265.5 -105.5t107.5 -257t-107.5 -257t-265.5 -105.5t-266.5 105.5t-108.5 257t108.5 257t266.5 105.5z" glyph-name="bullet" horiz-adv-x="940" unicode="•"/><glyph d="M279 434q100 0 164.5 -66.5t64.5 -163.5t-64.5 -163t-164.5 -66t-166 65.5t-66 163.5t66 164t166 66zM821 434q100 0 165 -66.5t65 -163.5t-64.5 -163t-164.5 -66t-166 65.5t-66 163.5t65.5 164t165.5 66zM1364 434q100 0 164.5 -66.5t64.5 -163.5t-64.5 -163t-164.5 -66 t-165.5 65.5t-65.5 163.5t65.5 164t165.5 66z" glyph-name="ellipsis" horiz-adv-x="1638" unicode="…"/><glyph d="M432.5 1376q149.5 0 254 -97t104.5 -242.5t-104.5 -244t-254 -98.5t-254 98.5t-104.5 244t104.5 242.5t254 97zM1395 1352l-783 -1352h-274l780 1352h277zM431 1139q-42 0 -66.5 -28t-24.5 -75t24.5 -74.5t66.5 -27.5t67.5 27.5t25.5 73.5t-25.5 75t-67.5 29zM2076.5 662 q149.5 0 254 -97.5t104.5 -243t-104.5 -243.5t-254 -98t-254 98t-104.5 243.5t104.5 243t254 97.5zM1298.5 659q149.5 0 254 -97t104.5 -242.5t-104.5 -244t-254 -98.5t-254 98.5t-104.5 244t104.5 242.5t254 97zM2077 424q-41 0 -66.5 -27.5t-25.5 -75t24.5 -75t66.5 -27.5 t67.5 27.5t25.5 73.5t-25.5 75t-66.5 29zM1298 422q-41 0 -66.5 -27.5t-25.5 -75t24.5 -75t66.5 -27.5t68 27.5t26 73.5t-26 75t-67 29z" glyph-name="perthousand" horiz-adv-x="2510" unicode="‰"/><glyph d="M598 1352l-199 -598h-266l66 598h399z" glyph-name="minute" horiz-adv-x="645" unicode="′"/><glyph d="M598 1352l-199 -598h-266l66 598h399zM1155 1352l-199 -598h-266l66 598h399z" glyph-name="second" horiz-adv-x="1202" unicode="″"/><glyph d="M469 1063l223 -195l-266 -307l266 -307l-223 -195l-422 455v92z" glyph-name="guilsinglleft" horiz-adv-x="743" unicode="‹"/><glyph d="M274 1063l422 -457v-92l-422 -455l-223 195l266 307l-266 307z" glyph-name="guilsinglright" horiz-adv-x="743" unicode="›"/><glyph d="M795 1352l-783 -1352h-274l780 1352h277z" glyph-name="fraction" horiz-adv-x="532" unicode="⁄"/><glyph d="M439 1614q175 0 269.5 -122t94.5 -316t-95.5 -320.5t-269.5 -126.5t-268 126t-94 321t94 316.5t269 121.5zM438 1384q-106 0 -106 -212t106 -214q109 0 109 218q0 113 -27 160.5t-82 47.5z" glyph-name="uni2070" horiz-adv-x="878" unicode="⁰"/><glyph d="M780 1069v-205h-92v-119h-229v119h-441v66l248 667h258l-198 -528h133v195h229v-195h92z" glyph-name="uni2074" horiz-adv-x="792" unicode="⁴"/><glyph d="M420 1313q109 0 195.5 -76t86.5 -204t-99 -216t-233 -88t-223.5 56.5t-132.5 154.5l172 121q70 -103 165 -103t95 74q0 68 -131 68h-204v497h548v-225h-311v-67q33 8 72 8z" glyph-name="uni2075" horiz-adv-x="763" unicode="⁵"/><glyph d="M719 1040q0 -128 -101.5 -219.5t-235.5 -91.5t-234.5 92t-100.5 234q0 68 26.5 124t90.5 138l213 280h293l-189 -249q94 -20 166 -100t72 -208zM383 958q37 0 63.5 27t26.5 66t-26.5 65.5t-63.5 26.5t-63.5 -26.5t-26.5 -65.5t26.5 -66t63.5 -27z" glyph-name="uni2076" horiz-adv-x="765" unicode="⁶"/><glyph d="M74 1597h626v-65l-346 -787h-270l289 627h-299v225z" glyph-name="uni2077" horiz-adv-x="733" unicode="⁷"/><glyph d="M741 992q0 -128 -96 -195.5t-243.5 -67.5t-244 67.5t-96.5 195.5t138 192q-101 74 -101 188t85 178t218.5 64t218.5 -63.5t84.5 -176t-100.5 -190.5q137 -64 137 -192zM401.5 1417q-32.5 0 -54 -15.5t-21.5 -39.5q0 -37 75 -76q76 37 76 76q0 25 -21.5 40t-54 15z M307 993q0 -65 93 -65t94 65q0 51 -93 88q-94 -35 -94 -88z" glyph-name="uni2078" horiz-adv-x="802" unicode="⁸"/><glyph d="M384 1614q134 0 234.5 -92t100.5 -234q0 -68 -26.5 -124t-90.5 -138l-213 -281h-293l189 250q-94 20 -166 100.5t-72 208.5t101.5 219t235.5 91zM383 1200q37 0 63.5 26.5t26.5 65.5t-26.5 65.5t-63.5 26.5t-63.5 -26.5t-26.5 -65.5t26.5 -65.5t63.5 -26.5z" glyph-name="uni2079" horiz-adv-x="765" unicode="⁹"/><glyph d="M559 1544v-264h256v-217h-256v-264h-244v264h-256v217h256v264h244z" glyph-name="uni207A" horiz-adv-x="874" unicode="⁺"/><glyph d="M815 1280v-217h-756v217h756z" glyph-name="uni207B" horiz-adv-x="874" unicode="⁻"/><glyph d="M76 1235v217h723v-217h-723zM76 893v219h723v-219h-723z" glyph-name="uni207C" horiz-adv-x="874" unicode="⁼"/><glyph d="M311 1170q0 -368 244 -531l-100 -147q-160 68 -260.5 239.5t-100.5 440t100.5 439t260.5 240.5l100 -149q-244 -164 -244 -532z" glyph-name="uni207D" horiz-adv-x="591" unicode="⁽"/><glyph d="M498 1171.5q0 -268.5 -100.5 -440.5t-260.5 -239l-100 147q244 163 244 531t-244 532l100 149q160 -70 260.5 -240.5t100.5 -439z" glyph-name="uni207E" horiz-adv-x="591" unicode="⁾"/><glyph d="M439 623q175 0 269.5 -122t94.5 -317t-95.5 -320.5t-269.5 -125.5t-268 126t-94 320t94 316.5t269 122.5zM438 393q-106 0 -106 -213t108 -213t107 217q0 113 -27 161t-82 48z" glyph-name="uni2080" horiz-adv-x="878" unicode="₀"/><glyph d="M539 606v-626h170v-226h-629v226h209v401h-187v225h437z" glyph-name="uni2081" horiz-adv-x="782" unicode="₁"/><glyph d="M731 -20v-226l-665 -2v51l305 336q92 102 92 178t-71 76t-70 -84q0 -6 4 -55h-250q-8 35 -8 72q0 117 91 207t232 90t234.5 -81t93.5 -206q0 -88 -52.5 -174t-148.5 -182h213z" glyph-name="uni2082" horiz-adv-x="808" unicode="₂"/><glyph d="M684 41q0 -129 -97.5 -216t-227.5 -87t-217 56t-130 155l172 121q66 -102 155 -102t89 73q0 68 -131 68h-109v61l136 211h-240v225h590v-65l-158 -244q72 -33 120 -99.5t48 -156.5z" glyph-name="uni2083" horiz-adv-x="745" unicode="₃"/><glyph d="M780 78v-205h-92v-119h-229v119h-441v66l248 667h258l-198 -528h133v194h229v-194h92z" glyph-name="uni2084" horiz-adv-x="792" unicode="₄"/><glyph d="M420 322q109 0 195.5 -76t86.5 -204t-99 -216t-233 -88t-223.5 56t-132.5 155l172 121q70 -102 165 -102t95 73q0 68 -131 68h-204v497h548v-225h-311v-68q33 9 72 9z" glyph-name="uni2085" horiz-adv-x="763" unicode="₅"/><glyph d="M719 48q0 -128 -101.5 -219t-235.5 -91t-234.5 92t-100.5 233q0 68 26.5 124.5t90.5 138.5l213 280h293l-189 -250q94 -20 166 -100t72 -208zM383 -33q37 0 63.5 26.5t26.5 65.5t-26.5 66t-63.5 27t-63.5 -27t-26.5 -66t26.5 -65.5t63.5 -26.5z" glyph-name="uni2086" horiz-adv-x="765" unicode="₆"/><glyph d="M74 606h626v-65l-346 -787h-270l289 627h-299v225z" glyph-name="uni2087" horiz-adv-x="733" unicode="₇"/><glyph d="M741 2q0 -128 -96 -196t-243.5 -68t-244 67.5t-96.5 195.5t138 192q-101 75 -101 189t85 177.5t218.5 63.5t218.5 -63.5t84.5 -176t-100.5 -190.5q137 -63 137 -191zM401.5 426q-32.5 0 -54 -15.5t-21.5 -39.5q0 -37 75 -76q76 37 76 76q0 25 -21.5 40t-54 15zM307 2 q0 -65 93 -65t94 65q0 51 -93 88q-94 -35 -94 -88z" glyph-name="uni2088" horiz-adv-x="802" unicode="₈"/><glyph d="M384 623q134 0 234.5 -92.5t100.5 -233.5q0 -68 -26.5 -124t-90.5 -138l-213 -281h-293l189 250q-94 20 -166 100t-72 208t101.5 219.5t235.5 91.5zM383 209q37 0 63.5 26.5t26.5 65.5t-26.5 65.5t-63.5 26.5t-63.5 -26.5t-26.5 -65.5t26.5 -65.5t63.5 -26.5z" glyph-name="uni2089" horiz-adv-x="765" unicode="₉"/><glyph d="M559 551v-264h256v-217h-256v-265h-244v265h-256v217h256v264h244z" glyph-name="uni208A" horiz-adv-x="874" unicode="₊"/><glyph d="M815 287v-217h-756v217h756z" glyph-name="uni208B" horiz-adv-x="870" unicode="₋"/><glyph d="M76 242v217h723v-217h-723zM76 -100v219h723v-219h-723z" glyph-name="uni208C" horiz-adv-x="874" unicode="₌"/><glyph d="M311 177q0 -368 244 -531l-100 -148q-160 68 -260.5 240t-100.5 440t100.5 439t260.5 241l100 -149q-244 -164 -244 -532z" glyph-name="uni208D" horiz-adv-x="591" unicode="₍"/><glyph d="M498 178q0 -268 -100.5 -440t-260.5 -240l-100 148q244 164 244 532t-244 531l100 149q160 -70 260.5 -241t100.5 -439z" glyph-name="uni208E" horiz-adv-x="591" unicode="₎"/><glyph d="M803 299q166 0 266 137l244 -186q-68 -125 -207.5 -200t-333.5 -75t-352 113t-227 305h-193v234h145q-2 16 -2 51v39h-143v233h188q68 195 226.5 310.5t378.5 115.5q174 0 313 -74.5t207 -199.5l-244 -187q-99 137 -251 137t-232 -102h393l-66 -233h-407q-2 -14 -2 -44 t2 -46h383l-66 -234h-231q82 -94 211 -94z" glyph-name="Euro" horiz-adv-x="1378" unicode="€"/><glyph d="M1184 1034h-406v-129l301 74v-285l-301 -73v-91l301 74v-285l-301 -73v-246h-352v158l-301 -74v285l301 73v90l-301 -73v284l301 74v217h-406v318h1164v-318z" glyph-name="uni20AE" horiz-adv-x="1204" unicode="₮"/><glyph d="M1004 950h100v-233h-1104v233h641q2 6 2 21q0 82 -120 82t-240 -84l-168 241q156 166 415 166q213 0 343.5 -110.5t130.5 -292.5v-23zM0 393v234h1104v-234h-678q0 -94 135 -94q168 0 320 82l147 -250q-193 -156 -467 -156q-229 0 -361 111t-134 307h-66z" glyph-name="uni20B4" horiz-adv-x="1105" unicode="₴"/><glyph d="M1184 1352v-318h-1164v318h1164zM1184 944v-317h-406v-627h-352v627h-406v317h1164z" glyph-name="uni20B8" horiz-adv-x="1204" unicode="₸"/><glyph d="M735 1352q197 0 326 -107.5t129 -300t-130 -302.5t-325 -110h-207v-90h500v-274h-500v-168h-352v168h-156v274h156v90h-156v295h156v525h559zM709 1057h-181v-230h181q49 0 85.5 29t36.5 84t-35.5 86t-86.5 31z" glyph-name="uni20BD" horiz-adv-x="1255" unicode="₽"/><glyph d="M446 1139q-106 0 -106 -102.5t106 -102.5q56 0 101 70l184 -125q-86 -184 -297 -185q-152 0 -256 98.5t-104 244t104 242.5t256 97q104 0 181 -49t116 -133l-184 -127q-45 72 -101 72zM1395 1352l-783 -1352h-274l780 1352h277zM1298.5 657q149.5 0 254 -97t104.5 -242.5 t-104.5 -244t-254 -98.5t-254 98.5t-104.5 244t104.5 242.5t254 97zM1298 418q-45 0 -70.5 -28t-25.5 -75t25.5 -73.5t70.5 -26.5t71 26.5t26 73.5t-26 75t-71 28z" glyph-name="afii61248" horiz-adv-x="1730" unicode="℅"/><glyph d="M231 1083q0 242 117 360t322 118q383 0 383 -394q0 -193 -105.5 -344t-363.5 -327v-58q0 -80 43 -113.5t131 -33.5q31 0 215 18v-295q-145 -39 -285 -39q-383 0 -444 306l-115 -66l-149 277l251 155v436zM584 1098v-213q96 76 133 136t37 132q0 113 -74 113 q-96 0 -96 -168z" glyph-name="afii61289" horiz-adv-x="1114" unicode="ℓ"/><glyph d="M981 1352h352v-1377h-112l-734 711v-686h-352v1376h113l733 -700v676zM1873.5 483q-149.5 0 -253.5 98.5t-104 244t104 242.5t253.5 97t254 -97t104.5 -242.5t-104.5 -244t-254 -98.5zM1874 928q-45 0 -70.5 -28t-25.5 -75t25.5 -74.5t70.5 -27.5t70.5 27.5t25.5 74.5 t-25.5 75t-70.5 28zM1538 143v213h672v-213h-672z" glyph-name="afii61352" horiz-adv-x="2295" unicode="№"/><glyph d="M794 1376q296 0 513 -202.5t217 -497.5t-217 -498t-514 -203t-512 202t-215 498t216 498.5t512 202.5zM790.5 1180q-206.5 0 -358 -137.5t-151.5 -369t151.5 -366.5t358 -135t362.5 135t156 365t-156 369t-362.5 139zM846 1034q129 0 215 -70.5t86 -189.5t-86 -189.5 t-215 -70.5h-84v-195h-219v715h303zM846 844h-84v-137h84q76 0 76 67q0 33 -20.5 51.5t-55.5 18.5z" glyph-name="uni2117" horiz-adv-x="1589" unicode="℗"/><glyph d="M1913 1368v-936h-289v293l-151 -176h-91l-149 174v-291h-291v936h92l396 -463l393 463h90zM825 1352v-262h-258v-658h-288v658h-259v262h805z" glyph-name="trademark" horiz-adv-x="2048" unicode="™"/><glyph d="M1534 715q0 -236 -182 -398h161v-317h-602v317q262 127 263 379q0 160 -104.5 258.5t-267.5 98.5t-264.5 -95.5t-101.5 -257.5q0 -258 262 -383v-317h-602v317h150q-170 164 -170 398q0 276 212 468.5t515 192.5t517 -192.5t214 -468.5z" glyph-name="uni2126" horiz-adv-x="1609" unicode="Ω"/><glyph d="M383 670v-400q158 -213 448 -213q160 0 294.5 65.5t226.5 172.5l55 -51q-100 -123 -249.5 -193.5t-323.5 -70.5q-305 0 -508 199.5t-203 491.5t208 496.5t492 204.5q168 0 322.5 -71.5t257 -211t102.5 -309.5l-8 -110h-1114zM834 1292q-291 0 -451 -213v-331h862v362 q-153 182 -411 182z" glyph-name="estimated" horiz-adv-x="1628" unicode="℮"/><glyph d="M709 725v-225h-629v225h209v401h-187v226h437v-627h170zM1300 1352h277l-782 -1352h-275zM1389 852h626v-66l-346 -786h-270l289 627h-299v225z" glyph-name="uni2150" horiz-adv-x="2048" unicode="⅐"/><glyph d="M709 725v-225h-629v225h209v401h-187v226h437v-627h170zM1300 1352h277l-782 -1352h-275zM1637 868q134 0 234.5 -92t100.5 -233q0 -68 -26.5 -124.5t-90.5 -137.5l-213 -281h-292l188 250q-94 20 -166 100t-72 208t101.5 219t235.5 91zM1636 455q37 0 63.5 26.5 t26.5 65.5t-26.5 65.5t-63.5 26.5t-63.5 -26.5t-26.5 -65.5t26.5 -65.5t63.5 -26.5z" glyph-name="uni2151" horiz-adv-x="2019" unicode="⅑"/><glyph d="M539 1352v-627h170v-225h-629v225h209v401h-187v226h437zM1577 1352l-782 -1352h-275l780 1352h277zM2536 868q175 0 269.5 -121.5t94.5 -316.5t-95 -320.5t-269.5 -125.5t-268.5 126t-94 320t94 316t269 122zM1853 852v-627h170v-225h-628v225h209v402h-187v225h436z M2535 639q-106 0 -106 -213q-1 -213 107 -213t108 217q0 113 -27 161t-82 48z" glyph-name="uni2152" horiz-adv-x="2975" unicode="⅒"/><glyph d="M709 725v-225h-629v225h209v401h-187v226h437v-627h170zM1300 1352h277l-782 -1352h-275zM1999 287q0 -129 -97.5 -216t-227.5 -87t-217 56t-130 155l172 120q66 -102 155 -102t89 74q0 68 -131 67h-109v62l135 211h-239v225h590v-66l-158 -243q72 -33 120 -99.5 t48 -156.5z" glyph-name="onethird" horiz-adv-x="2060" unicode="⅓"/><glyph d="M731 725v-225l-665 -2v51l305 336q92 102 92 178t-71 76t-70 -84q0 -6 4 -56h-250q-8 35 -8 72q0 117 91 207t232 90t234.5 -81t93.5 -206q0 -88 -53.5 -175t-147.5 -181h213zM1327 1352h277l-783 -1352h-274zM2025 287q0 -129 -97 -216t-227 -87t-217 56t-130 155 l172 120q66 -102 154 -102t89 74q0 68 -131 67h-108v62l135 211h-240v225h590v-66l-157 -243q72 -33 119.5 -99.5t47.5 -156.5z" glyph-name="twothirds" horiz-adv-x="2086" unicode="⅔"/><glyph d="M709 725v-225h-629v225h209v401h-187v226h437v-627h170zM1300 1352h277l-782 -1352h-275zM1718 567q109 0 196 -75.5t87 -203.5t-99.5 -216t-232.5 -88t-223 56t-133 155l172 120q71 -102 165 -102t95 74q0 68 -131 67h-205v498h549v-225h-311v-68q32 8 71 8z" glyph-name="uni2155" horiz-adv-x="2062" unicode="⅕"/><glyph d="M731 725v-225l-665 -2v51l305 336q92 102 92 178t-71 76t-70 -84q0 -6 4 -56h-250q-8 35 -8 72q0 117 91 207t232 90t234.5 -81t93.5 -206q0 -88 -53.5 -175t-147.5 -181h213zM1327 1352h277l-783 -1352h-274zM1745 567q109 0 196 -75.5t87 -203.5t-99 -216t-233 -88 t-224 56t-133 155l172 120q70 -102 165 -102t96 74q0 68 -132 67h-204v498h549v-225h-312v-68q33 8 72 8z" glyph-name="uni2156" horiz-adv-x="2088" unicode="⅖"/><glyph d="M684 786q0 -129 -97.5 -216t-227.5 -87t-217 56.5t-130 154.5l172 121q66 -102 155 -102t89 73q0 68 -131 68h-109v61l136 211h-240v226h590v-66l-158 -244q72 -33 120 -99.5t48 -156.5zM1192 1352h276l-782 -1352h-274zM1610 567q109 0 195.5 -75.5t86.5 -203.5 t-99 -216t-233 -88t-223.5 56t-132.5 155l172 120q70 -102 165 -102t95 74q0 68 -131 67h-205v498h549v-225h-311v-68q33 8 72 8z" glyph-name="uni2157" horiz-adv-x="1953" unicode="⅗"/><glyph d="M688 500h-229v118h-441v66l248 668h258l-198 -529h133v195h229v-195h92v-205h-92v-118zM1331 1352h277l-783 -1352h-274zM1749 567q109 0 196 -75.5t87 -203.5t-99 -216t-233 -88t-224 56t-133 155l173 120q70 -102 164 -102t96 74q0 68 -131 67h-205v498h549v-225h-312 v-68q33 8 72 8z" glyph-name="uni2158" horiz-adv-x="2093" unicode="⅘"/><glyph d="M709 725v-225h-629v225h209v401h-187v226h437v-627h170zM1300 1352h277l-782 -1352h-275zM1870 294q0 -128 -101.5 -219t-235.5 -91t-234.5 92t-100.5 233q0 68 26.5 124t90.5 138l213 281h293l-189 -250q94 -20 166 -100t72 -208zM1534 213q37 0 63.5 26.5t26.5 65.5 t-26.5 65.5t-63.5 26.5t-63.5 -26.5t-26.5 -65.5t26.5 -65.5t63.5 -26.5z" glyph-name="uni2159" horiz-adv-x="1916" unicode="⅙"/><glyph d="M702 788q0 -128 -99 -216.5t-233 -88.5t-223.5 56.5t-132.5 154.5l172 121q70 -102 165 -102t95 73q0 68 -131 68h-204v498h548v-226h-311v-67q33 8 72 8q109 0 195.5 -75.5t86.5 -203.5zM1210 1352h277l-782 -1352h-275zM1780 294q0 -128 -101.5 -219t-235.5 -91 t-234.5 92t-100.5 233q0 68 26.5 124t90.5 138l213 281h293l-189 -250q94 -20 166 -100t72 -208zM1444 213q37 0 63.5 26.5t26.5 65.5t-26.5 65.5t-63.5 26.5t-63.5 -26.5t-26.5 -65.5t26.5 -65.5t63.5 -26.5z" glyph-name="uni215A" horiz-adv-x="1826" unicode="⅚"/><glyph d="M709 725v-225h-629v225h209v401h-187v226h437v-627h170zM1300 1352h277l-782 -1352h-275zM1964 247q0 -128 -96 -195.5t-243.5 -67.5t-244 67.5t-96.5 195.5t137 191q-100 74 -100 189t85 178t218 63t218 -63.5t85 -176t-100 -190.5q137 -63 137 -191zM1624 672 q-33 0 -54.5 -15.5t-21.5 -40.5q0 -37 76 -75q76 37 76 75q0 25 -21.5 40.5t-54.5 15.5zM1530 248q0 -66 93 -66t93 66q0 51 -92 88q-94 -35 -94 -88z" glyph-name="oneeighth" horiz-adv-x="2025" unicode="⅛"/><glyph d="M684 786q0 -129 -97.5 -216t-227.5 -87t-217 56.5t-130 154.5l172 121q66 -102 155 -102t89 73q0 68 -131 68h-109v61l136 211h-240v226h590v-66l-158 -244q72 -33 120 -99.5t48 -156.5zM1192 1352h276l-782 -1352h-274zM1855 247q0 -128 -96 -195.5t-243.5 -67.5 t-243.5 67.5t-96 195.5t137 191q-101 74 -101 189t85 178t218.5 63t218.5 -63.5t84.5 -176t-100.5 -190.5q137 -63 137 -191zM1515.5 672q-32.5 0 -54 -15.5t-21.5 -40.5q0 -37 76 -75q76 37 75 75q0 25 -21.5 40.5t-54 15.5zM1515 182q93 0 93 66q0 51 -92 88 q-94 -35 -95 -88q1 -66 94 -66z" glyph-name="threeeighths" horiz-adv-x="1916" unicode="⅜"/><glyph d="M702 788q0 -128 -99 -216.5t-233 -88.5t-223.5 56.5t-132.5 154.5l172 121q70 -102 165 -102t95 73q0 68 -131 68h-204v498h548v-226h-311v-67q33 8 72 8q109 0 195.5 -75.5t86.5 -203.5zM1210 1352h277l-782 -1352h-275zM1874 247q0 -128 -96.5 -195.5t-244 -67.5 t-243.5 67.5t-96 195.5t137 191q-100 74 -100 189t85 178t218 63t218 -63.5t85 -176t-100 -190.5q137 -63 137 -191zM1534 672q-33 0 -54.5 -15.5t-21.5 -40.5q0 -37 76 -75q76 37 76 75q0 25 -21.5 40.5t-54.5 15.5zM1440 248q0 -66 93 -66t93 66q0 51 -92 88 q-94 -35 -94 -88z" glyph-name="fiveeighths" horiz-adv-x="1935" unicode="⅝"/><glyph d="M74 1126v226h626v-66l-346 -786h-270l289 626h-299zM1051 1352h276l-782 -1352h-275zM1714 247q0 -128 -96 -195.5t-243.5 -67.5t-244 67.5t-96.5 195.5t137 191q-100 74 -100 189t85 178t218 63t218 -63.5t85 -176t-100 -190.5q137 -63 137 -191zM1374 672 q-33 0 -54.5 -15.5t-21.5 -40.5q0 -37 76 -75q76 37 76 75q0 25 -21.5 40.5t-54.5 15.5zM1280 248q0 -66 93 -66t93 66q0 51 -92 88q-94 -35 -94 -88z" glyph-name="seveneighths" horiz-adv-x="1775" unicode="⅞"/><glyph d="M1249 518h-544l-136 8l275 -276l-207 -207l-588 588v63l588 588l207 -207l-271 -270l132 8h544v-295z" glyph-name="arrowleft" horiz-adv-x="1331" unicode="←"/><glyph d="M823 76h-317v530l8 119l-258 -260l-209 207l586 590h63l588 -590l-209 -207l-260 262l8 -121v-530z" glyph-name="arrowup" horiz-adv-x="1331" unicode="↑"/><glyph d="M82 518v295h545l131 -8l-271 270l207 207l588 -588v-63l-588 -588l-207 207l275 276l-135 -8h-545z" glyph-name="arrowright" horiz-adv-x="1331" unicode="→"/><glyph d="M506 1253h317v-530l-8 -121l260 262l209 -207l-588 -589h-63l-586 589l209 207l258 -260l-8 119v530z" glyph-name="arrowdown" horiz-adv-x="1331" unicode="↓"/><glyph d="M1329 1282l588 -588v-63l-588 -588l-207 207l275 276l-135 -8h-557l-136 8l275 -276l-207 -207l-588 588v63l588 588l207 -207l-271 -270l132 8h557l131 -8l-271 270z" glyph-name="arrowboth" horiz-adv-x="1966" unicode="↔"/><glyph d="M817 375l258 260l209 -207l-586 -590h-63l-588 590l209 207l260 -262l-8 121v364l8 121l-260 -262l-209 207l588 589h63l586 -589l-209 -207l-258 260l8 -119v-364z" glyph-name="arrowupdn" horiz-adv-x="1331" unicode="↕"/><glyph d="M508 193h-305v872l43 45h856v-295h-404l95 -82l428 -430l-215 -215l-426 428l-72 82v-405z" glyph-name="uni2196" horiz-adv-x="1331" unicode="↖"/><glyph d="M1128 193h-305v405l-71 -82l-426 -428l-215 215l428 430l94 82h-404v295h856l43 -45v-872z" glyph-name="uni2197" horiz-adv-x="1331" unicode="↗"/><glyph d="M823 1096h305v-873l-43 -45h-856v295h404l-94 82l-428 430l215 215l426 -428l71 -82v406z" glyph-name="uni2198" horiz-adv-x="1331" unicode="↘"/><glyph d="M1102 473v-295h-856l-43 45v873h305v-406l72 82l426 428l215 -215l-428 -430l-95 -82h404z" glyph-name="uni2199" horiz-adv-x="1331" unicode="↙"/><glyph d="M870 805q-16 254 -196 254q-90 0 -140.5 -31t-107.5 -100l-219 188q160 260 471 260q262 0 408.5 -174t146.5 -484t-186.5 -526.5t-471.5 -216.5q-203 0 -341 111.5t-138 311.5t140.5 323t375.5 123q127 0 258 -39zM606 283q74 0 140.5 55t99.5 172q-123 31 -215 31 q-174 0 -174 -127q0 -57 37.5 -94t111.5 -37z" glyph-name="partialdiff" horiz-adv-x="1306" unicode="∂"/><glyph d="M731 1376l615 -1376h-1342l614 1376h113zM829 317l-151 349l-156 -349h307z" glyph-name="uni2206" horiz-adv-x="1349" unicode="∆"/><glyph d="M1313 1352v-1600h-352v1282h-474v-1282h-352v1600h1178z" glyph-name="product" horiz-adv-x="1447" unicode="∏"/><glyph d="M1075 70v-318h-1044v74l395 749l-395 703v74h1020v-318h-478l238 -422v-73l-246 -469h510z" glyph-name="summation" horiz-adv-x="1159" unicode="∑"/><glyph d="M1071 811v-295h-997v295h997z" glyph-name="minus" unicode="−"/><glyph d="M279 893q100 0 164.5 -66.5t64.5 -163.5t-64.5 -163t-164.5 -66t-166 65t-66 163t66 164.5t166 66.5z" glyph-name="uni2219" horiz-adv-x="552" unicode="∙"/><glyph d="M342 -272v594h-342v274h608v-84l596 1024h301l-1050 -1808h-113z" glyph-name="radical" horiz-adv-x="1505" unicode="√"/><glyph d="M1389 1110q213 0 337.5 -133t124.5 -315.5t-124.5 -314.5t-335.5 -132q-145 0 -253 63.5t-204 174.5q-203 -238 -457 -238q-213 0 -337 132t-124 314.5t124 315.5t337 133q250 0 457 -233q207 233 455 233zM518 522q113 0 242 144q-123 137 -244 137q-74 0 -118 -35 t-44 -100.5t44 -105.5t120 -40zM1352 522q74 0 117.5 39t43.5 104.5t-44 101.5t-117 36q-119 0 -242 -137q125 -144 242 -144z" glyph-name="infinity" horiz-adv-x="1867" unicode="∞"/><glyph d="M588 1622q98 0 190 -25v-294q-94 4 -104 4q-172 0 -172 -170q0 -82 67.5 -476.5t67.5 -523.5q0 -201 -118 -305t-329 -104q-98 0 -190 24v295q94 -4 104 -4q172 0 172 170q0 82 -67.5 476t-67.5 523q0 201 118 305.5t329 104.5z" glyph-name="integral" horiz-adv-x="778" unicode="∫"/><glyph d="M294 1169q102 0 187 -53l172 -104q74 -43 104.5 -43t47 20.5t16.5 50.5v29h262q6 -41 7 -78q0 -150 -83 -245t-185 -95t-187 54l-172 104q-74 43 -104.5 43t-47 -20.5t-16.5 -51.5v-28h-262q-6 39 -6 77q0 150 82.5 245t184.5 95zM294 678q102 0 187 -53l172 -105 q74 -43 104.5 -43t47 20.5t16.5 51.5v29h262q6 -39 7 -78q0 -150 -83 -245t-185 -95t-187 53l-172 104q-74 43 -104.5 43t-47 -20.5t-16.5 -50.5v-29h-262q-6 39 -6 78q0 150 82.5 245t184.5 95z" glyph-name="approxequal" unicode="≈"/><glyph d="M1053 1036v-295h-279l-92 -155h371v-295h-545l-111 -189h-303l111 189h-109v295h283l92 155h-375v295h549l111 189h303l-111 -189h105z" glyph-name="notequal" unicode="≠"/><glyph d="M1040 1192v-295l-385 -133l385 -135v-295l-985 383v92zM84 0v274h956v-274h-956z" glyph-name="lessequal" unicode="≤"/><glyph d="M102 1192l985 -383v-92l-985 -383v295l385 135l-385 133v295zM102 0v274h957v-274h-957z" glyph-name="greaterequal" unicode="≥"/><glyph d="M991.5 1561q366.5 0 625.5 -259.5t259 -626t-259 -625.5t-625.5 -259t-626 259t-259.5 625.5t259.5 626t626 259.5zM991 1298q-260 0 -436 -176t-176 -446t176 -446.5t436 -176.5t436.5 176.5t176.5 446.5t-176.5 446t-436.5 176zM991.5 1151q190.5 0 292.5 -131 t102 -341t-102 -345t-292.5 -135t-293 135t-102.5 345t102.5 341t293 131zM992 895q-110 0 -110 -220t110 -220t110 220t-110 220z" glyph-name="uni24EA" horiz-adv-x="1982" unicode="⓪"/><glyph d="M991.5 1561q366.5 0 625.5 -259.5t259 -626t-259 -625.5t-625.5 -259t-626 259t-259.5 625.5t259.5 626t626 259.5zM991.5 1151q-190.5 0 -293 -131t-102.5 -341t102.5 -345t293 -135t292.5 135t102 345t-102 341t-292.5 131zM992 895q110 0 110 -220t-110 -220t-110 220 t110 220z" glyph-name="uni24FF" horiz-adv-x="1982" unicode="⓿"/><glyph d="M1311 1239v-1126h-1127v1126h1127z" glyph-name="filledbox" horiz-adv-x="1495" unicode="■"/><glyph d="M1311 1239v-1126h-1127v1126h1127zM1020 954h-545v-557h545v557z" glyph-name="H22073" horiz-adv-x="1495" unicode="□"/><glyph d="M944 901v-778h-780v778h780z" glyph-name="H18543" horiz-adv-x="1107" unicode="▪"/><glyph d="M944 901v-778h-780v778h780zM674 637h-240v-250h240v250z" glyph-name="H18551" horiz-adv-x="1107" unicode="▫"/><glyph d="M768 1352l686 -1202l-20 -37h-1373l-20 37l686 1202h41z" glyph-name="triagup" horiz-adv-x="1495" unicode="▲"/><glyph d="M768 1352l686 -1202l-20 -37h-1373l-20 37l686 1202h41zM981 397l-233 408l-234 -408h467z" glyph-name="uni25B3" horiz-adv-x="1495" unicode="△"/><glyph d="M561 981l469 -821l-20 -37h-938l-21 37l469 821h41z" glyph-name="uni25B4" horiz-adv-x="1081" unicode="▴"/><glyph d="M561 981l469 -821l-20 -37h-938l-21 37l469 821h41zM668 330l-127 223l-125 -223h252z" glyph-name="uni25B5" horiz-adv-x="1081" unicode="▵"/><glyph d="M221 1376l1053 -680v-41l-1053 -680l-37 21v1360z" glyph-name="uni25B6" horiz-adv-x="1320" unicode="▶"/><glyph d="M221 1376l1053 -680v-41l-1053 -680l-37 21v1360zM780 676l-305 196v-393z" glyph-name="uni25B7" horiz-adv-x="1320" unicode="▷"/><glyph d="M201 995l719 -460v-41l-719 -463l-37 20v924z" glyph-name="uni25B8" horiz-adv-x="983" unicode="▸"/><glyph d="M201 995l719 -460v-41l-719 -463l-37 20v924zM551 514l-178 113v-226z" glyph-name="uni25B9" horiz-adv-x="983" unicode="▹"/><glyph d="M221 1376l1686 -680v-41l-1686 -680l-37 21v1360z" glyph-name="triagrt" horiz-adv-x="1968" unicode="►"/><glyph d="M221 1376l1686 -680v-41l-1686 -680l-37 21v1360zM1182 676l-707 287v-574z" glyph-name="uni25BB" horiz-adv-x="1968" unicode="▻"/><glyph d="M768 0h-41l-686 1202l20 37h1373l20 -37z" glyph-name="triagdn" horiz-adv-x="1495" unicode="▼"/><glyph d="M1434 1239l20 -37l-686 -1202h-41l-686 1202l20 37h1373zM981 954h-467l234 -407z" glyph-name="uni25BD" horiz-adv-x="1495" unicode="▽"/><glyph d="M1010 901l20 -37l-469 -821h-41l-469 821l21 37h938z" glyph-name="uni25BE" horiz-adv-x="1081" unicode="▾"/><glyph d="M1010 901l20 -37l-469 -821h-41l-469 821l21 37h938zM668 694h-252l125 -223z" glyph-name="uni25BF" horiz-adv-x="1081" unicode="▿"/><glyph d="M1100 1376l37 -20v-1360l-37 -21l-1053 680v41z" glyph-name="uni25C0" horiz-adv-x="1320" unicode="◀"/><glyph d="M1176 1376l36 -20v-1360l-36 -21l-1053 680v41zM922 872l-306 -196l306 -197v393z" glyph-name="uni25C1" horiz-adv-x="1396" unicode="◁"/><glyph d="M782 995l37 -20v-924l-37 -20l-719 463v41z" glyph-name="uni25C2" horiz-adv-x="983" unicode="◂"/><glyph d="M782 995l37 -20v-924l-37 -20l-719 463v41zM610 401v226l-178 -113z" glyph-name="uni25C3" horiz-adv-x="983" unicode="◃"/><glyph d="M1747 1376l37 -20v-1360l-37 -21l-1686 680v41z" glyph-name="triaglf" horiz-adv-x="1968" unicode="◄"/><glyph d="M1747 1376l37 -20v-1360l-37 -21l-1686 680v41zM1493 963l-707 -287l707 -287v574z" glyph-name="uni25C5" horiz-adv-x="1968" unicode="◅"/><glyph d="M737 1376l437 -700l-437 -701h-112l-437 701l437 700h112zM530 676l162 -250l144 250l-152 244z" glyph-name="lozenge" horiz-adv-x="1361" unicode="◊"/><glyph d="M796.5 1350q274.5 0 474 -199t199.5 -473t-199.5 -477t-472.5 -203t-477 202.5t-204 477t202.5 473.5t477 199zM796.5 1065q-159.5 0 -274 -113.5t-114.5 -274.5t114.5 -277.5t273.5 -116.5t271.5 116.5t112.5 279.5t-112 274.5t-271.5 111.5z" glyph-name="circle" horiz-adv-x="1587" unicode="○"/><glyph d="M796.5 1350q274.5 0 474 -199t199.5 -473t-199.5 -477t-472.5 -203t-477 202.5t-204 477t202.5 473.5t477 199z" glyph-name="H18533" horiz-adv-x="1587" unicode="●"/><glyph d="M1063 16q-135 0 -199.5 43t-64.5 113q0 43 24 74q-92 35 -92 121q0 57 49 100q-72 31 -71 106q0 37 20 68h-356q-328 0 -328 229q0 129 99.5 174.5t259.5 45.5t350 -15q8 96 73.5 150.5t151.5 54.5t170 -53l520 -322q117 -37 127 -41l498 312l84 -58l-111 -370l184 -152 v-92l-184 -152l111 -370l-84 -58l-488 305q-430 -213 -743 -213zM1030 1085q-28 0 -41 -36q66 -8 193 -29l-95 51q-29 14 -57 14zM1010 193q127 0 339 59t382 149v291q-227 96 -606.5 153.5t-802.5 57.5q-63 0 -63.5 -39t63.5 -39h176q385 0 659 -20v-162h-239 q-18 0 -18.5 -18.5t18.5 -18.5h264v-162h-240q-18 0 -18 -18t18 -18h262v-162q-106 -16 -178 -17h-16q-18 0 -18 -18t18 -18zM1933 729v-358l176 -107l-55 174l152 113l-152 111l55 174z" glyph-name="uni261C" horiz-adv-x="2478" unicode="☜"/><glyph d="M2093 1090q160 0 259 -45.5t99 -174.5q0 -229 -327 -229h-357q20 -31 21 -68q0 -76 -72 -106q49 -43 49 -100q0 -86 -92 -121q25 -31 25 -74q0 -70 -64.5 -113t-199.5 -43q-313 0 -744 213l-487 -305l-84 58l110 370l-184 152v92l184 152l-110 370l84 58l497 -312 q10 4 127 41l521 322q84 53 170 53t151.5 -54.5t73.5 -150.5q190 15 350 15zM1409 1071l-94 -51q127 20 192 29q-19 60 -98 22zM2175 825q63 0 63 39t-63 39q-424 0 -803 -57.5t-606 -153.5v-291q170 -90 382 -149t339 -59q18 0 18 18t-18 18h-17q-72 0 -178 17v162h262 q18 0 18.5 18t-18.5 18h-239v162h264q18 0 18 18.5t-18 18.5h-240v162q274 20 660 20h176zM563 371v358l-176 107l55 -174l-151 -111l151 -113l-55 -174z" glyph-name="uni261E" horiz-adv-x="2478" unicode="☞"/><glyph d="M1278 1376q148 0 262.5 -112.5t114.5 -288.5q0 -100 -48 -191.5t-171 -226.5l-531 -582h-49l-530 582q-123 135 -171.5 226t-48.5 192q0 176 115 288.5t263 112.5t250 -72.5t147 -189.5q45 117 147 189.5t250 72.5zM1176 1042q-78 0 -130.5 -80.5t-72.5 -205.5h-182 q-20 125 -73.5 205.5t-131.5 80.5q-47 0 -79 -29.5t-32 -80.5t15.5 -79t20.5 -37t18.5 -24.5t18.5 -21.5t19.5 -23.5t18.5 -21.5l295 -338l295 338q4 4 18 21.5t19.5 23.5t18.5 21.5t26.5 39.5t20.5 46.5t7 63.5q0 42 -31.5 71.5t-78.5 29.5z" glyph-name="uni2661" horiz-adv-x="1761" unicode="♡"/><glyph d="M1278 1376q148 0 262.5 -112.5t114.5 -288.5q0 -100 -48 -191.5t-171 -226.5l-531 -582h-49l-530 582q-123 135 -171.5 226t-48.5 192q0 176 115 288.5t263 112.5t250 -72.5t147 -189.5q45 117 147 189.5t250 72.5z" glyph-name="heart" horiz-adv-x="1761" unicode="♥"/><glyph d="M762 868q184 0 315 -131t131 -319.5t-132 -315.5t-351 -127q-276 0 -467.5 197t-191.5 494t198.5 501.5t501.5 204.5q238 0 420 -145l-137 -221q-117 90 -280 90t-282.5 -121t-119.5 -307q0 -25 2 -37q55 109 161.5 173t231.5 64z" glyph-name="uni275B" horiz-adv-x="1273" unicode="❛"/><glyph d="M549 1376q276 0 467.5 -196.5t191.5 -493.5t-198.5 -501.5t-501.5 -204.5q-238 0 -420 145l137 221q117 -90 280 -90t282.5 121t119.5 307q0 25 -2 37q-55 -109 -161.5 -173.5t-231.5 -64.5q-184 0 -315 131t-131 319.5t132 315.5t351 127z" glyph-name="uni275C" horiz-adv-x="1273" unicode="❜"/><glyph d="M762 868q184 0 315 -131t131 -319.5t-132 -315.5t-351 -127q-276 0 -467.5 197t-191.5 494t198.5 501.5t501.5 204.5q238 0 420 -145l-137 -221q-117 90 -280 90t-282.5 -121t-119.5 -307q0 -25 2 -37q55 109 161.5 173t231.5 64zM2011 868q184 0 315.5 -131 t131.5 -319.5t-132.5 -315.5t-351.5 -127q-276 0 -467.5 197t-191.5 494t198.5 501.5t501.5 204.5q238 0 420 -145l-137 -221q-118 90 -280 90t-282 -121t-120 -307q0 -25 2 -37q55 109 161.5 173t231.5 64z" glyph-name="uni275D" horiz-adv-x="2523" unicode="❝"/><glyph d="M549 1376q276 0 467.5 -196.5t191.5 -493.5t-198.5 -501.5t-501.5 -204.5q-238 0 -420 145l137 221q117 -90 280 -90t282.5 121t119.5 307q0 25 -2 37q-55 -109 -161.5 -173.5t-231.5 -64.5q-184 0 -315 131t-131 319.5t132 315.5t351 127zM1819 1376q276 0 467.5 -196.5 t191.5 -493.5t-198.5 -501.5t-501.5 -204.5q-238 0 -420 145l137 221q117 -90 279 -90t282.5 121t120.5 307q0 25 -2 37q-55 -109 -161.5 -173.5t-231.5 -64.5q-184 0 -315.5 131t-131.5 319.5t132.5 315.5t351.5 127z" glyph-name="uni275E" horiz-adv-x="2543" unicode="❞"/><glyph d="M991.5 1561q366.5 0 625.5 -259.5t259 -626t-259 -625.5t-625.5 -259t-626 259t-259.5 625.5t259.5 626t626 259.5zM1141 1135h-449v-234h168v-452h-180v-234h625v234h-164v686z" glyph-name="uni2776" horiz-adv-x="1982" unicode="❶"/><glyph d="M991.5 1561q366.5 0 625.5 -259.5t259 -626t-259 -625.5t-625.5 -259t-626 259t-259.5 625.5t259.5 626t626 259.5zM984 1151q-155 0 -255 -97.5t-100 -230.5q0 -33 8 -71h254q-4 40 -4 66t22.5 51.5t61.5 25.5t61.5 -21.5t22.5 -61.5t-22.5 -76t-80.5 -103l-317 -365 v-55h723v236h-242l68 79q78 88 117.5 157t39.5 155q0 137 -101 224t-256 87z" glyph-name="uni2777" horiz-adv-x="1982" unicode="❷"/><glyph d="M991.5 1561q366.5 0 625.5 -259.5t259 -626t-259 -625.5t-625.5 -259t-626 259t-259.5 625.5t259.5 626t626 259.5zM1325 1135h-639v-254h225l-139 -222v-69h143q135 0 136 -66q0 -70 -97 -69q-45 0 -79.5 23.5t-75.5 84.5l-193 -135q47 -109 142.5 -169t235.5 -60 t246.5 94t106.5 233q0 94 -50 166t-128 109l166 262v72z" glyph-name="uni2778" horiz-adv-x="1982" unicode="❸"/><glyph d="M991.5 1561q366.5 0 625.5 -259.5t259 -626t-259 -625.5t-625.5 -259t-626 259t-259.5 625.5t259.5 626t626 259.5zM551 338h461v-123h280v123h99v244h-99v172h-280v-172h-123l205 553h-299l-244 -721v-76z" glyph-name="uni2779" horiz-adv-x="1982" unicode="❹"/><glyph d="M991.5 1561q366.5 0 625.5 -259.5t259 -626t-259 -625.5t-625.5 -259t-626 259t-259.5 625.5t259.5 626t626 259.5zM604 428q98 -229 388 -229q146 0 254 95t108 233t-95.5 220t-211.5 82q-39 0 -72 -8v60h334v254h-600v-545h223q72 0 103.5 -14.5t31.5 -49.5 q0 -72 -98 -72t-172 109z" glyph-name="uni277A" horiz-adv-x="1982" unicode="❺"/><glyph d="M991.5 1561q366.5 0 625.5 -259.5t259 -626t-259 -625.5t-625.5 -259t-626 259t-259.5 625.5t259.5 626t626 259.5zM604 549q0 -152 108.5 -251t256 -99t258 99t110.5 249q0 94 -45.5 169t-105.5 109t-101 41l205 269h-332l-229 -301q-66 -86 -95.5 -148.5t-29.5 -136.5z M970 639q38 0 64.5 -24.5t26.5 -65.5t-26.5 -67.5t-64.5 -26.5t-63.5 27.5t-25.5 67.5t25.5 64.5t63.5 24.5z" glyph-name="uni277B" horiz-adv-x="1982" unicode="❻"/><glyph d="M991.5 1561q366.5 0 625.5 -259.5t259 -626t-259 -625.5t-625.5 -259t-626 259t-259.5 625.5t259.5 626t626 259.5zM1354 1135h-682v-254h311l-303 -666h305l369 848v72z" glyph-name="uni277C" horiz-adv-x="1982" unicode="❼"/><glyph d="M991.5 1561q366.5 0 625.5 -259.5t259 -626t-259 -625.5t-625.5 -259t-626 259t-259.5 625.5t259.5 626t626 259.5zM993.5 1151q-145.5 0 -238.5 -68.5t-93 -191.5t106 -203q-145 -66 -145 -205t104 -211.5t266 -72.5t265.5 73.5t103.5 211.5t-145 204q106 84 106 205 t-92 189.5t-237.5 68.5zM993.5 934q73.5 0 73.5 -62q0 -45 -76 -84q-72 35 -71 82q0 64 73.5 64zM1087 494q0 -78 -95 -78t-95 80q0 59 94 100q96 -41 96 -102z" glyph-name="uni277D" horiz-adv-x="1982" unicode="❽"/><glyph d="M991.5 1561q366.5 0 625.5 -259.5t259 -626t-259 -625.5t-625.5 -259t-626 259t-259.5 625.5t259.5 626t626 259.5zM1013.5 1153q-147.5 0 -258 -99.5t-110.5 -248.5q0 -94 45.5 -169t105.5 -109t101 -42l-205 -268h332l229 301q66 86 95.5 148.5t29.5 136.5 q0 152 -108.5 251t-256 99zM1013 897q38 0 63.5 -27.5t25.5 -67.5t-25.5 -64.5t-63.5 -24.5t-64.5 24.5t-26.5 65.5t26.5 67.5t64.5 26.5z" glyph-name="uni277E" horiz-adv-x="1982" unicode="❾"/><glyph d="M991.5 1561q366.5 0 625.5 -259.5t259 -626t-259 -625.5t-625.5 -259t-626 259t-259.5 625.5t259.5 626t626 259.5zM991 1298q-260 0 -436 -176t-176 -446t176 -446.5t436 -176.5t436.5 176.5t176.5 446.5t-176.5 446t-436.5 176zM1141 1135v-686h164v-234h-625v234h180 v452h-168v234h449z" glyph-name="uni2780" horiz-adv-x="1982" unicode="➀"/><glyph d="M991.5 1561q366.5 0 625.5 -259.5t259 -626t-259 -625.5t-625.5 -259t-626 259t-259.5 625.5t259.5 626t626 259.5zM991 1298q-260 0 -436 -176t-176 -446t176 -446.5t436 -176.5t436.5 176.5t176.5 446.5t-176.5 446t-436.5 176zM984 1151q155 0 256 -87t101 -224 q0 -86 -39.5 -155t-117.5 -157l-68 -79h242v-236h-723v55l317 365q57 68 80 103.5t23 75.5t-22.5 61.5t-61.5 21.5t-61.5 -25.5t-22.5 -51.5t4 -66h-254q-8 39 -8 71q0 133 100 230.5t255 97.5z" glyph-name="uni2781" horiz-adv-x="1982" unicode="➁"/><glyph d="M991.5 1561q366.5 0 625.5 -259.5t259 -626t-259 -625.5t-625.5 -259t-626 259t-259.5 625.5t259.5 626t626 259.5zM991 1298q-260 0 -436 -176t-176 -446t176 -446.5t436 -176.5t436.5 176.5t176.5 446.5t-176.5 446t-436.5 176zM1325 1135v-72l-166 -262 q78 -37 128 -108.5t50 -166.5q0 -139 -106.5 -233t-246.5 -94t-235.5 60t-142.5 169l193 135q41 -61 75.5 -84.5t79.5 -23.5q96 0 97 69q0 66 -136 66h-143v69l139 222h-225v254h639z" glyph-name="uni2782" horiz-adv-x="1982" unicode="➂"/><glyph d="M991.5 1561q366.5 0 625.5 -259.5t259 -626t-259 -625.5t-625.5 -259t-626 259t-259.5 625.5t259.5 626t626 259.5zM991 1298q-260 0 -436 -176t-176 -446t176 -446.5t436 -176.5t436.5 176.5t176.5 446.5t-176.5 446t-436.5 176zM1012 582v172h280v-172h99v-244h-99 v-123h-280v123h-461v76l244 721h299l-205 -553h123z" glyph-name="uni2783" horiz-adv-x="1982" unicode="➃"/><glyph d="M991.5 1561q366.5 0 625.5 -259.5t259 -626t-259 -625.5t-625.5 -259t-626 259t-259.5 625.5t259.5 626t626 259.5zM991 1298q-260 0 -436 -176t-176 -446t176 -446.5t436 -176.5t436.5 176.5t176.5 446.5t-176.5 446t-436.5 176zM1311 1135v-254h-334v-60q33 8 72 8 q117 0 212 -81.5t95 -219.5t-108 -233.5t-254 -95.5q-290 0 -388 229l193 135q74 -109 172 -109t98 72q0 35 -31.5 49.5t-103.5 14.5h-223v545h600z" glyph-name="uni2784" horiz-adv-x="1982" unicode="➄"/><glyph d="M991.5 1561q366.5 0 625.5 -259.5t259 -626t-259 -625.5t-625.5 -259t-626 259t-259.5 625.5t259.5 626t626 259.5zM991 1298q-260 0 -436 -176t-176 -446t176 -446.5t436 -176.5t436.5 176.5t176.5 446.5t-176.5 446t-436.5 176zM1337 547q0 -150 -110.5 -249t-258 -99 t-256 99t-108.5 251q0 74 30 136.5t95 148.5l229 301h332l-205 -269q41 -8 101 -42t105.5 -108.5t45.5 -168.5zM970 639q-38 0 -63.5 -24.5t-25.5 -64.5t25.5 -67.5t63.5 -27.5t64.5 26.5t26.5 67.5t-26.5 65.5t-64.5 24.5z" glyph-name="uni2785" horiz-adv-x="1982" unicode="➅"/><glyph d="M991.5 1561q366.5 0 625.5 -259.5t259 -626t-259 -625.5t-625.5 -259t-626 259t-259.5 625.5t259.5 626t626 259.5zM991 1298q-260 0 -436 -176t-176 -446t176 -446.5t436 -176.5t436.5 176.5t176.5 446.5t-176.5 446t-436.5 176zM1354 1135v-72l-369 -848h-305l303 666 h-311v254h682z" glyph-name="uni2786" horiz-adv-x="1982" unicode="➆"/><glyph d="M991.5 1561q366.5 0 625.5 -259.5t259 -626t-259 -625.5t-625.5 -259t-626 259t-259.5 625.5t259.5 626t626 259.5zM991 1298q-260 0 -436 -176t-176 -446t176 -446.5t436 -176.5t436.5 176.5t176.5 446.5t-176.5 446t-436.5 176zM993.5 1151q145.5 0 237.5 -68.5 t92 -189.5t-106 -205q145 -66 145 -204t-103.5 -211.5t-265.5 -73.5t-266 72.5t-104 212.5t145 204q-106 80 -106 203t93 191.5t238.5 68.5zM993.5 934q-73.5 0 -73.5 -64q0 -47 71 -82q76 39 76 84q0 62 -73.5 62zM897 496q0 -80 95 -80t95 78q0 61 -96 102 q-94 -41 -94 -100z" glyph-name="uni2787" horiz-adv-x="1982" unicode="➇"/><glyph d="M991.5 1561q366.5 0 625.5 -259.5t259 -626t-259 -625.5t-625.5 -259t-626 259t-259.5 625.5t259.5 626t626 259.5zM991 1298q-260 0 -436 -176t-176 -446t176 -446.5t436 -176.5t436.5 176.5t176.5 446.5t-176.5 446t-436.5 176zM1013.5 1153q147.5 0 256 -99.5 t108.5 -250.5q0 -74 -29.5 -136.5t-95.5 -148.5l-229 -301h-332l205 268q-41 8 -101 42t-105.5 109t-45.5 169q0 150 110.5 249t258 99zM1013 897q-38 0 -64.5 -26.5t-26.5 -67.5t26.5 -65.5t64.5 -24.5t63.5 24.5t25.5 64.5t-25.5 67.5t-63.5 27.5z" glyph-name="uni2788" horiz-adv-x="1982" unicode="➈"/><glyph d="M2408 518h-1703l-136 8l275 -276l-207 -207l-588 588v63l588 588l207 -207l-271 -270l132 8h1703v-295z" glyph-name="uni27F5" horiz-adv-x="2490" unicode="⟵"/><glyph d="M82 518v295h1704l131 -8l-270 270l206 207l588 -588v-63l-588 -588l-206 207l274 276l-135 -8h-1704z" glyph-name="uni27F6" horiz-adv-x="2490" unicode="⟶"/><glyph d="M203 0v1352h1073v-1352h-1073zM931 252q81 0 126 46t45 106t-35 118t-92 92l-49 -51q92 -88 92 -155q0 -35 -20.5 -57.5t-61.5 -22.5t-82 55t-111 211q168 96 226.5 158.5t58.5 135.5t-56.5 117t-152.5 44q-23 0 -67 -5l53 113l-84 14l-68 -145q-94 -18 -211 -74 q-47 -131 -47 -312t41 -341l86 -16q47 238 88 382t107 302q41 8 84 8q143 0 143 -103q0 -49 -54 -98t-233 -151l-2 -13q80 -203 137.5 -280.5t138.5 -77.5zM469 623q0 137 47 278q49 27 105 41q-104 -266 -134 -528h-14q-4 72 -4 209z" glyph-name="uniF8FF" horiz-adv-x="1478" unicode=""/><glyph d="M1559 317v-606h-353v289h-813v-289h-352v606h215l487 1059h113l487 -1059h216zM801 674l-164 -357h328z" glyph-name="afii10021.aalt" horiz-adv-x="1599"/><glyph d="M1346 0h-379l-291 668l-293 -668h-379l614 1376h113z" glyph-name="afii10029.aalt" horiz-adv-x="1349"/><glyph d="M590 500l-23 59h-264l-20 -59h-281l393 868h82l391 -868h-278zM371 745h129l-64 158z" glyph-name="afii10017.aalt" horiz-adv-x="870"/><glyph d="M690 1352v-236h-330v-616h-260v852h590z" glyph-name="afii10020.aalt" horiz-adv-x="727"/><glyph d="M705 1352v-236h-345v-80h252v-200h-252v-103h361v-233h-621v852h605z" glyph-name="afii10022.aalt" horiz-adv-x="782"/><glyph d="M479.5 1427q-112.5 0 -183.5 72t-71 182h199q0 -66 55 -65q53 0 53 65h201q0 -111 -70.5 -182.5t-183 -71.5zM891 1368v-868h-258v389l-451 -406h-82v869h260v-379l449 395h82z" glyph-name="afii10027.aalt" horiz-adv-x="991"/><glyph d="M993 1368v-868h-260v284l-147 -161h-80l-146 159v-282h-260v868h82l365 -430l364 430h82z" glyph-name="afii10030.aalt" horiz-adv-x="1093"/><glyph d="M513 1368q194 0 330 -128t136 -315t-136 -314.5t-330 -127.5t-329 127t-135 314.5t135 315.5t329 128zM513 1128q-87 0 -142.5 -56t-55.5 -147t54.5 -146.5t142.5 -55.5t145.5 55.5t57.5 146.5t-57.5 147t-144.5 56z" glyph-name="afii10032.aalt" horiz-adv-x="1028"/><glyph d="M113 723h73q84 0 121 31l-297 598h303l142 -312l116 312h297l-274 -641q-96 -227 -350 -228q-53 0 -131 17v223z" glyph-name="afii10037.aalt" horiz-adv-x="870"/><glyph d="M834 500h-293l-123 200l-123 -200h-293l272 430l-258 422h293l109 -193l106 193h293l-254 -422z" glyph-name="afii10039.aalt" horiz-adv-x="835"/><glyph d="M465 1352h319v-852h-260v192h-80l-125 -192h-288l178 276q-115 94 -115 244t106.5 241t264.5 91zM461 1124q-45 0 -74 -28.5t-29 -73.5t29 -73.5t74 -28.5h63v204h-63z" glyph-name="afii10049.aalt" horiz-adv-x="884"/><glyph d="M360 1352v-852h-260v852h260zM770 1352v-244h102q145 0 243.5 -84t98.5 -222t-97 -220t-245 -82h-362v852h260zM874 883h-104v-156h104q35 0 56.5 20.5t21.5 56.5t-21.5 57.5t-56.5 21.5z" glyph-name="afii10045.aalt" horiz-adv-x="1263"/><glyph d="M868 1368q193 0 328 -128t135 -314.5t-134.5 -314.5t-312.5 -128t-298.5 93.5t-155.5 242.5h-70v-319h-260v852h260v-299h76q41 139 158.5 227t273.5 88zM868 723q86 0 142.5 55.5t56.5 147.5t-56.5 147t-142.5 55t-142 -55t-56 -147t56 -147.5t142 -55.5z" glyph-name="afii10048.aalt" horiz-adv-x="1380"/><glyph d="M1352 932q225 0 373.5 -130t148.5 -339t-147.5 -336t-374.5 -127h-385l-291 668l-293 -668h-379l614 1376h113l199 -444h422zM1354 307q74 0 118 43t44 115t-44.5 116t-117.5 44h-289l143 -318h146z" glyph-name="afii10058.aalt" horiz-adv-x="1937"/><glyph d="M1182 453q0 -219 -149.5 -348.5t-387.5 -129.5t-385 142.5t-147 374.5v573q0 219 139.5 357.5t375.5 138.5t346.5 -123.5t110.5 -309.5t-139 -290q236 -111 236 -385zM600 1245q-62 0 -98.5 -47t-36.5 -135v-121h84q182 0 182 160q0 68 -34.5 105.5t-96.5 37.5zM647 289 q82 0 131 49t49 130t-58 137.5t-163 56.5h-141v-158q0 -102 50 -158.5t132 -56.5z" glyph-name="afii10067.aalt" horiz-adv-x="1245"/><glyph d="M451 1051q180 0 287.5 -81t107.5 -216.5t-75 -215t-222 -141.5l-115 -47q-59 -25 -59 -51q0 -45 90 -45q152 0 283 127l163 -209q-150 -197 -444 -197q-186 0 -303 86t-117 240q0 121 75 196.5t224 139.5l103 41q50 19 59.5 31t9.5 24q0 39 -72 39q-113 0 -217 -88 l-166 215q146 152 388 152z" glyph-name="afii10068.locl" horiz-adv-x="933"/><glyph d="M881 1597v-61l-301 -360h-254l131 421h424zM451 1051q180 0 287.5 -81t107.5 -216.5t-75 -215t-222 -141.5l-115 -47q-59 -25 -59 -51q0 -45 90 -45q152 0 283 127l163 -209q-150 -197 -444 -197q-186 0 -303 86t-117 240q0 121 75 196.5t224 139.5l103 41q50 19 59.5 31 t9.5 24q0 39 -72 39q-113 0 -217 -88l-166 215q146 152 388 152z" glyph-name="afii10100.aalt" horiz-adv-x="933"/><glyph d="M467 -25q-186 0 -303 86t-117 240q0 121 75 196.5t224 139.5l103 41q50 19 59.5 31t9.5 24q0 39 -72 39q-113 0 -217 -88l-166 215q86 92 222 131v264h352v-272q209 -70 209 -283q0 -121 -75 -200.5t-222 -141.5l-115 -47q-59 -25 -59 -51q0 -45 90 -45q152 0 283 127 l163 -209q-150 -197 -444 -197z" glyph-name="afii10098.aalt" horiz-adv-x="933"/><glyph d="M848 1024h321v-899q0 -262 -149.5 -390t-398.5 -128q-299 0 -517 184l179 248q154 -117 301 -117q100 0 166.5 45t66.5 135v37q-96 -94 -268 -94q-213 0 -349.5 137t-136.5 366.5t137.5 365t344.5 135.5t303 -129v104zM625 336q82 0 140 58.5t58 160.5t-58 152.5 t-141 50.5t-141.5 -53.5t-58.5 -152.5t59.5 -157.5t141.5 -58.5z" glyph-name="afii10069.locl" horiz-adv-x="1292"/><glyph d="M1087 0h-352v518l-348 -518h-387l365 553l-340 471h407l303 -430v942h352v-942l304 430h407l-340 -471l365 -553h-387l-349 518v-518z" glyph-name="afii10072.aalt" horiz-adv-x="1822"/><glyph d="M983 52q0 -198 -121 -321.5t-350 -123.5q-293 0 -453 182l168 238q137 -106 252 -107q78 0 121 40t43 109.5t-46 107.5t-126 38h-197v295h170q141 0 142 111q0 115 -135 114q-115 0 -234 -82l-166 238q162 158 424 158q219 0 335 -115.5t116 -283.5t-97 -277 q154 -123 154 -321z" glyph-name="afii10073.aalt" horiz-adv-x="1054"/><glyph d="M1114 1024v-547q0 -225 -140 -363.5t-359.5 -138.5t-360.5 138.5t-141 363.5v547h352v-575q0 -66 42 -108t106 -42t106.5 42t42.5 108v575h352z" glyph-name="afii10074.locl" horiz-adv-x="1226"/><glyph d="M995 1546q0 -166 -106.5 -273.5t-274.5 -107.5t-274.5 107.5t-106.5 273.5h273q0 -57 29.5 -90t79 -33t79 33t29.5 90h272zM1114 1024v-547q0 -225 -140 -363.5t-359.5 -138.5t-360.5 138.5t-141 363.5v547h352v-575q0 -66 42 -108t106 -42t106.5 42t42.5 108v575h352z " glyph-name="afii10075.locl" horiz-adv-x="1226"/><glyph d="M188 1597h424l131 -421h-254l-301 360v61zM1114 1024v-547q0 -225 -140 -363.5t-359.5 -138.5t-360.5 138.5t-141 363.5v547h352v-575q0 -66 42 -108t106 -42t106.5 42t42.5 108v575h352z" glyph-name="uni045D.aalt" horiz-adv-x="1226"/><glyph d="M475 0h-352v1536h352v-926l320 414h407l-352 -457l377 -567h-387l-365 541v-541z" glyph-name="afii10076.aalt" horiz-adv-x="1226"/><glyph d="M1182 1597v-61l-301 -360h-254l131 421h424zM475 0h-352v1536h352v-926l320 414h407l-352 -457l377 -567h-387l-365 541v-541z" glyph-name="afii10109.aalt" horiz-adv-x="1226"/><glyph d="M1165 0h-372l-207 461l-209 -461h-373l524 1049h113z" glyph-name="afii10077.aalt" horiz-adv-x="1169"/><glyph d="M735 1049q176 0 282.5 -114t106.5 -304v-631h-352v580q0 68 -42 109.5t-107.5 41.5t-106.5 -42t-41 -109v-580h-352v1024h321v-84q115 109 291 109z" glyph-name="afii10081.aalt" horiz-adv-x="1236"/><glyph d="M1344 1049q196 0 302.5 -114t106.5 -304v-631h-352v580q0 72 -41 111.5t-104.5 39.5t-102.5 -40t-39 -111v-580h-352v580q0 72 -41 111.5t-104.5 39.5t-102.5 -40t-39 -111v-580h-352v1024h321v-80q111 104 291 104t287 -130q126 131 322 131z" glyph-name="afii10084.aalt" horiz-adv-x="1865"/><glyph d="M713 1024h352v-1024h-352v264q-66 -18 -146 -18q-215 0 -359.5 134t-144.5 361v283h353v-258q0 -94 48 -145.5t134 -51.5q49 0 115 17v438z" glyph-name="afii10089.aalt" horiz-adv-x="1187"/><glyph d="M1227 295h78v-584h-353v316q-78 37 -125 94q-117 -145 -309 -145t-298.5 113.5t-106.5 303.5v631h352v-580q0 -68 42 -109.5t107.5 -41.5t106.5 42t41 109v580h352v-614q0 -115 113 -115z" glyph-name="afii10088.aalt" horiz-adv-x="1345"/><glyph d="M1391 1024h352v-1024h-322v80q-111 -104 -291 -104t-286 130q-126 -131 -322 -131t-302.5 114t-106.5 304v631h352v-580q0 -72 40 -111.5t104 -39.5t103.5 40t39.5 111v580h352v-580q0 -72 40 -111.5t104 -39.5t103.5 40t39.5 111v580z" glyph-name="afii10090.aalt" horiz-adv-x="1865"/><glyph d="M1855 295h78v-584h-352v316q-78 37 -123 92q-117 -143 -312 -143t-302 130q-126 -131 -322 -131t-302.5 114t-106.5 304v631h352v-580q0 -72 40 -111.5t104 -39.5t103.5 40t39.5 111v580h352v-580q0 -72 40 -111.5t104 -39.5t103.5 40t39.5 111v580h352v-614 q-1 -115 112 -115z" glyph-name="afii10091.aalt" horiz-adv-x="1974"/><glyph d="M592 807q215 0 345 -100.5t130 -304.5t-131 -315.5t-341 -111.5t-346 123t-136 338v588h352v-217h127zM589 270q54 0 87 31t33 88q0 123 -144 123h-100v-119q0 -55 35 -89t89 -34z" glyph-name="afii10094.aalt" horiz-adv-x="1130"/><glyph d="M676 807q215 0 345 -100.5t130 -304.5t-131 -315.5t-341 -111.5t-346 123t-136 338v293h-197v295h549v-217h127zM673 270q54 0 87 31t33 88q0 123 -144 123h-100v-119q0 -55 35 -89t89 -34z" glyph-name="afii10092.aalt" horiz-adv-x="1214"/><glyph d="M592 807q215 0 345 -100.5t130 -304.5t-131 -315.5t-341 -111.5t-346 123t-136 338v588h352v-217h127zM1204 1024h352v-1024h-352v1024zM589 270q54 0 87 31t33 88q0 123 -144 123h-100v-119q0 -55 35 -89t89 -34z" glyph-name="afii10093.locl" horiz-adv-x="1679"/><glyph d="M1223 807q215 0 345 -100.5t130 -304.5t-131 -315.5t-333 -111.5t-334 106.5t-152 293.5h-273v-375h-352v1024h352v-354h268v354h353v-217h127zM1220 270q54 0 86.5 31t32.5 88q0 123 -143 123h-100v-119q0 -55 35 -89t89 -34z" glyph-name="afii10107.aalt" horiz-adv-x="1761"/><glyph d="M1167 1049q231 0 395 -155t164 -382t-163.5 -382t-395.5 -155q-195 0 -343 111t-195 289h-154v-375h-352v1536h352v-866h158q53 168 199.5 273.5t334.5 105.5zM1167 299q86 0 142.5 59.5t56.5 152.5t-56.5 153.5t-142.5 60.5t-141 -59.5t-55 -154.5t55 -153.5t141 -58.5z " glyph-name="afii10096.locl" horiz-adv-x="1789"/><glyph d="M1143 494q0 -231 -157 -374t-385 -143t-383 146.5t-155 361.5q0 168 97.5 294t251.5 169l-95 72q-143 113 -143 256q0 115 80 187.5t201 72.5h553v-295h-455q-16 0 -16 -10t12 -21l342 -256q252 -186 252 -460zM610 297q78 0 132.5 53t54.5 134t-54.5 133.5t-132.5 52.5 t-132 -52.5t-54 -133.5t54 -134t132 -53z" glyph-name="afii10066.aalt" horiz-adv-x="1206"/><glyph d="M772 1024h352v-1024h-352v436l-297 -260v-176h-352v1024h352v-444l297 258v186z" glyph-name="afii10074.locl" horiz-adv-x="1247"/><glyph d="M366 1165q158 0 241 -74.5t83 -220.5v-370h-235v43q-70 -59 -178.5 -59.5t-166 61t-57.5 150.5t70 139.5t192 50.5h115v10q0 57 -76 57t-172 -61l-96 170q122 104 280 104zM362 659q29 0 48.5 18.5t19.5 53.5v17h-68q-47 0 -47 -44t47 -45z" glyph-name="afii10065.ordn" horiz-adv-x="770"/><glyph d="M604 1151v-217h-258v-434h-260v651h518z" glyph-name="afii10068.ordn" horiz-adv-x="628"/><glyph d="M715 856q0 -49 -17 -102h-399q29 -66 118 -66t156 43l111 -162q-117 -86 -272.5 -86t-260 97.5t-104.5 243.5t102.5 243.5t247.5 97.5t231.5 -92t86.5 -217zM390 975q-79 0 -99 -80h188q-10 80 -89 80z" glyph-name="afii10070.aalt" horiz-adv-x="761"/><glyph d="M434.5 1221q-112.5 0 -183.5 71.5t-71 182.5h201q0 -63 53 -64q55 0 55 64h199q0 -111 -70.5 -182.5t-183 -71.5zM760 1165v-665h-260v237l-332 -254h-82v668h260v-240l332 254h82z" glyph-name="afii10075.ordn" horiz-adv-x="845"/><glyph d="M854 1165v-665h-260v172l-84 -84h-82l-82 82v-170h-260v665h82l301 -313l307 313h78z" glyph-name="afii10078.aalt" horiz-adv-x="940"/><glyph d="M405.5 1165q149.5 0 254 -97t104.5 -242.5t-104.5 -244t-254 -98.5t-254 98.5t-104.5 244t104.5 242.5t254 97zM405.5 928q-45.5 0 -71 -28t-25.5 -75t25.5 -74.5t71 -27.5t71 27.5t25.5 74.5t-25.5 75t-71 28z" glyph-name="afii10080.aalt" horiz-adv-x="811"/><glyph d="M183 252q-87 0 -152 16v217l73 -2q100 0 125 76l-227 592h277l98 -315l117 315h274l-301 -670q-102 -229 -284 -229z" glyph-name="afii10085.ordn" horiz-adv-x="770"/><glyph d="M754 500h-289l-88 141l-88 -141h-289l233 331l-221 320h287l78 -129l76 129h288l-223 -320z" glyph-name="afii10087.ordn" horiz-adv-x="753"/><glyph d="M385 1151h326v-651h-260v116h-48l-96 -116h-289l148 190q-82 72 -82 196t86 194.5t215 70.5zM418 944q-76 0 -76 -60t76 -61h33v121h-33z" glyph-name="afii10097.aalt" horiz-adv-x="796"/><glyph d="M346 1151v-117h66q129 0 215 -70.5t86 -197.5t-86 -196.5t-215 -69.5h-326v651h260zM1040 1151v-651h-260v651h260zM379 827h-33v-120h33q76 0 76 60t-76 60z" glyph-name="afii10093.ordn" horiz-adv-x="1126"/><glyph d="M771 1165q132 0 237.5 -98.5t105.5 -242.5t-105.5 -242.5t-237.5 -98.5t-222 64.5t-123 171.5h-80v-219h-260v649h260v-213h82q35 104 123 166.5t220 62.5zM749 723q42 0 70.5 27.5t28.5 73.5t-27.5 75t-70.5 29t-70 -29t-27 -75t27 -73.5t69 -27.5z" glyph-name="afii10096.ordn" horiz-adv-x="1161"/><glyph d="M297 1167q117 0 187.5 -57.5t70.5 -147.5t-47 -136t-150 -81l-65 -22q-29 -10 -29 -23q0 -20 37 -20t92.5 21.5t93.5 52.5l109 -148q-98 -123 -291 -123q-123 0 -201.5 60.5t-78.5 154.5t48 135t148 74l66 21q31 8 30 22q0 20 -30 21q-70 0 -137 -53l-115 145 q96 104 262 104z" glyph-name="afii10068.locl.ordn" horiz-adv-x="602"/><glyph d="M672 1475q0 -111 -71 -182.5t-183.5 -71.5t-183 71.5t-70.5 182.5h198q0 -63 56 -64q53 0 53 64h201zM750 1151v-336q0 -150 -93.5 -241t-239 -91t-239.5 91.5t-94 240.5v336h260v-356q0 -31 20.5 -51.5t52.5 -20.5t52 20.5t20 51.5v356h261z" glyph-name="afii10075.locl.ordn" horiz-adv-x="835"/><glyph d="M771 1165q132 0 237.5 -98.5t105.5 -242.5t-105.5 -242.5t-237.5 -98.5t-222 64.5t-123 171.5h-80v-219h-260v968h260v-532h82q35 104 123 166.5t220 62.5zM749 723q42 0 70.5 27.5t28.5 73.5t-27.5 75t-70.5 29t-70 -29t-27 -75t27 -73.5t69 -27.5z" glyph-name="afii10096.locl.ordn" horiz-adv-x="1161"/><glyph d="M524 1151h238v-651h-238v51q-55 -68 -180 -68t-211 95.5t-86 245t87 245.5t210 96t180 -67v53zM410 719q39 0 67.5 26.5t28.5 77.5t-28.5 79t-67.5 28t-68 -25.5t-29 -79t29 -80t68 -26.5z" glyph-name="glyph492" horiz-adv-x="847"/><glyph d="M504 1151h260v-537q0 -168 -96 -265q-94 -97 -266 -97t-318 113l129 184q96 -66 174 -66q117 0 117 115v29q-66 -53 -166 -53t-170 73.5t-70 194.5v309h260v-270q0 -35 21.5 -54.5t53.5 -19.5t51.5 20.5t19.5 53.5v270z" glyph-name="glyph493" horiz-adv-x="849"/><glyph d="M848 1024h321v-1024h-321v106q-96 -131 -302 -131t-344.5 149.5t-138.5 385t138.5 387.5t343.5 152t303 -131v106zM624 295q83 0 141 55.5t58 159.5t-58 161.5t-140 57.5t-141.5 -57.5t-59.5 -159.5t58.5 -159.5t141.5 -57.5z" glyph-name="afii10065.salt" horiz-adv-x="1292"/><glyph d="M1360 295v-584h-352v289h-615v-289h-352v584h186l418 754h113l418 -754h184zM702 518l-112 -223h223z" glyph-name="afii10069.salt" horiz-adv-x="1400"/><glyph d="M778 1024h352v-887q0 -246 -137 -388t-379 -142q-143 0 -277 50t-231 132l179 248q147 -115 284 -115q209 0 209 182v37q-110 -96 -274 -96t-269.5 114.5t-105.5 303.5v561h352v-510q0 -68 42 -110t107.5 -42t106.5 42t41 110v510z" glyph-name="afii10085.salt" horiz-adv-x="1245"/><glyph d="M631 1165q-168 0 -274.5 107.5t-106.5 273.5h272q0 -57 30 -90t79 -33t78.5 33t29.5 90h273q0 -166 -106.5 -273.5t-274.5 -107.5zM778 1024h352v-887q0 -246 -137 -388t-379 -142q-143 0 -277 50t-231 132l179 248q147 -115 284 -115q209 0 209 182v37 q-110 -96 -274 -96t-269.5 114.5t-105.5 303.5v561h352v-510q0 -68 42 -110t107.5 -42t106.5 42t41 110v510z" glyph-name="afii10110.aalt" horiz-adv-x="1245"/><glyph d="M1432 1049q215 0 353 -149.5t138 -385t-138 -387.5t-353 -152q-162 0 -263 95v-439h-352v439q-100 -94 -262 -95q-215 0 -353.5 152t-138.5 387.5t138.5 385t353.5 149.5q164 0 262 -95v582h352v-582q99 95 263 95zM625 295q82 0 140 57.5t58 161.5t-58 159.5t-141 55.5 t-141.5 -57.5t-58.5 -159.5t59.5 -159.5t141.5 -57.5zM1362 295q82 0 141.5 57.5t59.5 159.5t-58.5 159.5t-141.5 57.5t-141.5 -55.5t-58.5 -159.5t58.5 -161.5t140.5 -57.5z" glyph-name="afii10086.aalt" horiz-adv-x="1986"/><glyph d="M1118 807q197 0 326 -106.5t129 -297t-129 -297t-326 -106.5h-332l-202 459l-207 -459h-373l524 1049h113l121 -242h356zM1092 295q51 0 86.5 25.5t35.5 79t-36.5 83t-85.5 29.5h-183l109 -217h74z" glyph-name="afii10106.aalt" horiz-adv-x="1636"/><glyph d="M958 1524v-275h-655v275h655zM778 1024h352v-887q0 -246 -137 -388t-379 -142q-143 0 -277 50t-231 132l179 248q147 -115 284 -115q209 0 209 182v37q-110 -96 -274 -96t-269.5 114.5t-105.5 303.5v561h352v-510q0 -68 42 -110t107.5 -42t106.5 42t41 110v510z" glyph-name="uni04EF.aalt" horiz-adv-x="1245"/><glyph d="M776 1597v-61l-260 -360h-233l131 421h362zM1225 1597v-61l-260 -360h-234l131 421h363zM778 514v510h352v-887q0 -246 -137 -388t-379 -142q-143 0 -277 50t-231 132l179 248q147 -115 284 -115q209 0 209 182v37q-110 -96 -274 -96t-269.5 114.5t-105.5 303.5v561h352 v-510q0 -68 42 -110t107.5 -42t106.5 42t41 110z" glyph-name="uni04F3.aalt" horiz-adv-x="1245"/><glyph d="M663.5 1376q272.5 0 417 -191.5t144.5 -500.5t-145.5 -509t-416 -200t-416 200t-145.5 509t144.5 500.5t417 191.5zM663.5 1053q-102.5 0 -151.5 -89.5t-49 -279.5q0 -385 200.5 -385t200.5 385q0 190 -49 279.5t-151.5 89.5z" glyph-name="zero.lnum" horiz-adv-x="1327"/><glyph d="M686 1352v-1352h-352v934l-230 -76l-84 311l553 183h113z" glyph-name="one.lnum" horiz-adv-x="849"/><glyph d="M1122 295v-295l-1034 -2v72l485 530q162 176 162 299q0 72 -39 113t-101 41t-101 -42.5t-39 -100.5t8 -109h-354q-14 57 -15 114q0 182 140.5 321.5t359.5 139.5t360.5 -126t141.5 -318q0 -139 -75 -261t-220 -276l-96 -100h417z" glyph-name="two.lnum" horiz-adv-x="1226"/><glyph d="M1059 451q0 -205 -152.5 -340.5t-376.5 -135.5q-176 0 -310 87.5t-204 236.5l244 172q59 -90 118.5 -131t138.5 -41t130 39t51 111q0 139 -233 139h-193v90l240 356h-385v318h911v-92l-268 -400q125 -47 207 -153.5t82 -255.5z" glyph-name="three.lnum" horiz-adv-x="1140"/><glyph d="M1202 496v-295h-158v-201h-352v201h-667v92l403 1059h363l-330 -856h231v331h352v-331h158z" glyph-name="four.lnum" horiz-adv-x="1220"/><glyph d="M633 891q176 0 314 -119.5t138 -321.5t-154.5 -338.5t-385.5 -136.5q-180 0 -317.5 87.5t-207.5 236.5l244 172q59 -90 120.5 -131t146.5 -41t139.5 40t54.5 112q0 137 -233 137h-322v764h838v-318h-504v-157q76 14 129 14z" glyph-name="five.lnum" horiz-adv-x="1167"/><glyph d="M1104 462q0 -202 -155.5 -344.5t-365.5 -142.5t-365 142.5t-155 361.5q0 111 43.5 200t141.5 220l338 453h415l-301 -408q162 -20 283 -150t121 -332zM583.5 299q71.5 0 122 51t50.5 127t-50.5 125t-122 49t-121.5 -49t-50 -125t50 -127t121.5 -51z" glyph-name="six.lnum" horiz-adv-x="1167"/><glyph d="M82 1352h979v-92l-576 -1260h-383l492 1034h-512v318z" glyph-name="seven.lnum" horiz-adv-x="1105"/><glyph d="M610.5 -25q-231.5 0 -380 106.5t-148.5 289.5q0 223 233 327q-174 118 -174 300t131 280t337 98t337 -98t131 -280t-174 -300q233 -104 234 -327q0 -182 -147.5 -289t-379 -107zM609 1100q-62 0 -104 -31t-42 -78t36 -79.5t111 -69.5q76 37 111 70.5t35 80.5t-42.5 77 t-104.5 30zM609 256q89 0 134 36t45 93t-45 96t-135 72q-88 -33 -133 -72t-45 -96t45 -93t134 -36z" glyph-name="eight.lnum" horiz-adv-x="1218"/><glyph d="M585 1376q210 0 364.5 -142t154.5 -362q0 -111 -43 -199.5t-141 -219.5l-338 -453h-416l301 408q-162 20 -283 150t-121 332t156 344t366 142zM583.5 700q71.5 0 122 49.5t50.5 125t-50.5 127t-122 51.5t-121.5 -51.5t-50 -127t50 -125t121.5 -49.5z" glyph-name="nine.lnum" horiz-adv-x="1167"/><glyph d="M663.5 1376q272.5 0 417 -191.5t144.5 -500.5t-145.5 -509t-416 -200t-416 200t-145.5 509t144.5 500.5t417 191.5zM664 1079q-229 0 -230 -395v-47l379 375q-55 67 -149 67zM674 272q102 0 160.5 105.5t58.5 306.5v35l-377 -375q56 -72 158 -72z" glyph-name="zero.lnum.zero" horiz-adv-x="1327"/><glyph d="M671 1128q249 0 424 -166.5t175 -410.5t-175 -411t-424 -167t-423 167t-174 411t174 410.5t423 166.5zM672 827q-113 0 -186.5 -76.5t-73.5 -199.5q0 -41 8 -72l336 336q-41 12 -84 12zM672 274q111 0 186.5 75t75.5 202q0 51 -12 94l-353 -352q48 -19 103 -19z" glyph-name="zero.zero" horiz-adv-x="1343"/><glyph d="M573 1376q254 0 384 -185t130 -507t-131 -515.5t-382.5 -193.5t-383 193.5t-131.5 515.5t130 507t384 185zM573.5 1053q-81.5 0 -117.5 -85t-36 -286t37 -292t116.5 -91t116.5 91t37 292t-36 286t-117.5 85z" glyph-name="zero.lnum.tnum"/><glyph d="M809 295h293v-295h-983v295h338v645l-291 -82l-84 311l614 183h113v-1057z" glyph-name="one.lnum.tnum"/><glyph d="M1094 295v-295l-1035 -2v72l486 530q162 176 162 299q0 72 -39.5 113t-101.5 41t-101 -42.5t-39 -100.5t8 -109h-354q-14 57 -14 114q0 182 140 321.5t359 139.5t360.5 -126t141.5 -318q0 -139 -74.5 -261t-220.5 -276l-96 -100h418z" glyph-name="two.lnum.tnum"/><glyph d="M1055 451q0 -205 -152.5 -340.5t-376.5 -135.5q-176 0 -310 87.5t-204 236.5l244 172q59 -90 118.5 -131t138.5 -41t130 39t51 111q0 139 -233 139h-193v90l240 356h-385v318h911v-92l-268 -400q125 -47 207 -153.5t82 -255.5z" glyph-name="three.lnum.tnum"/><glyph d="M1126 496v-295h-116v-201h-353v201h-647v92l320 1059h366l-258 -856h219v331h353v-331h116z" glyph-name="four.lnum.tnum"/><glyph d="M635 891q176 0 314 -119.5t138 -321.5t-154.5 -338.5t-385.5 -136.5q-180 0 -317.5 87.5t-206.5 236.5l243 172q59 -90 121.5 -131t146.5 -41t138.5 40t54.5 112q0 137 -233 137h-322v764h838v-318h-504v-157q76 14 129 14z" glyph-name="five.lnum.tnum"/><glyph d="M1094 462q0 -202 -156 -344.5t-366 -142.5t-364.5 142.5t-154.5 361.5q0 111 43 200t142 220l337 453h416l-301 -408q162 -20 283 -150t121 -332zM573.5 299q71.5 0 121.5 51t50 127t-50 125t-123 49t-122 -49t-49 -125t50.5 -127t122 -51z" glyph-name="six.lnum.tnum"/><glyph d="M119 1352h979v-92l-576 -1260h-383l492 1034h-512v318z" glyph-name="seven.lnum.tnum"/><glyph d="M573.5 -25q-231.5 0 -380 106.5t-148.5 289.5q0 223 234 327q-175 118 -175 300t131 280t337 98t337 -98t131 -280t-174 -300q233 -104 234 -327q0 -182 -147.5 -289t-379 -107zM572 1100q-62 0 -104 -31t-42 -78t36 -79.5t111 -69.5q76 37 111 70.5t35 80.5t-42.5 77 t-104.5 30zM572 256q89 0 134.5 36t45.5 93t-45 96t-136 72q-88 -33 -133 -72t-45 -96t45 -93t134 -36z" glyph-name="eight.lnum.tnum"/><glyph d="M574 1376q210 0 365 -142t155 -362q0 -111 -43 -199.5t-142 -219.5l-338 -453h-415l301 408q-162 20 -283 150t-121 332t155.5 344t365.5 142zM574 700q73 0 122 49.5t49 125t-50 127t-121.5 51.5t-122 -51.5t-50.5 -127t50 -125t123 -49.5z" glyph-name="nine.lnum.tnum"/><glyph d="M573 1376q254 0 384 -185t130 -507t-131 -515.5t-382.5 -193.5t-383 193.5t-131.5 515.5t130 507t384 185zM572 1079q-91 0 -136 -94t-45 -301v-4l314 315q-42 84 -133 84zM573 272q180 0 183 396l-312 -310q45 -86 129 -86z" glyph-name="zero.lnum.tnum.zero"/><glyph d="M571.5 1128q227.5 0 383 -160.5t155.5 -416.5t-155.5 -417t-383 -161t-381 161t-153.5 417t153.5 416.5t381 160.5zM571.5 805q-79.5 0 -127 -64.5t-47.5 -189.5t47.5 -189.5t127 -64.5t128 65.5t48.5 188.5t-48.5 188.5t-128 65.5z" glyph-name="zero.tnum"/><glyph d="M799 1106v-811h313v-295h-1003v295h337v496h-319v315h672z" glyph-name="one.tnum"/><glyph d="M1094 295v-295h-1047v72l440 331q115 88 166.5 144.5t51.5 118.5t-40 101.5t-103.5 39.5t-100.5 -39t-37 -102q0 -23 6 -72h-346q-14 57 -14 108q0 170 139 299t357 129t358.5 -121.5t140.5 -301.5q0 -115 -62.5 -211.5t-189.5 -200.5h281z" glyph-name="two.tnum"/><glyph d="M1055 203q0 -205 -152.5 -340t-376.5 -135q-176 0 -310 87t-204 236l244 172q59 -90 118.5 -131t138.5 -41t130 39t51 111q0 143 -233 143h-193v90l240 357h-385v315h911v-92l-268 -398q125 -47 207 -155.5t82 -257.5z" glyph-name="three.tnum"/><glyph d="M1130 295v-295h-116v-248h-352v248h-648v92l305 1014h367l-244 -811h220v332h352v-332h116z" glyph-name="four.tnum"/><glyph d="M635 647q176 0 314 -120.5t138 -323.5t-154.5 -339t-385.5 -136q-180 0 -317.5 87t-206.5 236l243 172q59 -90 121.5 -131t146.5 -41t138.5 40t54.5 112q0 141 -233 141h-322v762h838v-315h-504v-158q76 14 129 14z" glyph-name="five.tnum"/><glyph d="M1094 462q0 -202 -156 -344.5t-366 -142.5t-364.5 142.5t-154.5 361.5q0 111 43 200t142 220l337 453h416l-301 -408q162 -20 283 -150t121 -332zM573.5 299q71.5 0 121.5 51t50 127t-50 125t-123 49t-122 -49t-49 -125t50.5 -127t122 -51z" glyph-name="six.tnum"/><glyph d="M119 1106h979v-92l-578 -1262h-383l494 1039h-512v315z" glyph-name="seven.tnum"/><glyph d="M573.5 -25q-231.5 0 -380 106.5t-148.5 289.5q0 223 234 327q-175 118 -175 300t131 280t337 98t337 -98t131 -280t-174 -300q233 -104 234 -327q0 -182 -147.5 -289t-379 -107zM572 1100q-62 0 -104 -31t-42 -78t36 -79.5t111 -69.5q76 37 111 70.5t35 80.5t-42.5 77 t-104.5 30zM572 256q89 0 134.5 36t45.5 93t-45 96t-136 72q-88 -33 -133 -72t-45 -96t45 -93t134 -36z" glyph-name="eight.tnum"/><glyph d="M574 1130q210 0 365 -142t155 -361q0 -111 -43 -200t-142 -220l-338 -455h-415l301 410q-162 20 -283 150t-121 332t155.5 344t365.5 142zM574 455q73 0 122 49t49 125t-50 127t-121.5 51t-122 -51t-50.5 -127t50 -125t123 -49z" glyph-name="nine.tnum"/><glyph d="M571.5 1128q227.5 0 383 -160.5t155.5 -416.5t-155.5 -417t-383 -161t-381 161t-153.5 417t153.5 416.5t381 160.5zM573 831q-94 0 -149 -73.5t-55 -206.5v-29l290 291q-41 18 -86 18zM573 270q94 0 149.5 75t55.5 206q0 33 -2 49l-303 -303q47 -27 100 -27z" glyph-name="zero.tnum.zero"/><glyph d="M439 868q175 0 269.5 -121.5t94.5 -316.5t-95.5 -320.5t-269.5 -125.5t-268 126t-94 320t94 316t269 122zM438 639q-106 0 -106 -213t108 -213t107 217q0 113 -27 161t-82 48z" glyph-name="zero.dnom" horiz-adv-x="878"/><glyph d="M539 852v-627h170v-225h-629v225h209v402h-187v225h437z" glyph-name="one.dnom" horiz-adv-x="782"/><glyph d="M731 225v-225l-665 -2v51l305 336q92 102 92 178t-71 76t-70 -84q0 -6 4 -55h-250q-8 35 -8 71q0 117 91 207t232 90t234.5 -80.5t93.5 -205.5q0 -88 -47 -165t-140 -177l-14 -15h213z" glyph-name="two.dnom" horiz-adv-x="808"/><glyph d="M684 287q0 -129 -97.5 -216t-227.5 -87t-217 56t-130 155l172 120q66 -102 155 -102t89 74q0 68 -131 67h-109v62l136 211h-240v225h590v-66l-158 -243q72 -33 120 -99.5t48 -156.5z" glyph-name="three.dnom" horiz-adv-x="745"/><glyph d="M780 324v-205h-92v-119h-229v119h-441v65l248 668h258l-198 -528h133v194h229v-194h92z" glyph-name="four.dnom" horiz-adv-x="792"/><glyph d="M420 567q109 0 195.5 -75.5t86.5 -203.5t-99 -216t-233 -88t-223.5 56t-132.5 155l172 120q70 -102 165 -102t95 74q0 68 -131 67h-204v498h548v-225h-311v-68q33 8 72 8z" glyph-name="five.dnom" horiz-adv-x="763"/><glyph d="M719 294q0 -128 -101.5 -219t-235.5 -91t-234.5 92t-100.5 233q0 68 26.5 124t90.5 138l213 281h293l-189 -250q94 -20 166 -100t72 -208zM383 213q37 0 63.5 26.5t26.5 65.5t-26.5 65.5t-63.5 26.5t-63.5 -26.5t-26.5 -65.5t26.5 -65.5t63.5 -26.5z" glyph-name="six.dnom" horiz-adv-x="765"/><glyph d="M74 852h626v-66l-346 -786h-270l289 627h-299v225z" glyph-name="seven.dnom" horiz-adv-x="733"/><glyph d="M741 247q0 -128 -96 -195.5t-243.5 -67.5t-244 67.5t-96.5 195.5t138 191q-101 74 -101 189t85 178t218.5 63t218.5 -63.5t84.5 -176t-100.5 -190.5q137 -63 137 -191zM401.5 672q-32.5 0 -54 -15.5t-21.5 -40.5q0 -37 75 -75q76 37 76 75q0 25 -21.5 40.5t-54 15.5z M307 248q0 -66 93 -66t94 66q0 51 -93 88q-94 -35 -94 -88z" glyph-name="eight.dnom" horiz-adv-x="802"/><glyph d="M384 868q134 0 234.5 -92t100.5 -233q0 -68 -26.5 -124.5t-90.5 -137.5l-213 -281h-293l189 250q-94 20 -166 100t-72 208t101.5 219t235.5 91zM383 455q37 0 63.5 26.5t26.5 65.5t-26.5 65.5t-63.5 26.5t-63.5 -26.5t-26.5 -65.5t26.5 -65.5t63.5 -26.5z" glyph-name="nine.dnom" horiz-adv-x="765"/><glyph d="M439 1368q175 0 269.5 -122t94.5 -316t-95.5 -320.5t-269.5 -126.5t-268 126t-94 321t94 316.5t269 121.5zM438 1139q-106 0 -106 -213t108 -213t107 217q0 113 -27 161t-82 48z" glyph-name="zero.numr" horiz-adv-x="878"/><glyph d="M539 1352v-627h170v-225h-629v225h209v401h-187v226h437z" glyph-name="one.numr" horiz-adv-x="782"/><glyph d="M731 725v-225l-665 -2v51l305 336q92 102 92 178t-71 76t-70 -84q0 -6 4 -56h-250q-8 35 -8 72q0 117 91 207t232 90t234.5 -81t93.5 -206q0 -88 -53.5 -175t-147.5 -181h213z" glyph-name="two.numr" horiz-adv-x="808"/><glyph d="M684 786q0 -129 -97.5 -216t-227.5 -87t-217 56.5t-130 154.5l172 121q66 -102 155 -102t89 73q0 68 -131 68h-109v61l136 211h-240v226h590v-66l-158 -244q72 -33 120 -99t48 -157z" glyph-name="three.numr" horiz-adv-x="745"/><glyph d="M780 823v-205h-92v-118h-229v118h-441v66l248 668h258l-198 -529h133v195h229v-195h92z" glyph-name="four.numr" horiz-adv-x="792"/><glyph d="M420 1067q109 0 195.5 -75.5t86.5 -203.5t-99 -216.5t-233 -88.5t-223.5 56.5t-132.5 154.5l172 121q70 -102 165 -102t95 73q0 68 -131 68h-204v498h548v-226h-311v-67q33 8 72 8z" glyph-name="five.numr" horiz-adv-x="763"/><glyph d="M719 794q0 -128 -101.5 -219.5t-235.5 -91.5t-234.5 92.5t-100.5 233.5q0 68 26.5 124t90.5 138l213 281h293l-189 -250q94 -20 166 -100t72 -208zM383 713q37 0 63.5 26.5t26.5 65.5t-26.5 65.5t-63.5 26.5t-63.5 -26.5t-26.5 -65.5t26.5 -65.5t63.5 -26.5z" glyph-name="six.numr" horiz-adv-x="765"/><glyph d="M74 1352h626v-66l-346 -786h-270l289 626h-299v226z" glyph-name="seven.numr" horiz-adv-x="733"/><glyph d="M741 746q0 -128 -96 -195.5t-243.5 -67.5t-244 67.5t-96.5 195.5t138 192q-101 74 -101 188t85 178t218.5 64t218.5 -63.5t84.5 -176t-100.5 -190.5q137 -64 137 -192zM401.5 1171q-32.5 0 -54 -15t-21.5 -40q0 -37 75 -76q76 37 76 76q0 25 -21.5 40t-54 15zM307 748 q0 -66 93 -66t94 66q0 51 -93 88q-94 -35 -94 -88z" glyph-name="eight.numr" horiz-adv-x="802"/><glyph d="M384 1368q134 0 234.5 -92t100.5 -234q0 -68 -26.5 -124t-90.5 -138l-213 -280h-293l189 250q-94 20 -166 100t-72 208t101.5 219t235.5 91zM383 954q37 0 63.5 27t26.5 65.5t-26.5 65.5t-63.5 27t-63.5 -27t-26.5 -65.5t26.5 -65.5t63.5 -27z" glyph-name="nine.numr" horiz-adv-x="765"/><glyph d="M0 1559h362l1024 -1764h-362z" glyph-name="backslash.aalt" horiz-adv-x="1386"/><glyph d="M279 934q100 0 164.5 -66.5t64.5 -163.5t-64.5 -163t-164.5 -66t-166 65.5t-66 163.5t66 164t166 66z" glyph-name="periodcentered.aalt" horiz-adv-x="552"/><glyph d="M471 965q158 0 265.5 -105.5t107.5 -257t-107.5 -257t-265.5 -105.5t-266.5 105.5t-108.5 257t108.5 257t266.5 105.5z" glyph-name="bullet.aalt" horiz-adv-x="940"/><glyph d="M1386 1559l-1024 -1764h-362l1024 1764h362z" glyph-name="slash.case" horiz-adv-x="1386"/><glyph d="M367 -25l-93 -497h-204l2 497h295z" glyph-name="comma.inferior" horiz-adv-x="411"/><glyph d="M207 76q74 0 122 -49.5t48 -121t-48 -120.5t-122 -49t-123 48t-49 121t49 122t123 49z" glyph-name="period.inferior" horiz-adv-x="411"/><glyph d="M367 967l-93 -498h-204l2 498h295z" glyph-name="comma.superior" horiz-adv-x="411"/><glyph d="M207 1067q74 0 122 -49t48 -121t-48 -121t-122 -49t-123 48t-49 121t49 122t123 49z" glyph-name="period.superior" horiz-adv-x="411"/><glyph d="M453 674q157 -27 157 -162q0 -63 -20.5 -182t-20.5 -162t29 -70.5t80 -27.5h127v-275h-189q-338 0 -337 299q0 63 20 181t20 153q0 100 -104 100h-133v295h133q104 0 104 101q0 35 -20 152.5t-20 180.5q0 299 337 299h189v-274h-127q-51 0 -80 -27.5t-29 -70.5 t20.5 -161.5t20.5 -182.5q0 -134 -157 -166z" glyph-name="braceleft.aalt" horiz-adv-x="866"/><glyph d="M414 674q-158 32 -158 166q0 64 20.5 182.5t20.5 151.5q0 108 -109 108h-127v274h189q338 0 338 -299q0 -63 -20.5 -181t-20.5 -152q0 -101 104 -101h133v-295h-133q-104 0 -104 -100q0 -35 20.5 -152.5t20.5 -181.5q0 -299 -338 -299h-189v275h127q51 0 80 27.5t29 70.5 t-20.5 161.5t-20.5 182.5q0 132 158 162z" glyph-name="braceright.aalt" horiz-adv-x="866"/><glyph d="M690 1556v-274h-231v-1212h231v-275h-522v1761h522z" glyph-name="bracketleft.aalt" horiz-adv-x="751"/><glyph d="M584 1556v-1761h-523v275h232v1212h-232v274h523z" glyph-name="bracketright.aalt" horiz-adv-x="751"/><glyph d="M422 676q0 -479 319 -694l-137 -201q-211 92 -344 318.5t-133 576.5t133 576.5t344 318.5l137 -201q-319 -215 -319 -694z" glyph-name="parenleft.case" horiz-adv-x="790"/><glyph d="M664 676q0 -350 -133.5 -576.5t-344.5 -318.5l-137 201q319 215 319.5 694t-319.5 694l137 201q211 -92 344.5 -318.5t133.5 -576.5z" glyph-name="parenright.case" horiz-adv-x="790"/><glyph d="M1946 854v-295h-1844v295h1844z" glyph-name="emdash.aalt" horiz-adv-x="2048"/><glyph d="M963 854v-295h-902v295h902z" glyph-name="endash.case" horiz-adv-x="1024"/><glyph d="M1946 854v-295h-1844v295h1844z" glyph-name="afii00208.aalt" horiz-adv-x="2048"/><glyph d="M614 854v-295h-532v295h532z" glyph-name="hyphen.case" horiz-adv-x="696"/><glyph d="M614 854v-295h-532v295h532z" glyph-name="uni00AD.aalt" horiz-adv-x="696"/><glyph d="M469 1124l223 -194l-266 -307l266 -308l-223 -194l-422 454v93zM1073 1124l223 -194l-266 -307l266 -308l-223 -194l-422 454v93z" glyph-name="guillemotleft.aalt" horiz-adv-x="1347"/><glyph d="M274 1124l422 -456v-93l-422 -454l-223 194l266 308l-266 307zM879 1124l421 -456v-93l-421 -454l-224 194l267 308l-267 307z" glyph-name="guillemotright.aalt" horiz-adv-x="1347"/><glyph d="M469 1124l223 -194l-266 -307l266 -308l-223 -194l-422 454v93z" glyph-name="guilsinglleft.aalt" horiz-adv-x="743"/><glyph d="M274 1124l422 -456v-93l-422 -454l-223 194l266 308l-266 307z" glyph-name="guilsinglright.aalt" horiz-adv-x="743"/><glyph d="M627 453q123 0 211 135l243 -185q-111 -223 -360 -266v-340h-295v365q-162 55 -262.5 191t-100.5 312.5t100.5 312.5t262.5 191v363h295v-338q250 -43 360 -266l-243 -187q-88 137 -211 138q-92 0 -147.5 -59.5t-55.5 -154t55.5 -153.5t147.5 -59z" glyph-name="cent.aalt"/><glyph d="M1020 670q0 -111 -51 -203l174 -182l-209 -209l-191 198q-162 -70 -356 -10l-172 -188l-209 209l146 159q-64 98 -64 220t68 225l-150 158l209 208l176 -184q84 27 171 27t179 -35l193 192l209 -208l-176 -177q53 -89 53 -200zM446 668q0 -106 109 -107q47 0 75.5 28.5 t28.5 78t-29.5 78t-78.5 28.5t-77 -28.5t-28 -77.5z" glyph-name="currency.aalt"/><glyph d="M1047 428q0 -147 -93.5 -244.5t-246.5 -130.5v-256h-295v262q-238 59 -346 273l233 178q106 -162 276 -162q127 0 127 74q0 33 -28.5 52.5t-93.5 41.5l-138 45q-154 53 -235.5 149.5t-81.5 223.5t78 219t209 129v250h295v-246q199 -49 299 -242l-234 -178 q-86 127 -207 127q-96 0 -96 -61q0 -47 102 -84l154 -47q322 -113 322 -373z" glyph-name="dollar.aalt"/><glyph d="M836 299q96 0 213 41l86 -301q-139 -63 -337 -63t-356.5 112.5t-230.5 304.5h-170v234h125q-2 16 -2 51v39h-123v233h166q70 197 229.5 311.5t382.5 114.5q176 0 316 -63l-86 -301q-111 41 -213 41q-147 0 -232 -103h428l-65 -233h-441q-2 -14 -2 -44t2 -46h416l-65 -234 h-265q83 -94 224 -94z" glyph-name="Euro.aalt"/><glyph d="M940 1061q-172 0 -186 -135l-11 -86h213v-295h-247l-50 -402q-27 -221 -141.5 -318t-318.5 -97q-115 0 -189 24l-2 295q74 -4 140 -4t110.5 29.5t52.5 105.5l45 367h-184v295h219l15 121q27 221 141.5 318t318.5 97q117 0 191 -24v-295q-74 4 -117 4z" glyph-name="glyph583"/><glyph d="M1026 950h100v-233h-1103v233h641q2 6 2 21q0 82 -120 82t-241 -84l-168 241q156 166 416 166q213 0 343 -110.5t130 -292.5v-23zM23 393v234h1103v-234h-677q0 -94 135 -94q168 0 319 82l148 -250q-193 -156 -467 -156q-229 0 -361.5 111t-134.5 307h-65z" glyph-name="uni20B4.aalt"/><glyph d="M637 1352q197 0 326 -107.5t129 -300t-130.5 -302.5t-324.5 -110h-105v-90h418v-274h-418v-168h-331v168h-156v274h156v90h-156v295h156v525h436zM631 1057h-99v-230h99q49 0 86 29t37 84t-36 86t-87 31z" glyph-name="uni20BD.aalt"/><glyph d="M1110 295v-295h-1065v72q137 106 202.5 190t67.5 180h-249v295h139q-57 119 -58 224q0 188 137.5 301.5t333.5 113.5t328.5 -98t183.5 -295l-288 -104q-55 174 -189 174q-70 0 -109.5 -42t-39.5 -112t55 -162h334v-295h-227q-4 -80 -39 -147h483z" glyph-name="sterling.aalt"/><glyph d="M1106 1034h-356v-127l280 72v-285l-280 -71v-91l280 72v-285l-280 -71v-248h-353v156l-280 -72v285l280 71v90l-280 -71v284l280 72v219h-356v318h1065v-318z" glyph-name="uni20B8.aalt"/><glyph d="M61 1352h1024v-318h-1024v318zM61 627v317h1024v-317h-335v-627h-353v627h-336z" glyph-name="uni20AE.aalt"/><glyph d="M1061 786v-274h-309v-90h309v-275h-309v-147h-353v147h-309v275h309v90h-309v274h260l-334 566h390l169 -348l170 348h388l-334 -566h262z" glyph-name="yen.aalt"/><glyph d="M1210 572q0 -114 -61.5 -194.5t-163.5 -121.5q6 -35 6 -72q0 -160 -114.5 -257t-284.5 -97t-288 67.5t-169 178.5l211 172q80 -129 225 -129q98 0 99 69q0 29 -23.5 50.5t-103.5 66.5l-164 92q-178 94 -253 181.5t-75 201.5t61.5 194.5t163.5 121.5q-6 35 -6 71 q0 160 115 257.5t285 97.5t287.5 -68t168.5 -178l-211 -172q-78 129 -225 129q-98 0 -98 -70q0 -29 23.5 -50t103.5 -66l164 -93q178 -94 252.5 -181t74.5 -201zM889 546q0 44 -34 80t-126 87l-190 104q-78 45 -117 74q-49 -39 -49 -84t33.5 -81t125.5 -87l164 -90 q90 -49 144 -90q49 43 49 87z" glyph-name="section.aalt" horiz-adv-x="1261"/><glyph d="M616 1864v-62l-301 -319h-254l132 381h423z" glyph-name="acute.aalt" horiz-adv-x="677"/><glyph d="M823 1864q0 -166 -106.5 -273.5t-274.5 -107.5t-274.5 107.5t-106.5 273.5h273q0 -57 29.5 -90t79 -33t79 32.5t29.5 90.5h272z" glyph-name="breve.aalt" horiz-adv-x="884"/><glyph d="M263 1866q81 0 139.5 -55.5t58.5 -134.5t-59.5 -136t-138.5 -57t-140.5 58t-61.5 135t60.5 133.5t141.5 56.5zM826 1864q81 0 139.5 -55.5t58.5 -134.5t-59.5 -136t-138.5 -57t-140 58t-61 135t60 133.5t141 56.5z" glyph-name="dieresis.aalt" horiz-adv-x="1085"/><glyph d="M45 1864h424l131 -381h-254l-301 319v62z" glyph-name="grave.aalt" horiz-adv-x="661"/><glyph d="M555 1864v-62l-260 -319h-234l132 381h362zM1044 1864v-62l-260 -319h-233l131 381h362z" glyph-name="hungarumlaut.aalt" horiz-adv-x="1105"/><glyph d="M535 1864v-62l-220 -319h-254l50 381h424z" glyph-name="glyph596" horiz-adv-x="595"/><glyph d="M758 1800v-274h-697v274h697z" glyph-name="macron.aalt" horiz-adv-x="819"/><glyph d="M263 1579q81 0 139.5 -55.5t58.5 -134.5t-59.5 -136t-138.5 -57t-140.5 59t-61.5 135t60.5 132.5t141.5 56.5zM765 1579q81 0 139.5 -55.5t58.5 -134.5t-59.5 -136t-138.5 -57t-140.5 59t-61.5 135t60.5 132.5t141.5 56.5z" glyph-name="glyph598" horiz-adv-x="1024"/><glyph d="M389 1597v-421h-328l74 421h254z" glyph-name="glyph599" horiz-adv-x="450"/></font>
</defs>
</svg>
