<?xml version="1.0" standalone="no"?>
<!DOCTYPE svg PUBLIC "-//W3C//DTD SVG 1.1//EN" "http://www.w3.org/Graphics/SVG/1.1/DTD/svg11.dtd">
<svg xmlns="http://www.w3.org/2000/svg"><metadata>This SVG WebFont was generated by YouWorkForThem.
Copyright (c) 2015, 2018 by Jakob Runge, under exclusive license to TypeMates. All rights reserved.</metadata><defs><font horiz-adv-x="1146" id="ywftsvg"><font-face ascent="1655" bbox="-909 -496 2669 2048" cap-height="1352" descent="-393" font-family="" font-stretch="normal" font-weight="400" panose-1="0 0 5 0 0 0 0 0 0 0" underline-position="0" underline-thickness="0" unicode-range="U+0020-FB02" units-per-em="2048" x-height="997"/><missing-glyph d="M186 1352h1076v-1352h-1076v1352zM1143 106v1137h-842z" horiz-adv-x="1447"/><glyph d="M199 1235q0 164 89 244t240 80q66 0 125 -17v-133q-49 6 -88 6q-100 0 -154.5 -42t-54.5 -148v-228h250v-141h-250v-856h-157v856h-144v141h144v238zM905 1493q47 0 82 -34t35 -81q0 -49 -34 -81.5t-83 -32.5t-84 32.5t-35 81.5q0 47 35 81t84 34zM825 0v997h158v-997 h-158z" glyph-name="uniFB01" horiz-adv-x="1155" unicode="fi"/><glyph d="M199 1235q0 164 89 244t240 80q66 0 125 -17v-133q-49 6 -88 6q-100 0 -154.5 -42t-54.5 -148v-228h250v-141h-250v-856h-157v856h-144v141h144v238zM825 1536h158v-1536h-158v1536z" glyph-name="uniFB02" horiz-adv-x="1155" unicode="fl"/><glyph d="M186 1352h1076v-1352h-1076v1352zM1143 106v1137h-842z" glyph-name=".notdef" horiz-adv-x="1447"/><glyph glyph-name="glyph1" horiz-adv-x="0"/><glyph glyph-name="glyph2" horiz-adv-x="681"/><glyph glyph-name="space" horiz-adv-x="573" unicode=" "/><glyph d="M246 428l-31 924h191l-29 -924h-131zM311 -23q-53 0 -91 37t-38 92.5t38 92.5t91 37q55 0 92 -37t37 -92.5t-37 -92.5t-92 -37z" glyph-name="exclam" horiz-adv-x="624" unicode="!"/><glyph d="M193 825l28 527h185l-89 -527h-124zM569 825l27 527h184l-88 -527h-123z" glyph-name="quotedbl" horiz-adv-x="948" unicode="&quot;"/><glyph d="M1165 862h-198l-49 -373h200v-135h-219l-49 -354h-133l47 354h-391l-49 -354h-134l48 354h-181v135h199l49 373h-199v135h218l47 355h137l-49 -355h391l47 355h137l-49 -355h180v-135zM391 489h391l49 373h-391z" glyph-name="numbersign" horiz-adv-x="1222" unicode="#"/><glyph d="M969 381q0 -137 -95.5 -226t-246.5 -108v-240h-158v242q-250 39 -387 281l115 82q137 -227 360 -228q111 0 181.5 52.5t70.5 142.5q0 74 -51 121t-156 94l-145 61q-131 55 -208 131t-77 199t83 205t214 102v244h158v-240q201 -27 315 -219l-108 -84q-106 164 -277 164 q-90 0 -157.5 -42t-67.5 -128q0 -39 13 -69.5t44 -55t57.5 -40t75.5 -38.5l150 -61q143 -59 220 -140t77 -202z" glyph-name="dollar" horiz-adv-x="1097" unicode="$"/><glyph d="M471 715q-141 0 -238.5 95t-97.5 234.5t97.5 234.5t238.5 95q139 0 236.5 -95t97.5 -234.5t-97.5 -234.5t-236.5 -95zM406 0l774 1352h141l-774 -1352h-141zM471 831q88 0 145.5 61.5t57.5 152t-57.5 151.5t-145.5 61t-145.5 -60t-57.5 -152.5t57.5 -153t145.5 -60.5z M1253.5 -20q-139.5 0 -235.5 95t-96 234.5t96 234.5t235.5 95t237.5 -95t98 -234.5t-98 -234.5t-237.5 -95zM1255 98q86 0 143.5 60.5t57.5 150.5q0 92 -57.5 152.5t-143.5 60.5q-88 0 -145 -60.5t-57 -152.5q0 -90 57 -150.5t145 -60.5z" glyph-name="percent" horiz-adv-x="1724" unicode="%"/><glyph d="M1233 598q-162 -246 -227 -332l223 -266h-193l-129 154q-176 -176 -391 -177q-180 0 -297 99.5t-117 253.5q0 109 69 203t237 219q-145 182 -146 325q0 133 83 215t218 82q129 0 213 -78.5t84 -199.5q0 -178 -242 -363l287 -344q18 25 197 295zM563 1229 q-145 0 -145 -152q0 -98 114 -239q92 76 132.5 132t40.5 120q0 66 -38 102.5t-104 36.5zM520 125q154 0 289 147l-309 371q-141 -111 -185.5 -168t-44.5 -131q0 -96 70.5 -157.5t179.5 -61.5z" glyph-name="ampersand" horiz-adv-x="1280" unicode="&amp;"/><glyph d="M193 825l28 527h185l-89 -527h-124z" glyph-name="quotesingle" horiz-adv-x="573" unicode="'"/><glyph d="M557 -268q-172 84 -284.5 298t-112.5 586q0 375 112.5 589t284.5 298l68 -108q-309 -201 -310 -779q0 -584 310 -776z" glyph-name="parenleft" horiz-adv-x="681" unicode="("/><glyph d="M127 -268l-70 108q311 193 312 776q0 575 -312 779l70 108q80 -39 146.5 -104.5t125 -169t91 -260t32.5 -353.5q0 -375 -112.5 -587.5t-282.5 -296.5z" glyph-name="parenright" horiz-adv-x="681" unicode=")"/><glyph d="M745 1319l-192 -131l192 -131l-51 -84l-209 100l-16 -231h-98l-19 231l-209 -100l-49 84l193 131l-193 131l49 86l209 -100l19 231h98l16 -231l209 100z" glyph-name="asterisk" horiz-adv-x="839" unicode="*"/><glyph d="M500 180v395h-385v140h385v389h155v-389h375v-140h-375v-395h-155z" glyph-name="plus" unicode="+"/><glyph d="M184 -367l27 551h186l-84 -551h-129z" glyph-name="comma" horiz-adv-x="573" unicode=","/><glyph d="M109 578v133h489v-133h-489z" glyph-name="hyphen" horiz-adv-x="708" unicode="-"/><glyph d="M286.5 -23q-53.5 0 -91 37t-37.5 92.5t37.5 92.5t91 37t91.5 -37t38 -92.5t-38 -92.5t-91.5 -37z" glyph-name="period" horiz-adv-x="573" unicode="."/><glyph d="M14 -248l1071 1845h187l-1071 -1845h-187z" glyph-name="slash" horiz-adv-x="1286" unicode="/"/><glyph d="M631 -23q-248 0 -372 200t-124 511q0 309 125 497.5t371 188.5t369.5 -187.5t123.5 -498.5q0 -201 -49 -356.5t-162.5 -255t-281.5 -99.5zM631 125q170 0 248.5 151.5t78.5 409.5q0 541 -327 541q-330 0 -330 -541q0 -258 80 -409.5t250 -151.5z" glyph-name="zero" horiz-adv-x="1259" unicode="0"/><glyph d="M496 1352h59v-1352h-160v1163l-295 -92l-39 137z" glyph-name="one" horiz-adv-x="776" unicode="1"/><glyph d="M399 143h637v-143h-940v41l482 512q123 129 180 218t57 185q0 113 -70.5 192t-189.5 79q-123 0 -196.5 -82t-73.5 -197q0 -57 12 -112h-164q-14 55 -14 118q0 166 119.5 293t316.5 127q186 0 306 -116.5t120 -292.5q0 -94 -46 -191.5t-95 -158t-142 -156.5z" glyph-name="two" unicode="2"/><glyph d="M598 844q162 -14 277.5 -123t115.5 -293q0 -203 -141 -327t-338 -124q-156 0 -273.5 79t-185.5 202l113 80q141 -213 344 -213q139 0 227 83t88 218q0 131 -89 205t-253 74h-133v47l355 452h-560v148h811v-47z" glyph-name="three" horiz-adv-x="1101" unicode="3"/><glyph d="M1077 391v-139h-196v-252h-160v252h-678v45l444 1055h164l-405 -961h475v451h160v-451h196z" glyph-name="four" horiz-adv-x="1122" unicode="4"/><glyph d="M563 846q195 0 329 -107.5t134 -310.5t-141.5 -327t-337.5 -124q-162 0 -279.5 78t-187.5 201l110 82q139 -213 355 -213q137 0 226 83t89 218q0 133 -89 207t-255 74h-305v645h739v-144h-579v-379q94 17 192 17z" glyph-name="five" horiz-adv-x="1136" unicode="5"/><glyph d="M584 874q182 0 311 -128t129 -314q0 -193 -134 -324t-326.5 -131t-327 131.5t-134.5 325.5q0 31 5.5 62.5t9.5 55t18.5 56.5t21.5 48.5t29.5 52t29.5 48t37 54.5t36 53l336 488h190l-344 -496q50 18 113 18zM563 123q129 0 216 89t87 220q0 129 -87 218t-216 89t-216 -89 t-87 -218q0 -131 87 -220t216 -89z" glyph-name="six" horiz-adv-x="1128" unicode="6"/><glyph d="M72 1352h903v-47l-684 -1305h-174l643 1208h-688v144z" glyph-name="seven" horiz-adv-x="1026" unicode="7"/><glyph d="M743 709q322 -121 322 -365q0 -164 -130 -265.5t-343 -101.5q-215 0 -346 102.5t-131 266.5q0 248 321 361q-258 121 -258 331q0 158 118 247t296 89q174 0 291.5 -89t117.5 -247q0 -216 -258 -329zM336 1032q0 -86 62.5 -141t191.5 -109q129 51 191.5 106.5t62.5 143.5 q0 96 -71 150.5t-181 54.5q-113 0 -184.5 -54.5t-71.5 -150.5zM591.5 115q149.5 0 230.5 64.5t81 171t-79 167t-232 115.5q-156 -55 -236 -116.5t-80 -166.5q0 -106 83 -170.5t232.5 -64.5z" glyph-name="eight" horiz-adv-x="1183" unicode="8"/><glyph d="M565.5 1374q192.5 0 325.5 -131t133 -325q0 -25 -3 -50.5t-6 -45t-12.5 -46t-13.5 -40t-20.5 -43t-20.5 -39t-25.5 -42t-25.5 -39t-29.5 -44t-29.5 -42.5l-336 -487h-189l344 496q-49 -18 -114 -19q-180 0 -310.5 128t-130.5 315q0 193 135.5 323.5t328 130.5zM565 612 q129 0 215 89.5t86 220.5t-86 219t-215 88t-217 -88t-88 -219t88 -220.5t217 -89.5z" glyph-name="nine" horiz-adv-x="1128" unicode="9"/><glyph d="M286.5 750q-53.5 0 -91 35.5t-37.5 93.5q0 55 37.5 92t91 37t91.5 -37t38 -92q0 -57 -38 -93t-91.5 -36zM286.5 -23q-53.5 0 -91 37t-37.5 92.5t37.5 92.5t91 37t91.5 -37t38 -92.5t-38 -92.5t-91.5 -37z" glyph-name="colon" horiz-adv-x="573" unicode=":"/><glyph d="M286.5 750q-53.5 0 -91 35.5t-37.5 93.5q0 55 37.5 92t91 37t91.5 -37t38 -92q0 -57 -38 -93t-91.5 -36zM184 -367l27 551h186l-84 -551h-129z" glyph-name="semicolon" horiz-adv-x="573" unicode=";"/><glyph d="M1004 1053v-148l-619 -260l619 -258v-149l-898 383v49z" glyph-name="less" unicode="&lt;"/><glyph d="M135 786v142h877v-142h-877zM135 362v140h877v-140h-877z" glyph-name="equal" unicode="="/><glyph d="M143 1053l899 -383v-49l-899 -383v149l619 258l-619 260v148z" glyph-name="greater" unicode=">"/><glyph d="M352 428q-20 41 -20 90t25.5 95t54 77t84.5 80q90 84 124.5 133t34.5 119q0 90 -58 148.5t-142 58.5q-168 0 -230 -197l-133 55q41 137 136.5 212t230.5 75q152 0 256 -97t104 -245q0 -94 -48 -169t-146 -163q-55 -51 -80 -75.5t-45.5 -60.5t-20.5 -70q0 -18 10 -66h-137 zM430 -23q-51 0 -90 37t-39 92.5t39 92.5t90 37q55 0 93 -37t38 -92.5t-38 -92.5t-93 -37z" glyph-name="question" horiz-adv-x="911" unicode="?"/><glyph d="M969 1346q350 0 585.5 -221.5t235.5 -538.5q0 -240 -145.5 -376t-378.5 -136h-49v133q-47 -74 -130 -115t-182 -41q-176 0 -291.5 125t-115.5 311.5t115.5 310.5t293.5 124q197 0 297 -136v119h148v-692q135 10 215 106.5t80 266.5q0 268 -188.5 446t-485.5 178 q-313 0 -520 -198.5t-207 -505.5q0 -305 205.5 -506t509.5 -201q141 0 266 45l28 -123q-141 -55 -309 -55q-356 0 -602 240.5t-246 597.5q0 360 252 601t619 241zM932 197q106 0 185 74.5t79 217.5q0 141 -78 216t-186 75q-117 0 -195 -82t-78 -211q0 -127 78 -208.5 t195 -81.5z" glyph-name="at" horiz-adv-x="1888" unicode="@"/><glyph d="M1124 0l-114 274h-664l-115 -274h-168l586 1374h60l585 -1374h-170zM948 418l-270 665l-270 -665h540z" glyph-name="A" horiz-adv-x="1357" unicode="A"/><glyph d="M907 743q125 -37 194.5 -130t69.5 -224q0 -172 -115.5 -280.5t-312.5 -108.5h-557v1352h465q176 0 280.5 -96.5t104.5 -245.5q0 -171 -129 -267zM635 1208h-289v-420h289q115 0 176 57.5t61 154t-60 152.5t-177 56zM727 143q133 0 207 69t74 181.5t-74 181t-207 68.5 h-381v-500h381z" glyph-name="B" horiz-adv-x="1261" unicode="B"/><glyph d="M801 -23q-295 0 -499 202t-204 497t204 496.5t499 201.5q180 0 327.5 -78.5t233.5 -212.5l-119 -94q-162 238 -440 238q-229 0 -384 -158t-155 -393.5t154.5 -393t384.5 -157.5q279 0 440 237l119 -94q-84 -133 -232.5 -212t-328.5 -79z" glyph-name="C" horiz-adv-x="1464" unicode="C"/><glyph d="M186 0v1352h402q338 0 536.5 -187.5t198.5 -486.5q0 -297 -198.5 -487.5t-536.5 -190.5h-402zM346 143h240q264 0 417.5 150.5t153.5 384.5q0 238 -152.5 384t-418.5 146h-240v-1065z" glyph-name="D" horiz-adv-x="1421" unicode="D"/><glyph d="M186 0v1352h867v-144h-707v-413h541v-144h-541v-508h731v-143h-891z" glyph-name="E" horiz-adv-x="1159" unicode="E"/><glyph d="M186 0v1352h846v-144h-686v-465h569v-145h-569v-598h-160z" glyph-name="F" horiz-adv-x="1073" unicode="F"/><glyph d="M801 -23q-297 0 -500 202t-203 497t204 496.5t499 201.5q172 0 314 -72.5t237 -203.5l-121 -94q-162 223 -430 223q-233 0 -385 -157t-152 -392q0 -238 154.5 -397.5t390.5 -159.5q147 0 264 65.5t187 175.5v183h-461v143h620v-360q-90 -160 -254.5 -255.5t-363.5 -95.5z " glyph-name="G" horiz-adv-x="1527" unicode="G"/><glyph d="M186 0v1352h160v-557h758v557h160v-1352h-160v651h-758v-651h-160z" glyph-name="H" horiz-adv-x="1449" unicode="H"/><glyph d="M186 0v1352h160v-1352h-160z" glyph-name="I" horiz-adv-x="530" unicode="I"/><glyph d="M227 -23q-80 0 -178 23v137q84 -12 148 -12q109 0 166 44t57 159v1024h160v-1039q0 -170 -94.5 -253t-258.5 -83z" glyph-name="J" horiz-adv-x="763" unicode="J"/><glyph d="M186 0v1352h160v-1352h-160zM573 725l660 -725h-203l-665 725l608 627h205z" glyph-name="K" horiz-adv-x="1296" unicode="K"/><glyph d="M186 0v1352h160v-1209h641v-143h-801z" glyph-name="L" horiz-adv-x="1036" unicode="L"/><glyph d="M1374 1374h56v-1374h-160v969l-432 -586h-58l-434 590v-973h-160v1374h58l563 -780z" glyph-name="M" horiz-adv-x="1615" unicode="M"/><glyph d="M1104 1352h160v-1375h-58l-860 1037v-1014h-160v1374h58l860 -1038v1016z" glyph-name="N" horiz-adv-x="1449" unicode="N"/><glyph d="M799 -23q-295 0 -498 202t-203 497t204 496.5t497 201.5t497.5 -201.5t204.5 -496.5t-204.5 -497t-497.5 -202zM801 125q229 0 381.5 157.5t152.5 395.5q0 233 -152.5 391t-381.5 158q-231 0 -384 -157t-153 -392q0 -238 153 -395.5t384 -157.5z" glyph-name="O" horiz-adv-x="1599" unicode="O"/><glyph d="M186 0v1352h476q197 0 314.5 -109.5t117.5 -281.5q0 -174 -118 -285t-314 -111h-316v-565h-160zM346 709h311q129 0 200 68.5t71 180.5q0 111 -71 180.5t-200 69.5h-311v-499z" glyph-name="P" horiz-adv-x="1173" unicode="P"/><glyph d="M1933 -279q84 0 197 11v-127q-113 -20 -217 -21q-532 0 -848 445q-127 -51 -266 -52q-295 0 -498 202t-203 497t204 496.5t497 201.5t497.5 -201.5t204.5 -496.5q0 -180 -82 -331.5t-223 -248.5q284 -375 737 -375zM264 678q0 -238 153.5 -395.5t383 -157.5t382 157.5 t152.5 393t-152.5 393.5t-383.5 158q-229 0 -382 -156.5t-153 -392.5z" glyph-name="Q" horiz-adv-x="1599" unicode="Q"/><glyph d="M1241 0h-186l-420 567h-289v-567h-160v1352h476q197 0 314.5 -109.5t117.5 -281.5q0 -137 -76 -236.5t-209 -138.5zM346 1208v-497h309q131 0 202 67.5t71 179.5q0 111 -72 180.5t-201 69.5h-309z" glyph-name="R" horiz-adv-x="1273" unicode="R"/><glyph d="M582 -23q-158 0 -288 78t-210 213l119 88q152 -231 377 -231q121 0 196.5 61.5t75.5 163.5q0 86 -52 133t-173 105l-152 71q-66 31 -109.5 58.5t-94 72t-76 102.5t-25.5 130q0 158 119 255t289 97q135 0 246.5 -63.5t176.5 -165.5l-116 -88q-115 170 -310 170 q-100 0 -169.5 -51.5t-69.5 -145.5q0 -45 14.5 -77.5t50 -61.5t64.5 -44.5t88 -43.5l149 -72q160 -78 238 -162t78 -215q0 -168 -123 -272.5t-313 -104.5z" glyph-name="S" horiz-adv-x="1142" unicode="S"/><glyph d="M514 0v1208h-475v144h1112v-144h-477v-1208h-160z" glyph-name="T" horiz-adv-x="1189" unicode="T"/><glyph d="M707 -23q-240 0 -389.5 147.5t-149.5 412.5v815h160v-826q0 -197 105.5 -299t273.5 -102q166 0 270 102.5t104 298.5v826h160v-815q0 -262 -149 -411t-385 -149z" glyph-name="U" horiz-adv-x="1411" unicode="U"/><glyph d="M1118 1352h176l-585 -1375h-60l-586 1375h177l440 -1061z" glyph-name="V" horiz-adv-x="1357" unicode="V"/><glyph d="M1915 1352h174l-512 -1375h-57l-428 1074l-428 -1074h-58l-514 1375h176l373 -1030l422 1052h57l422 -1050z" glyph-name="W" horiz-adv-x="2183" unicode="W"/><glyph d="M1165 0h-186l-365 555l-366 -555h-187l465 692l-432 660h185l335 -527l334 527h185l-426 -662z" glyph-name="X" horiz-adv-x="1226" unicode="X"/><glyph d="M1180 1352l-469 -793v-559h-160v559l-469 793h180l369 -635l370 635h179z" glyph-name="Y" horiz-adv-x="1261" unicode="Y"/><glyph d="M315 143h822v-143h-1071v47l815 1161h-727v144h981v-47z" glyph-name="Z" horiz-adv-x="1206" unicode="Z"/><glyph d="M207 -268v1761h391v-139h-238v-1479h238v-143h-391z" glyph-name="bracketleft" horiz-adv-x="702" unicode="["/><glyph d="M1085 -248l-1071 1845h187l1071 -1845h-187z" glyph-name="backslash" horiz-adv-x="1286" unicode="\"/><glyph d="M102 -268v143h240v1479h-240v139h392v-1761h-392z" glyph-name="bracketright" horiz-adv-x="702" unicode="]"/><glyph d="M926 582h-164l-238 508l-237 -508h-164l373 790h57z" glyph-name="asciicircum" horiz-adv-x="1048" unicode="^"/><glyph d="M88 -287v133h858v-133h-858z" glyph-name="underscore" horiz-adv-x="1036" unicode="_"/><glyph d="M676 1159l-246 410v28h193l174 -438h-121z" glyph-name="grave" horiz-adv-x="1228" unicode="`"/><glyph d="M532 1020q176 0 283 -104.5t107 -301.5v-614h-148v129q-113 -152 -336 -152q-154 0 -251 76t-97 205q0 127 98.5 203t260.5 76h315v86q0 123 -64.5 187t-177.5 64q-168 0 -291 -159l-104 86q137 219 405 219zM459 109q125 0 215 79.5t90 194.5v25h-297q-215 0 -215 -142 q0 -76 59.5 -116.5t147.5 -40.5z" glyph-name="a" horiz-adv-x="1081" unicode="a"/><glyph d="M698 1020q213 0 353.5 -149.5t140.5 -372.5q0 -221 -139.5 -371t-352.5 -150q-117 0 -219 48.5t-159 132.5v-158h-148v1536h158v-684q59 78 156 123t210 45zM676 123q154 0 254 106.5t100 270.5q0 162 -101.5 268t-252.5 106q-143 0 -244.5 -96t-101.5 -280.5 t101.5 -279.5t244.5 -95z" glyph-name="b" horiz-adv-x="1294" unicode="b"/><glyph d="M625 -23q-219 0 -371 152t-152 371q0 217 152 368.5t371 151.5q266 0 411 -217l-112 -90q-121 162 -297 161q-156 0 -259.5 -108.5t-103.5 -265.5q0 -160 103.5 -268.5t259.5 -108.5q176 0 295 160l112 -88q-145 -218 -409 -218z" glyph-name="c" horiz-adv-x="1128" unicode="c"/><glyph d="M965 1536h157v-1536h-149v158q-57 -84 -158.5 -132.5t-218.5 -48.5q-213 0 -353.5 149.5t-140.5 371.5q0 223 140.5 372.5t353.5 149.5q113 0 211 -45t158 -125v686zM618 123q143 0 246 95t103 279.5t-102.5 280.5t-246.5 96q-152 0 -253 -106t-101 -268 q0 -164 100 -270.5t254 -106.5z" glyph-name="d" horiz-adv-x="1294" unicode="d"/><glyph d="M1067 569q0 -57 -12 -118h-789q14 -147 116.5 -237.5t250.5 -90.5q170 0 305 135l92 -106q-164 -174 -399 -175q-225 0 -377 149.5t-152 371.5q0 219 147.5 370.5t362.5 151.5q195 0 325 -127t130 -324zM608 877q-125 0 -217 -79t-119 -208h633q-2 133 -87 210t-210 77z " glyph-name="e" horiz-adv-x="1169" unicode="e"/><glyph d="M565 1415q-100 0 -154.5 -42t-54.5 -148v-228h250v-141h-250v-856h-157v856h-144v141h144v238q0 164 89 244t240 80q66 0 125 -17v-133q-49 6 -88 6z" glyph-name="f" horiz-adv-x="620" unicode="f"/><glyph d="M983 997h150v-901q0 -227 -132.5 -357t-353.5 -130q-276 0 -469 192l92 111q180 -158 373 -158q156 0 244 86t88 248v88q-59 -78 -158.5 -122t-212.5 -44q-211 0 -350 143.5t-139 360.5t139 361.5t350 144.5q119 0 220.5 -48t158.5 -134v159zM629 156q143 0 245.5 91 t102.5 267t-102.5 266t-245.5 90q-154 0 -254.5 -100t-100.5 -258t100.5 -257t254.5 -99z" glyph-name="g" horiz-adv-x="1304" unicode="g"/><glyph d="M631 1020q172 0 270 -108.5t98 -284.5v-627h-157v606q0 121 -66.5 194.5t-181.5 73.5t-188.5 -75.5t-73.5 -192.5v-606h-158v1536h158v-651q109 135 299 135z" glyph-name="h" horiz-adv-x="1159" unicode="h"/><glyph d="M254 1264q-49 0 -84 32.5t-35 81.5q0 47 35 81t84 34q47 0 82 -34t35 -81q0 -49 -34 -81.5t-83 -32.5zM174 0v997h158v-997h-158z" glyph-name="i" horiz-adv-x="503" unicode="i"/><glyph d="M254 1264q-49 0 -84 32.5t-35 81.5q0 47 35 81t84 34q47 0 82 -34t35 -81q0 -49 -34 -81.5t-83 -32.5zM4 -391q-68 0 -127 16v133q53 -6 92 -6q205 0 205 191v1054h158v-1065q0 -164 -89 -243.5t-239 -79.5z" glyph-name="j" horiz-adv-x="503" unicode="j"/><glyph d="M174 0v1536h158v-1536h-158zM539 559l471 -559h-203l-459 561l416 436h207z" glyph-name="k" horiz-adv-x="1036" unicode="k"/><glyph d="M174 0v1536h158v-1536h-158z" glyph-name="l" horiz-adv-x="503" unicode="l"/><glyph d="M1268 1020q172 0 267 -107.5t95 -285.5v-627h-157v606q0 121 -62.5 194.5t-173.5 73.5q-113 0 -184.5 -73.5t-71.5 -179.5v-621h-158v606q0 121 -64.5 194.5t-172.5 73.5q-113 0 -183.5 -74.5t-70.5 -193.5v-606h-158v997h148v-104q111 127 296 127q217 0 308 -172 q119 172 342 172z" glyph-name="m" horiz-adv-x="1789" unicode="m"/><glyph d="M629 1020q174 0 272 -108.5t98 -284.5v-627h-157v608q0 119 -66.5 192.5t-181.5 73.5t-188.5 -74.5t-73.5 -191.5v-608h-158v997h148v-106q117 129 307 129z" glyph-name="n" horiz-adv-x="1159" unicode="n"/><glyph d="M623 -20q-217 0 -369 151.5t-152 368.5q0 219 152 369.5t371 150.5t370.5 -151.5t151.5 -368.5t-152.5 -368.5t-371.5 -151.5zM622.5 125q153.5 0 258 107.5t104.5 265.5q0 162 -103.5 269t-256.5 107q-156 0 -258.5 -107.5t-102.5 -268.5q0 -160 102.5 -266.5 t256 -106.5z" glyph-name="o" horiz-adv-x="1249" unicode="o"/><glyph d="M698 1020q213 0 353.5 -149.5t140.5 -370.5q0 -223 -140.5 -373t-353.5 -150q-111 0 -208 44.5t-158 121.5v-512h-158v1366h148v-159q57 86 158 134t218 48zM676 123q152 0 253 106.5t101 268.5q0 164 -100.5 270t-253.5 106q-143 0 -244.5 -95t-101.5 -279.5 t101.5 -280.5t244.5 -96z" glyph-name="p" horiz-adv-x="1294" unicode="p"/><glyph d="M973 997h149v-1366h-157v514q-59 -80 -157.5 -124t-211.5 -44q-213 0 -353.5 149.5t-140.5 373.5q0 221 140.5 370.5t353.5 149.5q117 0 218 -48t159 -134v159zM618 123q143 0 246 96t103 280.5t-102.5 279.5t-246.5 95q-154 0 -254 -107.5t-100 -269t101 -268 t253 -106.5z" glyph-name="q" horiz-adv-x="1294" unicode="q"/><glyph d="M631 1006q33 0 74 -9v-139h-60q-129 0 -221 -78t-92 -215v-565h-158v997h148v-141q112 150 309 150z" glyph-name="r" horiz-adv-x="741" unicode="r"/><glyph d="M469 -23q-244 0 -389 195l100 104q145 -154 287 -153q82 0 136 38t54 103q0 59 -41 91t-133 69l-96 41q-125 51 -186.5 113.5t-61.5 162.5q0 131 96.5 205t239.5 74q207 0 334 -158l-96 -98q-106 111 -246 110q-74 0 -120 -32.5t-46 -91.5q0 -47 36 -77t126 -69l92 -39 q139 -59 201.5 -125.5t62.5 -169.5q0 -139 -101.5 -216t-248.5 -77z" glyph-name="s" horiz-adv-x="929" unicode="s"/><glyph d="M586 121q57 0 133 12v-133q-94 -23 -166 -23q-156 0 -246 80t-90 244v555h-168v141h168v273h158v-273h311v-141h-311v-545q0 -106 54.5 -148t156.5 -42z" glyph-name="t" horiz-adv-x="780" unicode="t"/><glyph d="M575 -23q-178 0 -295.5 116t-117.5 304v600h155v-610q0 -121 74 -192.5t184 -71.5q109 0 181.5 72.5t72.5 191.5v610h158v-600q0 -188 -118 -304t-294 -116z" glyph-name="u" unicode="u"/><glyph d="M883 997h168l-469 -1020h-58l-471 1020h168l332 -751z" glyph-name="v" horiz-adv-x="1103" unicode="v"/><glyph d="M1520 997h168l-420 -1020h-58l-340 754l-338 -754h-55l-424 1020h168l289 -739l332 762h59l336 -756z" glyph-name="w" horiz-adv-x="1742" unicode="w"/><glyph d="M975 0h-182l-285 410l-283 -410h-184l371 520l-340 477h182l254 -366l256 366h182l-346 -477z" glyph-name="x" horiz-adv-x="1017" unicode="x"/><glyph d="M883 997h168l-492 -1136q-111 -252 -338 -252q-76 0 -153 20v133q78 -10 120 -10q78 0 132.5 35t93.5 125l53 119l-414 966h170l330 -794z" glyph-name="y" horiz-adv-x="1103" unicode="y"/><glyph d="M297 139h577v-139h-819v47l570 809h-523v141h766v-47z" glyph-name="z" horiz-adv-x="929" unicode="z"/><glyph d="M608 1354q-160 0 -159 -172q0 -55 25.5 -198.5t25.5 -197.5q0 -125 -109 -174q109 -49 109 -174q0 -53 -25.5 -195.5t-25.5 -199.5q0 -172 159 -172h101v-139h-129q-283 0 -283 272q0 74 26.5 227.5t26.5 192.5q0 119 -125 119h-116v139h116q125 0 125 119 q0 39 -26.5 192.5t-26.5 227.5q0 272 283 272h129v-139h-101z" glyph-name="braceleft" horiz-adv-x="813" unicode="{"/><glyph d="M272 -248v1845h136v-1845h-136z" glyph-name="bar" horiz-adv-x="679" unicode="|"/><glyph d="M588 682h117v-139h-117q-125 0 -125 -119q0 -39 25.5 -192.5t25.5 -227.5q0 -272 -281 -272h-131v139h103q160 0 160 172q0 57 -26 199.5t-26 195.5q0 125 109 174q-109 49 -109 174q0 53 26 196.5t26 199.5q0 172 -160 172h-103v139h131q281 0 281 -272 q0 -74 -25.5 -227.5t-25.5 -192.5q0 -119 125 -119z" glyph-name="braceright" horiz-adv-x="813" unicode="}"/><glyph d="M823 459q-82 0 -170 53l-192 117q-88 53 -125 53t-58.5 -25.5t-21.5 -66.5v-60h-129q0 16 -1 42t-1 34q0 90 53 154.5t141 64.5q82 0 173 -55l192 -117q82 -51 127 -51q37 0 57.5 25.5t20.5 64.5v60h129q4 -57 4 -76q0 -92 -54.5 -154.5t-144.5 -62.5z" glyph-name="asciitilde" unicode="~"/><glyph glyph-name="uni00A0" horiz-adv-x="573" unicode=" "/><glyph d="M311 762q-53 0 -91 36t-38 93q0 55 38 92t91 37q55 0 92 -37t37 -92q0 -57 -37 -93t-92 -36zM215 -369l31 938h131l31 -938h-193z" glyph-name="exclamdown" horiz-adv-x="624" unicode="¡"/><glyph d="M598 295q176 0 297 162l109 -90q-131 -190 -355 -215v-345h-157v353q-182 35 -300 178t-118 333.5t117.5 333t300.5 177.5v354h157v-346q225 -25 357 -215l-109 -88q-119 160 -299 160q-156 0 -259 -109t-103 -266q0 -160 103 -268.5t259 -108.5z" glyph-name="cent" horiz-adv-x="1134" unicode="¢"/><glyph d="M549 434q0 -178 -123 -295h565v-139h-874v41q272 170 272 391q0 35 -6 68h-246v139h197q-12 25 -43 84t-46.5 94t-30.5 90.5t-15 108.5q0 160 110.5 259t280.5 99q156 0 264.5 -87t153.5 -247l-142 -53q-76 240 -268 240q-111 0 -173.5 -67.5t-62.5 -168.5 q0 -57 20.5 -112.5t62.5 -130t57 -109.5h325v-139h-282q4 -41 4 -66z" glyph-name="sterling" horiz-adv-x="1083" unicode="£"/><glyph d="M1135 676q0 -158 -99 -283l226 -225l-95 -94l-229 227q-127 -88 -283 -88q-152 0 -276 86l-227 -225l-97 94l226 227q-96 119 -97 281q0 158 97 285l-226 225l97 94l227 -227q125 86 278 86q158 0 279 -86l229 227l97 -94l-226 -225q99 -125 99 -285zM655 358 q135 0 226.5 91.5t91.5 224.5q0 137 -91 229t-225 92q-135 0 -223 -92t-88 -229q0 -135 88 -225.5t221 -90.5z" glyph-name="currency" horiz-adv-x="1316" unicode="¤"/><glyph d="M1114 1352l-430 -615h363v-139h-400v-188h400v-142h-400v-268h-160v268h-397v142h397v188h-397v139h359l-431 615h181l368 -531l369 531h178z" glyph-name="yen" horiz-adv-x="1130" unicode="¥"/><glyph d="M272 983v614h136v-614h-136zM272 -248v615h136v-615h-136z" glyph-name="brokenbar" horiz-adv-x="679" unicode="¦"/><glyph d="M1112 336q0 -102 -68.5 -171t-187.5 -89q2 -8 2 -27q0 -125 -89 -209t-241 -84q-209 0 -348 181l117 96q111 -129 240 -129q74 0 116.5 35.5t42.5 103.5q0 23 -4 44.5t-17 43t-21.5 34.5t-33 35.5t-35 32t-42 36t-41.5 34.5l-217 178q-111 90 -162 162t-51 160 q0 100 68.5 168.5t187.5 89.5q-2 10 -2 29q0 123 90 206.5t241 83.5q209 0 349 -180l-117 -94q-115 129 -240 129q-74 0 -118 -37t-44 -102q0 -23 5.5 -44.5t17.5 -42t21.5 -36t33 -37t34.5 -31.5t42 -34.5t43 -34.5l215 -181q109 -88 161 -159.5t52 -159.5zM815 201 q137 37 137 137q0 45 -31.5 85t-125.5 118l-217 180q-158 127 -209 215q-66 -18 -101 -50t-35 -87q0 -47 32 -86t126 -117l215 -178q156 -125 209 -217z" glyph-name="section" horiz-adv-x="1185" unicode="§"/><glyph d="M395 1270q-43 0 -77.5 32.5t-34.5 75.5q0 45 34.5 78t77.5 33q47 0 81 -33t34 -78t-34 -76.5t-81 -31.5zM831 1270q-45 0 -79.5 32.5t-34.5 75.5q0 45 34.5 78t79.5 33q47 0 80 -33t33 -78t-33 -76.5t-80 -31.5z" glyph-name="dieresis" horiz-adv-x="1228" unicode="¨"/><glyph d="M798.5 -23q-288.5 0 -494.5 202t-206 497t206 496.5t494.5 201.5t495.5 -201.5t207 -496.5t-207 -497t-495.5 -202zM799 90q240 0 409.5 167t169.5 419t-169 419t-410.5 167t-409.5 -166t-168 -420t168 -420t410 -166zM819 285q-164 0 -277.5 112.5t-113.5 278.5 q0 168 113.5 280.5t279.5 112.5q190 0 309 -160l-100 -86q-86 113 -207 113q-106 0 -177 -75t-71 -185q0 -109 71 -183.5t175 -74.5q125 0 209 110l100 -86q-121 -157 -311 -157z" glyph-name="copyright" horiz-adv-x="1599" unicode="©"/><glyph d="M350 1147q119 0 188.5 -67.5t69.5 -194.5v-385h-125v63q-72 -78 -196 -78q-98 0 -158.5 51.5t-60.5 135.5q0 86 62.5 134t168.5 48h174v39q0 133 -137 133q-86 0 -174 -78l-70 88q111 111 258 111zM319 594q66 0 110 39t44 102v21h-154q-111 0 -110 -80q0 -41 31.5 -61.5 t78.5 -20.5z" glyph-name="ordfeminine" horiz-adv-x="729" unicode="ª"/><glyph d="M442 145l-364 385v48l364 387l103 -93l-289 -317l289 -322zM848 145l-365 385v48l365 387l102 -93l-288 -317l288 -322z" glyph-name="guillemotleft" horiz-adv-x="1032" unicode="«"/><glyph d="M811 197v378h-698v140h856v-518h-158z" glyph-name="logicalnot" unicode="¬"/><glyph d="M109 578v133h489v-133h-489z" glyph-name="uni00AD" horiz-adv-x="708" unicode="­"/><glyph d="M586 1399q205 0 349 -148.5t144 -359.5q0 -209 -144 -357.5t-349 -148.5t-351.5 148.5t-146.5 357.5q0 211 146.5 359.5t351.5 148.5zM586 487q162 0 276.5 117t114.5 289q0 170 -114.5 286.5t-276.5 116.5q-164 0 -277.5 -116.5t-113.5 -286.5t113.5 -288t277.5 -118z M782 977q0 -98 -84 -143l144 -199h-133l-129 172h-74v-172h-119v514h207q82 0 135 -47t53 -125zM506 1044v-135h86q31 0 50.5 18.5t19.5 47.5q0 31 -19.5 50t-50.5 19h-86z" glyph-name="registered" horiz-adv-x="1167" unicode="®"/><glyph d="M334 1315v127h563v-127h-563z" glyph-name="macron" horiz-adv-x="1228" unicode="¯"/><glyph d="M369 772q-127 0 -216.5 88t-89.5 213t89.5 213t216.5 88t216 -88t89 -213t-89 -213t-216 -88zM369 897q74 0 124 51t50 125q0 76 -50.5 126t-123.5 50q-72 0 -122 -51t-50 -125t50 -125t122 -51z" glyph-name="degree" horiz-adv-x="737" unicode="°"/><glyph d="M496 307v328h-361v139h361v324h157v-324h359v-139h-359v-328h-157zM135 0v139h877v-139h-877z" glyph-name="plusminus" unicode="±"/><glyph d="M315 868h359v-123h-602v31l303 326q66 70 98.5 122t32.5 113q0 63 -39 106.5t-102 43.5q-66 0 -106 -43t-40 -113q0 -16 4 -65h-133q-8 33 -8 73q0 109 78 191t205 82q121 0 199.5 -75t78.5 -189q0 -86 -45 -158t-137 -168z" glyph-name="uni00B2" horiz-adv-x="755" unicode="²"/><glyph d="M420 1282q90 -18 156.5 -85t66.5 -177q0 -129 -89 -209t-218 -80q-201 0 -297 184l94 68q78 -127 199 -127q76 0 124 45t48 119q0 72 -50.5 110.5t-144.5 38.5h-84v37l199 269h-326v122h527v-38z" glyph-name="uni00B3" horiz-adv-x="724" unicode="³"/><glyph d="M430 1159l174 438h193v-28l-246 -410h-121z" glyph-name="acute" horiz-adv-x="1228" unicode="´"/><glyph d="M1110 127q20 0 59 6v-133q-61 -14 -106 -14q-143 0 -193 120q-98 -129 -274 -129q-166 0 -264 117v-463h-158v1366h158v-596q0 -121 70.5 -199.5t183 -78.5t184.5 79t72 199v596h157v-718q0 -152 111 -152z" glyph-name="uni00B5" horiz-adv-x="1212" unicode="µ"/><glyph d="M567 483q-211 0 -349 121t-138 316q0 197 137 314.5t350 117.5h123v-869h-123zM631 -391q-74 0 -164 22v136q102 -12 133 -13q102 0 157.5 46t55.5 161v1391h158v-1403q0 -176 -90 -258t-250 -82z" glyph-name="paragraph" horiz-adv-x="1155" unicode="¶"/><glyph d="M286.5 514q-53.5 0 -91 36t-37.5 93q0 55 37.5 92t91 37t91.5 -37t38 -92q0 -57 -38 -93t-91.5 -36z" glyph-name="periodcentered" horiz-adv-x="573" unicode="·"/><glyph d="M549 -391q-68 0 -139 20v113q63 -8 114 -8q72 0 116 32.5t44 100.5q0 82 -70 151l68 35q137 -68 137 -209q0 -100 -72.5 -167.5t-197.5 -67.5z" glyph-name="cedilla" horiz-adv-x="1228" unicode="¸"/><glyph d="M96 745v123h215v607h-205v122h343v-729h184v-123h-537z" glyph-name="uni00B9" horiz-adv-x="722" unicode="¹"/><glyph d="M411.5 485q-139.5 0 -236.5 95.5t-97 234.5t97 234.5t236.5 95.5t238 -95.5t98.5 -234.5t-98.5 -234.5t-238 -95.5zM412 606q88 0 144 59.5t56 149.5q0 92 -56 150.5t-144 58.5t-143.5 -58.5t-55.5 -150.5t55.5 -150.5t143.5 -58.5z" glyph-name="ordmasculine" horiz-adv-x="825" unicode="º"/><glyph d="M184 145l-104 88l291 322l-291 317l104 93l363 -387v-48zM590 145l-105 88l289 322l-289 317l105 93l362 -387v-48z" glyph-name="guillemotright" horiz-adv-x="1032" unicode="»"/><glyph d="M633 623v-123h-537v123h215v606h-205v123h343v-729h184zM1282 1352h141l-774 -1352h-139zM1782 262v-112h-115v-150h-125v150h-424v36l266 666h138l-238 -590h258v266h125v-266h115z" glyph-name="onequarter" horiz-adv-x="1814" unicode="¼"/><glyph d="M633 623v-123h-537v123h215v606h-205v123h343v-729h184zM1282 1352h141l-774 -1352h-139zM1452 123h358v-123h-602v31l303 325q66 70 98.5 122t32.5 114q0 63 -38.5 106t-102.5 43q-66 0 -105.5 -43t-39.5 -112q0 -16 4 -66h-133q-8 33 -8 74q0 109 77.5 190.5 t204.5 81.5q121 0 200 -74.5t79 -189.5q0 -86 -45 -157.5t-138 -168.5z" glyph-name="onehalf" horiz-adv-x="1892" unicode="½"/><glyph d="M643 774q0 -129 -89 -209t-218 -80q-201 0 -297 185l94 67q78 -127 199 -127q76 0 124 45t48 119q0 72 -50.5 111t-144.5 39h-84v37l199 268h-326v123h527v-39l-205 -277q90 -18 156.5 -84.5t66.5 -177.5zM1212 1352h142l-774 -1352h-140zM1712 262v-112h-115v-150h-124 v150h-424v36l266 666h137l-238 -590h259v266h124v-266h115z" glyph-name="threequarters" horiz-adv-x="1744" unicode="¾"/><glyph d="M477 760q-53 0 -91 37t-38 94q0 55 38 92t91 37t91 -37t38 -92q0 -57 -38 -94t-91 -37zM453 -391q-152 0 -257.5 98t-105.5 248q0 100 49 175t146 163q80 72 112.5 116t32.5 93q0 31 -8 67h137q20 -49 21 -90q0 -49 -28 -98t-56.5 -80t-81.5 -78q-86 -82 -124 -138 t-38 -124q0 -88 60.5 -147.5t144.5 -59.5q166 0 229 197l131 -55q-39 -137 -135 -212t-229 -75z" glyph-name="questiondown" horiz-adv-x="909" unicode="¿"/><glyph d="M741 1483h-120l-246 352v29h192zM1124 0l-114 274h-664l-115 -274h-168l586 1374h60l585 -1374h-170zM948 418l-270 665l-270 -665h540z" glyph-name="Agrave" horiz-adv-x="1357" unicode="À"/><glyph d="M987 1835l-246 -352h-120l174 381h192v-29zM1124 0l-114 274h-664l-115 -274h-168l586 1374h60l585 -1374h-170zM948 418l-270 665l-270 -665h540z" glyph-name="Aacute" horiz-adv-x="1357" unicode="Á"/><glyph d="M680 1704l-227 -221h-123l301 381h96l301 -381h-123zM1124 0l-114 274h-664l-115 -274h-168l586 1374h60l585 -1374h-170zM948 418l-270 665l-270 -665h540z" glyph-name="Acircumflex" horiz-adv-x="1357" unicode="Â"/><glyph d="M477 1540h-131q-4 29 -4 51q0 90 49 148.5t129 58.5q70 0 144 -47l69 -45q63 -41 90 -41q61 0 62 76v37h131q2 -16 2 -54q0 -88 -48 -146t-126 -58q-70 0 -150 49l-67 41q-66 41 -88 41q-29 0 -45.5 -22.5t-16.5 -55.5v-33zM1124 0l-114 274h-664l-115 -274h-168 l586 1374h60l585 -1374h-170zM948 418l-270 665l-270 -665h540z" glyph-name="Atilde" horiz-adv-x="1357" unicode="Ã"/><glyph d="M440 1550q-45 0 -78.5 32t-33.5 77t33.5 76.5t78.5 31.5q47 0 80 -31.5t33 -76.5t-33 -77t-80 -32zM918 1548q-45 0 -79 32t-34 77t33.5 77.5t79.5 32.5q47 0 79.5 -32.5t32.5 -77.5t-32.5 -77t-79.5 -32zM1124 0l-114 274h-664l-115 -274h-168l586 1374h60l585 -1374 h-170zM948 418l-270 665l-270 -665h540z" glyph-name="Adieresis" horiz-adv-x="1357" unicode="Ä"/><glyph d="M678 1430q-96 0 -160.5 64.5t-64.5 156.5t64.5 156.5t160.5 64.5q98 0 162.5 -64.5t64.5 -156.5t-64.5 -156.5t-162.5 -64.5zM680 1755q-45 0 -75 -29.5t-30 -74.5q0 -43 31 -73t74 -30t72.5 30t29.5 73q0 45 -29.5 74.5t-72.5 29.5zM1124 0l-114 274h-664l-115 -274 h-168l586 1374h60l585 -1374h-170zM948 418l-270 665l-270 -665h540z" glyph-name="Aring" horiz-adv-x="1357" unicode="Å"/><glyph d="M1096 143h503v-143h-643l-47 274h-565l-145 -274h-172l704 1352h844v-144h-660l70 -413h426v-144h-401zM772 1108l-352 -690h465z" glyph-name="AE" horiz-adv-x="1681" unicode="Æ"/><glyph d="M803 125q279 0 440 237l119 -94q-150 -236 -449 -282q51 -57 52 -142q0 -100 -73 -167.5t-198 -67.5q-68 0 -139 20v113q63 -8 115 -8q72 0 115.5 32.5t43.5 100.5q0 59 -34 110q-293 4 -495 205t-202 494q0 295 204 496.5t499 201.5q180 0 327.5 -78.5t233.5 -212.5 l-119 -94q-162 238 -440 238q-229 0 -384 -158t-155 -393.5t155 -393t384 -157.5z" glyph-name="Ccedilla" horiz-adv-x="1464" unicode="Ç"/><glyph d="M561 1483l-246 352v29h193l174 -381h-121zM186 0v1352h867v-144h-707v-413h541v-144h-541v-508h731v-143h-891z" glyph-name="Egrave" horiz-adv-x="1159" unicode="È"/><glyph d="M561 1483l174 381h193v-29l-246 -352h-121zM186 0v1352h867v-144h-707v-413h541v-144h-541v-508h731v-143h-891z" glyph-name="Eacute" horiz-adv-x="1159" unicode="É"/><glyph d="M621 1704l-228 -221h-123l301 381h97l301 -381h-123zM346 143h731v-143h-891v1352h867v-144h-707v-413h541v-144h-541v-508z" glyph-name="Ecircumflex" horiz-adv-x="1159" unicode="Ê"/><glyph d="M381 1550q-45 0 -79 32t-34 77t34 76.5t79 31.5q47 0 80 -31.5t33 -76.5t-33 -77t-80 -32zM858 1548q-45 0 -79 32t-34 77t34 77.5t79 32.5q47 0 80 -32.5t33 -77.5t-33 -77t-80 -32zM186 0v1352h867v-144h-707v-413h541v-144h-541v-508h731v-143h-891z" glyph-name="Edieresis" horiz-adv-x="1159" unicode="Ë"/><glyph d="M209 1483l-246 352v29h193l174 -381h-121zM186 0v1352h160v-1352h-160z" glyph-name="Igrave" horiz-adv-x="530" unicode="Ì"/><glyph d="M207 1483l174 381h192v-29l-245 -352h-121zM186 0v1352h160v-1352h-160z" glyph-name="Iacute" horiz-adv-x="530" unicode="Í"/><glyph d="M313 1864l301 -381h-122l-226 221l-227 -221h-123l301 381h96zM186 0v1352h160v-1352h-160z" glyph-name="Icircumflex" horiz-adv-x="530" unicode="Î"/><glyph d="M27 1550q-45 0 -79 32t-34 77t34 76.5t79 31.5q47 0 79.5 -31.5t32.5 -76.5t-32.5 -77t-79.5 -32zM504 1548q-45 0 -79 32t-34 77t34 77.5t79 32.5q47 0 79.5 -32.5t32.5 -77.5t-32.5 -77t-79.5 -32zM186 0v1352h160v-1352h-160z" glyph-name="Idieresis" horiz-adv-x="530" unicode="Ï"/><glyph d="M588 1352q338 0 536.5 -187.5t198.5 -486.5q0 -297 -198.5 -487.5t-536.5 -190.5h-402v561h-194v135h194v656h402zM586 143q264 0 417.5 150.5t153.5 384.5q0 238 -152.5 384t-418.5 146h-240v-512h266v-135h-266v-418h240z" glyph-name="Eth" horiz-adv-x="1421" unicode="Ð"/><glyph d="M522 1540h-131q-4 29 -4 51q0 90 49 148.5t129 58.5q70 0 144 -47l69 -45q63 -41 90 -41q61 0 62 76v37h131q2 -16 2 -54q0 -88 -48 -146t-126 -58q-70 0 -150 49l-67 41q-66 41 -88 41q-29 0 -45.5 -22.5t-16.5 -55.5v-33zM1104 1352h160v-1375h-58l-860 1037v-1014 h-160v1374h58l860 -1038v1016z" glyph-name="Ntilde" horiz-adv-x="1449" unicode="Ñ"/><glyph d="M741 1483l-245 352v29h192l174 -381h-121zM799 -23q-295 0 -498 202t-203 497t204 496.5t497 201.5t497.5 -201.5t204.5 -496.5t-204.5 -497t-497.5 -202zM801 125q229 0 381.5 157.5t152.5 395.5q0 233 -152.5 391t-381.5 158q-231 0 -384 -157t-153 -392 q0 -238 153 -395.5t384 -157.5z" glyph-name="Ograve" horiz-adv-x="1599" unicode="Ò"/><glyph d="M741 1483l174 381h193v-29l-246 -352h-121zM799 -23q-295 0 -498 202t-203 497t204 496.5t497 201.5t497.5 -201.5t204.5 -496.5t-204.5 -497t-497.5 -202zM801 125q229 0 381.5 157.5t152.5 395.5q0 233 -152.5 391t-381.5 158q-231 0 -384 -157t-153 -392 q0 -238 153 -395.5t384 -157.5z" glyph-name="Oacute" horiz-adv-x="1599" unicode="Ó"/><glyph d="M801 1704l-228 -221h-122l301 381h96l301 -381h-123zM799 1374q293 0 497.5 -201.5t204.5 -496.5t-204.5 -497t-497.5 -202q-295 0 -498 202t-203 497t204 496.5t497 201.5zM801 125q229 0 381.5 157.5t152.5 395.5q0 233 -152.5 391t-381.5 158q-231 0 -384 -157 t-153 -392q0 -238 153 -395.5t384 -157.5z" glyph-name="Ocircumflex" horiz-adv-x="1599" unicode="Ô"/><glyph d="M965 1520q-70 0 -150 49l-67 41q-66 41 -89 41q-29 0 -45 -22.5t-16 -55.5v-33h-131q-4 29 -4 51q0 90 49 148.5t129 58.5q70 0 143 -47l70 -45q63 -41 90 -41q61 0 62 76v37h131q2 -16 2 -54q0 -88 -48 -146t-126 -58zM799 -23q-295 0 -498 202t-203 497t204 496.5 t497 201.5t497.5 -201.5t204.5 -496.5t-204.5 -497t-497.5 -202zM801 125q229 0 381.5 157.5t152.5 395.5q0 233 -152.5 391t-381.5 158q-231 0 -384 -157t-153 -392q0 -238 153 -395.5t384 -157.5z" glyph-name="Otilde" horiz-adv-x="1599" unicode="Õ"/><glyph d="M561 1550q-45 0 -78.5 32t-33.5 77t33.5 76.5t78.5 31.5q47 0 80 -31.5t33 -76.5t-33 -77t-80 -32zM1038 1548q-45 0 -78.5 32t-33.5 77t33.5 77.5t78.5 32.5q47 0 80 -32.5t33 -77.5t-33 -77t-80 -32zM799 -23q-295 0 -498 202t-203 497t204 496.5t497 201.5 t497.5 -201.5t204.5 -496.5t-204.5 -497t-497.5 -202zM801 125q229 0 381.5 157.5t152.5 395.5q0 233 -152.5 391t-381.5 158q-231 0 -384 -157t-153 -392q0 -238 153 -395.5t384 -157.5z" glyph-name="Odieresis" horiz-adv-x="1599" unicode="Ö"/><glyph d="M254 229l-96 95l319 323l-319 320l96 96l319 -320l320 320l96 -96l-319 -320l319 -323l-94 -95l-322 320z" glyph-name="multiply" unicode="×"/><glyph d="M1513 1292l-170 -170q158 -195 158 -446q0 -295 -204.5 -497t-497.5 -202q-252 0 -445 154l-170 -170l-98 98l170 170q-158 195 -158 447q0 295 204 496.5t497 201.5q254 0 444 -155l172 172zM801 1233q-233 0 -388 -159t-155 -396q0 -195 107 -340l776 776 q-145 119 -340 119zM801 119q229 0 384.5 160.5t155.5 398.5q0 193 -106 338l-776 -780q145 -117 342 -117z" glyph-name="Oslash" horiz-adv-x="1599" unicode="Ø"/><glyph d="M645 1483l-246 352v29h193l174 -381h-121zM707 -23q-240 0 -389.5 147.5t-149.5 412.5v815h160v-826q0 -197 105.5 -299t273.5 -102q166 0 270 102.5t104 298.5v826h160v-815q0 -262 -149 -411t-385 -149z" glyph-name="Ugrave" horiz-adv-x="1411" unicode="Ù"/><glyph d="M643 1483l174 381h193v-29l-246 -352h-121zM707 -23q-240 0 -389.5 147.5t-149.5 412.5v815h160v-826q0 -197 105.5 -299t273.5 -102q166 0 270 102.5t104 298.5v826h160v-815q0 -262 -149 -411t-385 -149z" glyph-name="Uacute" horiz-adv-x="1411" unicode="Ú"/><glyph d="M705 1704l-228 -221h-123l301 381h97l301 -381h-123zM1081 1352h160v-815q0 -262 -149.5 -411t-384.5 -149q-240 0 -389.5 147.5t-149.5 412.5v815h160v-826q0 -197 105.5 -299t273.5 -102q166 0 270 102.5t104 298.5v826z" glyph-name="Ucircumflex" horiz-adv-x="1411" unicode="Û"/><glyph d="M465 1550q-45 0 -79 32t-34 77t34 76.5t79 31.5q47 0 80 -31.5t33 -76.5t-33 -77t-80 -32zM942 1548q-45 0 -79 32t-34 77t34 77.5t79 32.5q47 0 80 -32.5t33 -77.5t-33 -77t-80 -32zM707 -23q-240 0 -389.5 147.5t-149.5 412.5v815h160v-826q0 -197 105.5 -299 t273.5 -102q166 0 270 102.5t104 298.5v826h160v-815q0 -262 -149 -411t-385 -149z" glyph-name="Udieresis" horiz-adv-x="1411" unicode="Ü"/><glyph d="M932 1835l-246 -352h-121l174 381h193v-29zM1180 1352l-469 -793v-559h-160v559l-469 793h180l369 -635l370 635h179z" glyph-name="Yacute" horiz-adv-x="1261" unicode="Ý"/><glyph d="M186 0v1352h160v-242h316q199 0 315.5 -110.5t116.5 -290.5q0 -178 -118 -291t-314 -113h-316v-305h-160zM346 449h311q129 0 200 70.5t71 187t-71 188.5t-200 72h-311v-518z" glyph-name="Thorn" horiz-adv-x="1173" unicode="Þ"/><glyph d="M846 -23q-203 0 -338 140l88 114q113 -109 262 -108q176 0 176 125q0 16 -4 31.5t-9 26.5t-18.5 24.5l-20.5 20.5t-28.5 21.5t-30 19.5t-35 20.5t-34.5 19.5q-111 66 -165 123t-54 133q0 66 37 162l86 237q31 84 30 148q0 80 -51 129t-143 49q-117 0 -190.5 -81 t-73.5 -232v-1100h-156v1106q0 211 118 332t312 121q156 0 251 -80t95 -219q0 -80 -28 -160l-86 -248q-35 -100 -35 -137q0 -68 145 -154q14 -10 23 -14q115 -70 170 -134.5t55 -156.5q0 -129 -99 -204t-249 -75z" glyph-name="germandbls" horiz-adv-x="1251" unicode="ß"/><glyph d="M590 1159h-121l-246 410v28h193zM532 1020q176 0 283 -104.5t107 -301.5v-614h-148v129q-113 -152 -336 -152q-154 0 -251 76t-97 205q0 127 98.5 203t260.5 76h315v86q0 123 -64.5 187t-177.5 64q-168 0 -291 -159l-104 86q137 219 405 219zM459 109q125 0 215 79.5 t90 194.5v25h-297q-215 0 -215 -142q0 -76 59.5 -116.5t147.5 -40.5z" glyph-name="agrave" horiz-adv-x="1081" unicode="à"/><glyph d="M840 1569l-246 -410h-121l174 438h193v-28zM532 1020q176 0 283 -104.5t107 -301.5v-614h-148v129q-113 -152 -336 -152q-154 0 -251 76t-97 205q0 127 98.5 203t260.5 76h315v86q0 123 -64.5 187t-177.5 64q-168 0 -291 -159l-104 86q137 219 405 219zM459 109 q125 0 215 79.5t90 194.5v25h-297q-215 0 -215 -142q0 -76 59.5 -116.5t147.5 -40.5z" glyph-name="aacute" horiz-adv-x="1081" unicode="á"/><glyph d="M532 1421l-206 -262h-121l278 438h97l276 -438h-119zM532 1020q176 0 283 -104.5t107 -301.5v-614h-148v129q-113 -152 -336 -152q-154 0 -251 76t-97 205q0 127 98.5 203t260.5 76h315v86q0 123 -64.5 187t-177.5 64q-168 0 -291 -159l-104 86q137 219 405 219zM459 109 q125 0 215 79.5t90 194.5v25h-297q-215 0 -215 -142q0 -76 59.5 -116.5t147.5 -40.5z" glyph-name="acircumflex" horiz-adv-x="1081" unicode="â"/><glyph d="M342 1247h-131q-2 18 -2 51q0 92 47 152.5t127 60.5q76 0 139 -53l53 -45q53 -47 87 -47q57 0 57 84v35h131q2 -18 2 -51q0 -92 -47 -152.5t-127 -60.5q-76 0 -139 53l-54 45q-6 4 -17 14t-16.5 14.5t-14.5 9.5t-18 7t-20 2q-57 0 -57 -84v-35zM532 1020 q176 0 283 -104.5t107 -301.5v-614h-148v129q-113 -152 -336 -152q-154 0 -251 76t-97 205q0 127 98.5 203t260.5 76h315v86q0 123 -64.5 187t-177.5 64q-168 0 -291 -159l-104 86q137 219 405 219zM459 109q125 0 215 79.5t90 194.5v25h-297q-215 0 -215 -142 q0 -76 59.5 -116.5t147.5 -40.5z" glyph-name="atilde" horiz-adv-x="1081" unicode="ã"/><glyph d="M311 1270q-43 0 -77.5 32.5t-34.5 75.5q0 45 34.5 78t77.5 33q47 0 81 -33t34 -78t-34 -76.5t-81 -31.5zM748 1270q-45 0 -80 32.5t-35 75.5q0 45 34.5 78t80.5 33q47 0 79.5 -33t32.5 -78t-32.5 -76.5t-79.5 -31.5zM532 1020q176 0 283 -104.5t107 -301.5v-614h-148v129 q-113 -152 -336 -152q-154 0 -251 76t-97 205q0 127 98.5 203t260.5 76h315v86q0 123 -64.5 187t-177.5 64q-168 0 -291 -159l-104 86q137 219 405 219zM459 109q125 0 215 79.5t90 194.5v25h-297q-215 0 -215 -142q0 -76 59.5 -116.5t147.5 -40.5z" glyph-name="adieresis" horiz-adv-x="1081" unicode="ä"/><glyph d="M528 1145q-94 0 -159.5 64.5t-65.5 158.5t64.5 157.5t161 63.5t162 -63.5t65.5 -157.5t-66 -158.5t-162 -64.5zM530 1475q-43 0 -73.5 -31t-30.5 -76t29.5 -73.5t74.5 -28.5q43 0 73 28.5t30 73.5t-31 76t-72 31zM532 1020q176 0 283 -104.5t107 -301.5v-614h-148v129 q-113 -152 -336 -152q-154 0 -251 76t-97 205q0 127 98.5 203t260.5 76h315v86q0 123 -64.5 187t-177.5 64q-168 0 -291 -159l-104 86q137 219 405 219zM459 109q125 0 215 79.5t90 194.5v25h-297q-215 0 -215 -142q0 -76 59.5 -116.5t147.5 -40.5z" glyph-name="aring" horiz-adv-x="1081" unicode="å"/><glyph d="M1714 432h-782q20 -141 120.5 -225t241.5 -84q168 0 301 133l95 -104q-158 -174 -398 -175q-139 0 -253.5 66t-182.5 176q-53 -115 -163.5 -178.5t-250.5 -63.5q-158 0 -255 79t-97 210q0 133 98.5 214t260.5 81h315v62q0 123 -65.5 187t-174.5 64q-166 0 -288 -159 l-105 86q137 219 404 219q252 0 342 -209q145 209 401 209q193 0 322 -127t129 -326q-1 -82 -15 -135zM932 561h633q8 145 -78 230.5t-217 85.5q-133 0 -226.5 -87.5t-111.5 -228.5zM461 111q123 0 213 77.5t90 192.5v51h-297q-215 0 -215 -149q0 -82 59.5 -127t149.5 -45z " glyph-name="ae" horiz-adv-x="1832" unicode="æ"/><glyph d="M627 123q176 0 295 160l112 -88q-113 -172 -317 -209q49 -61 49 -142q0 -100 -72.5 -167.5t-197.5 -67.5q-68 0 -140 20v113q63 -8 115 -8q72 0 116 32.5t44 100.5q0 59 -37 110q-209 12 -350.5 162t-141.5 361q0 217 152 368.5t371 151.5q266 0 411 -217l-112 -90 q-121 162 -297 161q-156 0 -259.5 -108.5t-103.5 -265.5q0 -160 103.5 -268.5t259.5 -108.5z" glyph-name="ccedilla" horiz-adv-x="1128" unicode="ç"/><glyph d="M668 1159h-121l-246 410v28h193zM1067 569q0 -57 -12 -118h-789q14 -147 116.5 -237.5t250.5 -90.5q170 0 305 135l92 -106q-164 -174 -399 -175q-225 0 -377 149.5t-152 371.5q0 219 147.5 370.5t362.5 151.5q195 0 325 -127t130 -324zM608 877q-125 0 -217 -79 t-119 -208h633q-2 133 -87 210t-210 77z" glyph-name="egrave" horiz-adv-x="1169" unicode="è"/><glyph d="M918 1569l-246 -410h-121l174 438h193v-28zM1067 569q0 -57 -12 -118h-789q14 -147 116.5 -237.5t250.5 -90.5q170 0 305 135l92 -106q-164 -174 -399 -175q-225 0 -377 149.5t-152 371.5q0 219 147.5 370.5t362.5 151.5q195 0 325 -127t130 -324zM608 877 q-125 0 -217 -79t-119 -208h633q-2 133 -87 210t-210 77z" glyph-name="eacute" horiz-adv-x="1169" unicode="é"/><glyph d="M610 1421l-207 -262h-120l278 438h96l277 -438h-119zM1067 569q0 -57 -12 -118h-789q14 -147 116.5 -237.5t250.5 -90.5q170 0 305 135l92 -106q-164 -174 -399 -175q-225 0 -377 149.5t-152 371.5q0 219 147.5 370.5t362.5 151.5q195 0 325 -127t130 -324zM608 877 q-125 0 -217 -79t-119 -208h633q-2 133 -87 210t-210 77z" glyph-name="ecircumflex" horiz-adv-x="1169" unicode="ê"/><glyph d="M389 1270q-43 0 -78 32.5t-35 75.5q0 45 35 78t78 33q47 0 81 -33t34 -78t-34 -76.5t-81 -31.5zM825 1270q-45 0 -79.5 32.5t-34.5 75.5q0 45 34.5 78t79.5 33q47 0 80 -33t33 -78t-33 -76.5t-80 -31.5zM1067 569q0 -57 -12 -118h-789q14 -147 116.5 -237.5t250.5 -90.5 q170 0 305 135l92 -106q-164 -174 -399 -175q-225 0 -377 149.5t-152 371.5q0 219 147.5 370.5t362.5 151.5q195 0 325 -127t130 -324zM608 877q-125 0 -217 -79t-119 -208h633q-2 133 -87 210t-210 77z" glyph-name="edieresis" horiz-adv-x="1169" unicode="ë"/><glyph d="M195 1159l-185 410v28h193l112 -438h-120zM174 0v997h158v-997h-158z" glyph-name="igrave" horiz-adv-x="503" unicode="ì"/><glyph d="M190 1159l113 438h193v-28l-185 -410h-121zM174 0v997h158v-997h-158z" glyph-name="iacute" horiz-adv-x="503" unicode="í"/><glyph d="M303 1597l277 -438h-119l-205 262l-207 -262h-121l279 438h96zM174 0v997h158v-997h-158z" glyph-name="icircumflex" horiz-adv-x="503" unicode="î"/><glyph d="M66 1270q-45 0 -79 31.5t-34 76.5t33.5 78t79.5 33q47 0 80.5 -33t33.5 -78t-33.5 -76.5t-80.5 -31.5zM440 1270q-45 0 -79.5 32.5t-34.5 75.5q0 45 34.5 78t79.5 33q47 0 80 -33t33 -78t-33 -76.5t-80 -31.5zM174 0v997h158v-997h-158z" glyph-name="idieresis" horiz-adv-x="503" unicode="ï"/><glyph d="M840 940q82 -113 117.5 -166t69.5 -142t34 -177q0 -205 -136.5 -341.5t-343 -136.5t-343 134.5t-136.5 332.5q0 197 133.5 329t327.5 132q63 0 123 -16l-207 287l-305 -148l-55 117l282 135l-137 190l119 89l158 -213l315 151l57 -113l-297 -143zM581.5 123 q137.5 0 227.5 91t90 230q0 137 -90 228.5t-227.5 91.5t-227.5 -91t-90 -230.5t90 -229.5t227.5 -90z" glyph-name="eth" horiz-adv-x="1165" unicode="ð"/><glyph d="M395 1247h-131q-2 18 -2 51q0 92 47 152.5t127 60.5q76 0 139 -53l54 -45q53 -47 86 -47q57 0 57 84v35h131q2 -18 2 -51q0 -92 -47 -152.5t-127 -60.5q-76 0 -139 53l-53 45q-6 4 -17.5 14t-16.5 14.5t-14.5 9.5t-18.5 7t-19 2q-57 0 -58 -84v-35zM629 1020 q174 0 272 -108.5t98 -284.5v-627h-157v608q0 119 -66.5 192.5t-181.5 73.5t-188.5 -74.5t-73.5 -191.5v-608h-158v997h148v-106q117 129 307 129z" glyph-name="ntilde" horiz-adv-x="1159" unicode="ñ"/><glyph d="M563 1159l-246 410v28h193l174 -438h-121zM623 -20q-217 0 -369 151.5t-152 368.5q0 219 152 369.5t371 150.5t370.5 -151.5t151.5 -368.5t-152.5 -368.5t-371.5 -151.5zM622.5 125q153.5 0 258 107.5t104.5 265.5q0 162 -103.5 269t-256.5 107q-156 0 -258.5 -107.5 t-102.5 -268.5q0 -160 102.5 -266.5t256 -106.5z" glyph-name="ograve" horiz-adv-x="1249" unicode="ò"/><glyph d="M569 1159l174 438h193v-28l-246 -410h-121zM623 -20q-217 0 -369 151.5t-152 368.5q0 219 152 369.5t371 150.5t370.5 -151.5t151.5 -368.5t-152.5 -368.5t-371.5 -151.5zM622.5 125q153.5 0 258 107.5t104.5 265.5q0 162 -103.5 269t-256.5 107q-156 0 -258.5 -107.5 t-102.5 -268.5q0 -160 102.5 -266.5t256 -106.5z" glyph-name="oacute" horiz-adv-x="1249" unicode="ó"/><glyph d="M627 1421l-207 -262h-121l279 438h96l276 -438h-119zM625 1020q219 0 370.5 -151.5t151.5 -368.5t-152.5 -368.5t-371.5 -151.5q-217 0 -369 151.5t-152 368.5q0 219 152 369.5t371 150.5zM622.5 125q153.5 0 258 107.5t104.5 265.5q0 162 -103.5 269t-256.5 107 q-156 0 -258.5 -107.5t-102.5 -268.5q0 -160 102.5 -266.5t256 -106.5z" glyph-name="ocircumflex" horiz-adv-x="1249" unicode="ô"/><glyph d="M772 1221q-76 0 -139 53l-53 45q-6 4 -17.5 14t-16.5 14.5t-14.5 9.5t-18.5 7t-19 2q-57 0 -58 -84v-35h-131q-2 18 -2 51q0 92 47 152.5t127 60.5q76 0 139 -53l54 -45q53 -47 86 -47q57 0 57 84v35h131q2 -18 2 -51q0 -92 -47 -152.5t-127 -60.5zM623 -20 q-217 0 -369 151.5t-152 368.5q0 219 152 369.5t371 150.5t370.5 -151.5t151.5 -368.5t-152.5 -368.5t-371.5 -151.5zM622.5 125q153.5 0 258 107.5t104.5 265.5q0 162 -103.5 269t-256.5 107q-156 0 -258.5 -107.5t-102.5 -268.5q0 -160 102.5 -266.5t256 -106.5z" glyph-name="otilde" horiz-adv-x="1249" unicode="õ"/><glyph d="M406 1270q-43 0 -78 32.5t-35 75.5q0 45 34.5 78t78.5 33q47 0 80.5 -33t33.5 -78t-33.5 -76.5t-80.5 -31.5zM842 1270q-45 0 -80 32.5t-35 75.5q0 45 35 78t80 33q47 0 79.5 -33t32.5 -78t-32.5 -76.5t-79.5 -31.5zM623 -20q-217 0 -369 151.5t-152 368.5 q0 219 152 369.5t371 150.5t370.5 -151.5t151.5 -368.5t-152.5 -368.5t-371.5 -151.5zM622.5 125q153.5 0 258 107.5t104.5 265.5q0 162 -103.5 269t-256.5 107q-156 0 -258.5 -107.5t-102.5 -268.5q0 -160 102.5 -266.5t256 -106.5z" glyph-name="odieresis" horiz-adv-x="1249" unicode="ö"/><glyph d="M569 897q-47 0 -79.5 32t-32.5 77q0 47 32.5 78.5t79.5 31.5t80 -31.5t33 -78.5q0 -45 -33 -77t-80 -32zM115 575v140h915v-140h-915zM569 168q-47 0 -79.5 31.5t-32.5 76.5q0 47 32.5 78t79.5 31t80 -30.5t33 -78.5q0 -45 -33 -76.5t-80 -31.5z" glyph-name="divide" unicode="÷"/><glyph d="M1171 938l-120 -123q106 -139 106 -317q0 -217 -153.5 -369t-370.5 -152q-176 0 -316 107l-118 -123l-99 98l121 121q-106 139 -106 318q0 219 150.5 370.5t369.5 151.5q178 0 317 -107l121 119zM635 881q-160 0 -264.5 -108.5t-104.5 -274.5q0 -123 62 -219l528 532 q-100 70 -221 70zM633 113q160 0 266.5 110.5t106.5 274.5q0 123 -62 219l-530 -531q92 -73 219 -73z" glyph-name="oslash" horiz-adv-x="1269" unicode="ø"/><glyph d="M512 1159l-246 410v28h193l174 -438h-121zM575 -23q-178 0 -295.5 116t-117.5 304v600h155v-610q0 -121 74 -192.5t184 -71.5q109 0 181.5 72.5t72.5 191.5v610h158v-600q0 -188 -118 -304t-294 -116z" glyph-name="ugrave" unicode="ù"/><glyph d="M516 1159l174 438h193v-28l-246 -410h-121zM575 -23q-178 0 -295.5 116t-117.5 304v600h155v-610q0 -121 74 -192.5t184 -71.5q109 0 181.5 72.5t72.5 191.5v610h158v-600q0 -188 -118 -304t-294 -116z" glyph-name="uacute" unicode="ú"/><glyph d="M575 1421l-206 -262h-121l278 438h97l276 -438h-119zM829 997h158v-600q0 -188 -117.5 -304t-294.5 -116q-178 0 -295.5 116t-117.5 304v600h155v-610q0 -121 74 -192.5t184 -71.5q109 0 181.5 72.5t72.5 191.5v610z" glyph-name="ucircumflex" unicode="û"/><glyph d="M354 1270q-43 0 -77.5 32.5t-34.5 75.5q0 45 34.5 78t77.5 33q47 0 81 -33t34 -78t-34 -76.5t-81 -31.5zM791 1270q-45 0 -80 32.5t-35 75.5q0 45 34.5 78t80.5 33q47 0 79.5 -33t32.5 -78t-32.5 -76.5t-79.5 -31.5zM575 -23q-178 0 -295.5 116t-117.5 304v600h155v-610 q0 -121 74 -192.5t184 -71.5q109 0 181.5 72.5t72.5 191.5v610h158v-600q0 -188 -118 -304t-294 -116z" glyph-name="udieresis" unicode="ü"/><glyph d="M856 1569l-246 -410h-121l175 438h192v-28zM883 997h168l-492 -1136q-111 -252 -338 -252q-76 0 -153 20v133q78 -10 120 -10q78 0 132.5 35t93.5 125l53 119l-414 966h170l330 -794z" glyph-name="yacute" horiz-adv-x="1103" unicode="ý"/><glyph d="M698 1020q213 0 353.5 -149.5t140.5 -370.5q0 -223 -140.5 -373t-353.5 -150q-111 0 -208 44.5t-158 121.5v-512h-158v1905h158v-684q59 78 156 123t210 45zM676 123q152 0 253 106.5t101 268.5q0 164 -100.5 270t-253.5 106q-143 0 -244.5 -95t-101.5 -279.5 t101.5 -280.5t244.5 -96z" glyph-name="thorn" horiz-adv-x="1294" unicode="þ"/><glyph d="M328 1270q-43 0 -78 32.5t-35 75.5q0 45 35 78t78 33q47 0 80.5 -33t33.5 -78t-33.5 -76.5t-80.5 -31.5zM764 1270q-45 0 -80 32.5t-35 75.5q0 45 35 78t80 33q47 0 80 -33t33 -78t-33 -76.5t-80 -31.5zM883 997h168l-492 -1136q-111 -252 -338 -252q-76 0 -153 20v133 q78 -10 120 -10q78 0 132.5 35t93.5 125l53 119l-414 966h170l330 -794z" glyph-name="ydieresis" horiz-adv-x="1103" unicode="ÿ"/><glyph d="M983 1706v-129h-604v129h604zM1124 0l-114 274h-664l-115 -274h-168l586 1374h60l585 -1374h-170zM948 418l-270 665l-270 -665h540z" glyph-name="Amacron" horiz-adv-x="1357" unicode="Ā"/><glyph d="M813 1442v-127h-563v127h563zM532 1020q176 0 283 -104.5t107 -301.5v-614h-148v129q-113 -152 -336 -152q-154 0 -251 76t-97 205q0 127 98.5 203t260.5 76h315v86q0 123 -64.5 187t-177.5 64q-168 0 -291 -159l-104 86q137 219 405 219zM459 109q125 0 215 79.5 t90 194.5v25h-297q-215 0 -215 -142q0 -76 59.5 -116.5t147.5 -40.5z" glyph-name="amacron" horiz-adv-x="1081" unicode="ā"/><glyph d="M678 1487q-139 0 -224 89t-85 236v52h129v-49q0 -92 49 -147.5t131 -55.5q84 0 133 54t49 149v49h129v-52q0 -145 -87 -235t-224 -90zM1124 0l-114 274h-664l-115 -274h-168l586 1374h60l585 -1374h-170zM948 418l-270 665l-270 -665h540z" glyph-name="Abreve" horiz-adv-x="1357" unicode="Ă"/><glyph d="M528 1174q-137 0 -223 90t-86 233v64h129v-60q0 -94 49 -148.5t131 -54.5q84 0 133.5 54.5t49.5 148.5v60h129v-64q0 -145 -86.5 -234t-225.5 -89zM532 1020q176 0 283 -104.5t107 -301.5v-614h-148v129q-113 -152 -336 -152q-154 0 -251 76t-97 205q0 127 98.5 203 t260.5 76h315v86q0 123 -64.5 187t-177.5 64q-168 0 -291 -159l-104 86q137 219 405 219zM459 109q125 0 215 79.5t90 194.5v25h-297q-215 0 -215 -142q0 -76 59.5 -116.5t147.5 -40.5z" glyph-name="abreve" horiz-adv-x="1081" unicode="ă"/><glyph d="M1087 -188q0 -76 99 -76q43 0 110 14v-119q-72 -23 -147 -22q-98 0 -158.5 49t-60.5 129q0 61 44 112.5t146 110.5l-110 264h-664l-115 -274h-168l586 1374h60l583 -1370l4 -4l-102 -68q-35 -23 -44 -29.5t-29.5 -24t-27 -33t-6.5 -33.5zM948 418l-270 665l-270 -665h540 z" glyph-name="Aogonek" horiz-adv-x="1357" unicode="Ą"/><glyph d="M819 -68q-35 -23 -44 -29.5t-29.5 -24t-26.5 -33t-6 -33.5q0 -76 98 -76q43 0 111 14v-119q-72 -23 -148 -22q-98 0 -158.5 49t-60.5 129q0 66 50 119t169 121v102q-113 -152 -336 -152q-154 0 -251 76t-97 205q0 127 98.5 203t260.5 76h315v86q0 123 -64.5 187 t-177.5 64q-168 0 -291 -159l-104 86q137 219 405 219q176 0 283 -104.5t107 -301.5v-614zM459 109q125 0 215 79.5t90 194.5v25h-297q-215 0 -215 -142q0 -76 59.5 -116.5t147.5 -40.5z" glyph-name="aogonek" horiz-adv-x="1081" unicode="ą"/><glyph d="M741 1483l174 381h193v-29l-246 -352h-121zM801 -23q-295 0 -499 202t-204 497t204 496.5t499 201.5q180 0 327.5 -78.5t233.5 -212.5l-119 -94q-162 238 -440 238q-229 0 -384 -158t-155 -393.5t154.5 -393t384.5 -157.5q279 0 440 237l119 -94q-84 -133 -232.5 -212 t-328.5 -79z" glyph-name="Cacute" horiz-adv-x="1464" unicode="Ć"/><glyph d="M567 1159l174 438h193v-28l-246 -410h-121zM625 -23q-219 0 -371 152t-152 371q0 217 152 368.5t371 151.5q266 0 411 -217l-112 -90q-121 162 -297 161q-156 0 -259.5 -108.5t-103.5 -265.5q0 -160 103.5 -268.5t259.5 -108.5q176 0 295 160l112 -88 q-145 -218 -409 -218z" glyph-name="cacute" horiz-adv-x="1128" unicode="ć"/><glyph d="M801 1704l-228 -221h-122l301 381h96l301 -381h-123zM803 125q279 0 440 237l119 -94q-84 -133 -232.5 -212t-328.5 -79q-295 0 -499 202t-204 497t204 496.5t499 201.5q180 0 327.5 -78.5t233.5 -212.5l-119 -94q-162 238 -440 238q-229 0 -384 -158t-155 -393.5 t155 -393t384 -157.5z" glyph-name="Ccircumflex" horiz-adv-x="1464" unicode="Ĉ"/><glyph d="M625 1421l-207 -262h-121l278 438h97l276 -438h-119zM627 123q176 0 295 160l112 -88q-145 -217 -409 -218q-219 0 -371 152t-152 371q0 217 152 368.5t371 151.5q266 0 411 -217l-112 -90q-121 162 -297 161q-156 0 -259.5 -108.5t-103.5 -265.5q0 -160 103.5 -268.5 t259.5 -108.5z" glyph-name="ccircumflex" horiz-adv-x="1128" unicode="ĉ"/><glyph d="M801 1544q-49 0 -84 33t-35 82q0 47 35 81t84 34q47 0 82 -34t35 -81q0 -49 -34 -82t-83 -33zM801 -23q-295 0 -499 202t-204 497t204 496.5t499 201.5q180 0 327.5 -78.5t233.5 -212.5l-119 -94q-162 238 -440 238q-229 0 -384 -158t-155 -393.5t154.5 -393 t384.5 -157.5q279 0 440 237l119 -94q-84 -133 -232.5 -212t-328.5 -79z" glyph-name="Cdotaccent" horiz-adv-x="1464" unicode="Ċ"/><glyph d="M622.5 1264q-49.5 0 -84 32.5t-34.5 81.5q0 47 34.5 81t84.5 34q47 0 81.5 -34t34.5 -81q0 -49 -33.5 -81.5t-83 -32.5zM625 -23q-219 0 -371 152t-152 371q0 217 152 368.5t371 151.5q266 0 411 -217l-112 -90q-121 162 -297 161q-156 0 -259.5 -108.5t-103.5 -265.5 q0 -160 103.5 -268.5t259.5 -108.5q176 0 295 160l112 -88q-145 -218 -409 -218z" glyph-name="cdotaccent" horiz-adv-x="1128" unicode="ċ"/><glyph d="M848 1483h-96l-301 381h122l228 -222l225 222h123zM803 125q279 0 440 237l119 -94q-84 -133 -232.5 -212t-328.5 -79q-295 0 -499 202t-204 497t204 496.5t499 201.5q180 0 327.5 -78.5t233.5 -212.5l-119 -94q-162 238 -440 238q-229 0 -384 -158t-155 -393.5t155 -393 t384 -157.5z" glyph-name="Ccaron" horiz-adv-x="1464" unicode="Č"/><glyph d="M672 1159h-97l-278 438h121l207 -262l204 262h119zM627 123q176 0 295 160l112 -88q-145 -217 -409 -218q-219 0 -371 152t-152 371q0 217 152 368.5t371 151.5q266 0 411 -217l-112 -90q-121 162 -297 161q-156 0 -259.5 -108.5t-103.5 -265.5q0 -160 103.5 -268.5 t259.5 -108.5z" glyph-name="ccaron" horiz-adv-x="1128" unicode="č"/><glyph d="M631 1483h-96l-302 381h123l228 -222l225 222h123zM588 1352q338 0 536.5 -187.5t198.5 -486.5q0 -297 -198.5 -487.5t-536.5 -190.5h-402v1352h402zM586 143q264 0 417.5 150.5t153.5 384.5q0 238 -152.5 384t-418.5 146h-240v-1065h240z" glyph-name="Dcaron" horiz-adv-x="1421" unicode="Ď"/><glyph d="M965 850v686h157v-1536h-149v158q-57 -84 -158.5 -132.5t-218.5 -48.5q-213 0 -353.5 149.5t-140.5 371.5q0 223 140.5 372.5t353.5 149.5q113 0 211.5 -45t157.5 -125zM1354 1536h170l-78 -432h-119zM618 123q143 0 246 95t103 279.5t-102.5 280.5t-246.5 96 q-152 0 -253 -106t-101 -268q0 -164 100 -270.5t254 -106.5z" glyph-name="dcaron" horiz-adv-x="1523" unicode="ď"/><glyph d="M588 1352q338 0 536.5 -187.5t198.5 -486.5q0 -297 -198.5 -487.5t-536.5 -190.5h-402v561h-194v135h194v656h402zM586 143q264 0 417.5 150.5t153.5 384.5q0 238 -152.5 384t-418.5 146h-240v-512h266v-135h-266v-418h240z" glyph-name="Dcroat" horiz-adv-x="1421" unicode="Đ"/><glyph d="M1288 1321v-131h-170v-1190h-147v162q-59 -86 -162.5 -135.5t-220.5 -49.5q-207 0 -347.5 144.5t-140.5 361.5t139.5 362.5t348.5 145.5q115 0 214 -46t161 -128v373h-449v131h449v215h155v-215h170zM616 119q143 0 245 92t102 272.5t-101.5 273.5t-245.5 93 q-154 0 -254 -103.5t-100 -263t100 -262t254 -102.5z" glyph-name="dcroat" horiz-adv-x="1298" unicode="đ"/><glyph d="M319 1577v129h605v-129h-605zM186 0v1352h867v-144h-707v-413h541v-144h-541v-508h731v-143h-891z" glyph-name="Emacron" horiz-adv-x="1159" unicode="Ē"/><glyph d="M891 1442v-127h-563v127h563zM1067 569q0 -57 -12 -118h-789q14 -147 116.5 -237.5t250.5 -90.5q170 0 305 135l92 -106q-164 -174 -399 -175q-225 0 -377 149.5t-152 371.5q0 219 147.5 370.5t362.5 151.5q195 0 325 -127t130 -324zM608 877q-125 0 -217 -79t-119 -208 h633q-2 133 -87 210t-210 77z" glyph-name="emacron" horiz-adv-x="1169" unicode="ē"/><glyph d="M618 1487q-139 0 -224 89t-85 236v52h129v-49q0 -92 49.5 -147.5t130.5 -55.5q84 0 133.5 54t49.5 149v49h129v-52q0 -145 -87.5 -235t-224.5 -90zM186 0v1352h867v-144h-707v-413h541v-144h-541v-508h731v-143h-891z" glyph-name="Ebreve" horiz-adv-x="1159" unicode="Ĕ"/><glyph d="M606 1174q-137 0 -223 90t-86 233v64h129v-60q0 -94 49 -148.5t131 -54.5q84 0 133 54.5t49 148.5v60h130v-64q0 -145 -86.5 -234t-225.5 -89zM1067 569q0 -57 -12 -118h-789q14 -147 116.5 -237.5t250.5 -90.5q170 0 305 135l92 -106q-164 -174 -399 -175 q-225 0 -377 149.5t-152 371.5q0 219 147.5 370.5t362.5 151.5q195 0 325 -127t130 -324zM608 877q-125 0 -217 -79t-119 -208h633q-2 133 -87 210t-210 77z" glyph-name="ebreve" horiz-adv-x="1169" unicode="ĕ"/><glyph d="M620.5 1544q-49.5 0 -84 33t-34.5 82q0 47 34.5 81t84.5 34q47 0 81.5 -34t34.5 -81q0 -49 -33.5 -82t-83 -33zM186 0v1352h867v-144h-707v-413h541v-144h-541v-508h731v-143h-891z" glyph-name="Edotaccent" horiz-adv-x="1159" unicode="Ė"/><glyph d="M608 1264q-49 0 -84 32.5t-35 81.5q0 47 35 81t84 34q47 0 82 -34t35 -81q0 -49 -34 -81.5t-83 -32.5zM1067 569q0 -57 -12 -118h-789q14 -147 116.5 -237.5t250.5 -90.5q170 0 305 135l92 -106q-164 -174 -399 -175q-225 0 -377 149.5t-152 371.5q0 219 147.5 370.5 t362.5 151.5q195 0 325 -127t130 -324zM608 877q-125 0 -217 -79t-119 -208h633q-2 133 -87 210t-210 77z" glyph-name="edotaccent" horiz-adv-x="1169" unicode="ė"/><glyph d="M975 -68q-35 -23 -44 -29.5t-29.5 -24t-27 -33t-6.5 -33.5q0 -76 99 -76q43 0 110 14v-119q-72 -23 -147 -22q-98 0 -158.5 49t-60.5 129q0 59 40 108.5t132 104.5h-697v1352h867v-144h-707v-413h541v-144h-541v-508h731v-143z" glyph-name="Eogonek" horiz-adv-x="1159" unicode="Ę"/><glyph d="M1067 569q0 -57 -12 -118h-789q14 -147 116.5 -237.5t250.5 -90.5q170 0 305 135l92 -106q-4 -4 -9 -10.5t-10 -10.5l-10 -8l-161 -172q-43 -47 -59.5 -74t-16.5 -65q0 -76 96 -76q43 0 111 14v-119q-72 -23 -148 -22q-98 0 -158.5 48t-60.5 130q0 94 88 195 q-41 -4 -61 -5q-225 0 -377 149.5t-152 371.5q0 219 147.5 370.5t362.5 151.5q195 0 325 -127t130 -324zM608 877q-125 0 -217 -79t-119 -208h633q-2 133 -87 210t-210 77z" glyph-name="eogonek" horiz-adv-x="1169" unicode="ę"/><glyph d="M668 1483h-97l-301 381h123l228 -222l225 222h123zM346 143h731v-143h-891v1352h867v-144h-707v-413h541v-144h-541v-508z" glyph-name="Ecaron" horiz-adv-x="1159" unicode="Ě"/><glyph d="M657 1159h-96l-278 438h120l207 -262l205 262h119zM1067 569q0 -57 -12 -118h-789q14 -147 116.5 -237.5t250.5 -90.5q170 0 305 135l92 -106q-164 -174 -399 -175q-225 0 -377 149.5t-152 371.5q0 219 147.5 370.5t362.5 151.5q195 0 325 -127t130 -324zM608 877 q-125 0 -217 -79t-119 -208h633q-2 133 -87 210t-210 77z" glyph-name="ecaron" horiz-adv-x="1169" unicode="ě"/><glyph d="M805 1704l-227 -221h-123l301 381h96l301 -381h-123zM799 688h620v-360q-90 -160 -255 -255.5t-363 -95.5q-297 0 -500 202t-203 497t204 496.5t499 201.5q172 0 314 -72.5t237 -203.5l-121 -94q-162 223 -430 223q-233 0 -385 -157t-152 -392q0 -238 154.5 -397.5 t390.5 -159.5q147 0 264 65.5t187 175.5v183h-461v143z" glyph-name="Gcircumflex" horiz-adv-x="1527" unicode="Ĝ"/><glyph d="M639 1421l-207 -262h-121l279 438h96l277 -438h-119zM983 997h150v-901q0 -227 -132.5 -357t-353.5 -130q-276 0 -469 192l92 111q180 -158 373 -158q156 0 244 86t88 248v88q-59 -78 -158.5 -122t-212.5 -44q-211 0 -350 143.5t-139 360.5t139 361.5t350 144.5 q119 0 220.5 -48t158.5 -134v159zM629 156q143 0 245.5 91t102.5 267t-102.5 266t-245.5 90q-154 0 -254.5 -100t-100.5 -258t100.5 -257t254.5 -99z" glyph-name="gcircumflex" horiz-adv-x="1304" unicode="ĝ"/><glyph d="M803 1487q-139 0 -224 89t-85 236v52h129v-49q0 -92 49 -147.5t131 -55.5q84 0 133 54t49 149v49h129v-52q0 -145 -87 -235t-224 -90zM801 -23q-297 0 -500 202t-203 497t204 496.5t499 201.5q172 0 314 -72.5t237 -203.5l-121 -94q-162 223 -430 223q-233 0 -385 -157 t-152 -392q0 -238 154.5 -397.5t390.5 -159.5q147 0 264 65.5t187 175.5v183h-461v143h620v-360q-90 -160 -254.5 -255.5t-363.5 -95.5z" glyph-name="Gbreve" horiz-adv-x="1527" unicode="Ğ"/><glyph d="M635 1174q-137 0 -223 90t-86 233v64h129v-60q0 -94 49 -148.5t131 -54.5q84 0 133 54.5t49 148.5v60h129v-64q0 -145 -86 -234t-225 -89zM983 997h150v-901q0 -227 -132.5 -357t-353.5 -130q-276 0 -469 192l92 111q180 -158 373 -158q156 0 244 86t88 248v88 q-59 -78 -158.5 -122t-212.5 -44q-211 0 -350 143.5t-139 360.5t139 361.5t350 144.5q119 0 220.5 -48t158.5 -134v159zM629 156q143 0 245.5 91t102.5 267t-102.5 266t-245.5 90q-154 0 -254.5 -100t-100.5 -258t100.5 -257t254.5 -99z" glyph-name="gbreve" horiz-adv-x="1304" unicode="ğ"/><glyph d="M805 1544q-49 0 -84 33t-35 82q0 47 35 81t84 34q47 0 82 -34t35 -81q0 -49 -34 -82t-83 -33zM801 -23q-297 0 -500 202t-203 497t204 496.5t499 201.5q172 0 314 -72.5t237 -203.5l-121 -94q-162 223 -430 223q-233 0 -385 -157t-152 -392q0 -238 154.5 -397.5 t390.5 -159.5q147 0 264 65.5t187 175.5v183h-461v143h620v-360q-90 -160 -254.5 -255.5t-363.5 -95.5z" glyph-name="Gdotaccent" horiz-adv-x="1527" unicode="Ġ"/><glyph d="M637 1264q-49 0 -84 32.5t-35 81.5q0 47 35 81t84 34q47 0 82 -34t35 -81q0 -49 -34 -81.5t-83 -32.5zM983 997h150v-901q0 -227 -132.5 -357t-353.5 -130q-276 0 -469 192l92 111q180 -158 373 -158q156 0 244 86t88 248v88q-59 -78 -158.5 -122t-212.5 -44 q-211 0 -350 143.5t-139 360.5t139 361.5t350 144.5q119 0 220.5 -48t158.5 -134v159zM629 156q143 0 245.5 91t102.5 267t-102.5 266t-245.5 90q-154 0 -254.5 -100t-100.5 -258t100.5 -257t254.5 -99z" glyph-name="gdotaccent" horiz-adv-x="1304" unicode="ġ"/><glyph d="M801 -23q-297 0 -500 202t-203 497t204 496.5t499 201.5q172 0 314 -72.5t237 -203.5l-121 -94q-162 223 -430 223q-233 0 -385 -157t-152 -392q0 -238 154.5 -397.5t390.5 -159.5q147 0 264 65.5t187 175.5v183h-461v143h620v-360q-90 -160 -254.5 -255.5t-363.5 -95.5z M707 -451l18 351h156l-52 -351h-122z" glyph-name="Gcommaaccent" horiz-adv-x="1527" unicode="Ģ"/><glyph d="M743 1597l-28 -438h-156l66 438h118zM983 997h150v-901q0 -227 -132.5 -357t-353.5 -130q-276 0 -469 192l92 111q180 -158 373 -158q156 0 244 86t88 248v88q-59 -78 -158.5 -122t-212.5 -44q-211 0 -350 143.5t-139 360.5t139 361.5t350 144.5q119 0 220.5 -48 t158.5 -134v159zM629 156q143 0 245.5 91t102.5 267t-102.5 266t-245.5 90q-154 0 -254.5 -100t-100.5 -258t100.5 -257t254.5 -99z" glyph-name="gcommaaccent" horiz-adv-x="1304" unicode="ģ"/><glyph d="M725 1704l-227 -221h-123l301 381h96l301 -381h-123zM1104 1352h160v-1352h-160v651h-758v-651h-160v1352h160v-557h758v557z" glyph-name="Hcircumflex" horiz-adv-x="1449" unicode="Ĥ"/><glyph d="M557 1667l-225 221l-228 -221h-122l301 381h96l301 -381h-123zM631 1020q172 0 270 -108.5t98 -284.5v-627h-157v606q0 121 -66.5 194.5t-181.5 73.5t-188.5 -75.5t-73.5 -192.5v-606h-158v1536h158v-651q109 135 299 135z" glyph-name="hcircumflex" horiz-adv-x="1159" unicode="ĥ"/><glyph d="M195 0v942h-203v135h203v275h159v-275h760v275h160v-275h205v-135h-205v-942h-160v518h-760v-518h-159zM354 664h760v278h-760v-278z" glyph-name="Hbar" horiz-adv-x="1472" unicode="Ħ"/><glyph d="M637 991q172 0 271.5 -107.5t99.5 -283.5v-600h-158v582q0 119 -67.5 191.5t-180.5 72.5q-117 0 -191.5 -75t-74.5 -189v-582h-156v1186h-170v139h170v211h156v-211h414v-139h-414v-332q108 137 301 137z" glyph-name="hbar" horiz-adv-x="1167" unicode="ħ"/><glyph d="M430 1520q-70 0 -149 49l-68 41q-66 41 -88 41q-29 0 -45.5 -22.5t-16.5 -55.5v-33h-131q-4 29 -4 51q0 90 49.5 148.5t128.5 58.5q70 0 144 -47l69 -45q63 -41 91 -41q61 0 61 76v37h131q2 -16 2 -54q0 -88 -48 -146t-126 -58zM186 0v1352h160v-1352h-160z" glyph-name="Itilde" horiz-adv-x="530" unicode="Ĩ"/><glyph d="M387 1221q-68 0 -133 61l-39 37q-4 4 -13 12t-12.5 11.5t-10.5 9.5t-12 8t-12.5 4t-13.5 2q-55 0 -55 -84v-35h-131q-4 20 -4 49q0 92 46 153.5t126 61.5q74 0 133 -59l39 -39q47 -47 74 -47q53 0 53 84v35h129q4 -20 4 -49q0 -92 -45 -153.5t-123 -61.5zM174 0v997h158 v-997h-158z" glyph-name="itilde" horiz-adv-x="503" unicode="ĩ"/><glyph d="M-37 1577v129h606v-129h-606zM186 0v1352h160v-1352h-160z" glyph-name="Imacron" horiz-adv-x="530" unicode="Ī"/><glyph d="M29 1313v131h450v-131h-450zM174 0v997h158v-997h-158z" glyph-name="imacron" horiz-adv-x="503" unicode="ī"/><glyph d="M264 1487q-139 0 -224 89t-85 236v52h129v-49q0 -92 49 -147.5t131 -55.5q84 0 133 54t49 149v49h129v-52q0 -145 -87 -235t-224 -90zM186 0v1352h160v-1352h-160z" glyph-name="Ibreve" horiz-adv-x="530" unicode="Ĭ"/><glyph d="M252 1174q-137 0 -223 90t-86 233v64h129v-60q0 -94 49 -148.5t131 -54.5q84 0 133 54.5t49 148.5v60h129v-64q0 -145 -86 -234t-225 -89zM174 0v997h158v-997h-158z" glyph-name="ibreve" horiz-adv-x="503" unicode="ĭ"/><glyph d="M244 -68q-35 -23 -44.5 -29.5t-29.5 -24t-26.5 -33t-6.5 -33.5q0 -76 99 -76q43 0 110 14v-119q-72 -23 -147 -22q-98 0 -160 49t-62 129q0 63 48.5 116.5t160.5 116.5v1332h160v-1352z" glyph-name="Iogonek" horiz-adv-x="530" unicode="Į"/><glyph d="M254 1493q47 0 82 -34t35 -81q0 -49 -34 -81.5t-83 -32.5t-84 32.5t-35 81.5q0 47 35 81t84 34zM174 23v974h158v-997l-103 -68q-35 -23 -44 -29.5t-29.5 -24t-26.5 -33t-6 -33.5q0 -76 98 -76q43 0 111 14v-119q-72 -23 -148 -22q-98 0 -159.5 49t-61.5 129 q0 63 48 116.5t163 119.5z" glyph-name="iogonek" horiz-adv-x="503" unicode="į"/><glyph d="M266 1544q-49 0 -84 33t-35 82q0 47 35 81t84 34q47 0 82 -34t35 -81q0 -49 -34 -82t-83 -33zM186 0v1352h160v-1352h-160z" glyph-name="Idotaccent" horiz-adv-x="530" unicode="İ"/><glyph d="M174 0v997h158v-997h-158z" glyph-name="dotlessi" horiz-adv-x="503" unicode="ı"/><glyph d="M186 0v1352h160v-1352h-160zM758 -23q-80 0 -178 23v137q84 -12 147 -12q109 0 166 44t57 159v1024h160v-1039q0 -170 -94 -253t-258 -83z" glyph-name="IJ" horiz-adv-x="1296" unicode="Ĳ"/><glyph d="M254 1264q-49 0 -84 32.5t-35 81.5q0 47 35 81t84 34q47 0 82 -34t35 -81q0 -49 -34 -81.5t-83 -32.5zM758 1264q-49 0 -84 32.5t-35 81.5q0 47 35 81t84 34q47 0 81.5 -34t34.5 -81q0 -49 -33.5 -81.5t-82.5 -32.5zM174 0v997h158v-997h-158zM508 -391q-68 0 -127 16 v133q53 -6 92 -6q205 0 205 191v1054h158v-1065q0 -164 -89 -243.5t-239 -79.5z" glyph-name="ij" horiz-adv-x="1007" unicode="ĳ"/><glyph d="M528 1864l301 -381h-122l-226 221l-227 -221h-123l301 381h96zM420 328v1024h160v-1039q0 -170 -94.5 -253t-258.5 -83q-80 0 -178 23v137q84 -12 148 -12q109 0 166 44t57 159z" glyph-name="Jcircumflex" horiz-adv-x="763" unicode="Ĵ"/><glyph d="M303 1597l277 -438h-119l-205 262l-207 -262h-121l279 438h96zM174 -57v1054h158v-1065q0 -164 -89 -243.5t-239 -79.5q-68 0 -127 16v133q53 -6 92 -6q205 1 205 191z" glyph-name="jcircumflex" horiz-adv-x="503" unicode="ĵ"/><glyph d="M186 0v1352h160v-1352h-160zM573 725l660 -725h-203l-665 725l608 627h205zM524 -451l19 351h155l-51 -351h-123z" glyph-name="Kcommaaccent" horiz-adv-x="1296" unicode="Ķ"/><glyph d="M174 0v1536h158v-1536h-158zM539 559l471 -559h-203l-459 561l416 436h207zM422 -451l18 351h156l-51 -351h-123z" glyph-name="kcommaaccent" horiz-adv-x="1036" unicode="ķ"/><glyph d="M205 1483l174 381h192v-29l-245 -352h-121zM186 0v1352h160v-1209h641v-143h-801z" glyph-name="Lacute" horiz-adv-x="1036" unicode="Ĺ"/><glyph d="M193 1667l174 381h192v-29l-246 -352h-120zM174 0v1536h158v-1536h-158z" glyph-name="lacute" horiz-adv-x="503" unicode="ĺ"/><glyph d="M186 0v1352h160v-1209h641v-143h-801zM473 -451l19 351h155l-51 -351h-123z" glyph-name="Lcommaaccent" horiz-adv-x="1036" unicode="Ļ"/><glyph d="M174 0v1536h158v-1536h-158zM156 -451l18 351h156l-51 -351h-123z" glyph-name="lcommaaccent" horiz-adv-x="503" unicode="ļ"/><glyph d="M743 1042l27 433h170l-80 -433h-117zM186 0v1352h160v-1209h641v-143h-801z" glyph-name="Lcaron" horiz-adv-x="1036" unicode="Ľ"/><glyph d="M174 0v1536h158v-1536h-158zM537 1104l26 432h170l-78 -432h-118z" glyph-name="lcaron" horiz-adv-x="733" unicode="ľ"/><glyph d="M186 0v1352h160v-1209h641v-143h-801zM795 625q-53 0 -91 35.5t-38 93.5q0 55 37.5 92t91.5 37q55 0 92 -37t37 -92q0 -57 -37 -93t-92 -36z" glyph-name="Ldot" horiz-adv-x="1036" unicode="Ŀ"/><glyph d="M174 0v1536h158v-1536h-158zM565 514q-53 0 -91 36t-38 93q0 55 38 92t91 37t91 -37t38 -92q0 -57 -38 -93t-91 -36z" glyph-name="ldot" horiz-adv-x="612" unicode="ŀ"/><glyph d="M346 143h641v-143h-801v520l-161 -71v147l161 72v684h160v-623l451 207v-152l-451 -204v-437z" glyph-name="Lslash" horiz-adv-x="1036" unicode="Ł"/><glyph d="M610 922v-150l-178 -82v-690h-158v635l-159 -74v150l159 75v750h158v-696z" glyph-name="lslash" horiz-adv-x="737" unicode="ł"/><glyph d="M1032 1835l-246 -352h-120l174 381h192v-29zM1104 1352h160v-1375h-58l-860 1037v-1014h-160v1374h58l860 -1038v1016z" glyph-name="Nacute" horiz-adv-x="1449" unicode="Ń"/><glyph d="M895 1569l-246 -410h-121l174 438h193v-28zM629 1020q174 0 272 -108.5t98 -284.5v-627h-157v608q0 119 -66.5 192.5t-181.5 73.5t-188.5 -74.5t-73.5 -191.5v-608h-158v997h148v-106q117 129 307 129z" glyph-name="nacute" horiz-adv-x="1159" unicode="ń"/><glyph d="M1104 1352h160v-1375h-58l-860 1037v-1014h-160v1374h58l860 -1038v1016zM627 -451l18 351h156l-51 -351h-123z" glyph-name="Ncommaaccent" horiz-adv-x="1449" unicode="Ņ"/><glyph d="M629 1020q174 0 272 -108.5t98 -284.5v-627h-157v608q0 119 -66.5 192.5t-181.5 73.5t-188.5 -74.5t-73.5 -191.5v-608h-158v997h148v-106q117 129 307 129zM485 -451l19 351h155l-51 -351h-123z" glyph-name="ncommaaccent" horiz-adv-x="1159" unicode="ņ"/><glyph d="M772 1483h-96l-301 381h123l227 -222l225 222h123zM1104 1352h160v-1375h-58l-860 1037v-1014h-160v1374h58l860 -1038v1016z" glyph-name="Ncaron" horiz-adv-x="1449" unicode="Ň"/><glyph d="M633 1159h-96l-279 438h121l207 -262l205 262h118zM629 1020q174 0 272 -108.5t98 -284.5v-627h-157v608q0 119 -66.5 192.5t-181.5 73.5t-188.5 -74.5t-73.5 -191.5v-608h-158v997h148v-106q117 129 307 129z" glyph-name="ncaron" horiz-adv-x="1159" unicode="ň"/><glyph d="M1104 1352h160v-1420q0 -164 -88.5 -243.5t-239.5 -79.5q-66 0 -125 16v133q53 -6 92 -6q98 0 149.5 43t51.5 148v84l-758 970v-997h-160v1374h58l860 -1106v1084z" glyph-name="Eng" horiz-adv-x="1449" unicode="Ŋ"/><glyph d="M629 1020q174 0 272 -108.5t98 -284.5v-695q0 -164 -89 -243.5t-238 -79.5q-68 0 -127 16v133q51 -6 90 -6q100 0 153.5 42t53.5 149v663q0 121 -66.5 194.5t-181.5 73.5t-188.5 -75.5t-73.5 -192.5v-606h-158v997h148v-106q117 129 307 129z" glyph-name="eng" horiz-adv-x="1159" unicode="ŋ"/><glyph d="M500 1577v129h604v-129h-604zM799 -23q-295 0 -498 202t-203 497t204 496.5t497 201.5t497.5 -201.5t204.5 -496.5t-204.5 -497t-497.5 -202zM801 125q229 0 381.5 157.5t152.5 395.5q0 233 -152.5 391t-381.5 158q-231 0 -384 -157t-153 -392q0 -238 153 -395.5 t384 -157.5z" glyph-name="Omacron" horiz-adv-x="1599" unicode="Ō"/><glyph d="M344 1315v127h563v-127h-563zM623 -20q-217 0 -369 151.5t-152 368.5q0 219 152 369.5t371 150.5t370.5 -151.5t151.5 -368.5t-152.5 -368.5t-371.5 -151.5zM622.5 125q153.5 0 258 107.5t104.5 265.5q0 162 -103.5 269t-256.5 107q-156 0 -258.5 -107.5t-102.5 -268.5 q0 -160 102.5 -266.5t256 -106.5z" glyph-name="omacron" horiz-adv-x="1249" unicode="ō"/><glyph d="M799 1487q-139 0 -224.5 89t-85.5 236v52h129v-49q0 -92 49.5 -147.5t131.5 -55.5q84 0 133 54t49 149v49h129v-52q0 -145 -87 -235t-224 -90zM799 -23q-295 0 -498 202t-203 497t204 496.5t497 201.5t497.5 -201.5t204.5 -496.5t-204.5 -497t-497.5 -202zM801 125 q229 0 381.5 157.5t152.5 395.5q0 233 -152.5 391t-381.5 158q-231 0 -384 -157t-153 -392q0 -238 153 -395.5t384 -157.5z" glyph-name="Obreve" horiz-adv-x="1599" unicode="Ŏ"/><glyph d="M623 1174q-137 0 -223.5 90t-86.5 233v64h129v-60q0 -94 49.5 -148.5t131.5 -54.5q84 0 133 54.5t49 148.5v60h129v-64q0 -145 -86 -234t-225 -89zM623 -20q-217 0 -369 151.5t-152 368.5q0 219 152 369.5t371 150.5t370.5 -151.5t151.5 -368.5t-152.5 -368.5 t-371.5 -151.5zM622.5 125q153.5 0 258 107.5t104.5 265.5q0 162 -103.5 269t-256.5 107q-156 0 -258.5 -107.5t-102.5 -268.5q0 -160 102.5 -266.5t256 -106.5z" glyph-name="obreve" horiz-adv-x="1249" unicode="ŏ"/><glyph d="M496 1483l176 381h170v-29l-234 -352h-112zM944 1483l176 381h170v-29l-233 -352h-113zM799 -23q-295 0 -498 202t-203 497t204 496.5t497 201.5t497.5 -201.5t204.5 -496.5t-204.5 -497t-497.5 -202zM801 125q229 0 381.5 157.5t152.5 395.5q0 233 -152.5 391 t-381.5 158q-231 0 -384 -157t-153 -392q0 -238 153 -395.5t384 -157.5z" glyph-name="Ohungarumlaut" horiz-adv-x="1599" unicode="Ő"/><glyph d="M354 1159l176 438h170v-28l-233 -410h-113zM762 1159l176 438h170v-28l-234 -410h-112zM623 -20q-217 0 -369 151.5t-152 368.5q0 219 152 369.5t371 150.5t370.5 -151.5t151.5 -368.5t-152.5 -368.5t-371.5 -151.5zM622.5 125q153.5 0 258 107.5t104.5 265.5 q0 162 -103.5 269t-256.5 107q-156 0 -258.5 -107.5t-102.5 -268.5q0 -160 102.5 -266.5t256 -106.5z" glyph-name="ohungarumlaut" horiz-adv-x="1249" unicode="ő"/><glyph d="M1495 143h731v-143h-891v256q-84 -131 -226 -205t-312 -74q-295 0 -497 202t-202 497t203 496.5t498 201.5q172 0 313 -74.5t223 -201.5v254h867v-144h-707v-413h541v-144h-541v-508zM798.5 125q229.5 0 383 157.5t153.5 393t-153.5 393.5t-383 158t-382 -157 t-152.5 -394q0 -236 152.5 -393.5t382 -157.5z" glyph-name="OE" horiz-adv-x="2308" unicode="Œ"/><glyph d="M1907 567q0 -57 -13 -118h-774q14 -147 112.5 -236.5t244.5 -89.5q168 0 297 133l96 -104q-164 -174 -397 -175q-137 0 -252 68t-181 182q-63 -117 -172.5 -183.5t-249.5 -66.5q-217 0 -366.5 151t-149.5 370t152 370.5t367 151.5q139 0 248.5 -67.5t170.5 -184.5 q66 115 176.5 182.5t243.5 67.5q186 0 316.5 -127t130.5 -324zM618.5 123q153.5 0 250 107.5t96.5 267.5q0 162 -96.5 269t-247.5 107q-154 0 -255.5 -108.5t-101.5 -268t100.5 -267t254 -107.5zM1450 874q-121 0 -210 -77.5t-114 -208.5h619q-2 133 -87 209.5t-208 76.5z " glyph-name="oe" horiz-adv-x="2009" unicode="œ"/><glyph d="M844 1835l-246 -352h-121l174 381h193v-29zM1241 0h-186l-420 567h-289v-567h-160v1352h476q197 0 314.5 -109.5t117.5 -281.5q0 -137 -76 -236.5t-209 -138.5zM346 1208v-497h309q131 0 202 67.5t71 179.5q0 111 -72 180.5t-201 69.5h-309z" glyph-name="Racute" horiz-adv-x="1273" unicode="Ŕ"/><glyph d="M664 1569l-246 -410h-121l174 438h193v-28zM631 1006q33 0 74 -9v-139h-60q-129 0 -221 -78t-92 -215v-565h-158v997h148v-141q112 150 309 150z" glyph-name="racute" horiz-adv-x="741" unicode="ŕ"/><glyph d="M809 586l432 -586h-186l-420 567h-289v-567h-160v1352h476q197 0 314.5 -109.5t117.5 -281.5q0 -137 -76 -236.5t-209 -138.5zM346 1208v-497h309q131 0 202 67.5t71 179.5q0 111 -72 180.5t-201 69.5h-309zM541 -451l18 351h156l-51 -351h-123z" glyph-name="Rcommaaccent" horiz-adv-x="1273" unicode="Ŗ"/><glyph d="M631 1006q33 0 74 -9v-139h-60q-129 0 -221 -78t-92 -215v-565h-158v997h148v-141q112 150 309 150zM154 -451l18 351h156l-52 -351h-122z" glyph-name="rcommaaccent" horiz-adv-x="741" unicode="ŗ"/><glyph d="M584 1483h-97l-301 381h123l228 -222l225 222h123zM1241 0h-186l-420 567h-289v-567h-160v1352h476q197 0 314.5 -109.5t117.5 -281.5q0 -137 -76 -236.5t-209 -138.5zM346 1208v-497h309q131 0 202 67.5t71 179.5q0 111 -72 180.5t-201 69.5h-309z" glyph-name="Rcaron" horiz-adv-x="1273" unicode="Ř"/><glyph d="M403 1159h-96l-278 438h121l206 -262l205 262h119zM631 1006q33 0 74 -9v-139h-60q-129 0 -221 -78t-92 -215v-565h-158v997h148v-141q112 150 309 150z" glyph-name="rcaron" horiz-adv-x="741" unicode="ř"/><glyph d="M520 1483l174 381h193v-29l-246 -352h-121zM582 -23q-158 0 -288 78t-210 213l119 88q152 -231 377 -231q121 0 196.5 61.5t75.5 163.5q0 86 -52 133t-173 105l-152 71q-66 31 -109.5 58.5t-94 72t-76 102.5t-25.5 130q0 158 119 255t289 97q135 0 246.5 -63.5 t176.5 -165.5l-116 -88q-115 170 -310 170q-100 0 -169.5 -51.5t-69.5 -145.5q0 -45 14.5 -77.5t50 -61.5t64.5 -44.5t88 -43.5l149 -72q160 -78 238 -162t78 -215q0 -168 -123 -272.5t-313 -104.5z" glyph-name="Sacute" horiz-adv-x="1142" unicode="Ś"/><glyph d="M416 1159l174 438h192v-28l-245 -410h-121zM469 -23q-244 0 -389 195l100 104q145 -154 287 -153q82 0 136 38t54 103q0 59 -41 91t-133 69l-96 41q-125 51 -186.5 113.5t-61.5 162.5q0 131 96.5 205t239.5 74q207 0 334 -158l-96 -98q-106 111 -246 110 q-74 0 -120 -32.5t-46 -91.5q0 -47 36 -77t126 -69l92 -39q139 -59 201.5 -125.5t62.5 -169.5q0 -139 -101.5 -216t-248.5 -77z" glyph-name="sacute" horiz-adv-x="929" unicode="ś"/><glyph d="M580 1704l-228 -221h-123l301 381h97l301 -381h-123zM702 731q160 -78 238 -162t78 -215q0 -168 -123 -272.5t-313 -104.5q-158 0 -288 78t-210 213l119 88q152 -231 377 -231q121 0 196.5 61.5t75.5 163.5q0 86 -52 133t-173 105l-152 71q-66 31 -109.5 58.5t-94 72 t-76 102.5t-25.5 130q0 158 119 255t289 97q135 0 246.5 -63.5t176.5 -165.5l-116 -88q-115 170 -310 170q-100 0 -169.5 -51.5t-69.5 -145.5q0 -45 14.5 -77.5t50 -61.5t64.5 -44.5t88 -43.5z" glyph-name="Scircumflex" horiz-adv-x="1142" unicode="Ŝ"/><glyph d="M473 1421l-207 -262h-121l279 438h96l277 -438h-119zM555 565q139 -59 201.5 -125.5t62.5 -169.5q0 -139 -101.5 -216t-248.5 -77q-244 0 -389 195l100 104q145 -154 287 -153q82 0 136 38t54 103q0 59 -41 91t-133 69l-96 41q-125 51 -186.5 113.5t-61.5 162.5 q0 131 96.5 205t239.5 74q207 0 334 -158l-96 -98q-106 111 -246 110q-74 0 -120 -32.5t-46 -91.5q0 -47 36 -77t126 -69z" glyph-name="scircumflex" horiz-adv-x="929" unicode="ŝ"/><glyph d="M1018 354q0 -141 -90 -239.5t-238 -126.5q51 -66 51 -144q0 -100 -72.5 -167.5t-197.5 -67.5q-68 0 -139 20v113q63 -8 114 -8q72 0 116 32.5t44 100.5q0 59 -35 110q-156 2 -282.5 80t-204.5 211l119 88q152 -231 377 -231q121 0 196.5 61.5t75.5 163.5q0 86 -52 133 t-173 105l-152 71q-66 31 -109.5 58.5t-94 72t-76 102.5t-25.5 130q0 158 119 255t289 97q135 0 246.5 -63.5t176.5 -165.5l-116 -88q-115 170 -310 170q-100 0 -169.5 -51.5t-69.5 -145.5q0 -45 14.5 -77.5t50 -61.5t64.5 -44.5t88 -43.5l149 -72q160 -78 238 -162t78 -215 z" glyph-name="Scedilla" horiz-adv-x="1142" unicode="Ş"/><glyph d="M819 270q0 -111 -64.5 -181.5t-170.5 -96.5q55 -61 55 -148q0 -100 -72.5 -167.5t-197.5 -67.5q-68 0 -140 20v113q63 -8 115 -8q72 0 116 32.5t44 100.5q0 59 -35 110q-244 0 -389 195l100 104q145 -154 287 -153q82 0 136 38t54 103q0 59 -41 91t-133 69l-96 41 q-125 51 -186.5 113.5t-61.5 162.5q0 131 96.5 205t239.5 74q207 0 334 -158l-96 -98q-106 111 -246 110q-74 0 -120 -32.5t-46 -91.5q0 -47 36 -77t126 -69l92 -39q139 -59 201.5 -126t62.5 -169z" glyph-name="scedilla" horiz-adv-x="929" unicode="ş"/><glyph d="M627 1483h-97l-301 381h123l228 -222l225 222h123zM702 731q160 -78 238 -162t78 -215q0 -168 -123 -272.5t-313 -104.5q-158 0 -288 78t-210 213l119 88q152 -231 377 -231q121 0 196.5 61.5t75.5 163.5q0 86 -52 133t-173 105l-152 71q-66 31 -109.5 58.5t-94 72 t-76 102.5t-25.5 130q0 158 119 255t289 97q135 0 246.5 -63.5t176.5 -165.5l-116 -88q-115 170 -310 170q-100 0 -169.5 -51.5t-69.5 -145.5q0 -45 14.5 -77.5t50 -61.5t64.5 -44.5t88 -43.5z" glyph-name="Scaron" horiz-adv-x="1142" unicode="Š"/><glyph d="M520 1159h-96l-279 438h121l207 -262l205 262h119zM555 565q139 -59 201.5 -125.5t62.5 -169.5q0 -139 -101.5 -216t-248.5 -77q-244 0 -389 195l100 104q145 -154 287 -153q82 0 136 38t54 103q0 59 -41 91t-133 69l-96 41q-125 51 -186.5 113.5t-61.5 162.5 q0 131 96.5 205t239.5 74q207 0 334 -158l-96 -98q-106 111 -246 110q-74 0 -120 -32.5t-46 -91.5q0 -47 36 -77t126 -69z" glyph-name="scaron" horiz-adv-x="929" unicode="š"/><glyph d="M1151 1208h-477v-1206q66 -61 65 -158q0 -100 -72.5 -167.5t-197.5 -67.5q-68 0 -139 20v113q63 -8 114 -8q72 0 116 32.5t44 100.5q0 74 -53 133h-37v1208h-475v144h1112v-144z" glyph-name="Tcommaaccent" horiz-adv-x="1189" unicode="Ţ"/><glyph d="M719 133v-133q-94 -23 -162 -23q43 -59 43 -133q0 -100 -72.5 -167.5t-197.5 -67.5q-68 0 -140 20v113q63 -8 115 -8q72 0 116 32.5t44 100t-49 129.5q-199 63 -199 305v555h-168v141h168v273h158v-273h311v-141h-311v-545q0 -106 54 -148t157 -42q57 0 133 12z" glyph-name="tcommaaccent" horiz-adv-x="780" unicode="ţ"/><glyph d="M643 1483h-96l-301 381h123l227 -222l225 222h123zM39 1352h1112v-144h-477v-1208h-160v1208h-475v144z" glyph-name="Tcaron" horiz-adv-x="1189" unicode="Ť"/><glyph d="M768 1536l-80 -432h-119l29 432h170zM375 311q0 -106 54 -148t157 -42q57 0 133 12v-133q-94 -23 -166 -23q-156 0 -246 80t-90 244v555h-168v141h168v273h158v-273h311v-141h-311v-545z" glyph-name="tcaron" horiz-adv-x="780" unicode="ť"/><glyph d="M514 0v532h-399v136h399v540h-475v144h1112v-144h-477v-540h401v-136h-401v-532h-160z" glyph-name="Tbar" horiz-adv-x="1189" unicode="Ŧ"/><glyph d="M600 121q59 0 137 12v-133q-90 -23 -166 -23q-154 0 -243.5 80t-89.5 244v148h-170v135h170v276h-170v137h170v273h155v-273h312v-137h-312v-276h312v-135h-312v-138q0 -104 53.5 -147t153.5 -43z" glyph-name="tbar" horiz-adv-x="806" unicode="ŧ"/><glyph d="M868 1520q-70 0 -149 49l-68 41q-66 41 -88 41q-29 0 -45 -22.5t-16 -55.5v-33h-131q-4 29 -4 51q0 90 49 148.5t129 58.5q70 0 143 -47l70 -45q63 -41 90 -41q61 0 61 76v37h131q2 -16 2 -54q0 -88 -48 -146t-126 -58zM707 -23q-240 0 -389.5 147.5t-149.5 412.5v815 h160v-826q0 -197 105.5 -299t273.5 -102q166 0 270 102.5t104 298.5v826h160v-815q0 -262 -149 -411t-385 -149z" glyph-name="Utilde" horiz-adv-x="1411" unicode="Ũ"/><glyph d="M721 1221q-76 0 -139 53l-54 45q-6 4 -17 14t-16.5 14.5t-14.5 9.5t-18 7t-20 2q-57 0 -57 -84v-35h-131q-2 18 -2 51q0 92 47 152.5t127 60.5q76 0 139 -53l53 -45q53 -47 87 -47q57 0 57 84v35h131q2 -18 2 -51q0 -92 -47 -152.5t-127 -60.5zM575 -23 q-178 0 -295.5 116t-117.5 304v600h155v-610q0 -121 74 -192.5t184 -71.5q109 0 181.5 72.5t72.5 191.5v610h158v-600q0 -188 -118 -304t-294 -116z" glyph-name="utilde" unicode="ũ"/><glyph d="M403 1577v129h605v-129h-605zM707 -23q-240 0 -389.5 147.5t-149.5 412.5v815h160v-826q0 -197 105.5 -299t273.5 -102q166 0 270 102.5t104 298.5v826h160v-815q0 -262 -149 -411t-385 -149z" glyph-name="Umacron" horiz-adv-x="1411" unicode="Ū"/><glyph d="M293 1315v127h563v-127h-563zM575 -23q-178 0 -295.5 116t-117.5 304v600h155v-610q0 -121 74 -192.5t184 -71.5q109 0 181.5 72.5t72.5 191.5v610h158v-600q0 -188 -118 -304t-294 -116z" glyph-name="umacron" unicode="ū"/><glyph d="M702 1487q-139 0 -224 89t-85 236v52h129v-49q0 -92 49.5 -147.5t130.5 -55.5q84 0 133.5 54t49.5 149v49h129v-52q0 -145 -87.5 -235t-224.5 -90zM707 -23q-240 0 -389.5 147.5t-149.5 412.5v815h160v-826q0 -197 105.5 -299t273.5 -102q166 0 270 102.5t104 298.5v826 h160v-815q0 -262 -149 -411t-385 -149z" glyph-name="Ubreve" horiz-adv-x="1411" unicode="Ŭ"/><glyph d="M571 1174q-137 0 -223 90t-86 233v64h129v-60q0 -94 49 -148.5t131 -54.5q84 0 133.5 54.5t49.5 148.5v60h129v-64q0 -145 -86.5 -234t-225.5 -89zM575 -23q-178 0 -295.5 116t-117.5 304v600h155v-610q0 -121 74 -192.5t184 -71.5q109 0 181.5 72.5t72.5 191.5v610h158 v-600q0 -188 -118 -304t-294 -116z" glyph-name="ubreve" unicode="ŭ"/><glyph d="M702 1430q-96 0 -160.5 64.5t-64.5 156.5t64.5 156.5t160.5 64.5q98 0 163 -64.5t65 -156.5t-65 -156.5t-163 -64.5zM705 1548q43 0 72.5 30t29.5 73q0 45 -29.5 74.5t-72.5 29.5q-45 0 -75 -29.5t-30 -74.5q0 -43 31 -73t74 -30zM707 -23q-240 0 -389.5 147.5 t-149.5 412.5v815h160v-826q0 -197 105.5 -299t273.5 -102q166 0 270 102.5t104 298.5v826h160v-815q0 -262 -149 -411t-385 -149z" glyph-name="Uring" horiz-adv-x="1411" unicode="Ů"/><glyph d="M571 1145q-94 0 -159.5 64.5t-65.5 158.5t64.5 157.5t161 63.5t162 -63.5t65.5 -157.5t-66 -158.5t-162 -64.5zM573 1266q43 0 73 28.5t30 73.5t-31 76t-72 31q-43 0 -73.5 -31t-30.5 -76t29.5 -73.5t74.5 -28.5zM575 -23q-178 0 -295.5 116t-117.5 304v600h155v-610 q0 -121 74 -192.5t184 -71.5q109 0 181.5 72.5t72.5 191.5v610h158v-600q0 -188 -118 -304t-294 -116z" glyph-name="uring" unicode="ů"/><glyph d="M399 1483l176 381h170v-29l-233 -352h-113zM848 1483l176 381h170v-29l-233 -352h-113zM707 -23q-240 0 -389.5 147.5t-149.5 412.5v815h160v-826q0 -197 105.5 -299t273.5 -102q166 0 270 102.5t104 298.5v826h160v-815q0 -262 -149 -411t-385 -149z" glyph-name="Uhungarumlaut" horiz-adv-x="1411" unicode="Ű"/><glyph d="M303 1159l176 438h170v-28l-233 -410h-113zM711 1159l176 438h170v-28l-234 -410h-112zM575 -23q-178 0 -295.5 116t-117.5 304v600h155v-610q0 -121 74 -192.5t184 -71.5q109 0 181.5 72.5t72.5 191.5v610h158v-600q0 -188 -118 -304t-294 -116z" glyph-name="uhungarumlaut" unicode="ű"/><glyph d="M1081 1352h160v-815q0 -287 -180 -441l-137 -145q-43 -47 -59.5 -74t-16.5 -65q0 -76 96 -76q43 0 111 14v-119q-72 -23 -148 -22q-98 0 -158.5 48t-60.5 130q0 94 88 195q-45 -4 -69 -5q-240 0 -389.5 147.5t-149.5 412.5v815h160v-826q0 -197 105.5 -299t273.5 -102 q166 0 270 102.5t104 298.5v826z" glyph-name="Uogonek" horiz-adv-x="1411" unicode="Ų"/><glyph d="M829 997h158v-600q0 -96 -30.5 -169.5t-71.5 -116.5t-123 -117q-20 -18 -31 -27q-55 -51 -77.5 -81.5t-22.5 -69.5q0 -86 106 -86q45 0 109 14v-109q-84 -27 -152 -26q-96 0 -154.5 44t-58.5 128q0 106 117 196h-23q-180 0 -296.5 116t-116.5 304v600h155v-610 q0 -121 74 -192.5t184 -71.5q109 0 181.5 72.5t72.5 191.5v610z" glyph-name="uogonek" unicode="ų"/><glyph d="M1092 1704l-228 -221h-123l301 381h97l301 -381h-123zM1915 1352h174l-512 -1375h-57l-428 1074l-428 -1074h-58l-514 1375h176l373 -1030l422 1052h57l422 -1050z" glyph-name="Wcircumflex" horiz-adv-x="2183" unicode="Ŵ"/><glyph d="M868 1421l-206 -262h-121l278 438h96l277 -438h-119zM1520 997h168l-420 -1020h-58l-340 754l-338 -754h-55l-424 1020h168l289 -739l332 762h59l336 -756z" glyph-name="wcircumflex" horiz-adv-x="1742" unicode="ŵ"/><glyph d="M625 1704l-228 -221h-123l301 381h97l301 -381h-123zM1180 1352l-469 -793v-559h-160v559l-469 793h180l369 -635l370 635h179z" glyph-name="Ycircumflex" horiz-adv-x="1261" unicode="Ŷ"/><glyph d="M549 1421l-207 -262h-121l279 438h96l276 -438h-118zM883 997h168l-492 -1136q-111 -252 -338 -252q-76 0 -153 20v133q78 -10 120 -10q78 0 132.5 35t93.5 125l53 119l-414 966h170l330 -794z" glyph-name="ycircumflex" horiz-adv-x="1103" unicode="ŷ"/><glyph d="M385 1550q-45 0 -79 32t-34 77t34 76.5t79 31.5q47 0 80 -31.5t33 -76.5t-33 -77t-80 -32zM862 1548q-45 0 -78.5 32t-33.5 77t33.5 77.5t78.5 32.5q47 0 80 -32.5t33 -77.5t-33 -77t-80 -32zM1180 1352l-469 -793v-559h-160v559l-469 793h180l369 -635l370 635h179z" glyph-name="Ydieresis" horiz-adv-x="1261" unicode="Ÿ"/><glyph d="M922 1835l-246 -352h-121l174 381h193v-29zM315 143h822v-143h-1071v47l815 1161h-727v144h981v-47z" glyph-name="Zacute" horiz-adv-x="1206" unicode="Ź"/><glyph d="M797 1569l-246 -410h-121l174 438h193v-28zM297 139h577v-139h-819v47l570 809h-523v141h766v-47z" glyph-name="zacute" horiz-adv-x="929" unicode="ź"/><glyph d="M614.5 1544q-49.5 0 -84 33t-34.5 82q0 47 34.5 81t83.5 34q47 0 82 -34t35 -81q0 -49 -33.5 -82t-83 -33zM315 143h822v-143h-1071v47l815 1161h-727v144h981v-47z" glyph-name="Zdotaccent" horiz-adv-x="1206" unicode="Ż"/><glyph d="M485.5 1264q-49.5 0 -84 32.5t-34.5 81.5q0 47 34.5 81t83.5 34q47 0 82 -34t35 -81q0 -49 -33.5 -81.5t-83 -32.5zM297 139h577v-139h-819v47l570 809h-523v141h766v-47z" glyph-name="zdotaccent" horiz-adv-x="929" unicode="ż"/><glyph d="M662 1483h-97l-301 381h123l227 -222l226 222h123zM315 143h822v-143h-1071v47l815 1161h-727v144h981v-47z" glyph-name="Zcaron" horiz-adv-x="1206" unicode="Ž"/><glyph d="M535 1159h-97l-278 438h121l206 -262l205 262h119zM297 139h577v-139h-819v47l570 809h-523v141h766v-47z" glyph-name="zcaron" horiz-adv-x="929" unicode="ž"/><glyph d="M739 1374q287 0 473.5 -200.5t186.5 -493.5q0 -297 -191.5 -500t-476.5 -203q-264 0 -448.5 167t-184.5 434q0 59 13 145h1120q-12 223 -148.5 363.5t-345.5 140.5q-295 0 -461 -228l-110 93q96 133 243.5 207.5t329.5 74.5zM737 125q195 0 327 126t163 329h-969 q-6 -207 135 -331t344 -124z" glyph-name="uni018F" horiz-adv-x="1497" unicode="Ə"/><glyph d="M776 1374q66 0 119 -16v-131q-70 4 -90 4q-98 0 -148.5 -43t-64.5 -148l-27 -223h213v-141h-231l-76 -627q-39 -322 -340 -321q-59 0 -121 14v133q51 -6 90 -6q98 0 149.5 44t65.5 148l76 615h-201v141h218l28 234q41 323 340 323z" glyph-name="florin" horiz-adv-x="907" unicode="ƒ"/><glyph d="M623 1159h-97l-278 438h121l206 -262l205 262h119zM829 997h158v-600q0 -188 -117.5 -304t-294.5 -116q-178 0 -295.5 116t-117.5 304v600h155v-610q0 -121 74 -192.5t184 -71.5q109 0 181.5 72.5t72.5 191.5v610z" glyph-name="uni01D4" unicode="ǔ"/><glyph d="M1161 1835l-246 -352h-120l174 381h192v-29zM1096 143h503v-143h-643l-47 274h-565l-145 -274h-172l704 1352h844v-144h-660l70 -413h426v-144h-401zM772 1108l-352 -690h465z" glyph-name="AEacute" horiz-adv-x="1681" unicode="Ǽ"/><glyph d="M1184 1569l-246 -410h-121l174 438h193v-28zM1714 432h-782q20 -141 120.5 -225t241.5 -84q168 0 301 133l95 -104q-158 -174 -398 -175q-139 0 -253.5 66t-182.5 176q-53 -115 -163.5 -178.5t-250.5 -63.5q-158 0 -255 79t-97 210q0 133 98.5 214t260.5 81h315v62 q0 123 -65.5 187t-174.5 64q-166 0 -288 -159l-105 86q137 219 404 219q252 0 342 -209q145 209 401 209q193 0 322 -127t129 -326q-1 -82 -15 -135zM932 561h633q8 145 -78 230.5t-217 85.5q-133 0 -226.5 -87.5t-111.5 -228.5zM461 111q123 0 213 77.5t90 192.5v51h-297 q-215 0 -215 -149q0 -82 59.5 -127t149.5 -45z" glyph-name="aeacute" horiz-adv-x="1832" unicode="ǽ"/><glyph d="M1108 1835l-246 -352h-121l174 381h193v-29zM1513 1292l-170 -170q158 -195 158 -446q0 -295 -204.5 -497t-497.5 -202q-252 0 -445 154l-170 -170l-98 98l170 170q-158 195 -158 447q0 295 204 496.5t497 201.5q254 0 444 -155l172 172zM801 1233q-233 0 -388 -159 t-155 -396q0 -195 107 -340l776 776q-145 119 -340 119zM801 119q229 0 384.5 160.5t155.5 398.5q0 193 -106 338l-776 -780q145 -117 342 -117z" glyph-name="Oslashacute" horiz-adv-x="1599" unicode="Ǿ"/><glyph d="M948 1569l-246 -410h-120l174 438h192v-28zM1171 938l-120 -123q106 -139 106 -317q0 -217 -153.5 -369t-370.5 -152q-176 0 -316 107l-118 -123l-99 98l121 121q-106 139 -106 318q0 219 150.5 370.5t369.5 151.5q178 0 317 -107l121 119zM635 881q-160 0 -264.5 -108.5 t-104.5 -274.5q0 -123 62 -219l528 532q-100 70 -221 70zM633 113q160 0 266.5 110.5t106.5 274.5q0 123 -62 219l-530 -531q92 -73 219 -73z" glyph-name="oslashacute" horiz-adv-x="1269" unicode="ǿ"/><glyph d="M582 -23q-158 0 -288 78t-210 213l119 88q152 -231 377 -231q121 0 196.5 61.5t75.5 163.5q0 86 -52 133t-173 105l-152 71q-66 31 -109.5 58.5t-94 72t-76 102.5t-25.5 130q0 158 119 255t289 97q135 0 246.5 -63.5t176.5 -165.5l-116 -88q-115 170 -310 170 q-100 0 -169.5 -51.5t-69.5 -145.5q0 -45 14.5 -77.5t50 -61.5t64.5 -44.5t88 -43.5l149 -72q160 -78 238 -162t78 -215q0 -168 -123 -272.5t-313 -104.5zM500 -451l18 351h156l-51 -351h-123z" glyph-name="Scommaaccent" horiz-adv-x="1142" unicode="Ș"/><glyph d="M469 -23q-244 0 -389 195l100 104q145 -154 287 -153q82 0 136 38t54 103q0 59 -41 91t-133 69l-96 41q-125 51 -186.5 113.5t-61.5 162.5q0 131 96.5 205t239.5 74q207 0 334 -158l-96 -98q-106 111 -246 110q-74 0 -120 -32.5t-46 -91.5q0 -47 36 -77t126 -69l92 -39 q139 -59 201.5 -125.5t62.5 -169.5q0 -139 -101.5 -216t-248.5 -77zM397 -451l19 351h155l-51 -351h-123z" glyph-name="scommaaccent" horiz-adv-x="929" unicode="ș"/><glyph d="M514 0v1208h-475v144h1112v-144h-477v-1208h-160zM498 -451l18 351h156l-51 -351h-123z" glyph-name="uni021A" horiz-adv-x="1189" unicode="Ț"/><glyph d="M586 121q57 0 133 12v-133q-94 -23 -166 -23q-156 0 -246 80t-90 244v555h-168v141h168v273h158v-273h311v-141h-311v-545q0 -106 54.5 -148t156.5 -42zM356 -451l19 351h155l-51 -351h-123z" glyph-name="uni021B" horiz-adv-x="780" unicode="ț"/><glyph d="M4 -391q-68 0 -127 16v133q53 -6 92 -6q205 0 205 191v1054h158v-1065q0 -164 -89 -243.5t-239 -79.5z" glyph-name="uni0237" horiz-adv-x="503" unicode="ȷ"/><glyph d="M553 1020q223 0 368.5 -149.5t145.5 -370.5t-140.5 -372t-355.5 -151q-199 0 -334 127t-135 324q0 57 13 119h788q-14 150 -109.5 238.5t-242.5 88.5q-184 0 -320 -135l-92 107q164 174 414 174zM575 119q127 0 213 78.5t109 210.5h-631q4 -133 92 -211t217 -78z" glyph-name="uni0259" horiz-adv-x="1169" unicode="ə"/><glyph d="M940 1159h-119l-205 262l-206 -262h-121l278 438h97z" glyph-name="circumflex" horiz-adv-x="1228" unicode="ˆ"/><glyph d="M821 1597h119l-276 -438h-97l-278 438h121l206 -262z" glyph-name="caron" horiz-adv-x="1228" unicode="ˇ"/><glyph d="M612 1174q-137 0 -223 90t-86 233v64h129v-60q0 -94 49 -148.5t131 -54.5q84 0 133.5 54.5t49.5 148.5v60h129v-64q0 -145 -86.5 -234t-225.5 -89z" glyph-name="breve" horiz-adv-x="1228" unicode="˘"/><glyph d="M614.5 1264q-49.5 0 -84 32.5t-34.5 81.5q0 47 34.5 81t83.5 34q47 0 82 -34t35 -81q0 -49 -33.5 -81.5t-83 -32.5z" glyph-name="dotaccent" horiz-adv-x="1228" unicode="˙"/><glyph d="M612 1145q-94 0 -159.5 64.5t-65.5 158.5t64.5 157.5t161 63.5t162 -63.5t65.5 -157.5t-66 -158.5t-162 -64.5zM614 1266q43 0 73 28.5t30 73.5t-31 76t-72 31q-43 0 -73.5 -31t-30.5 -76t29.5 -73.5t74.5 -28.5z" glyph-name="ring" horiz-adv-x="1228" unicode="˚"/><glyph d="M651 -391q-98 0 -158.5 49t-60.5 129q0 76 66.5 137.5t236.5 147.5l64 -72l-103 -68q-35 -23 -44 -29.5t-29.5 -24t-26.5 -33t-6 -33.5q0 -76 98 -76q43 0 111 14v-119q-72 -22 -148 -22z" glyph-name="ogonek" horiz-adv-x="1228" unicode="˛"/><glyph d="M762 1221q-76 0 -139 53l-54 45q-6 4 -17 14t-16.5 14.5t-14.5 9.5t-18 7t-20 2q-57 0 -57 -84v-35h-131q-2 18 -2 51q0 92 47 152.5t127 60.5q76 0 139 -53l53 -45q53 -47 86 -47q57 0 58 84v35h131q2 -18 2 -51q0 -92 -47 -152.5t-127 -60.5z" glyph-name="tilde" horiz-adv-x="1228" unicode="˜"/><glyph d="M238 1159l176 438h170v-28l-234 -410h-112zM645 1159l176 438h170v-28l-233 -410h-113z" glyph-name="hungarumlaut" horiz-adv-x="1228" unicode="˝"/><glyph d="M-451 1159l-245 410v28h192l174 -438h-121z" glyph-name="gravecomb" horiz-adv-x="0" unicode="̀"/><glyph d="M-696 1159l174 438h192v-28l-245 -410h-121z" glyph-name="acutecomb" horiz-adv-x="0" unicode="́"/><glyph d="M-186 1159h-119l-205 262l-207 -262h-121l279 438h96z" glyph-name="uni0302" horiz-adv-x="0" unicode="̂"/><glyph d="M-365 1221q-76 0 -139 53l-53 45q-6 4 -17.5 14t-16.5 14.5t-14 9.5t-18.5 7t-19.5 2q-57 0 -57 -84v-35h-131q-2 18 -3 51q0 92 47.5 152.5t127.5 60.5q76 0 139 -53l53 -45q53 -47 86 -47q57 0 57 84v35h131q2 -18 3 -51q0 -92 -47.5 -152.5t-127.5 -60.5z" glyph-name="tildecomb" horiz-adv-x="0" unicode="̃"/><glyph d="M-793 1315v127h564v-127h-564z" glyph-name="uni0304" horiz-adv-x="0" unicode="̄"/><glyph d="M-514 1174q-137 0 -223 90t-86 233v64h129v-60q0 -94 49 -148.5t131 -54.5q84 0 133 54.5t49 148.5v60h129v-64q0 -145 -86 -234t-225 -89z" glyph-name="uni0306" horiz-adv-x="0" unicode="̆"/><glyph d="M-512 1264q-49 0 -84 32.5t-35 81.5q0 47 35 81t84 34q47 0 82 -34t35 -81q0 -49 -34 -81.5t-83 -32.5z" glyph-name="uni0307" horiz-adv-x="0" unicode="̇"/><glyph d="M-731 1270q-43 0 -78 32.5t-35 75.5q0 45 35 78t78 33q47 0 81 -33t34 -78t-34 -76.5t-81 -31.5zM-295 1270q-45 0 -80 32.5t-35 75.5q0 45 35 78t80 33q47 0 80 -33t33 -78t-33 -76.5t-80 -31.5z" glyph-name="uni0308" horiz-adv-x="0" unicode="̈"/><glyph d="M-514 1145q-94 0 -159.5 64.5t-65.5 158.5t64.5 157.5t160.5 63.5t161.5 -63.5t65.5 -157.5t-65.5 -158.5t-161.5 -64.5zM-512 1266q43 0 72.5 28.5t29.5 73.5t-30.5 76t-71.5 31q-43 0 -73.5 -31t-30.5 -76t29.5 -73.5t74.5 -28.5z" glyph-name="uni030A" horiz-adv-x="0" unicode="̊"/><glyph d="M-889 1159l176 438h170v-28l-233 -410h-113zM-481 1159l176 438h170v-28l-234 -410h-112z" glyph-name="uni030B" horiz-adv-x="0" unicode="̋"/><glyph d="M-305 1597h119l-277 -438h-96l-279 438h121l207 -262z" glyph-name="uni030C" horiz-adv-x="0" unicode="̌"/><glyph d="M-600 -451l18 351h156l-51 -351h-123z" glyph-name="uni0326" horiz-adv-x="0" unicode="̦"/><glyph d="M-578 -391q-68 0 -139 20v113q63 -8 115 -8q72 0 116 32.5t44 100.5q0 82 -70 151l68 35q137 -68 137 -209q0 -100 -73 -167.5t-198 -67.5z" glyph-name="uni0327" horiz-adv-x="0" unicode="̧"/><glyph d="M-475 -391q-98 0 -158.5 49t-60.5 129q0 76 66.5 137.5t236.5 147.5l63 -72l-102 -68q-35 -23 -44 -29.5t-29.5 -24t-27 -33t-6.5 -33.5q0 -76 99 -76q43 0 110 14v-119q-71 -22 -147 -22z" glyph-name="uni0328" horiz-adv-x="0" unicode="̨"/><glyph d="M385 1159l61 438h191v-28l-129 -410h-123z" glyph-name="tonos" horiz-adv-x="1024" unicode="΄"/><glyph d="M389 1159l80 438h190v-28l-151 -410h-119zM201 1270q-43 0 -78 32.5t-35 75.5q0 45 35 78t78 33q47 0 79.5 -32t32.5 -79q0 -45 -32.5 -76.5t-79.5 -31.5zM821 1270q-47 0 -79.5 31.5t-32.5 76.5t32.5 78t79.5 33t80 -33t33 -78t-33 -76.5t-80 -31.5z" glyph-name="dieresistonos" horiz-adv-x="1024" unicode="΅"/><glyph d="M1124 0l-114 274h-664l-115 -274h-168l586 1374h60l585 -1374h-170zM270 1352l-80 -432h-116l26 432h170zM948 418l-270 665l-270 -665h540z" glyph-name="Alphatonos" horiz-adv-x="1357" unicode="Ά"/><glyph d="M286.5 514q-53.5 0 -91 36t-37.5 93q0 55 37.5 92t91 37t91.5 -37t38 -92q0 -57 -38 -93t-91.5 -36z" glyph-name="anoteleia" horiz-adv-x="573" unicode="·"/><glyph d="M-197 920l27 432h170l-80 -432h-117zM186 0v1352h867v-144h-707v-413h541v-144h-541v-508h731v-143h-891z" glyph-name="Epsilontonos" horiz-adv-x="1159" unicode="Έ"/><glyph d="M-197 920l27 432h170l-80 -432h-117zM186 0v1352h160v-557h758v557h160v-1352h-160v651h-758v-651h-160z" glyph-name="Etatonos" horiz-adv-x="1449" unicode="Ή"/><glyph d="M-197 920l27 432h170l-80 -432h-117zM186 0v1352h160v-1352h-160z" glyph-name="Iotatonos" horiz-adv-x="530" unicode="Ί"/><glyph d="M799 -23q-295 0 -498 202t-203 497t204 496.5t497 201.5t497.5 -201.5t204.5 -496.5t-204.5 -497t-497.5 -202zM-98 920l26 432h170l-80 -432h-116zM801 125q229 0 381.5 157.5t152.5 395.5q0 233 -152.5 391t-381.5 158q-231 0 -384 -157t-153 -392q0 -238 153 -395.5 t384 -157.5z" glyph-name="Omicrontonos" horiz-adv-x="1599" unicode="Ό"/><glyph d="M-240 920l27 432h170l-80 -432h-117zM1180 1352l-469 -793v-559h-160v559l-469 793h180l369 -635l370 635h179z" glyph-name="Upsilontonos" horiz-adv-x="1261" unicode="Ύ"/><glyph d="M1511 702q0 -332 -331 -559h311v-143h-551v143q406 190 406 553q0 229 -153 380t-384 151t-383 -149.5t-152 -379.5q0 -362 406 -555v-143h-551v143h307q-328 219 -327 559q0 287 201.5 479.5t498.5 192.5t499.5 -193.5t202.5 -478.5zM-98 920l26 432h170l-80 -432h-116z " glyph-name="Omegatonos" horiz-adv-x="1619" unicode="Ώ"/><glyph d="M139 1159l80 438h191v-28l-152 -410h-119zM-49 1270q-43 0 -78 32.5t-35 75.5q0 45 35 78t78 33q47 0 79.5 -32t32.5 -79q0 -45 -32.5 -76.5t-79.5 -31.5zM571 1270q-47 0 -79.5 31.5t-32.5 76.5t32.5 78t79.5 33t80 -33t33 -78t-33 -76.5t-80 -31.5zM461 -23 q-293 0 -293 316v704h158v-686q0 -100 40 -145t128 -45q55 0 133 12v-133q-94 -23 -166 -23z" glyph-name="iotadieresistonos" horiz-adv-x="636" unicode="ΐ"/><glyph d="M1124 0l-114 274h-664l-115 -274h-168l586 1374h60l585 -1374h-170zM948 418l-270 665l-270 -665h540z" glyph-name="Alpha" horiz-adv-x="1357" unicode="Α"/><glyph d="M907 743q125 -37 194.5 -130t69.5 -224q0 -172 -115.5 -280.5t-312.5 -108.5h-557v1352h465q176 0 280.5 -96.5t104.5 -245.5q0 -171 -129 -267zM635 1208h-289v-420h289q115 0 176 57.5t61 154t-60 152.5t-177 56zM727 143q133 0 207 69t74 181.5t-74 181t-207 68.5 h-381v-500h381z" glyph-name="Beta" horiz-adv-x="1261" unicode="Β"/><glyph d="M186 0v1352h801v-144h-641v-1208h-160z" glyph-name="Gamma" horiz-adv-x="1036" unicode="Γ"/><glyph d="M709 1374l567 -1327v-47h-1194v47l567 1327h60zM1065 143l-387 916l-385 -916h772z" glyph-name="Delta" horiz-adv-x="1357" unicode="Δ"/><glyph d="M186 0v1352h867v-144h-707v-413h541v-144h-541v-508h731v-143h-891z" glyph-name="Epsilon" horiz-adv-x="1159" unicode="Ε"/><glyph d="M315 143h822v-143h-1071v47l815 1161h-727v144h981v-47z" glyph-name="Zeta" horiz-adv-x="1206" unicode="Ζ"/><glyph d="M186 0v1352h160v-557h758v557h160v-1352h-160v651h-758v-651h-160z" glyph-name="Eta" horiz-adv-x="1449" unicode="Η"/><glyph d="M799 -23q-295 0 -498 202t-203 497t204 496.5t497 201.5t497.5 -201.5t204.5 -496.5t-204.5 -497t-497.5 -202zM798.5 119q233.5 0 389 159.5t155.5 397t-155.5 397.5t-389 160t-387 -159t-153.5 -398.5t153.5 -398t387 -158.5zM475 600v143h649v-143h-649z" glyph-name="Theta" horiz-adv-x="1599" unicode="Θ"/><glyph d="M186 0v1352h160v-1352h-160z" glyph-name="Iota" horiz-adv-x="530" unicode="Ι"/><glyph d="M186 0v1352h160v-1352h-160zM573 725l660 -725h-203l-665 725l608 627h205z" glyph-name="Kappa" horiz-adv-x="1296" unicode="Κ"/><glyph d="M1294 0h-170l-446 1061l-447 -1061h-168l586 1374h60z" glyph-name="Lambda" horiz-adv-x="1357" unicode="Λ"/><glyph d="M1374 1374h56v-1374h-160v969l-432 -586h-58l-434 590v-973h-160v1374h58l563 -780z" glyph-name="Mu" horiz-adv-x="1615" unicode="Μ"/><glyph d="M1104 1352h160v-1375h-58l-860 1037v-1014h-160v1374h58l860 -1038v1016z" glyph-name="Nu" horiz-adv-x="1449" unicode="Ν"/><glyph d="M82 1208v144h1096v-144h-1096zM221 610v144h821v-144h-821zM82 0v143h1096v-143h-1096z" glyph-name="Xi" horiz-adv-x="1259" unicode="Ξ"/><glyph d="M799 -23q-295 0 -498 202t-203 497t204 496.5t497 201.5t497.5 -201.5t204.5 -496.5t-204.5 -497t-497.5 -202zM801 125q229 0 381.5 157.5t152.5 395.5q0 233 -152.5 391t-381.5 158q-231 0 -384 -157t-153 -392q0 -238 153 -395.5t384 -157.5z" glyph-name="Omicron" horiz-adv-x="1599" unicode="Ο"/><glyph d="M186 0v1352h1024v-1352h-159v1208h-705v-1208h-160z" glyph-name="Pi" horiz-adv-x="1396" unicode="Π"/><glyph d="M186 0v1352h476q197 0 314.5 -109.5t117.5 -281.5q0 -174 -118 -285t-314 -111h-316v-565h-160zM346 709h311q129 0 200 68.5t71 180.5q0 111 -71 180.5t-200 69.5h-311v-499z" glyph-name="Rho" horiz-adv-x="1173" unicode="Ρ"/><glyph d="M381 143h713v-143h-961v47l483 645l-483 613v47h936v-144h-682l393 -497v-33z" glyph-name="Sigma" horiz-adv-x="1175" unicode="Σ"/><glyph d="M514 0v1208h-475v144h1112v-144h-477v-1208h-160z" glyph-name="Tau" horiz-adv-x="1189" unicode="Τ"/><glyph d="M1180 1352l-469 -793v-559h-160v559l-469 793h180l369 -635l370 635h179z" glyph-name="Upsilon" horiz-adv-x="1261" unicode="Υ"/><glyph d="M1538 678q0 -276 -181 -456.5t-460 -182.5v-125h-160v125q-276 2 -457.5 182t-181.5 457q0 274 180.5 453.5t458.5 181.5v123h160v-123q279 -2 460 -181.5t181 -453.5zM264 674q0 -217 133 -354.5t340 -137.5v985q-207 0 -340 -138t-133 -355zM897 182q207 0 341 138.5 t134 353.5q0 217 -134 355t-341 138v-985z" glyph-name="Phi" horiz-adv-x="1636" unicode="Φ"/><glyph d="M1165 0h-186l-365 555l-366 -555h-187l465 692l-432 660h185l335 -527l334 527h185l-426 -662z" glyph-name="Chi" horiz-adv-x="1226" unicode="Χ"/><glyph d="M698 0v311q-266 33 -416.5 193t-150.5 432v416h160v-424q0 -201 111.5 -328t295.5 -139v891h160v-891q184 12 296 139t112 328v424h159v-416q0 -272 -150.5 -432t-416.5 -193v-311h-160z" glyph-name="Psi" horiz-adv-x="1556" unicode="Ψ"/><glyph d="M1511 702q0 -332 -331 -559h311v-143h-551v143q406 190 406 553q0 229 -153 380t-384 151t-383 -149.5t-152 -379.5q0 -362 406 -555v-143h-551v143h307q-328 219 -327 559q0 287 201.5 479.5t498.5 192.5t499.5 -193.5t202.5 -478.5z" glyph-name="Omega" horiz-adv-x="1619" unicode="Ω"/><glyph d="M27 1550q-45 0 -79 32t-34 77t34 76.5t79 31.5q47 0 79.5 -31.5t32.5 -76.5t-32.5 -77t-79.5 -32zM504 1548q-45 0 -79 32t-34 77t34 77.5t79 32.5q47 0 79.5 -32.5t32.5 -77.5t-32.5 -77t-79.5 -32zM186 0v1352h160v-1352h-160z" glyph-name="Iotadieresis" horiz-adv-x="530" unicode="Ϊ"/><glyph d="M391 1550q-45 0 -78.5 32t-33.5 77t33.5 76.5t78.5 31.5q47 0 80 -31.5t33 -76.5t-33 -77t-80 -32zM868 1548q-45 0 -78.5 32t-33.5 77t33.5 77.5t78.5 32.5q47 0 80 -32.5t33 -77.5t-33 -77t-80 -32zM1180 1352l-469 -793v-559h-160v559l-469 793h180l369 -635l370 635 h179z" glyph-name="Upsilondieresis" horiz-adv-x="1261" unicode="Ϋ"/><glyph d="M768 1569l-129 -410h-123l62 438h190v-28zM1214 127q18 0 62 6v-133q-61 -14 -109 -14q-174 0 -209 174q-57 -86 -155 -134.5t-215 -48.5q-209 0 -347.5 149.5t-138.5 373.5q0 221 137.5 370.5t348.5 149.5q119 0 220 -52.5t159 -142.5q2 43 10 172h149 q-20 -309 -20 -475v-250q-1 -145 108 -145zM608 123q141 0 241.5 97t100.5 277.5t-99 278.5t-243 98q-150 0 -247 -106t-97 -268q0 -164 97 -270.5t247 -106.5z" glyph-name="alphatonos" horiz-adv-x="1318" unicode="ά"/><glyph d="M696 1569l-129 -410h-123l62 438h190v-28zM840 264l106 -94q-139 -193 -428 -193q-414 0 -414 283q0 96 50.5 161.5t142.5 90.5q-147 63 -147 229q0 131 98 205t278 74q276 0 404 -174l-107 -94q-104 123 -286 122q-225 0 -226 -159q0 -143 197 -144h207v-139h-203 q-131 0 -188.5 -36t-57.5 -111q0 -86 56.5 -124t195.5 -38q115 0 189 32.5t133 108.5z" glyph-name="epsilontonos" horiz-adv-x="1040" unicode="έ"/><glyph d="M803 1569l-129 -410h-123l61 438h191v-28zM668 1020q170 0 271 -106.5t101 -286.5v-996h-157v975q0 121 -69 194.5t-179 73.5q-117 0 -190.5 -75.5t-73.5 -192.5v-606h-156v725q0 141 -113 141q-27 0 -59 -2v133q57 14 111 15q150 0 194 -133q119 141 320 141z" glyph-name="etatonos" horiz-adv-x="1200" unicode="ή"/><glyph d="M166 1159l61 438h191v-28l-129 -410h-123zM461 -23q-293 0 -293 316v704h158v-686q0 -100 40 -145t128 -45q55 0 133 12v-133q-94 -23 -166 -23z" glyph-name="iotatonos" horiz-adv-x="636" unicode="ί"/><glyph d="M461 1159l80 438h190v-28l-151 -410h-119zM272 1270q-43 0 -77.5 32.5t-34.5 75.5q0 45 34.5 78t77.5 33q47 0 80 -32t33 -79q0 -45 -33 -76.5t-80 -31.5zM893 1270q-47 0 -80 31.5t-33 76.5t33 78t80 33t80 -33t33 -78t-33 -76.5t-80 -31.5zM582 -23q-193 0 -306.5 118 t-113.5 315v587h157v-596q0 -127 72 -203.5t191 -76.5q117 0 189.5 77.5t72.5 202.5v596h157v-587q0 -197 -114.5 -315t-304.5 -118z" glyph-name="upsilondieresistonos" horiz-adv-x="1161" unicode="ΰ"/><glyph d="M1214 127q18 0 62 6v-133q-61 -14 -109 -14q-174 0 -209 174q-57 -86 -155 -134.5t-215 -48.5q-209 0 -347.5 149.5t-138.5 373.5q0 221 137.5 370.5t348.5 149.5q119 0 220 -52.5t159 -142.5q2 43 10 172h149q-20 -309 -20 -475v-250q-1 -145 108 -145zM608 123 q141 0 241.5 97t100.5 277.5t-99 278.5t-243 98q-150 0 -247 -106t-97 -268q0 -164 97 -270.5t247 -106.5z" glyph-name="alpha" horiz-adv-x="1318" unicode="α"/><glyph d="M844 862q141 -45 222 -156.5t81 -265.5q0 -203 -134 -333t-343 -130q-193 0 -338 123v-469h-158v1504q0 188 124 308t318 120q182 0 297 -105.5t115 -273.5q0 -224 -184 -322zM653 123q147 0 239.5 89t92.5 232q0 145 -94 234.5t-248 89.5h-127v139h96q117 0 185.5 71 t68.5 191q0 109 -71.5 178.5t-182.5 69.5q-125 0 -202.5 -82t-77.5 -209v-858q126 -145 321 -145z" glyph-name="beta" horiz-adv-x="1249" unicode="β"/><glyph d="M1087 997l-438 -1036v-330h-155v330l-441 1036h168l350 -831l349 831h167z" glyph-name="gamma" horiz-adv-x="1140" unicode="γ"/><glyph d="M887 936q125 -129 178 -231.5t53 -219.5q0 -213 -148.5 -360.5t-361.5 -147.5t-359.5 147.5t-146.5 360.5q0 211 144.5 354.5t357.5 143.5h21l-500 506v47h911v-150h-594zM610 123q154 0 250 98t96 256q0 160 -99 262.5t-253 102.5q-152 0 -246 -100.5t-94 -260.5 q0 -162 95 -260t251 -98z" glyph-name="delta" horiz-adv-x="1220" unicode="δ"/><glyph d="M840 264l106 -94q-139 -193 -428 -193q-414 0 -414 283q0 96 50.5 161.5t142.5 90.5q-147 63 -147 229q0 131 98 205t278 74q276 0 404 -174l-107 -94q-104 123 -286 122q-225 0 -226 -159q0 -143 197 -144h207v-139h-203q-131 0 -188.5 -36t-57.5 -111q0 -86 56.5 -124 t195.5 -38q115 0 189 32.5t133 108.5z" glyph-name="epsilon" horiz-adv-x="1040" unicode="ε"/><glyph d="M932 1489l-408 -582q-147 -209 -204.5 -313.5t-57.5 -187.5q0 -106 66.5 -169t212.5 -96l80 -16q131 -27 197.5 -104.5t66.5 -192.5q0 -100 -49 -197h-158q47 86 47 170t-47 129t-143 64l-82 16q-172 35 -261.5 136.5t-89.5 248.5q0 109 62.5 227.5t238.5 368.5l279 398 h-573v147h823v-47z" glyph-name="zeta" horiz-adv-x="931" unicode="ζ"/><glyph d="M668 1020q170 0 271 -106.5t101 -286.5v-996h-157v975q0 121 -69 194.5t-179 73.5q-117 0 -190.5 -75.5t-73.5 -192.5v-606h-156v725q0 141 -113 141q-27 0 -59 -2v133q57 14 111 15q150 0 194 -133q119 141 320 141z" glyph-name="eta" horiz-adv-x="1200" unicode="η"/><glyph d="M633 1559q246 0 387 -202t141 -587t-141 -589t-387 -204t-387.5 204t-141.5 589t141.5 587t387.5 202zM633 1413q-160 0 -256 -142.5t-109 -420.5h729q-12 279 -109 421t-255 142zM633 121q158 0 256 147.5t108 431.5h-729q10 -285 107.5 -432t257.5 -147z" glyph-name="theta" horiz-adv-x="1263" unicode="θ"/><glyph d="M461 -23q-293 0 -293 316v704h158v-686q0 -100 40 -145t128 -45q55 0 133 12v-133q-94 -23 -166 -23z" glyph-name="iota" horiz-adv-x="636" unicode="ι"/><glyph d="M174 0v997h158v-997h-158zM549 543l465 -543h-199l-463 541l430 456h203z" glyph-name="kappa" horiz-adv-x="1040" unicode="κ"/><glyph d="M1051 131h45v-131q-39 -12 -80 -12q-76 0 -123 41t-80 135l-250 674l-360 -838h-168l454 1024l-75 217q-35 94 -78 134t-115 40q-37 0 -98 -6v133q55 16 125 17q109 0 179.5 -61.5t123.5 -201.5l395 -1065q39 -100 105 -100z" glyph-name="lambda" horiz-adv-x="1122" unicode="λ"/><glyph d="M1110 127q20 0 59 6v-133q-61 -14 -106 -14q-143 0 -193 120q-98 -129 -274 -129q-166 0 -264 117v-463h-158v1366h158v-596q0 -121 70.5 -199.5t183 -78.5t184.5 79t72 199v596h157v-718q0 -152 111 -152z" glyph-name="mu" horiz-adv-x="1212" unicode="μ"/><glyph d="M883 997h168l-469 -1020h-58l-471 1020h168l332 -751z" glyph-name="nu" horiz-adv-x="1103" unicode="ν"/><glyph d="M621 1389q-131 0 -203 -78t-72 -185q0 -104 67.5 -183t182.5 -79h244v-143h-244q-141 0 -227 -79t-86 -214q0 -231 297 -293l84 -16q260 -53 260 -291q0 -102 -50 -197h-155q45 96 45 168q0 84 -43 129t-141 60l-88 14q-174 27 -272.5 136.5t-98.5 271.5 q0 139 70.5 240.5t197.5 148.5q-98 45 -149.5 125t-51.5 174q0 184 138 291h-193v147h791v-147h-303z" glyph-name="xi" horiz-adv-x="964" unicode="ξ"/><glyph d="M623 -20q-217 0 -369 151.5t-152 368.5q0 219 152 369.5t371 150.5t370.5 -151.5t151.5 -368.5t-152.5 -368.5t-371.5 -151.5zM622.5 125q153.5 0 258 107.5t104.5 265.5q0 162 -103.5 269t-256.5 107q-156 0 -258.5 -107.5t-102.5 -268.5q0 -160 102.5 -266.5 t256 -106.5z" glyph-name="omicron" horiz-adv-x="1249" unicode="ο"/><glyph d="M209 0v848h-162v149h1116v-149h-159v-848h-156v848h-481v-848h-158z" glyph-name="pi" horiz-adv-x="1212" unicode="π"/><glyph d="M657.5 1020q223.5 0 367.5 -146.5t144 -373.5q0 -223 -139 -373t-348 -150q-113 0 -209 45.5t-156 122.5v-514h-155v863q0 236 136 381t359.5 145zM657.5 123q151.5 0 251 106.5t99.5 268.5q0 164 -99.5 270t-253.5 106q-156 0 -248 -103t-92 -275q0 -166 95.5 -269.5 t247 -103.5z" glyph-name="rho" horiz-adv-x="1271" unicode="ρ"/><glyph d="M721 -369q43 90 43 168t-40 120t-132 67l-105 26q-190 49 -287.5 176t-97.5 312q0 227 140.5 373.5t359.5 146.5q276 0 422 -223l-113 -90q-125 168 -305 167q-150 0 -246 -104t-96 -264q0 -285 307 -363l107 -26q248 -61 248 -289q0 -98 -49 -197h-156z" glyph-name="sigma1" horiz-adv-x="1077" unicode="ς"/><glyph d="M1270 997v-149h-301q164 -137 164 -363q0 -215 -148.5 -361.5t-368 -146.5t-367 148.5t-147.5 370.5q0 217 148.5 359t374.5 142h645zM616.5 123q151.5 0 253 107.5t101.5 267.5q0 158 -98.5 257t-254 99t-255 -100.5t-99.5 -257.5q0 -160 100.5 -266.5t252 -106.5z" glyph-name="sigma" horiz-adv-x="1298" unicode="σ"/><glyph d="M918 848h-390v-537q0 -190 205 -190q61 0 137 12v-133q-90 -23 -163 -23q-162 0 -248 84t-86 240v547h-338v149h883v-149z" glyph-name="tau" horiz-adv-x="978" unicode="τ"/><glyph d="M582 -23q-193 0 -306.5 118t-113.5 315v587h157v-596q0 -127 72 -203.5t191 -76.5q117 0 189.5 77.5t72.5 202.5v596h157v-587q0 -197 -114.5 -315t-304.5 -118z" glyph-name="upsilon" horiz-adv-x="1161" unicode="υ"/><glyph d="M1427 498q0 -225 -166.5 -366.5t-418.5 -154.5v-346h-158v349q-250 10 -416 151t-166 366.5t166 366t416 150.5v338h158v-336q252 -12 418.5 -153.5t166.5 -364.5zM838 117q188 10 311 109.5t123 269.5t-123 270t-311 111v-760zM260 496q0 -170 121 -269.5t307 -109.5 v760q-186 -10 -307 -111.5t-121 -269.5z" glyph-name="phi" horiz-adv-x="1529" unicode="φ"/><glyph d="M930 -240q39 0 57 2v-131q-47 -12 -94 -12q-145 0 -217 162l-191 401l-260 -551h-174l344 705l-196 436q-14 31 -26.5 49.5t-37 31.5t-61.5 13q-39 0 -64 -2v133q49 12 101 13q86 0 131 -39t84 -125l163 -369l252 520h172l-338 -673l224 -469q29 -57 54.5 -76t76.5 -19z " glyph-name="chi" horiz-adv-x="999" unicode="χ"/><glyph d="M678 -369v346q-229 0 -372.5 145.5t-143.5 377.5v497h155v-485q0 -168 103.5 -279.5t257.5 -111.5v1231h158v-1231q154 0 258 111.5t104 279.5v485h156v-497q0 -231 -144.5 -377t-373.5 -146v-346h-158z" glyph-name="psi" horiz-adv-x="1513" unicode="ψ"/><glyph d="M1157 1010q168 -59 257 -196.5t89 -336.5q0 -229 -109.5 -364.5t-297.5 -135.5q-209 0 -293 168q-80 -168 -293 -168q-188 0 -298 135.5t-110 364.5q0 199 89.5 336t257.5 197l57 -140q-244 -117 -244 -395q0 -162 68.5 -257t183.5 -95q100 0 157.5 69.5t57.5 188.5v283 h150v-283q0 -121 56 -189.5t157 -68.5q115 0 183 94t68 256q0 283 -241 397z" glyph-name="omega" horiz-adv-x="1605" unicode="ω"/><glyph d="M59 1270q-45 0 -78.5 31.5t-33.5 76.5t33.5 78t78.5 33q47 0 81 -33t34 -78t-34 -76.5t-81 -31.5zM434 1270q-45 0 -80 32.5t-35 75.5q0 45 35 78t80 33q47 0 80 -33t33 -78t-33 -76.5t-80 -31.5zM461 -23q-293 0 -293 316v704h158v-686q0 -100 40 -145t128 -45 q55 0 133 12v-133q-94 -23 -166 -23z" glyph-name="iotadieresis" horiz-adv-x="636" unicode="ϊ"/><glyph d="M348 1270q-43 0 -77.5 32.5t-34.5 75.5q0 45 34.5 78t77.5 33q47 0 81 -33t34 -78t-34 -76.5t-81 -31.5zM784 1270q-45 0 -79.5 32.5t-34.5 75.5q0 45 34.5 78t79.5 33q47 0 80 -33t33 -78t-33 -76.5t-80 -31.5zM582 -23q-193 0 -306.5 118t-113.5 315v587h157v-596 q0 -127 72 -203.5t191 -76.5q117 0 189.5 77.5t72.5 202.5v596h157v-587q0 -197 -114.5 -315t-304.5 -118z" glyph-name="upsilondieresis" horiz-adv-x="1161" unicode="ϋ"/><glyph d="M543 1159l61 438h191v-28l-129 -410h-123zM623 -20q-217 0 -369 151.5t-152 368.5q0 219 152 369.5t371 150.5t370.5 -151.5t151.5 -368.5t-152.5 -368.5t-371.5 -151.5zM622.5 125q153.5 0 258 107.5t104.5 265.5q0 162 -103.5 269t-256.5 107q-156 0 -258.5 -107.5 t-102.5 -268.5q0 -160 102.5 -266.5t256 -106.5z" glyph-name="omicrontonos" horiz-adv-x="1249" unicode="ό"/><glyph d="M485 1159l62 438h190v-28l-129 -410h-123zM582 -23q-193 0 -306.5 118t-113.5 315v587h157v-596q0 -127 72 -203.5t191 -76.5q117 0 189.5 77.5t72.5 202.5v596h157v-587q0 -197 -114.5 -315t-304.5 -118z" glyph-name="upsilontonos" horiz-adv-x="1161" unicode="ύ"/><glyph d="M975 1569l-129 -410h-123l61 438h191v-28zM1157 1010q168 -59 257 -196.5t89 -336.5q0 -229 -109.5 -364.5t-297.5 -135.5q-209 0 -293 168q-80 -168 -293 -168q-188 0 -298 135.5t-110 364.5q0 199 89.5 336t257.5 197l57 -140q-244 -117 -244 -395q0 -162 68.5 -257 t183.5 -95q100 0 157.5 69.5t57.5 188.5v283h150v-283q0 -121 56 -189.5t157 -68.5q115 0 183 94t68 256q0 283 -241 397z" glyph-name="omegatonos" horiz-adv-x="1605" unicode="ώ"/><glyph d="M561 1483l-246 352v29h193l174 -381h-121zM186 0v1352h867v-144h-707v-413h541v-144h-541v-508h731v-143h-891z" glyph-name="uni0400" horiz-adv-x="1159" unicode="Ѐ"/><glyph d="M381 1550q-45 0 -79 32t-34 77t34 76.5t79 31.5q47 0 80 -31.5t33 -76.5t-33 -77t-80 -32zM858 1548q-45 0 -79 32t-34 77t34 77.5t79 32.5q47 0 80 -32.5t33 -77.5t-33 -77t-80 -32zM186 0v1352h867v-144h-707v-413h541v-144h-541v-508h731v-143h-891z" glyph-name="afii10023" horiz-adv-x="1159" unicode="Ё"/><glyph d="M952 -23l-28 144q307 41 307 287q0 127 -86 193.5t-227 66.5q-168 0 -304 -52v-616h-159v1208h-416v144h1071v-144h-496v-446q141 49 310 49q213 0 343 -106.5t130 -298.5q0 -195 -126 -300.5t-319 -128.5z" glyph-name="afii10051" horiz-adv-x="1499" unicode="Ђ"/><glyph d="M479 1483l174 381h193v-29l-246 -352h-121zM186 0v1352h801v-144h-641v-1208h-160z" glyph-name="afii10052" horiz-adv-x="1036" unicode="Ѓ"/><glyph d="M803 125q279 0 440 237l119 -94q-84 -133 -232.5 -212t-328.5 -79q-295 0 -499 202t-204 497t204 496.5t499 201.5q180 0 327.5 -78.5t233.5 -212.5l-119 -94q-162 238 -440 238q-207 0 -355.5 -131t-177.5 -336h650v-144h-654q23 -213 173.5 -352t363.5 -139z" glyph-name="afii10053" horiz-adv-x="1464" unicode="Є"/><glyph d="M582 -23q-158 0 -288 78t-210 213l119 88q152 -231 377 -231q121 0 196.5 61.5t75.5 163.5q0 86 -52 133t-173 105l-152 71q-66 31 -109.5 58.5t-94 72t-76 102.5t-25.5 130q0 158 119 255t289 97q135 0 246.5 -63.5t176.5 -165.5l-116 -88q-115 170 -310 170 q-100 0 -169.5 -51.5t-69.5 -145.5q0 -45 14.5 -77.5t50 -61.5t64.5 -44.5t88 -43.5l149 -72q160 -78 238 -162t78 -215q0 -168 -123 -272.5t-313 -104.5z" glyph-name="afii10054" horiz-adv-x="1142" unicode="Ѕ"/><glyph d="M186 0v1352h160v-1352h-160z" glyph-name="afii10055" horiz-adv-x="530" unicode="І"/><glyph d="M27 1550q-45 0 -79 32t-34 77t34 76.5t79 31.5q47 0 79.5 -31.5t32.5 -76.5t-32.5 -77t-79.5 -32zM504 1548q-45 0 -79 32t-34 77t34 77.5t79 32.5q47 0 79.5 -32.5t32.5 -77.5t-32.5 -77t-79.5 -32zM186 0v1352h160v-1352h-160z" glyph-name="afii10056" horiz-adv-x="530" unicode="Ї"/><glyph d="M227 -23q-80 0 -178 23v137q84 -12 148 -12q109 0 166 44t57 159v1024h160v-1039q0 -170 -94.5 -253t-258.5 -83z" glyph-name="afii10057" horiz-adv-x="763" unicode="Ј"/><glyph d="M1423 819q207 0 329 -113.5t122 -296t-122 -296t-329 -113.5h-458v1208h-467q-14 -461 -57.5 -722t-128.5 -380.5t-230 -119.5q-47 0 -80 14v139q6 -6 55 -6q150 0 212.5 253t74.5 763l4 203h776v-533h299zM1421 143q137 0 212 74t75 191q0 119 -74.5 192.5t-212.5 73.5 h-297v-531h297z" glyph-name="afii10058" horiz-adv-x="1976" unicode="Љ"/><glyph d="M186 0v1352h160v-533h621v533h159v-533h297q207 0 330 -114.5t123 -295t-123 -295t-330 -114.5h-456v676h-621v-676h-160zM1126 143h295q137 0 213 74t76 191q0 119 -75.5 193.5t-213.5 74.5h-295v-533z" glyph-name="afii10059" horiz-adv-x="1976" unicode="Њ"/><glyph d="M924 811q223 0 358 -133t135 -377v-301h-160v289q0 184 -93 281.5t-246 97.5q-168 0 -304 -52v-616h-159v1208h-416v144h1071v-144h-496v-448q138 51 310 51z" glyph-name="afii10060" horiz-adv-x="1579" unicode="Ћ"/><glyph d="M954 1835l-245 -352h-121l174 381h192v-29zM186 0v1352h160v-1352h-160zM573 725l660 -725h-203l-665 725l608 627h205z" glyph-name="afii10061" horiz-adv-x="1296" unicode="Ќ"/><glyph d="M797 1483h-121l-246 352v29h193zM1227 1374h57v-1374h-160v1049l-880 -1072h-58v1375h160v-1049z" glyph-name="uni040D" horiz-adv-x="1470" unicode="Ѝ"/><glyph d="M707 1487q-139 0 -224.5 89t-85.5 236v52h133v-54q0 -96 46.5 -150t130.5 -54t131 53t47 151v54h133v-52q0 -147 -85 -236t-226 -89zM1126 1352h162l-485 -1035q-86 -182 -168 -259.5t-217 -77.5q-55 0 -111 20v139q55 -12 107 -12q68 0 116 33t91 116l-539 1076h180 l447 -891z" glyph-name="afii10062" horiz-adv-x="1349" unicode="Ў"/><glyph d="M1243 1352v-1352h-448v-289h-160v289h-449v1352h160v-1209h737v1209h160z" glyph-name="afii10145" horiz-adv-x="1429" unicode="Џ"/><glyph d="M1124 0l-114 274h-664l-115 -274h-168l586 1374h60l585 -1374h-170zM948 418l-270 665l-270 -665h540z" glyph-name="afii10017" horiz-adv-x="1357" unicode="А"/><glyph d="M186 0v1352h801v-144h-641v-409h297q207 0 329 -110.5t122 -287.5q0 -178 -122 -289.5t-329 -111.5h-457zM346 143h295q137 0 212 72t75 184.5t-75 184t-212 71.5h-295v-512z" glyph-name="afii10018" horiz-adv-x="1183" unicode="Б"/><glyph d="M907 743q125 -37 194.5 -130t69.5 -224q0 -172 -115.5 -280.5t-312.5 -108.5h-557v1352h465q176 0 280.5 -96.5t104.5 -245.5q0 -171 -129 -267zM635 1208h-289v-420h289q115 0 176 57.5t61 154t-60 152.5t-177 56zM727 143q133 0 207 69t74 181.5t-74 181t-207 68.5 h-381v-500h381z" glyph-name="afii10019" horiz-adv-x="1261" unicode="В"/><glyph d="M186 0v1352h801v-144h-641v-1208h-160z" glyph-name="afii10020" horiz-adv-x="1036" unicode="Г"/><glyph d="M1157 143h164v-432h-160v289h-981v-289h-160v432h105q109 100 160 345t51 694l2 170h819v-1209zM483 1208q-6 -834 -180 -1065h694v1065h-514z" glyph-name="afii10021" horiz-adv-x="1382" unicode="Д"/><glyph d="M186 0v1352h867v-144h-707v-413h541v-144h-541v-508h731v-143h-891z" glyph-name="afii10022" horiz-adv-x="1159" unicode="Е"/><glyph d="M117 1352h207l567 -627l-625 -725h-205l625 725zM909 0v1352h160v-1352h-160zM1292 725l623 -725h-203l-625 725l568 627h207z" glyph-name="afii10024" horiz-adv-x="1978" unicode="Ж"/><glyph d="M862 731q111 -43 172.5 -132t61.5 -206q0 -182 -138.5 -299t-345.5 -117q-168 0 -300 80t-212 217l117 86q152 -236 393 -235q137 0 229.5 77t92.5 195q0 109 -79 177.5t-237 68.5h-159v145h168q115 0 174 59.5t59 156.5q0 100 -62.5 161.5t-183.5 61.5q-205 0 -329 -185 l-115 86q147 246 444 246q188 0 300 -102.5t112 -259.5q0 -185 -162 -281z" glyph-name="afii10025" horiz-adv-x="1193" unicode="З"/><glyph d="M1227 1374h57v-1374h-160v1049l-880 -1072h-58v1375h160v-1049z" glyph-name="afii10026" horiz-adv-x="1470" unicode="И"/><glyph d="M733 1487q-139 0 -224 89t-85 236v52h133v-54q0 -96 46 -150t130 -54t131 53t47 151v54h133v-52q0 -147 -85 -236t-226 -89zM1227 1374h57v-1374h-160v1049l-880 -1072h-58v1375h160v-1049z" glyph-name="afii10027" horiz-adv-x="1470" unicode="Й"/><glyph d="M186 0v1352h160v-1352h-160zM573 725l660 -725h-203l-665 725l608 627h205z" glyph-name="afii10028" horiz-adv-x="1296" unicode="К"/><glyph d="M348 1352h838v-1352h-160v1208h-528q-14 -465 -59.5 -728t-130.5 -378.5t-226 -115.5q-47 0 -80 14v139q6 -6 55 -6q150 0 212.5 253t74.5 763z" glyph-name="afii10029" horiz-adv-x="1370" unicode="Л"/><glyph d="M1374 1374h56v-1374h-160v969l-432 -586h-58l-434 590v-973h-160v1374h58l563 -780z" glyph-name="afii10030" horiz-adv-x="1615" unicode="М"/><glyph d="M186 0v1352h160v-557h758v557h160v-1352h-160v651h-758v-651h-160z" glyph-name="afii10031" horiz-adv-x="1449" unicode="Н"/><glyph d="M799 -23q-295 0 -498 202t-203 497t204 496.5t497 201.5t497.5 -201.5t204.5 -496.5t-204.5 -497t-497.5 -202zM801 125q229 0 381.5 157.5t152.5 395.5q0 233 -152.5 391t-381.5 158q-231 0 -384 -157t-153 -392q0 -238 153 -395.5t384 -157.5z" glyph-name="afii10032" horiz-adv-x="1599" unicode="О"/><glyph d="M186 0v1352h1057v-1352h-160v1208h-737v-1208h-160z" glyph-name="afii10033" horiz-adv-x="1429" unicode="П"/><glyph d="M186 0v1352h476q197 0 314.5 -109.5t117.5 -281.5q0 -174 -118 -285t-314 -111h-316v-565h-160zM346 709h311q129 0 200 68.5t71 180.5q0 111 -71 180.5t-200 69.5h-311v-499z" glyph-name="afii10034" horiz-adv-x="1173" unicode="Р"/><glyph d="M801 -23q-295 0 -499 202t-204 497t204 496.5t499 201.5q180 0 327.5 -78.5t233.5 -212.5l-119 -94q-162 238 -440 238q-229 0 -384 -158t-155 -393.5t154.5 -393t384.5 -157.5q279 0 440 237l119 -94q-84 -133 -232.5 -212t-328.5 -79z" glyph-name="afii10035" horiz-adv-x="1464" unicode="С"/><glyph d="M514 0v1208h-475v144h1112v-144h-477v-1208h-160z" glyph-name="afii10036" horiz-adv-x="1189" unicode="Т"/><glyph d="M1126 1352h162l-485 -1035q-86 -182 -168 -259.5t-217 -77.5q-55 0 -111 20v139q55 -12 107 -12q68 0 116 33t91 116l-539 1076h180l447 -891z" glyph-name="afii10037" horiz-adv-x="1349" unicode="У"/><glyph d="M1544 686q0 -256 -181 -406.5t-468 -152.5v-168h-160v168q-287 2 -467 152.5t-180 406.5q0 254 180.5 402.5t466.5 150.5v154h160v-154q289 -2 469 -150.5t180 -402.5zM254 682q0 -193 131 -301.5t350 -108.5v822q-219 0 -350 -108.5t-131 -303.5zM895 272 q219 0 351 108.5t132 301.5q0 195 -132 303.5t-351 108.5v-822z" glyph-name="afii10038" horiz-adv-x="1632" unicode="Ф"/><glyph d="M1165 0h-186l-365 555l-366 -555h-187l465 692l-432 660h185l335 -527l334 527h185l-426 -662z" glyph-name="afii10039" horiz-adv-x="1226" unicode="Х"/><glyph d="M1249 -289v289h-1063v1352h160v-1209h737v1209h160v-1209h166v-432h-160z" glyph-name="afii10040" horiz-adv-x="1470" unicode="Ц"/><glyph d="M983 1352h160v-1352h-160v545q-129 -57 -326 -58q-254 0 -393 129t-139 388v348h160v-338q0 -383 377 -383q195 0 321 59v662z" glyph-name="afii10041" horiz-adv-x="1327" unicode="Ч"/><glyph d="M186 0v1352h160v-1209h561v1209h160v-1209h563v1209h160v-1352h-1604z" glyph-name="afii10042" horiz-adv-x="1974" unicode="Ш"/><glyph d="M1794 -289v289h-1608v1352h160v-1209h561v1209h160v-1209h563v1209h160v-1209h164v-432h-160z" glyph-name="afii10043" horiz-adv-x="2015" unicode="Щ"/><glyph d="M348 0v1208h-309v144h469v-533h297q207 0 328.5 -113.5t121.5 -296t-121.5 -296t-328.5 -113.5h-457zM508 143h295q137 0 213 74t76 191q0 119 -76 192.5t-213 73.5h-295v-531z" glyph-name="afii10044" horiz-adv-x="1357" unicode="Ъ"/><glyph d="M186 0v1352h160v-533h297q207 0 329 -113.5t122 -296t-122 -296t-329 -113.5h-457zM1362 0v1352h160v-1352h-160zM346 143h295q137 0 213 74t76 191q0 119 -76 192.5t-213 73.5h-295v-531z" glyph-name="afii10045" horiz-adv-x="1705" unicode="Ы"/><glyph d="M186 0v1352h160v-533h297q207 0 329 -113.5t122 -296t-122 -296t-329 -113.5h-457zM346 143h295q137 0 213 74t76 191q0 119 -76 192.5t-213 73.5h-295v-531z" glyph-name="afii10046" horiz-adv-x="1196" unicode="Ь"/><glyph d="M664 1374q295 0 497.5 -201.5t202.5 -496.5t-203 -497t-497 -202q-180 0 -329 79t-235 212l121 94q162 -238 441 -237q213 0 362.5 138t171.5 353h-633v144h629q-29 205 -176.5 336t-353.5 131q-279 0 -441 -238l-121 94q88 133 236 212t328 79z" glyph-name="afii10047" horiz-adv-x="1464" unicode="Э"/><glyph d="M1229 1374q285 0 478.5 -200.5t193.5 -497.5t-194 -498t-478 -201q-279 0 -468.5 194t-199.5 480h-215v-651h-160v1352h160v-557h223q39 254 222.5 416.5t437.5 162.5zM1231 125q223 0 363.5 156.5t140.5 396.5q0 236 -141.5 392.5t-362.5 156.5q-223 0 -363.5 -156 t-140.5 -393q0 -240 140.5 -396.5t363.5 -156.5z" glyph-name="afii10048" horiz-adv-x="2000" unicode="Ю"/><glyph d="M631 1352h450v-1352h-159v526h-269l-379 -526h-182l393 547q-145 41 -231 146.5t-86 246.5q0 184 127 298t336 114zM922 672v536h-291q-135 0 -216 -73.5t-81 -194.5q0 -123 81 -195.5t216 -72.5h291z" glyph-name="afii10049" horiz-adv-x="1267" unicode="Я"/><glyph d="M532 1020q176 0 283 -104.5t107 -301.5v-614h-148v129q-113 -152 -336 -152q-154 0 -251 76t-97 205q0 127 98.5 203t260.5 76h315v86q0 123 -64.5 187t-177.5 64q-168 0 -291 -159l-104 86q137 219 405 219zM459 109q125 0 215 79.5t90 194.5v25h-297q-215 0 -215 -142 q0 -76 59.5 -116.5t147.5 -40.5z" glyph-name="afii10065" horiz-adv-x="1081" unicode="а"/><glyph d="M659 983q205 0 351.5 -147.5t146.5 -354.5q0 -211 -150.5 -356t-369.5 -145q-229 0 -371.5 155.5t-142.5 405.5v174q0 135 13.5 231t51 189.5t105 156t178.5 111.5t266 76q254 45 336 80v-152q-94 -41 -317 -74q-131 -18 -223.5 -58t-141.5 -86t-75.5 -119t-33 -133 t-6.5 -155q63 94 164.5 147.5t218.5 53.5zM639 125q150 0 253 103.5t103 253t-103.5 253t-252.5 103.5q-147 0 -251.5 -103.5t-104.5 -253.5q0 -147 104.5 -251.5t251.5 -104.5z" glyph-name="afii10066" horiz-adv-x="1259" unicode="б"/><glyph d="M803 541q188 -66 188 -240q0 -133 -96 -217t-258 -84h-463v997h412q147 0 234 -71.5t87 -192.5q0 -126 -104 -192zM332 856v-266h256q164 0 164 135q0 131 -164 131h-256zM627 139q98 0 152.5 45t54.5 117q0 70 -54.5 110t-152.5 40h-295v-312h295z" glyph-name="afii10067" horiz-adv-x="1114" unicode="в"/><glyph d="M174 0v997h672v-141h-514v-856h-158z" glyph-name="afii10068" horiz-adv-x="890" unicode="г"/><glyph d="M948 139h162v-428h-158v289h-784v-289h-158v428h113q70 72 98.5 212.5t32.5 365.5l6 280h688v-858zM403 715q-8 -426 -114 -576h502v717h-381z" glyph-name="afii10069" horiz-adv-x="1183" unicode="д"/><glyph d="M1067 569q0 -57 -12 -118h-789q14 -147 116.5 -237.5t250.5 -90.5q170 0 305 135l92 -106q-164 -174 -399 -175q-225 0 -377 149.5t-152 371.5q0 219 147.5 370.5t362.5 151.5q195 0 325 -127t130 -324zM608 877q-125 0 -217 -79t-119 -208h633q-2 133 -87 210t-210 77z " glyph-name="afii10070" horiz-adv-x="1169" unicode="е"/><glyph d="M80 997h196l412 -456l-455 -541h-192l457 541zM709 0v997h157v-997h-157zM1079 545l459 -545h-197l-454 541l411 456h195z" glyph-name="afii10072" horiz-adv-x="1581" unicode="ж"/><glyph d="M682 532q170 -70 170 -245q0 -141 -103.5 -225.5t-273.5 -84.5q-242 0 -383 193l107 94q109 -141 274 -141q104 0 160.5 48t56.5 126q0 72 -56 117t-161 45h-108v139h106q174 0 174 139q0 63 -46 100t-132 37q-147 0 -250 -122l-106 94q125 174 362 174q150 0 239 -73 t89 -199q0 -142 -119 -216z" glyph-name="afii10073" horiz-adv-x="958" unicode="з"/><glyph d="M940 1020h57v-1020h-157v705l-609 -728h-57v1020h158v-706z" glyph-name="afii10074" horiz-adv-x="1169" unicode="и"/><glyph d="M608 1174q-139 0 -224 89t-85 234v64h133v-60q0 -100 46 -154.5t130 -54.5q86 0 132 54.5t46 154.5v60h134v-64q0 -145 -85.5 -234t-226.5 -89zM940 1020h57v-1020h-157v705l-609 -728h-57v1020h158v-706z" glyph-name="afii10075" horiz-adv-x="1169" unicode="й"/><glyph d="M174 0v997h158v-997h-158zM545 545l469 -545h-199l-463 541l420 456h197z" glyph-name="afii10076" horiz-adv-x="1054" unicode="к"/><glyph d="M252 997h676v-997h-158v856h-371l-4 -123q-10 -393 -79.5 -567t-241.5 -174q-29 0 -54 8v133q25 -4 41 -4q96 0 137.5 150.5t47.5 457.5z" glyph-name="afii10077" horiz-adv-x="1101" unicode="л"/><glyph d="M174 0v1020h57l474 -561l471 561h55v-1020h-158v674l-340 -406h-61l-340 406v-674h-158z" glyph-name="afii10078" horiz-adv-x="1404" unicode="м"/><glyph d="M174 0v997h158v-397h489v397h158v-997h-158v461h-489v-461h-158z" glyph-name="afii10079" horiz-adv-x="1150" unicode="н"/><glyph d="M623 -20q-217 0 -369 151.5t-152 368.5q0 219 152 369.5t371 150.5t370.5 -151.5t151.5 -368.5t-152.5 -368.5t-371.5 -151.5zM622.5 125q153.5 0 258 107.5t104.5 265.5q0 162 -103.5 269t-256.5 107q-156 0 -258.5 -107.5t-102.5 -268.5q0 -160 102.5 -266.5 t256 -106.5z" glyph-name="afii10080" horiz-adv-x="1249" unicode="о"/><glyph d="M174 0v997h797v-997h-160v856h-479v-856h-158z" glyph-name="afii10081" horiz-adv-x="1142" unicode="п"/><glyph d="M698 1020q213 0 353.5 -149.5t140.5 -370.5q0 -223 -140.5 -373t-353.5 -150q-111 0 -208 44.5t-158 121.5v-512h-158v1366h148v-159q57 86 158 134t218 48zM676 123q152 0 253 106.5t101 268.5q0 164 -100.5 270t-253.5 106q-143 0 -244.5 -95t-101.5 -279.5 t101.5 -280.5t244.5 -96z" glyph-name="afii10082" horiz-adv-x="1294" unicode="р"/><glyph d="M625 -23q-219 0 -371 152t-152 371q0 217 152 368.5t371 151.5q266 0 411 -217l-112 -90q-121 162 -297 161q-156 0 -259.5 -108.5t-103.5 -265.5q0 -160 103.5 -268.5t259.5 -108.5q176 0 295 160l112 -88q-145 -218 -409 -218z" glyph-name="afii10083" horiz-adv-x="1128" unicode="с"/><glyph d="M377 0v856h-336v141h827v-141h-336v-856h-155z" glyph-name="afii10084" horiz-adv-x="911" unicode="т"/><glyph d="M883 997h168l-492 -1136q-111 -252 -338 -252q-76 0 -153 20v133q78 -10 120 -10q78 0 132.5 35t93.5 125l53 119l-414 966h170l330 -794z" glyph-name="afii10085" horiz-adv-x="1103" unicode="у"/><glyph d="M1386 495.5q0 -231.5 -156.5 -369.5t-406.5 -149v-346h-157v346q-250 10 -407 149.5t-157 371.5q0 229 158 368.5t406 149.5v520h157v-520q250 -10 406.5 -149.5t156.5 -371zM264 496q0 -172 108.5 -271.5t295.5 -107.5v760q-186 -8 -295 -108.5t-109 -272.5zM821 117 q186 8 295 108.5t109 272.5t-108.5 271t-295.5 108v-760z" glyph-name="afii10086" horiz-adv-x="1488" unicode="ф"/><glyph d="M975 0h-182l-285 410l-283 -410h-184l371 520l-340 477h182l254 -366l256 366h182l-346 -477z" glyph-name="afii10087" horiz-adv-x="1017" unicode="х"/><glyph d="M973 -289v289h-799v997h158v-858h479v858h158v-858h161v-428h-157z" glyph-name="afii10088" horiz-adv-x="1204" unicode="ц"/><glyph d="M750 997h157v-997h-157v393q-96 -45 -252 -45q-180 0 -288 100.5t-108 288.5v260h158v-252q0 -256 268 -256q129 0 222 43v465z" glyph-name="afii10089" horiz-adv-x="1081" unicode="ч"/><glyph d="M174 0v997h158v-858h418v858h157v-858h420v858h158v-997h-1311z" glyph-name="afii10090" horiz-adv-x="1656" unicode="ш"/><glyph d="M1489 -289v289h-1315v997h158v-858h418v858h157v-858h420v858h158v-858h162v-428h-158z" glyph-name="afii10091" horiz-adv-x="1720" unicode="щ"/><glyph d="M268 0v856h-227v141h385v-344h240q170 0 271 -89t101 -236.5t-101 -237.5t-271 -90h-398zM426 139h229q104 0 163 51.5t59 135.5t-59.5 136t-164.5 52h-227v-375z" glyph-name="afii10092" horiz-adv-x="1140" unicode="ъ"/><glyph d="M174 0v997h158v-344h237q168 0 270.5 -89t102.5 -236q0 -150 -101.5 -239t-271.5 -89h-395zM1087 0v997h158v-997h-158zM332 139h229q106 0 162.5 48.5t56.5 138.5t-57 139t-164 49h-227v-375z" glyph-name="afii10093" horiz-adv-x="1417" unicode="ы"/><glyph d="M174 0v997h158v-344h237q170 0 271.5 -89t101.5 -236.5t-101.5 -237.5t-271.5 -90h-395zM332 139h229q104 0 161.5 51.5t57.5 135.5t-58 136t-163 52h-227v-375z" glyph-name="afii10094" horiz-adv-x="1044" unicode="ь"/><glyph d="M504 1020q219 0 370.5 -151.5t151.5 -368.5q0 -219 -151.5 -371t-370.5 -152q-264 0 -410 218l111 88q119 -160 297 -160q141 0 240.5 90t117.5 229h-430v140h426q-27 129 -124 210.5t-230 81.5q-178 0 -299 -161l-111 90q150 217 412 217z" glyph-name="afii10095" horiz-adv-x="1128" unicode="э"/><glyph d="M1022 1020q213 0 362.5 -151.5t149.5 -368.5t-149.5 -368.5t-364.5 -151.5q-205 0 -349.5 138t-158.5 343h-180v-461h-158v997h158v-397h186q35 184 175.5 302t328.5 118zM1019.5 125q149.5 0 251 107.5t101.5 265.5q0 160 -100.5 268t-249.5 108q-152 0 -251 -107.5 t-99 -268.5q0 -160 99 -266.5t248.5 -106.5z" glyph-name="afii10096" horiz-adv-x="1636" unicode="ю"/><glyph d="M504 997h397v-997h-158v365h-188l-274 -365h-185l291 385q-111 33 -173 109.5t-62 183.5q0 145 96 232t256 87zM743 504v352h-229q-94 0 -147.5 -47t-53.5 -129q0 -80 54.5 -128t148.5 -48h227z" glyph-name="afii10097" horiz-adv-x="1075" unicode="я"/><glyph d="M668 1159h-121l-246 410v28h193zM1067 569q0 -57 -12 -118h-789q14 -147 116.5 -237.5t250.5 -90.5q170 0 305 135l92 -106q-164 -174 -399 -175q-225 0 -377 149.5t-152 371.5q0 219 147.5 370.5t362.5 151.5q195 0 325 -127t130 -324zM608 877q-125 0 -217 -79 t-119 -208h633q-2 133 -87 210t-210 77z" glyph-name="uni0450" horiz-adv-x="1169" unicode="ѐ"/><glyph d="M389 1270q-43 0 -78 32.5t-35 75.5q0 45 35 78t78 33q47 0 81 -33t34 -78t-34 -76.5t-81 -31.5zM825 1270q-45 0 -79.5 32.5t-34.5 75.5q0 45 34.5 78t79.5 33q47 0 80 -33t33 -78t-33 -76.5t-80 -31.5zM1067 569q0 -57 -12 -118h-789q14 -147 116.5 -237.5t250.5 -90.5 q170 0 305 135l92 -106q-164 -174 -399 -175q-225 0 -377 149.5t-152 371.5q0 219 147.5 370.5t362.5 151.5q195 0 325 -127t130 -324zM608 877q-125 0 -217 -79t-119 -208h633q-2 133 -87 210t-210 77z" glyph-name="afii10071" horiz-adv-x="1169" unicode="ё"/><glyph d="M637 991q172 0 271.5 -107.5t99.5 -283.5v-668q0 -164 -89.5 -243.5t-240.5 -79.5q-70 0 -125 16v133q49 -6 88 -6q100 0 154.5 42t54.5 149v639q0 119 -67.5 191.5t-180.5 72.5q-117 0 -191.5 -75t-74.5 -189v-582h-156v1188h-170v139h170v209h156v-209h414v-139h-414 v-334q108 137 301 137z" glyph-name="afii10099" horiz-adv-x="1167" unicode="ђ"/><glyph d="M430 1159l174 438h193v-28l-246 -410h-121zM174 0v997h672v-141h-514v-856h-158z" glyph-name="afii10100" horiz-adv-x="890" unicode="ѓ"/><glyph d="M627 123q178 0 297 160l110 -88q-145 -217 -409 -218q-219 0 -371 152t-152 371q0 217 152 368.5t371 151.5q266 0 411 -217l-110 -90q-121 162 -299 161q-133 0 -230.5 -81.5t-124.5 -210.5h426v-140h-430q18 -139 118 -229t241 -90z" glyph-name="afii10101" horiz-adv-x="1128" unicode="є"/><glyph d="M469 -23q-244 0 -389 195l100 104q145 -154 287 -153q82 0 136 38t54 103q0 59 -41 91t-133 69l-96 41q-125 51 -186.5 113.5t-61.5 162.5q0 131 96.5 205t239.5 74q207 0 334 -158l-96 -98q-106 111 -246 110q-74 0 -120 -32.5t-46 -91.5q0 -47 36 -77t126 -69l92 -39 q139 -59 201.5 -125.5t62.5 -169.5q0 -139 -101.5 -216t-248.5 -77z" glyph-name="afii10102" horiz-adv-x="929" unicode="ѕ"/><glyph d="M276 1264q-51 0 -84.5 32.5t-33.5 81.5q0 47 33.5 81t84.5 34q47 0 82 -34t35 -81q0 -49 -34 -81.5t-83 -32.5zM197 0v997h157v-997h-157z" glyph-name="afii10103" horiz-adv-x="548" unicode="і"/><glyph d="M129 1264q-47 0 -78 32.5t-31 81.5q0 47 32 81t77 34q43 0 75 -34t32 -81q0 -49 -32 -81.5t-75 -32.5zM379 1264q-47 0 -78 32.5t-31 81.5q0 47 32 81t77 34q43 0 74.5 -34t31.5 -81q0 -49 -31.5 -81.5t-74.5 -32.5zM174 0v997h158v-997h-158z" glyph-name="afii10104" horiz-adv-x="505" unicode="ї"/><glyph d="M254 1264q-49 0 -84 32.5t-35 81.5q0 47 35 81t84 34q47 0 82 -34t35 -81q0 -49 -34 -81.5t-83 -32.5zM4 -391q-68 0 -127 16v133q53 -6 92 -6q205 0 205 191v1054h158v-1065q0 -164 -89 -243.5t-239 -79.5z" glyph-name="afii10105" horiz-adv-x="503" unicode="ј"/><glyph d="M1116 653q170 0 270.5 -89t100.5 -236.5t-100.5 -237.5t-270.5 -90h-395v856h-322l-4 -123q-10 -393 -79.5 -567t-241.5 -174q-29 0 -54 8v133q25 -4 41 -4q96 0 137.5 150.5t47.5 457.5l6 260h627v-344h237zM1106 139q104 0 161.5 51.5t57.5 135.5t-58.5 136t-162.5 52 h-225v-375h227z" glyph-name="afii10106" horiz-adv-x="1591" unicode="љ"/><glyph d="M1157 637q176 0 279.5 -85t103.5 -230q0 -152 -102.5 -237t-280.5 -85h-397v498h-428v-498h-158v997h158v-360h428v360h158v-360h239zM1147 139q111 0 171 47t60 133q0 80 -61.5 129.5t-169.5 49.5h-229v-359h229z" glyph-name="afii10107" horiz-adv-x="1644" unicode="њ"/><glyph d="M637 991q172 0 271.5 -107.5t99.5 -283.5v-600h-158v582q0 119 -67.5 191.5t-180.5 72.5q-117 0 -191.5 -75t-74.5 -189v-582h-156v1186h-170v139h170v211h156v-211h414v-139h-414v-332q108 137 301 137z" glyph-name="afii10108" horiz-adv-x="1167" unicode="ћ"/><glyph d="M860 1569l-246 -410h-120l174 438h192v-28zM174 0v997h158v-997h-158zM545 545l469 -545h-199l-463 541l420 456h197z" glyph-name="afii10109" horiz-adv-x="1054" unicode="ќ"/><glyph d="M672 1159h-121l-246 410v28h193zM940 1020h57v-1020h-157v705l-609 -728h-57v1020h158v-706z" glyph-name="uni045D" horiz-adv-x="1169" unicode="ѝ"/><glyph d="M545 1174q-139 0 -224 89t-85 234v64h133v-60q0 -100 46 -154.5t130 -54.5q86 0 132 54.5t46 154.5v60h133v-64q0 -145 -85 -234t-226 -89zM883 997h168l-492 -1136q-111 -252 -338 -252q-76 0 -153 20v133q78 -10 120 -10q78 0 132.5 35t93.5 125l53 119l-414 966h170 l330 -794z" glyph-name="afii10110" horiz-adv-x="1103" unicode="ў"/><glyph d="M969 997v-997h-318v-289h-157v289h-320v997h158v-858h479v858h158z" glyph-name="afii10193" horiz-adv-x="1140" unicode="џ"/><glyph d="M330 0v1028h-291v133h291v191h159v-191h385v-133h-385v-248h308q203 0 321.5 -108.5t118.5 -280.5q0 -174 -119 -282.5t-321 -108.5h-467zM489 143h306q133 0 204.5 69t71.5 177q0 111 -71.5 178.5t-204.5 67.5h-306v-492z" glyph-name="afii10146" horiz-adv-x="1339" unicode="Ѣ"/><glyph d="M293 0v856h-283v141h283v539h158v-539h325v-141h-325v-223h239q170 0 271.5 -86t101.5 -228q0 -145 -101.5 -232t-271.5 -87h-397zM451 139h229q104 0 162.5 48.5t58.5 129.5q0 78 -59.5 127.5t-163.5 49.5h-227v-355z" glyph-name="afii10194" horiz-adv-x="1165" unicode="ѣ"/><glyph d="M799 1374q293 0 497.5 -201.5t204.5 -496.5t-204.5 -497t-497.5 -202q-295 0 -498 202t-203 497t204 496.5t497 201.5zM799 1227q-213 0 -361.5 -137.5t-171.5 -350.5q143 59 281 60q98 0 257 -41t255 -41q139 0 268 55q-31 199 -177 327t-351 128zM799 125 q217 0 367.5 143.5t166.5 360.5q-135 -55 -274 -56q-100 0 -260 41t-252 41q-137 0 -279 -59q29 -207 175.5 -339t355.5 -132z" glyph-name="afii10147" horiz-adv-x="1599" unicode="Ѳ"/><glyph d="M625 1020q217 0 369.5 -150.5t152.5 -369.5q0 -217 -152.5 -368.5t-371.5 -151.5q-217 0 -369 150.5t-152 369.5t152 369.5t371 150.5zM625 874q-135 0 -231.5 -81.5t-121.5 -212.5q84 33 166 32q72 0 187.5 -33.5t185.5 -33.5q80 0 166 33q-25 131 -122 213.5t-230 82.5 zM623 125q141 0 241.5 91t116.5 230q-88 -37 -170 -36q-74 0 -189.5 34.5t-183.5 34.5q-78 0 -170 -35q16 -139 116 -229t239 -90z" glyph-name="afii10195" horiz-adv-x="1249" unicode="ѳ"/><glyph d="M1323 1362q29 0 84 -10v-138q-33 6 -61 7q-63 0 -100.5 -32t-67.5 -106l-469 -1106h-60l-586 1375h177l438 -1061l352 850q49 119 118 170t175 51z" glyph-name="afii10148" horiz-adv-x="1406" unicode="Ѵ"/><glyph d="M1038 1006q45 0 80 -9v-135q-33 4 -51 4q-47 0 -75.5 -24.5t-51.5 -77.5l-358 -787h-58l-471 1020h168l332 -755l252 577q43 94 97 140.5t136 46.5z" glyph-name="afii10196" horiz-adv-x="1118" unicode="ѵ"/><glyph d="M186 0v1352h607v286h159v-430h-606v-1208h-160z" glyph-name="afii10050" horiz-adv-x="1001" unicode="Ґ"/><glyph d="M174 0v997h514v287h158v-428h-514v-856h-158z" glyph-name="afii10098" horiz-adv-x="890" unicode="ґ"/><glyph d="M1036 1208h-645v-512h346v-133h-346v-563h-160v563h-194v133h194v656h805v-144z" glyph-name="uni0492" horiz-adv-x="1077" unicode="Ғ"/><glyph d="M848 856h-518v-307h293v-139h-293v-410h-156v410h-164v139h164v448h674v-141z" glyph-name="uni0493" horiz-adv-x="892" unicode="ғ"/><glyph d="M117 1352h207l567 -627l-625 -725h-205l625 725zM909 0v1352h160v-1352h-160zM1792 143h178v-432h-160v289h-98l-625 725l568 627h207l-570 -627z" glyph-name="uni0496" horiz-adv-x="1972" unicode="Җ"/><glyph d="M80 997h196l412 -456l-455 -541h-192l457 541zM709 0v997h157v-997h-157zM1421 139h160v-428h-158v289h-82l-454 541l411 456h195l-414 -452z" glyph-name="uni0497" horiz-adv-x="1652" unicode="җ"/><glyph d="M1096 393q0 -158 -106.5 -268.5t-276.5 -138.5q49 -61 49 -142q0 -100 -73 -167.5t-197 -67.5q-68 0 -140 20v113q63 -8 115 -8q72 0 116 32.5t44 100.5q0 59 -35 110q-160 6 -288 85t-204 212l117 86q152 -236 393 -235q137 0 229.5 77t92.5 195q0 109 -79 177.5 t-237 68.5h-159v145h168q115 0 174 59.5t59 156.5q0 100 -62.5 161.5t-183.5 61.5q-205 0 -329 -185l-115 86q147 246 444 246q188 0 300 -102.5t112 -259.5q0 -184 -162 -281q111 -43 172.5 -132t61.5 -206z" glyph-name="uni0498" horiz-adv-x="1193" unicode="Ҙ"/><glyph d="M852 287q0 -111 -66.5 -189t-181.5 -106q55 -61 55 -148q0 -100 -72.5 -167.5t-197.5 -67.5q-68 0 -139 20v113q63 -8 115 -8q72 0 115.5 32.5t43.5 100.5q0 59 -35 110h-14q-242 0 -383 193l107 94q109 -141 274 -141q104 0 160.5 48t56.5 126q0 72 -56 117t-161 45 h-108v139h106q174 0 174 139q0 63 -46 100t-132 37q-147 0 -250 -122l-106 94q125 174 362 174q150 0 239 -73t89 -199q0 -141 -119 -216q170 -69 170 -245z" glyph-name="uni0499" horiz-adv-x="958" unicode="ҙ"/><glyph d="M186 0v1352h160v-1352h-160zM1104 143h182v-432h-160v289h-96l-665 725l608 627h205l-607 -627z" glyph-name="uni049A" horiz-adv-x="1286" unicode="Қ"/><glyph d="M174 0v997h158v-997h-158zM895 139h158v-428h-158v289h-80l-463 541l420 456h197l-424 -452z" glyph-name="uni049B" horiz-adv-x="1124" unicode="қ"/><glyph d="M41 1208v144h649v-1352h-160v1208h-489zM918 725l661 -725h-205l-665 725l608 627h207z" glyph-name="uni04A0" horiz-adv-x="1640" unicode="Ҡ"/><glyph d="M41 856v141h526v-997h-157v856h-369zM780 545l469 -545h-198l-463 541l420 456h196z" glyph-name="uni04A1" horiz-adv-x="1290" unicode="ҡ"/><glyph d="M1270 -289v289h-166v651h-758v-651h-160v1352h160v-557h758v557h160v-1209h166v-432h-160z" glyph-name="uni04A2" horiz-adv-x="1490" unicode="Ң"/><glyph d="M985 -289v289h-164v461h-489v-461h-158v997h158v-397h489v397h158v-858h164v-428h-158z" glyph-name="uni04A3" horiz-adv-x="1214" unicode="ң"/><glyph d="M803 125q279 0 440 237l119 -94q-150 -236 -449 -282q51 -57 52 -142q0 -100 -73 -167.5t-198 -67.5q-68 0 -139 20v113q63 -8 115 -8q72 0 115.5 32.5t43.5 100.5q0 59 -34 110q-293 4 -495 205t-202 494q0 295 204 496.5t499 201.5q180 0 327.5 -78.5t233.5 -212.5 l-119 -94q-162 238 -440 238q-229 0 -384 -158t-155 -393.5t155 -393t384 -157.5z" glyph-name="uni04AA" horiz-adv-x="1464" unicode="Ҫ"/><glyph d="M627 123q176 0 295 160l112 -88q-113 -172 -317 -209q49 -61 49 -142q0 -100 -72.5 -167.5t-197.5 -67.5q-68 0 -140 20v113q63 -8 115 -8q72 0 116 32.5t44 100.5q0 59 -37 110q-209 12 -350.5 162t-141.5 361q0 217 152 368.5t371 151.5q266 0 411 -217l-112 -90 q-121 162 -297 161q-156 0 -259.5 -108.5t-103.5 -265.5q0 -160 103.5 -268.5t259.5 -108.5z" glyph-name="uni04AB" horiz-adv-x="1128" unicode="ҫ"/><glyph d="M1180 1352l-469 -793v-559h-160v559l-469 793h180l369 -635l370 635h179z" glyph-name="uni04AE" horiz-adv-x="1261" unicode="Ү"/><glyph d="M1051 997l-418 -989v-377h-158v363l-422 1003h168l332 -839l330 839h168z" glyph-name="uni04AF" horiz-adv-x="1103" unicode="ү"/><glyph d="M1180 1352l-469 -791h309v-135h-309v-426h-160v426h-309v135h309l-469 791h180l369 -635l370 635h179z" glyph-name="uni04B0" horiz-adv-x="1261" unicode="Ұ"/><glyph d="M633 4v-4h268v-139h-268v-230h-158v230h-270v139h266l-418 997h168l332 -843l330 843h168z" glyph-name="uni04B1" horiz-adv-x="1103" unicode="ұ"/><glyph d="M1069 143h168v-432h-160v289h-98l-365 555l-366 -555h-187l465 692l-432 660h185l335 -527l334 527h185l-426 -662z" glyph-name="uni04B2" horiz-adv-x="1239" unicode="Ҳ"/><glyph d="M874 139h160v-428h-157v289h-80l-289 406l-287 -406h-180l375 520l-344 477h178l260 -362l256 362h180l-348 -479z" glyph-name="uni04B3" horiz-adv-x="1103" unicode="ҳ"/><glyph d="M1143 143h164v-432h-160v289h-164v545q-129 -57 -326 -58q-254 0 -393 129t-139 388v348h160v-338q0 -383 377 -383q195 0 321 59v662h160v-1209z" glyph-name="uni04B6" horiz-adv-x="1368" unicode="Ҷ"/><glyph d="M907 139h164v-428h-158v289h-163v403q-115 -55 -252 -55q-180 0 -288 100.5t-108 288.5v260h158v-252q0 -131 64.5 -193.5t175.5 -62.5q147 0 250 54v454h157v-858z" glyph-name="uni04B7" horiz-adv-x="1142" unicode="ҷ"/><glyph d="M670 864q254 0 393 -129t139 -387v-348h-160v338q0 199 -95 291t-281 92q-193 0 -320 -59v-662h-160v1352h160v-545q131 57 324 57z" glyph-name="uni04BA" horiz-adv-x="1329" unicode="Һ"/><glyph d="M631 1020q172 0 270 -108.5t98 -284.5v-627h-157v606q0 121 -66.5 194.5t-181.5 73.5t-188.5 -75.5t-73.5 -192.5v-606h-158v1536h158v-651q109 135 299 135z" glyph-name="uni04BB" horiz-adv-x="1159" unicode="һ"/><glyph d="M186 0v1352h160v-1352h-160z" glyph-name="uni04C0" horiz-adv-x="530" unicode="Ӏ"/><glyph d="M987 1487q-139 0 -224 89t-85 236v52h133v-54q0 -96 46 -150t130 -54t131 53t47 151v54h133v-52q0 -147 -85 -236t-226 -89zM117 1352h207l567 -627l-625 -725h-205l625 725zM909 0v1352h160v-1352h-160zM1292 725l623 -725h-203l-625 725l568 627h207z" glyph-name="uni04C1" horiz-adv-x="1978" unicode="Ӂ"/><glyph d="M788 1174q-139 0 -224 89t-85 234v64h133v-60q0 -100 46.5 -154.5t129.5 -54.5q86 0 132.5 54.5t46.5 154.5v60h133v-64q0 -145 -85.5 -234t-226.5 -89zM80 997h196l412 -456l-455 -541h-192l457 541zM709 0v997h157v-997h-157zM1079 545l459 -545h-197l-454 541l411 456 h195z" glyph-name="uni04C2" horiz-adv-x="1581" unicode="ӂ"/><glyph d="M174 0v1536h158v-1536h-158z" glyph-name="uni04CF" horiz-adv-x="503" unicode="ӏ"/><glyph d="M678 1487q-139 0 -224 89t-85 236v52h133v-54q0 -96 46 -150t130 -54t131 53t47 151v54h133v-52q0 -147 -85 -236t-226 -89zM1124 0l-114 274h-664l-115 -274h-168l586 1374h60l585 -1374h-170zM948 418l-270 665l-270 -665h540z" glyph-name="uni04D0" horiz-adv-x="1357" unicode="Ӑ"/><glyph d="M528 1174q-139 0 -224 89t-85 234v64h133v-60q0 -100 46 -154.5t130 -54.5q86 0 132.5 54.5t46.5 154.5v60h133v-64q0 -145 -85.5 -234t-226.5 -89zM532 1020q176 0 283 -104.5t107 -301.5v-614h-148v129q-113 -152 -336 -152q-154 0 -251 76t-97 205q0 127 98.5 203 t260.5 76h315v86q0 123 -64.5 187t-177.5 64q-168 0 -291 -159l-104 86q137 219 405 219zM459 109q125 0 215 79.5t90 194.5v25h-297q-215 0 -215 -142q0 -76 59.5 -116.5t147.5 -40.5z" glyph-name="uni04D1" horiz-adv-x="1081" unicode="ӑ"/><glyph d="M1096 143h503v-143h-643l-47 274h-565l-145 -274h-172l704 1352h844v-144h-660l70 -413h426v-144h-401zM772 1108l-352 -690h465z" glyph-name="uni04D4" horiz-adv-x="1681" unicode="Ӕ"/><glyph d="M1714 432h-782q20 -141 120.5 -225t241.5 -84q168 0 301 133l95 -104q-158 -174 -398 -175q-139 0 -253.5 66t-182.5 176q-53 -115 -163.5 -178.5t-250.5 -63.5q-158 0 -255 79t-97 210q0 133 98.5 214t260.5 81h315v62q0 123 -65.5 187t-174.5 64q-166 0 -288 -159 l-105 86q137 219 404 219q252 0 342 -209q145 209 401 209q193 0 322 -127t129 -326q-1 -82 -15 -135zM932 561h633q8 145 -78 230.5t-217 85.5q-133 0 -226.5 -87.5t-111.5 -228.5zM461 111q123 0 213 77.5t90 192.5v51h-297q-215 0 -215 -149q0 -82 59.5 -127t149.5 -45z " glyph-name="uni04D5" horiz-adv-x="1832" unicode="ӕ"/><glyph d="M580 1487q-139 0 -224.5 89t-85.5 236v52h133v-54q0 -96 46.5 -150t130.5 -54t131 53t47 151v54h133v-52q0 -147 -85 -236t-226 -89zM186 0v1352h867v-144h-707v-413h541v-144h-541v-508h731v-143h-891z" glyph-name="uni04D6" horiz-adv-x="1159" unicode="Ӗ"/><glyph d="M584 1174q-139 0 -224.5 89t-85.5 234v64h134v-60q0 -100 46 -154.5t130 -54.5q86 0 132 54.5t46 154.5v60h133v-64q0 -145 -85 -234t-226 -89zM1067 569q0 -57 -12 -118h-789q14 -147 116.5 -237.5t250.5 -90.5q170 0 305 135l92 -106q-164 -174 -399 -175 q-225 0 -377 149.5t-152 371.5q0 219 147.5 370.5t362.5 151.5q195 0 325 -127t130 -324zM608 877q-125 0 -217 -79t-119 -208h633q-2 133 -87 210t-210 77z" glyph-name="uni04D7" horiz-adv-x="1169" unicode="ӗ"/><glyph d="M739 1374q287 0 473.5 -200.5t186.5 -493.5q0 -297 -191.5 -500t-476.5 -203q-264 0 -448.5 167t-184.5 434q0 59 13 145h1120q-12 223 -148.5 363.5t-345.5 140.5q-295 0 -461 -228l-110 93q96 133 243.5 207.5t329.5 74.5zM737 125q195 0 327 126t163 329h-969 q-6 -207 135 -331t344 -124z" glyph-name="uni04D8" horiz-adv-x="1497" unicode="Ә"/><glyph d="M553 1020q223 0 368.5 -149.5t145.5 -370.5t-140.5 -372t-355.5 -151q-199 0 -334 127t-135 324q0 57 13 119h788q-14 150 -109.5 238.5t-242.5 88.5q-184 0 -320 -135l-92 107q164 174 414 174zM575 119q127 0 213 78.5t109 210.5h-631q4 -133 92 -211t217 -78z" glyph-name="afii10846" horiz-adv-x="1169" unicode="ә"/><glyph d="M1038 1706v-129h-604v129h604zM1227 1374h57v-1374h-160v1049l-880 -1072h-58v1375h160v-1049z" glyph-name="uni04E2" horiz-adv-x="1470" unicode="Ӣ"/><glyph d="M893 1442v-127h-563v127h563zM940 1020h57v-1020h-157v705l-609 -728h-57v1020h158v-706z" glyph-name="uni04E3" horiz-adv-x="1169" unicode="ӣ"/><glyph d="M561 1550q-45 0 -78.5 32t-33.5 77t33.5 76.5t78.5 31.5q47 0 80 -31.5t33 -76.5t-33 -77t-80 -32zM1038 1548q-45 0 -78.5 32t-33.5 77t33.5 77.5t78.5 32.5q47 0 80 -32.5t33 -77.5t-33 -77t-80 -32zM799 -23q-295 0 -498 202t-203 497t204 496.5t497 201.5 t497.5 -201.5t204.5 -496.5t-204.5 -497t-497.5 -202zM801 125q229 0 381.5 157.5t152.5 395.5q0 233 -152.5 391t-381.5 158q-231 0 -384 -157t-153 -392q0 -238 153 -395.5t384 -157.5z" glyph-name="uni04E6" horiz-adv-x="1599" unicode="Ӧ"/><glyph d="M406 1270q-43 0 -78 32.5t-35 75.5q0 45 34.5 78t78.5 33q47 0 80.5 -33t33.5 -78t-33.5 -76.5t-80.5 -31.5zM842 1270q-45 0 -80 32.5t-35 75.5q0 45 35 78t80 33q47 0 79.5 -33t32.5 -78t-32.5 -76.5t-79.5 -31.5zM623 -20q-217 0 -369 151.5t-152 368.5 q0 219 152 369.5t371 150.5t370.5 -151.5t151.5 -368.5t-152.5 -368.5t-371.5 -151.5zM622.5 125q153.5 0 258 107.5t104.5 265.5q0 162 -103.5 269t-256.5 107q-156 0 -258.5 -107.5t-102.5 -268.5q0 -160 102.5 -266.5t256 -106.5z" glyph-name="uni04E7" horiz-adv-x="1249" unicode="ӧ"/><glyph d="M799 1374q293 0 497.5 -201.5t204.5 -496.5t-204.5 -497t-497.5 -202q-295 0 -498 202t-203 497t204 496.5t497 201.5zM801 1227q-209 0 -355.5 -130t-175.5 -335h1059q-29 203 -175 334t-353 131zM801 125q213 0 362.5 139t169.5 354h-1067q20 -215 170 -354t365 -139z " glyph-name="uni04E8" horiz-adv-x="1599" unicode="Ө"/><glyph d="M625 1020q217 0 369.5 -150.5t152.5 -369.5q0 -217 -152.5 -368.5t-371.5 -151.5q-217 0 -369 150.5t-152 369.5t152 369.5t371 150.5zM625 874q-133 0 -229.5 -81.5t-123.5 -210.5h705q-27 129 -124 210.5t-228 81.5zM622.5 125q139.5 0 240 90t118.5 227h-713 q16 -137 115.5 -227t239 -90z" glyph-name="uni04E9" horiz-adv-x="1249" unicode="ө"/><glyph d="M1012 1706v-129h-604v129h604zM1126 1352h162l-485 -1035q-86 -182 -168 -259.5t-217 -77.5q-55 0 -111 20v139q55 -12 107 -12q68 0 116 33t91 116l-539 1076h180l447 -891z" glyph-name="uni04EE" horiz-adv-x="1349" unicode="Ӯ"/><glyph d="M836 1442v-127h-564v127h564zM883 997h168l-492 -1136q-111 -252 -338 -252q-76 0 -153 20v133q78 -10 120 -10q78 0 132.5 35t93.5 125l53 119l-414 966h170l330 -794z" glyph-name="uni04EF" horiz-adv-x="1103" unicode="ӯ"/><glyph d="M750 1835l-234 -352h-113l177 381h170v-29zM1198 1835l-233 -352h-113l176 381h170v-29zM1126 1352h162l-485 -1035q-86 -182 -168 -259.5t-217 -77.5q-55 0 -111 20v139q55 -12 107 -12q68 0 116 33t91 116l-539 1076h180l447 -891z" glyph-name="uni04F2" horiz-adv-x="1349" unicode="Ӳ"/><glyph d="M627 1569l-234 -410h-112l176 438h170v-28zM1034 1569l-233 -410h-113l176 438h170v-28zM883 997h168l-492 -1136q-111 -252 -338 -252q-76 0 -153 20v133q78 -10 120 -10q78 0 132.5 35t93.5 125l53 119l-414 966h170l330 -794z" glyph-name="uni04F3" horiz-adv-x="1103" unicode="ӳ"/><glyph d="M1155 1483h-121l-246 352v29h193zM1915 1352h174l-512 -1375h-57l-428 1074l-428 -1074h-58l-514 1375h176l373 -1030l422 1052h57l422 -1050z" glyph-name="Wgrave" horiz-adv-x="2183" unicode="Ẁ"/><glyph d="M926 1159h-121l-246 410v28h193zM1520 997h168l-420 -1020h-58l-340 754l-338 -754h-55l-424 1020h168l289 -739l332 762h59l336 -756z" glyph-name="wgrave" horiz-adv-x="1742" unicode="ẁ"/><glyph d="M1399 1835l-246 -352h-121l174 381h193v-29zM1915 1352h174l-512 -1375h-57l-428 1074l-428 -1074h-58l-514 1375h176l373 -1030l422 1052h57l422 -1050z" glyph-name="Wacute" horiz-adv-x="2183" unicode="Ẃ"/><glyph d="M1178 1569l-246 -410h-121l174 438h193v-28zM1520 997h168l-420 -1020h-58l-340 754l-338 -754h-55l-424 1020h168l289 -739l332 762h59l336 -756z" glyph-name="wacute" horiz-adv-x="1742" unicode="ẃ"/><glyph d="M852 1550q-45 0 -79 32t-34 77t34 76.5t79 31.5q47 0 80 -31.5t33 -76.5t-33 -77t-80 -32zM1329 1548q-45 0 -78.5 32t-33.5 77t33.5 77.5t78.5 32.5q47 0 80 -32.5t33 -77.5t-33 -77t-80 -32zM1915 1352h174l-512 -1375h-57l-428 1074l-428 -1074h-58l-514 1375h176 l373 -1030l422 1052h57l422 -1050z" glyph-name="Wdieresis" horiz-adv-x="2183" unicode="Ẅ"/><glyph d="M647 1270q-43 0 -77.5 32.5t-34.5 75.5q0 45 34.5 78t77.5 33q47 0 81 -33t34 -78t-34 -76.5t-81 -31.5zM1083 1270q-45 0 -79.5 32.5t-34.5 75.5q0 45 34.5 78t79.5 33q47 0 80 -33t33 -78t-33 -76.5t-80 -31.5zM1520 997h168l-420 -1020h-58l-340 754l-338 -754h-55 l-424 1020h168l289 -739l332 762h59l336 -756z" glyph-name="wdieresis" horiz-adv-x="1742" unicode="ẅ"/><glyph d="M963 842q164 -20 276.5 -138t112.5 -294q0 -188 -129 -310.5t-314 -122.5q-227 0 -381 175l97 114q123 -141 278 -141q123 0 203 81t80 206q0 135 -95.5 215t-248.5 80h-109v45l281 456h-668v-1208h-160v1352h1061v-47z" glyph-name="uni1E9E" horiz-adv-x="1454" unicode="ẞ"/><glyph d="M686 1483h-121l-246 352v29h193zM1180 1352l-469 -793v-559h-160v559l-469 793h180l369 -635l370 635h179z" glyph-name="Ygrave" horiz-adv-x="1261" unicode="Ỳ"/><glyph d="M606 1159h-121l-245 410v28h192zM883 997h168l-492 -1136q-111 -252 -338 -252q-76 0 -153 20v133q78 -10 120 -10q78 0 132.5 35t93.5 125l53 119l-414 966h170l330 -794z" glyph-name="ygrave" horiz-adv-x="1103" unicode="ỳ"/><glyph glyph-name="uni2009" horiz-adv-x="286" unicode=" "/><glyph d="M88 578v133h858v-133h-858z" glyph-name="endash" horiz-adv-x="1036" unicode="–"/><glyph d="M102 578v133h1844v-133h-1844z" glyph-name="emdash" horiz-adv-x="2048" unicode="—"/><glyph d="M102 578v133h1844v-133h-1844z" glyph-name="afii00208" horiz-adv-x="2048" unicode="―"/><glyph d="M170 825l86 527h125l-27 -527h-184z" glyph-name="quoteleft" horiz-adv-x="573" unicode="‘"/><glyph d="M193 825l28 527h185l-89 -527h-124z" glyph-name="quoteright" horiz-adv-x="573" unicode="’"/><glyph d="M193 -342l28 526h185l-89 -526h-124z" glyph-name="quotesinglbase" horiz-adv-x="573" unicode="‚"/><glyph d="M170 825l86 527h125l-27 -527h-184zM545 825l88 527h123l-27 -527h-184z" glyph-name="quotedblleft" horiz-adv-x="948" unicode="“"/><glyph d="M193 825l28 527h185l-89 -527h-124zM569 825l27 527h184l-88 -527h-123z" glyph-name="quotedblright" horiz-adv-x="948" unicode="”"/><glyph d="M193 -342l28 526h185l-89 -526h-124zM569 -342l27 526h184l-88 -526h-123z" glyph-name="quotedblbase" horiz-adv-x="948" unicode="„"/><glyph d="M383 666v458h-254v140h254v272h156v-272h256v-140h-256v-458h-156z" glyph-name="dagger" horiz-adv-x="923" unicode="†"/><glyph d="M383 555v213h-254v141h254v277h-254v139h254v211h156v-211h256v-139h-256v-277h256v-141h-256v-213h-156z" glyph-name="daggerdbl" horiz-adv-x="923" unicode="‡"/><glyph d="M387.5 283q-108.5 0 -189.5 74.5t-81 189.5t81 190.5t189.5 75.5t188 -75.5t79.5 -190.5t-79.5 -189.5t-188 -74.5z" glyph-name="bullet" horiz-adv-x="772" unicode="•"/><glyph d="M286.5 -23q-53.5 0 -91 37t-37.5 92.5t37.5 92.5t91 37t91.5 -37t38 -92.5t-38 -92.5t-91.5 -37zM799 -23q-55 0 -92 37t-37 92.5t36.5 92.5t92.5 37q53 0 91 -37t38 -92.5t-38 -92.5t-91 -37zM1309 -23q-53 0 -91 37t-38 92.5t37.5 92.5t91.5 37q55 0 92 -37t37 -92.5 t-37 -92.5t-92 -37z" glyph-name="ellipsis" horiz-adv-x="1595" unicode="…"/><glyph d="M471 715q-141 0 -238.5 95t-97.5 234.5t97.5 234.5t238.5 95q139 0 236.5 -95t97.5 -234.5t-97.5 -234.5t-236.5 -95zM406 0l774 1352h141l-774 -1352h-141zM471 831q88 0 145.5 61.5t57.5 152t-57.5 151.5t-145.5 61t-145.5 -60t-57.5 -152.5t57.5 -153t145.5 -60.5z M2005 -18q-139 0 -235.5 95t-96.5 234.5t96.5 234.5t235.5 95q141 0 238.5 -95t97.5 -234.5t-97.5 -234.5t-238.5 -95zM1253.5 -20q-139.5 0 -235.5 95t-96 234.5t96 234.5t235.5 95t237.5 -95t98 -234.5t-98 -234.5t-237.5 -95zM2007 100q88 0 145.5 60.5t57.5 150.5 q0 92 -57.5 152.5t-145.5 60.5t-145.5 -60.5t-57.5 -152.5q0 -90 57.5 -150.5t145.5 -60.5zM1255 98q86 0 143.5 60.5t57.5 150.5q0 92 -57.5 152.5t-143.5 60.5q-88 0 -145 -60.5t-57 -152.5q0 -90 57 -150.5t145 -60.5z" glyph-name="perthousand" horiz-adv-x="2476" unicode="‰"/><glyph d="M139 795l84 557h189l-146 -557h-127z" glyph-name="minute" horiz-adv-x="507" unicode="′"/><glyph d="M139 795l84 557h189l-146 -557h-127zM514 795l84 557h188l-145 -557h-127z" glyph-name="second" horiz-adv-x="882" unicode="″"/><glyph d="M442 145l-364 385v48l364 387l103 -93l-289 -317l289 -322z" glyph-name="guilsinglleft" horiz-adv-x="626" unicode="‹"/><glyph d="M184 145l-104 88l291 322l-291 317l104 93l363 -387v-48z" glyph-name="guilsinglright" horiz-adv-x="626" unicode="›"/><glyph d="M-215 0l774 1352h141l-774 -1352h-141z" glyph-name="fraction" horiz-adv-x="487" unicode="⁄"/><glyph d="M420 731q-158 0 -239 126t-81 323q0 195 81 313.5t239 118.5q160 0 238.5 -119t78.5 -313q0 -199 -78.5 -324t-238.5 -125zM420 854q182 0 182 324q0 309 -182 309q-180 0 -180 -309q0 -150 44 -237t136 -87z" glyph-name="uni2070" horiz-adv-x="839" unicode="⁰"/><glyph d="M696 1008v-113h-114v-150h-125v150h-424v37l266 665h137l-237 -589h258v266h125v-266h114z" glyph-name="uni2074" horiz-adv-x="729" unicode="⁴"/><glyph d="M373 1286q127 0 212 -68.5t85 -193.5q0 -131 -91.5 -212t-222.5 -81q-102 0 -179 51.5t-118 132.5l95 68q74 -127 200 -127q78 0 127 44t49 118q0 152 -196 151h-193v428h486v-122h-355v-199q58 10 101 10z" glyph-name="uni2075" horiz-adv-x="751" unicode="⁵"/><glyph d="M399 1309q109 0 193 -83t84 -202q0 -125 -88 -209t-213 -84q-123 0 -210 84t-87 213q0 49 18.5 100.5t37 80t59.5 87.5l210 301h160l-203 -292q25 4 39 4zM375 856q72 0 118 47t46 121q0 72 -47.5 122t-117 50t-115.5 -50t-46 -122q0 -74 46 -121t116 -47z" glyph-name="uni2076" horiz-adv-x="753" unicode="⁶"/><glyph d="M53 1597h576v-38l-406 -814h-147l370 730h-393v122z" glyph-name="uni2077" horiz-adv-x="667" unicode="⁷"/><glyph d="M514 1188q182 -70 182 -221q0 -106 -85 -171t-222 -65q-135 0 -219 64.5t-84 173.5q0 150 182 219q-143 74 -143 207q0 100 74.5 158.5t189.5 58.5q117 0 192.5 -58.5t75.5 -160.5q0 -131 -143 -205zM389 1503q-59 0 -99 -31.5t-40 -85.5q0 -49 34.5 -79.5t106.5 -61.5 q72 31 106.5 62.5t34.5 78.5q0 53 -40 85t-103 32zM389 842q82 0 128 35.5t46 95t-44 94.5t-130 66q-84 -31 -127 -66t-43 -94.5t45 -95t125 -35.5z" glyph-name="uni2078" horiz-adv-x="782" unicode="⁸"/><glyph d="M379 1612q123 0 210 -84t87 -213q0 -51 -19.5 -102.5t-37 -79t-60.5 -86.5l-211 -302h-158l205 293q-29 -4 -41 -4q-109 0 -192.5 83t-83.5 202q0 125 88 209t213 84zM379 1147q70 0 116 50t46 122q0 74 -46 121t-116 47q-72 0 -118 -47t-46 -121q0 -72 47 -122t117 -50z " glyph-name="uni2079" horiz-adv-x="753" unicode="⁹"/><glyph d="M373 819v295h-287v117h287v295h129v-295h286v-117h-286v-295h-129z" glyph-name="uni207A" horiz-adv-x="874" unicode="⁺"/><glyph d="M86 1120v107h702v-107h-702z" glyph-name="uni207B" horiz-adv-x="874" unicode="⁻"/><glyph d="M100 1276v117h674v-117h-674zM100 952v117h674v-117h-674z" glyph-name="uni207C" horiz-adv-x="874" unicode="⁼"/><glyph d="M426 498q-139 92 -223 246.5t-84 426.5q0 285 87 448t220 226l51 -82q-240 -154 -239 -592q0 -440 239 -589z" glyph-name="uni207D" horiz-adv-x="522" unicode="⁽"/><glyph d="M94 498l-51 84q240 150 240 589q0 438 -240 592l51 82q133 -63 220 -226t87 -448q0 -283 -87 -446.5t-220 -226.5z" glyph-name="uni207E" horiz-adv-x="522" unicode="⁾"/><glyph d="M420 -260q-158 0 -239 126t-81 322q0 195 81 314t239 119q160 0 238.5 -119t78.5 -314q0 -199 -78.5 -323.5t-238.5 -124.5zM420 -137q182 0 182 323q0 309 -182 310q-180 0 -180 -310q0 -323 180 -323z" glyph-name="uni2080" horiz-adv-x="839" unicode="₀"/><glyph d="M96 -246v123h215v606h-205v123h343v-729h184v-123h-537z" glyph-name="uni2081" horiz-adv-x="722" unicode="₁"/><glyph d="M317 -123h357v-123h-602v31l303 326q66 70 98.5 122t32.5 113q0 63 -39 106.5t-102 43.5q-66 0 -106 -43t-40 -113q0 -16 4 -66h-133q-8 33 -8 74q0 109 78 191t205 82q121 0 199.5 -75t78.5 -190q0 -86 -45 -157.5t-137 -169.5z" glyph-name="uni2082" horiz-adv-x="755" unicode="₂"/><glyph d="M420 291q90 -18 156.5 -85t66.5 -177q0 -129 -89 -209t-218 -80q-201 0 -297 184l94 68q78 -127 199 -127q76 0 124 45t48 119q0 72 -50.5 110.5t-144.5 38.5h-84v37l199 268h-326v123h527v-39z" glyph-name="uni2083" horiz-adv-x="724" unicode="₃"/><glyph d="M696 16v-112h-114v-150h-125v150h-424v37l266 665h137l-237 -590h258v267h125v-267h114z" glyph-name="uni2084" horiz-adv-x="729" unicode="₄"/><glyph d="M373 295q127 0 212 -68.5t85 -193.5q0 -131 -91.5 -212t-222.5 -81q-102 0 -179 51t-118 133l95 68q74 -127 200 -127q78 0 127 44t49 118q0 152 -196 151h-193v428h486v-123h-355v-198q58 10 101 10z" glyph-name="uni2085" horiz-adv-x="751" unicode="₅"/><glyph d="M399 317q109 0 193 -82.5t84 -201.5q0 -125 -88 -209t-213 -84q-123 0 -210 84t-87 213q0 49 18.5 100t37 80t59.5 88l210 301h160l-203 -293q25 4 39 4zM375 -135q72 0 118 47t46 121q0 72 -47.5 122t-117 50t-115.5 -50.5t-46 -121.5q0 -74 46 -121t116 -47z" glyph-name="uni2086" horiz-adv-x="753" unicode="₆"/><glyph d="M53 606h576v-39l-406 -813h-147l370 729h-393v123z" glyph-name="uni2087" horiz-adv-x="667" unicode="₇"/><glyph d="M514 197q182 -70 182 -222q0 -106 -85 -170.5t-222 -64.5q-135 0 -219 64.5t-84 172.5q0 150 182 220q-143 74 -143 206q0 100 74.5 159t189.5 59q117 0 192.5 -58.5t75.5 -161.5q0 -130 -143 -204zM389 512q-59 0 -99 -31.5t-40 -85.5q0 -49 34.5 -79.5t106.5 -61.5 q72 31 106.5 62.5t34.5 78.5q0 53 -40 85t-103 32zM389 -150q82 0 128 36t46 95.5t-44 94.5t-130 63q-84 -29 -127 -63.5t-43 -94t45 -95.5t125 -36z" glyph-name="uni2088" horiz-adv-x="782" unicode="₈"/><glyph d="M379 621q123 0 210 -84t87 -213q0 -51 -19.5 -103.5t-37 -78t-60.5 -87.5l-211 -301h-158l205 293q-29 -4 -41 -4q-109 0 -192.5 83t-83.5 202q0 125 88 209t213 84zM379 156q70 0 116 50t46 122q0 74 -46 121t-116 47q-72 0 -118 -47.5t-46 -120.5q0 -72 47 -122 t117 -50z" glyph-name="uni2089" horiz-adv-x="753" unicode="₉"/><glyph d="M373 -174v295h-287v117h287v294h129v-294h286v-117h-286v-295h-129z" glyph-name="uni208A" horiz-adv-x="874" unicode="₊"/><glyph d="M86 127v106h702v-106h-702z" glyph-name="uni208B" horiz-adv-x="874" unicode="₋"/><glyph d="M100 283v116h674v-116h-674zM100 -41v117h674v-117h-674z" glyph-name="uni208C" horiz-adv-x="874" unicode="₌"/><glyph d="M426 -496q-139 92 -223 247t-84 427q0 285 87 447.5t220 226.5l51 -82q-240 -154 -239 -592q0 -440 239 -590z" glyph-name="uni208D" horiz-adv-x="522" unicode="₍"/><glyph d="M94 -496l-51 84q240 150 240 590q0 438 -240 592l51 82q133 -63 220 -226t87 -448q0 -283 -87 -447t-220 -227z" glyph-name="uni208E" horiz-adv-x="522" unicode="₎"/><glyph d="M541 354q-23 -129 -115 -215h565v-139h-874v41q223 141 264 313h-244v140h246q-14 82 -61 170h-185v139h113q-51 113 -51 213q0 160 110.5 259t280.5 99q156 0 264.5 -87t153.5 -247l-142 -53q-76 240 -268 240q-111 0 -173.5 -67.5t-62.5 -168.5q0 -86 54 -188h393v-139 h-320q45 -94 56 -170h264v-140h-268z" glyph-name="lira" horiz-adv-x="1083" unicode="₤"/><glyph d="M1210 1001v-139h-170q-23 -154 -145.5 -249t-308.5 -95h-209v-518h-160v862h-168v139h168v351h369q188 0 311 -96.5t145 -254.5h168zM584 1208h-207v-209h497q-18 100 -92.5 154.5t-197.5 54.5zM584 662q121 0 195.5 53t94.5 149h-497v-202h207z" glyph-name="peseta" horiz-adv-x="1208" unicode="₧"/><glyph d="M840 125q217 0 340 166l114 -92q-72 -104 -191.5 -163t-268.5 -59q-223 0 -382 127t-221 340h-221v140h195q-4 61 -4 92t4 84h-191v139h215q57 215 218 345t387 130q150 0 269.5 -58.5t190.5 -162.5l-114 -92q-123 166 -340 166q-162 0 -275.5 -88t-165.5 -240h598 l-32 -139h-594q-4 -53 -4 -84q0 -45 6 -92h538l-34 -140h-474q51 -147 164 -233t273 -86z" glyph-name="Euro" horiz-adv-x="1394" unicode="€"/><glyph d="M1151 1208h-477v-377l375 142v-150l-375 -141v-180l375 139v-149l-375 -142v-350h-160v301l-371 -141v151l371 140v182l-371 -139v149l371 139v426h-475v144h1112v-144z" glyph-name="uni20AE" horiz-adv-x="1189" unicode="₮"/><glyph d="M907 887h160v-131h-1018v131h678q57 57 57 139q0 90 -64.5 145.5t-170.5 55.5q-176 0 -293 -166l-113 84q61 109 169 169t241 60q174 0 284.5 -96t110.5 -248q0 -82 -41 -143zM45 455v131h1022v-131h-731q-29 -43 -29 -107q0 -100 69.5 -161.5t186.5 -61.5q229 0 375 225 l117 -82q-74 -135 -206 -213t-288 -78q-184 0 -302 104.5t-118 266.5q0 53 17 107h-113z" glyph-name="uni20B4" horiz-adv-x="1110" unicode="₴"/><glyph d="M39 1208v144h1112v-144h-1112zM514 0v889h-475v143h1112v-143h-477v-889h-160z" glyph-name="uni20B8" horiz-adv-x="1189" unicode="₸"/><glyph d="M899 1352v-140h-244q66 -66 84 -165h160v-140h-156q-16 -156 -129.5 -247t-298.5 -93l584 -567h-201l-585 567v140h186q121 0 191.5 52t87.5 148h-469v140h460q-45 166 -270 165h-186v140h786z" glyph-name="uni20B9" horiz-adv-x="1050" unicode="₹"/><glyph d="M971 594q18 -63 18 -133q0 -223 -178 -353.5t-483 -130.5h-78v512l-199 -92v150l199 92v180l-199 -90v152l199 90v381h160v-322l385 176v-149l-385 -176v-181l385 177v-150l-385 -176v-424q195 14 315.5 109.5t120.5 236.5q0 53 -10 121h135z" glyph-name="uni20BA" horiz-adv-x="1060" unicode="₺"/><glyph d="M217 0v274h-168v140h168v190h-168v139h168v609h455q188 0 299.5 -103.5t111.5 -271.5q0 -166 -112.5 -269.5t-298.5 -103.5h-295v-190h543v-140h-543v-274h-160zM377 743h291q123 0 191.5 63.5t68.5 168.5q0 106 -68.5 171.5t-191.5 65.5h-291v-469z" glyph-name="uni20BD" horiz-adv-x="1179" unicode="₽"/><glyph d="M1081 416q0 -129 -74.5 -220.5t-201.5 -119.5v-269h-148v256h-172v-256h-145v256h-154v1227h154v246h145v-246h162h10v246h148v-272q90 -35 141 -111t51 -176q0 -162 -131 -248q215 -82 215 -313zM633 1153h-297v-373h297q100 0 155.5 49.5t55.5 141.5q0 182 -211 182z M676 199q119 0 183.5 57t64.5 164q0 109 -64.5 167t-183.5 58h-340v-446h340z" glyph-name="uni20BF" horiz-adv-x="1189" unicode="₿"/><glyph d="M369 354q0 -233 215 -233q53 0 180 20v-133q-102 -31 -205 -31q-166 0 -256 93.5t-90 271.5v31q-37 -29 -111 -90l-84 118q102 82 195 164v602q0 203 83 297.5t224 94.5q129 0 203 -75t74 -229q0 -362 -428 -763v-138zM526 1423q-158 0 -157 -247v-484q287 293 286 553 q0 178 -129 178z" glyph-name="afii61289" horiz-adv-x="864" unicode="ℓ"/><glyph d="M1104 336v1016h160v-1375h-58l-860 1037v-1014h-160v1374h58zM1868 485q-139 0 -236.5 95.5t-97.5 234.5t97.5 234.5t236.5 95.5t237.5 -95.5t98.5 -234.5t-98.5 -234.5t-237.5 -95.5zM1868 1028q-88 0 -145.5 -60.5t-57.5 -152.5q0 -90 57.5 -150.5t145.5 -60.5 t146.5 60.5t58.5 150.5q0 92 -58.5 152.5t-146.5 60.5zM1542 215v115h651v-115h-651z" glyph-name="afii61352" horiz-adv-x="2306" unicode="№"/><glyph d="M798.5 -23q-288.5 0 -494.5 202t-206 497t206 496.5t494.5 201.5t495.5 -201.5t207 -496.5t-207 -497t-495.5 -202zM799 90q240 0 409.5 167t169.5 419t-169 419t-410.5 167t-409.5 -166t-168 -420t168 -420t410 -166zM553 307v723h313q121 0 195 -66.5t74 -173t-75 -172 t-194 -65.5h-178v-246h-135zM690 668h176q63 0 98 34.5t35 88.5q0 55 -34.5 88.5t-98.5 33.5h-176v-245z" glyph-name="uni2117" horiz-adv-x="1599" unicode="℗"/><glyph d="M948 432v934h49l385 -520l387 520h46v-934h-138v602l-272 -366h-47l-271 366v-602h-139zM342 432v795h-315v125h766v-125h-316v-795h-135z" glyph-name="trademark" horiz-adv-x="1945" unicode="™"/><glyph d="M1511 702q0 -332 -331 -559h311v-143h-551v143q406 190 406 553q0 229 -153 380t-384 151t-383 -149.5t-152 -379.5q0 -362 406 -555v-143h-551v143h307q-328 219 -327 559q0 287 201.5 479.5t498.5 192.5t499.5 -193.5t202.5 -478.5z" glyph-name="uni2126" horiz-adv-x="1619" unicode="Ω"/><glyph d="M1497 670h-1114v-414q156 -213 451 -213q160 0 297 66.5t227 177.5l49 -43q-100 -123 -249.5 -193.5t-323.5 -70.5q-305 0 -508 199.5t-203 488.5q0 295 208 499.5t494 204.5q166 0 320.5 -71.5t257 -210t102.5 -310.5q0 -61 -8 -110zM834 1307q-291 0 -451 -213v-361 h862v391q-153 183 -411 183z" glyph-name="estimated" horiz-adv-x="1628" unicode="℮"/><glyph d="M633 623v-123h-537v123h215v606h-205v123h343v-729h184zM1282 1352h141l-774 -1352h-139zM1262 852h575v-39l-405 -813h-148l371 729h-393v123z" glyph-name="uni2150" horiz-adv-x="1875" unicode="⅐"/><glyph d="M633 623v-123h-537v123h215v606h-205v123h343v-729h184zM1282 1352h141l-774 -1352h-139zM1526 866q123 0 210 -84t87 -213q0 -51 -19.5 -102t-37 -79t-60.5 -87l-211 -301h-158l205 293q-29 -4 -41 -4q-109 0 -192.5 83t-83.5 201q0 125 88 209t213 84zM1525.5 401 q69.5 0 116 50.5t46.5 121.5q0 74 -46.5 121t-115.5 47q-72 0 -118 -47t-46 -121q0 -72 47 -122t116.5 -50z" glyph-name="uni2151" horiz-adv-x="1900" unicode="⅑"/><glyph d="M96 500v123h215v606h-205v123h343v-729h184v-123h-537zM510 0l772 1352h141l-774 -1352h-139zM2351 -14q-158 0 -238.5 126t-80.5 322q0 195 80.5 313.5t238.5 118.5q160 0 239 -118.5t79 -313.5q0 -199 -79 -323.5t-239 -124.5zM1305 0v123h215v606h-205v123h342v-729 h184v-123h-536zM2351 109q182 0 182 323q0 309 -182 309q-180 0 -180 -309q0 -150 44 -236.5t136 -86.5z" glyph-name="uni2152" horiz-adv-x="2770" unicode="⅒"/><glyph d="M633 623v-123h-537v123h215v606h-205v123h343v-729h184zM1282 1352h141l-774 -1352h-139zM1628 537q90 -18 156.5 -85t66.5 -178q0 -129 -89 -208.5t-218 -79.5q-201 0 -297 184l94 68q78 -127 199 -127q76 0 124 45t48 118q0 72 -50 111t-144 39h-84v37l198 268h-325 v123h526v-39z" glyph-name="onethird" horiz-adv-x="1933" unicode="⅓"/><glyph d="M674 623v-123h-602v30l303 326q66 70 98.5 122t32.5 114q0 63 -39 106t-102 43q-66 0 -106 -43t-40 -113q0 -16 4 -65h-133q-8 33 -8 74q0 109 78 190.5t205 81.5q121 0 199.5 -74.5t78.5 -189.5q0 -86 -45 -158t-137 -168l-146 -153h359zM1315 1352h141l-774 -1352h-139 zM1661 537q90 -18 156.5 -85t66.5 -178q0 -129 -89 -208.5t-218 -79.5q-201 0 -297 184l94 68q78 -127 199 -127q76 0 124 45t48 118q0 72 -50 111t-145 39h-84v37l199 268h-326v123h527v-39z" glyph-name="twothirds" horiz-adv-x="1966" unicode="⅔"/><glyph d="M633 623v-123h-537v123h215v606h-205v123h343v-729h184zM1282 1352h141l-774 -1352h-139zM1565 541q127 0 212 -69t85 -193q0 -131 -91.5 -212t-222.5 -81q-102 0 -179 51t-118 133l95 68q74 -127 200 -127q78 0 127 44t49 117q0 152 -196 152h-193v428h486v-123h-355 v-199q58 11 101 11z" glyph-name="uni2155" horiz-adv-x="1943" unicode="⅕"/><glyph d="M674 623v-123h-602v30l303 326q66 70 98.5 122t32.5 114q0 63 -39 106t-102 43q-66 0 -106 -43t-40 -113q0 -16 4 -65h-133q-8 33 -8 74q0 109 78 190.5t205 81.5q121 0 199.5 -74.5t78.5 -189.5q0 -86 -45 -158t-137 -168l-146 -153h359zM1315 1352h141l-774 -1352h-139 zM1597 541q127 0 212 -69t85 -193q0 -131 -91 -212t-222 -81q-102 0 -179 51t-118 133l94 68q74 -127 201 -127q78 0 127 44t49 117q0 152 -196 152h-193v428h485v-123h-354v-199q57 11 100 11z" glyph-name="uni2156" horiz-adv-x="1976" unicode="⅖"/><glyph d="M643 774q0 -129 -89 -209t-218 -80q-201 0 -297 185l94 67q78 -127 199 -127q76 0 124 45t48 119q0 72 -50.5 111t-144.5 39h-84v37l199 268h-326v123h527v-39l-205 -277q90 -18 156.5 -84.5t66.5 -177.5zM1212 1352h142l-774 -1352h-140zM1495 541q127 0 212 -69 t85 -193q0 -131 -91 -212t-222 -81q-102 0 -179 51t-118 133l94 68q74 -127 201 -127q78 0 127 44t49 117q0 152 -197 152h-192v428h485v-123h-354v-199q57 11 100 11z" glyph-name="uni2157" horiz-adv-x="1873" unicode="⅗"/><glyph d="M582 500h-125v149h-424v37l266 666h137l-237 -590h258v266h125v-266h114v-113h-114v-149zM1309 1352h141l-774 -1352h-139zM1593 541q127 0 212 -69t85 -193q0 -131 -91 -212t-222 -81q-102 0 -179 51t-118 133l94 68q74 -127 201 -127q78 0 127 44t49 117 q0 152 -197 152h-192v428h485v-123h-354v-199q57 11 100 11z" glyph-name="uni2158" horiz-adv-x="1972" unicode="⅘"/><glyph d="M633 623v-123h-537v123h215v606h-205v123h343v-729h184zM1282 1352h141l-774 -1352h-139zM1444 563q109 0 192.5 -83t83.5 -201q0 -125 -88 -209t-213 -84q-123 0 -210 84t-87 213q0 49 18.5 100t37 80t59.5 88l211 301h160l-203 -293q25 4 39 4zM1419 111q72 0 118 47 t46 121q0 72 -47 122t-116.5 50t-116 -50.5t-46.5 -121.5q0 -74 46 -121t116 -47z" glyph-name="uni2159" horiz-adv-x="1798" unicode="⅙"/><glyph d="M670 778q0 -131 -91.5 -212t-222.5 -81q-102 0 -179 51.5t-118 133.5l95 67q74 -127 200 -127q78 0 127 44t49 118q0 152 -196 152h-193v428h486v-123h-355v-199q57 10 101 10q127 0 212 -68.5t85 -193.5zM1239 1352h141l-774 -1352h-139zM1401 563q109 0 192.5 -83 t83.5 -201q0 -125 -88 -209t-213 -84q-123 0 -210 84t-87 213q0 49 18.5 100t37 80t59.5 88l211 301h160l-203 -293q25 4 39 4zM1376 111q72 0 118 47t46 121q0 72 -47 122t-116.5 50t-116 -50.5t-46.5 -121.5q0 -74 46 -121t116 -47z" glyph-name="uni215A" horiz-adv-x="1755" unicode="⅚"/><glyph d="M633 623v-123h-537v123h215v606h-205v123h343v-729h184zM1282 1352h141l-774 -1352h-139zM1630 442q182 -70 182 -221q0 -106 -85 -170.5t-222 -64.5q-135 0 -219 64.5t-84 172.5q0 150 182 219q-143 74 -143 207q0 100 75 158.5t189 58.5q117 0 193 -58t76 -161 q-1 -131 -144 -205zM1505 758q-59 0 -99 -32t-40 -85q0 -49 35 -80t106 -61q72 31 107 62.5t35 78.5q0 53 -40.5 85t-103.5 32zM1505 96q82 0 128 36t46 95.5t-44 94t-130 65.5q-84 -31 -127 -65.5t-43 -94t45 -95.5t125 -36z" glyph-name="oneeighth" horiz-adv-x="1898" unicode="⅛"/><glyph d="M643 774q0 -129 -89 -209t-218 -80q-201 0 -297 185l94 67q78 -127 199 -127q76 0 124 45t48 119q0 72 -50.5 111t-144.5 39h-84v37l199 268h-326v123h527v-39l-205 -277q90 -18 156.5 -84.5t66.5 -177.5zM1212 1352h142l-774 -1352h-140zM1561 442q182 -70 182 -221 q0 -106 -85 -170.5t-222 -64.5q-135 0 -219 64.5t-84 172.5q0 150 182 219q-143 74 -144 207q0 100 75 158.5t190 58.5q117 0 192.5 -58t75.5 -161q0 -131 -143 -205zM1436 758q-59 0 -99.5 -32t-40.5 -85q0 -49 35 -80t107 -61q72 31 106.5 62.5t34.5 78.5q0 53 -40 85 t-103 32zM1436 96q82 0 128 36t46 95.5t-44 94t-130 65.5q-84 -31 -127 -65.5t-43 -94t45 -95.5t125 -36z" glyph-name="threeeighths" horiz-adv-x="1828" unicode="⅜"/><glyph d="M670 778q0 -131 -91.5 -212t-222.5 -81q-102 0 -179 51.5t-118 133.5l95 67q74 -127 200 -127q78 0 127 44t49 118q0 152 -196 152h-193v428h486v-123h-355v-199q57 10 101 10q127 0 212 -68.5t85 -193.5zM1239 1352h141l-774 -1352h-139zM1587 442q182 -70 182 -221 q0 -106 -85 -170.5t-222 -64.5q-135 0 -219 64.5t-84 172.5q0 150 182 219q-143 74 -143 207q0 100 75 158.5t189 58.5q117 0 193 -58t76 -161q-1 -131 -144 -205zM1462 758q-59 0 -99 -32t-40 -85q0 -49 35 -80t106 -61q72 31 107 62.5t35 78.5q0 53 -40.5 85t-103.5 32z M1462 96q82 0 128 36t46 95.5t-44 94t-130 65.5q-84 -31 -127 -65.5t-43 -94t45 -95.5t125 -36z" glyph-name="fiveeighths" horiz-adv-x="1855" unicode="⅝"/><glyph d="M629 1352v-39l-406 -813h-147l370 729h-393v123h576zM1026 1352h141l-774 -1352h-139zM1374 442q182 -70 182 -221q0 -106 -85 -170.5t-222 -64.5q-135 0 -219 64.5t-84 172.5q0 150 182 219q-143 74 -143 207q0 100 75 158.5t189 58.5q117 0 193 -58t76 -161 q-1 -131 -144 -205zM1249 758q-59 0 -99 -32t-40 -85q0 -49 35 -80t106 -61q72 31 107 62.5t35 78.5q0 53 -40.5 85t-103.5 32zM1249 96q82 0 128 36t46 95.5t-44 94t-130 65.5q-84 -31 -127 -65.5t-43 -94t45 -95.5t125 -36z" glyph-name="seveneighths" horiz-adv-x="1642" unicode="⅞"/><glyph d="M1223 575h-848l397 -397l-94 -94l-543 543v37l543 540l94 -92l-397 -397h848v-140z" glyph-name="arrowleft" horiz-adv-x="1331" unicode="←"/><glyph d="M1225 649l-95 -94l-391 387v-850h-145v852l-393 -389l-95 94l541 539h37z" glyph-name="arrowup" horiz-adv-x="1331" unicode="↑"/><glyph d="M653 1204l543 -540v-37l-543 -543l-92 94l397 400l-849 -3v140h847l-395 397z" glyph-name="arrowright" horiz-adv-x="1331" unicode="→"/><glyph d="M1130 735l95 -94l-541 -541h-37l-541 541l95 94l393 -391v854h145v-852z" glyph-name="arrowdown" horiz-adv-x="1331" unicode="↓"/><glyph d="M1300 1204l543 -540v-37l-543 -543l-94 94l398 397h-1229l397 -397l-94 -94l-543 543v37l543 540l94 -92l-397 -397h1229l-398 397z" glyph-name="arrowboth" horiz-adv-x="1978" unicode="↔"/><glyph d="M739 115l371 370l94 -94l-520 -520h-37l-520 520l94 94l373 -372v1126l-373 -373l-94 95l520 520h37l520 -520l-94 -95l-371 371v-1122z" glyph-name="arrowupdn" horiz-adv-x="1331" unicode="↕"/><glyph d="M573 813l568 -567l-101 -99l-657 658v-574h-143v791l26 27h783v-138h-576z" glyph-name="uni2196" horiz-adv-x="1331" unicode="↖"/><glyph d="M1065 1049l27 -27v-791h-144v572l-92 -90l-565 -566l-101 99l568 567l100 98h-575v138h782z" glyph-name="uni2197" horiz-adv-x="1331" unicode="↗"/><glyph d="M948 1018h144v-789l-27 -26h-782v135h575l-668 668l101 98l565 -565l92 -90v569z" glyph-name="uni2198" horiz-adv-x="1331" unicode="↘"/><glyph d="M473 338h576v-135h-783l-26 26v789h143v-572l657 658l101 -98z" glyph-name="uni2199" horiz-adv-x="1331" unicode="↙"/><glyph d="M600 1374q219 0 349 -158.5t130 -463.5q0 -340 -155.5 -558.5t-409.5 -218.5q-176 0 -298 109t-122 299q0 195 134 316.5t370 121.5q147 0 320 -43q-12 453 -322 453q-172 0 -293 -158l-106 86q59 100 164.5 157.5t238.5 57.5zM524 115q160 0 264.5 144t124.5 386 q-172 39 -307 39q-178 0 -264 -85t-86 -210q0 -123 75.5 -198.5t192.5 -75.5z" glyph-name="partialdiff" horiz-adv-x="1216" unicode="∂"/><glyph d="M709 1374l567 -1327v-47h-1194v47l567 1327h60zM1065 143l-387 916l-385 -916h772z" glyph-name="uni2206" horiz-adv-x="1357" unicode="∆"/><glyph d="M186 -248v1600h1045v-1600h-160v1456h-725v-1456h-160z" glyph-name="product" horiz-adv-x="1417" unicode="∏"/><glyph d="M379 -104h715v-144h-961v43l483 776l-483 738v43h936v-144h-684l401 -612v-43z" glyph-name="summation" horiz-adv-x="1175" unicode="∑"/><glyph d="M115 575v140h915v-140h-915z" glyph-name="minus" unicode="−"/><glyph d="M286.5 514q-53.5 0 -91 36t-37.5 93q0 55 37.5 92t91 37t91.5 -37t38 -92q0 -57 -38 -93t-91.5 -36z" glyph-name="uni2219" horiz-adv-x="573" unicode="∙"/><glyph d="M1313 1536h174l-1051 -1808h-59v690h-322v141h475v-371z" glyph-name="radical" horiz-adv-x="1501" unicode="√"/><glyph d="M1251 987q162 0 264.5 -100.5t102.5 -245.5t-101.5 -244.5t-261.5 -99.5q-127 0 -223 62.5t-192 172.5q-98 -111 -193.5 -173t-220.5 -62q-158 0 -258 99.5t-100 244.5t100 245.5t262 100.5q125 0 221.5 -60.5t190.5 -168.5q92 109 188 169t221 60zM442 442 q82 0 152 51.5t151 151.5q-82 96 -150.5 146.5t-152.5 50.5q-94 0 -154.5 -54.5t-60.5 -144.5q0 -92 60.5 -146.5t154.5 -54.5zM1241 442q94 0 154.5 54.5t60.5 146.5q0 90 -61.5 144.5t-155.5 54.5q-82 0 -150.5 -49.5t-152.5 -145.5q86 -100 154.5 -152.5t150.5 -52.5z " glyph-name="infinity" horiz-adv-x="1683" unicode="∞"/><glyph d="M143 -262q-72 0 -133 14v131q82 -4 101 -4q215 0 215 250q0 115 -72 552t-72 564q0 182 93.5 274.5t252.5 92.5q72 0 134 -15v-131q-82 4 -101 4q-217 0 -215 -251q0 -92 69.5 -536.5t69.5 -578.5q0 -184 -92 -275t-250 -91z" glyph-name="integral" horiz-adv-x="669" unicode="∫"/><glyph d="M817 674q-78 0 -170 53l-192 119q-84 51 -125 51q-37 0 -58.5 -25.5t-21.5 -66.5v-57h-129q0 14 -1 40.5t-1 34.5q0 90 53 154.5t141 64.5q82 0 172 -57l193 -117q90 -51 127 -51t57.5 25.5t20.5 66.5v60h129q4 -57 4 -76q0 -94 -54.5 -156.5t-144.5 -62.5zM817 240 q-82 0 -170 53l-192 117q-88 53 -125 53t-58.5 -25.5t-21.5 -66.5v-58h-129q0 16 -1 41t-1 33q0 92 53 155.5t141 63.5q82 0 172 -55l193 -117q90 -51 127 -51t57.5 25.5t20.5 64.5v59h129q4 -57 4 -73q0 -94 -54.5 -156.5t-144.5 -62.5z" glyph-name="approxequal" unicode="≈"/><glyph d="M1012 786h-273l-180 -284h453v-140h-539l-143 -227h-148l144 227h-191v140h279l178 284h-457v142h547l137 219h146l-138 -219h185v-142z" glyph-name="notequal" unicode="≠"/><glyph d="M1004 1079v-149l-601 -225l601 -226v-149l-898 352v45zM127 0v139h877v-139h-877z" glyph-name="lessequal" unicode="≤"/><glyph d="M143 1079l899 -352v-45l-899 -352v149l600 226l-600 225v149zM143 0v139h877v-139h-877z" glyph-name="greaterequal" unicode="≥"/><glyph d="M999 -207q-365 0 -622.5 258t-257.5 624.5t258 625t622 258.5q367 0 625 -259.5t258 -624t-258 -623.5t-625 -259zM999.5 -80q315.5 0 535.5 219t220 536.5t-220 537t-535.5 219.5t-533.5 -218.5t-218 -538t218 -537.5t533.5 -218zM999 201q-172 0 -257 135t-85 346 t86 339t256 128q172 0 260.5 -128t88.5 -339t-88.5 -346t-260.5 -135zM999 324q209 0 209 358q0 344 -209 344q-205 0 -204 -344q-1 -358 204 -358z" glyph-name="uni24EA" horiz-adv-x="2002" unicode="⓪"/><glyph d="M999 -207q-365 0 -622.5 258t-257.5 624.5t258 625t622 258.5q367 0 625 -259.5t258 -624t-258 -623.5t-625 -259zM999.5 201q174.5 0 262.5 135t88 346t-88 339t-263 128q-172 0 -259 -128t-87 -339t86 -346t260.5 -135zM999 332q-197 0 -196 350q0 336 196 336 q201 0 201 -336q0 -350 -201 -350z" glyph-name="uni24FF" horiz-adv-x="2002" unicode="⓿"/><glyph d="M184 113v1126h1127v-1126h-1127z" glyph-name="filledbox" horiz-adv-x="1495" unicode="■"/><glyph d="M184 113v1126h1127v-1126h-1127zM344 258h807v836h-807v-836z" glyph-name="H22073" horiz-adv-x="1495" unicode="□"/><glyph d="M152 111v778h780v-778h-780z" glyph-name="H18543" horiz-adv-x="1085" unicode="▪"/><glyph d="M152 111v778h780v-778h-780zM303 250h477v500h-477v-500z" glyph-name="H18551" horiz-adv-x="1085" unicode="▫"/><glyph d="M57 113l-14 26l690 1213h31l688 -1213l-14 -26h-1381z" glyph-name="triagup" horiz-adv-x="1495" unicode="▲"/><glyph d="M764 1352l688 -1213l-14 -26h-1381l-14 26l690 1213h31zM1200 272l-452 795l-453 -795h905z" glyph-name="uni25B3" horiz-adv-x="1495" unicode="△"/><glyph d="M68 111l-15 26l475 832h31l473 -832l-14 -26h-950z" glyph-name="uni25B4" horiz-adv-x="1085" unicode="▴"/><glyph d="M559 969l473 -832l-14 -26h-950l-15 26l475 832h31zM805 244l-262 463l-262 -463h524z" glyph-name="uni25B5" horiz-adv-x="1085" unicode="▵"/><glyph d="M272 -23l-26 15v1368l26 14l1063 -684v-31z" glyph-name="uni25B6" horiz-adv-x="1495" unicode="▶"/><glyph d="M272 1374l1063 -684v-31l-1063 -682l-26 15v1368zM1073 674l-667 430v-856z" glyph-name="uni25B7" horiz-adv-x="1495" unicode="▷"/><glyph d="M252 18l-27 15v936l27 14l729 -467v-31z" glyph-name="uni25B8" horiz-adv-x="1085" unicode="▸"/><glyph d="M252 983l729 -467v-31l-729 -467l-27 15v936zM743 502l-372 235v-473z" glyph-name="uni25B9" horiz-adv-x="1085" unicode="▹"/><glyph d="M231 -23l-26 15v1368l26 14l1696 -684v-31z" glyph-name="triagrt" horiz-adv-x="1968" unicode="►"/><glyph d="M231 1374l1696 -684v-31l-1696 -682l-26 15v1368zM1554 676l-1189 479v-958z" glyph-name="uni25BB" horiz-adv-x="1968" unicode="▻"/><glyph d="M57 1239h1381l14 -27l-688 -1212h-31l-690 1212z" glyph-name="triagdn" horiz-adv-x="1495" unicode="▼"/><glyph d="M1438 1239l14 -27l-688 -1212h-31l-690 1212l14 27h1381zM1200 1079h-905l453 -794z" glyph-name="uni25BD" horiz-adv-x="1495" unicode="▽"/><glyph d="M528 31l-475 831l15 27h950l14 -27l-473 -831h-31z" glyph-name="uni25BE" horiz-adv-x="1085" unicode="▾"/><glyph d="M1018 889l14 -27l-473 -831h-31l-475 831l15 27h950zM805 754h-524l262 -463z" glyph-name="uni25BF" horiz-adv-x="1085" unicode="▿"/><glyph d="M1223 -23l-1063 682v31l1063 684l26 -14v-1368z" glyph-name="uni25C0" horiz-adv-x="1495" unicode="◀"/><glyph d="M1223 1374l26 -14v-1368l-26 -15l-1063 682v31zM1090 1104l-668 -430l668 -426v856z" glyph-name="uni25C1" horiz-adv-x="1495" unicode="◁"/><glyph d="M834 18l-730 467v31l730 467l26 -14v-936z" glyph-name="uni25C2" horiz-adv-x="1085" unicode="◂"/><glyph d="M834 983l26 -14v-936l-26 -15l-730 467v31zM715 737l-373 -235l373 -238v473z" glyph-name="uni25C3" horiz-adv-x="1085" unicode="◃"/><glyph d="M1737 -23l-1696 682v31l1696 684l26 -14v-1368z" glyph-name="triaglf" horiz-adv-x="1968" unicode="◄"/><glyph d="M1737 1374l26 -14v-1368l-26 -15l-1696 682v31zM1604 197v958l-1190 -479z" glyph-name="uni25C5" horiz-adv-x="1968" unicode="◅"/><glyph d="M711 1374l436 -698l-436 -699h-60l-436 701l436 696h60zM684 213l291 463l-293 467l-293 -465z" glyph-name="lozenge" horiz-adv-x="1361" unicode="◊"/><glyph d="M748 2q-281 0 -477.5 196.5t-196.5 475.5q0 281 197.5 478.5t476 197.5t475 -198t196.5 -478q0 -279 -196 -475.5t-475 -196.5zM748 150q217 0 366.5 152.5t149.5 371.5q0 221 -149.5 374.5t-366.5 153.5q-219 0 -369 -153.5t-150 -374.5t150 -372.5t369 -151.5z" glyph-name="circle" horiz-adv-x="1495" unicode="○"/><glyph d="M748 2q-281 0 -477.5 196.5t-196.5 475.5q0 281 197.5 478.5t476 197.5t475 -198t196.5 -478q0 -279 -196 -475.5t-475 -196.5z" glyph-name="H18533" horiz-adv-x="1495" unicode="●"/><glyph d="M2376 563v-55l-174 -150l96 -356l-51 -37l-457 295q-184 -98 -382 -158.5t-337 -60.5q-215 0 -215 141q0 45 31 80q-96 27 -96 119q0 57 51 94q-74 35 -74 109q0 43 31 73l-400 13q-174 4 -253.5 47t-79.5 139q0 102 87 138t298 36q188 0 378 -20q0 88 50.5 137t121.5 49 q80 0 158 -47l488 -295q80 -25 137 -45l463 295l51 -33l-96 -360zM1032 1073q-63 0 -65 -80q133 -16 301 -47l-172 105q-37 22 -64 22zM1063 158q113 0 318.5 60.5t367.5 154.5v323q-242 96 -618.5 157.5t-708.5 61.5q-131 0 -176 -12t-45 -49q0 -33 39 -48t143 -20l276 -12 q109 -6 265.5 -12t210.5 -8v-107l-199 4q-20 0 -34.5 -12t-14.5 -31q0 -20 12 -33.5t33 -13.5h225v-104h-203q-18 0 -30.5 -13.5t-12.5 -33.5q0 -45 43 -45h224v-107q-51 -6 -138 -6h-16q-49 0 -49 -45q0 -49 88 -49zM1874 723v-377l256 -160l-64 222l158 129l-158 125 l66 223z" glyph-name="uni261C" horiz-adv-x="2478" unicode="☜"/><glyph d="M2028 1030q211 0 298 -36t87 -138q0 -98 -81 -140t-253 -46l-398 -13q31 -31 31 -73q0 -74 -76 -109q51 -37 52 -94q0 -92 -97 -119q31 -35 31 -80q0 -141 -215 -141q-139 0 -337 60.5t-382 158.5l-457 -295l-51 37l96 356l-174 150v55l174 148l-96 360l51 33l463 -295 q57 20 137 45l488 295q78 47 158 47q72 0 122 -49t50 -137q191 20 379 20zM1382 1051l-172 -105q168 31 301 47q-2 80 -65 80q-27 1 -64 -22zM2095 786q106 4 144 18.5t38 49.5q0 37 -45 49t-176 12q-332 0 -708.5 -61t-618.5 -158v-323q162 -94 368 -154.5t318 -60.5 q88 0 88 49q0 45 -49 45h-16q-86 0 -138 6v107h224q43 0 43 45q0 20 -12.5 33.5t-30.5 13.5h-203v104h225q20 0 32.5 13.5t12.5 33.5q0 43 -49 43l-199 -4v107q53 2 210 8t266 12zM604 346v377l-258 162l66 -223l-158 -125l158 -129l-64 -222z" glyph-name="uni261E" horiz-adv-x="2478" unicode="☞"/><glyph d="M1255 1374q166 0 281 -112.5t115 -288.5q0 -102 -49.5 -194.5t-171.5 -223.5l-535 -578h-31l-534 578q-123 131 -172 223t-49 195q0 176 114.5 288.5t280.5 112.5q131 0 230.5 -72.5t144.5 -189.5q45 117 145 189.5t231 72.5zM1305 649q96 106 138 180t42 154 q0 106 -67.5 175t-172.5 69q-121 0 -202.5 -96.5t-124.5 -247.5h-76q-43 152 -125 248t-205 96q-102 0 -170 -68.5t-68 -175.5q0 -82 42 -156.5t139 -177.5l426 -467z" glyph-name="uni2661" horiz-adv-x="1761" unicode="♡"/><glyph d="M864 -23l-534 578q-123 131 -172 223t-49 195q0 176 114.5 288.5t280.5 112.5q131 0 230.5 -72.5t144.5 -189.5q45 117 145 189.5t231 72.5q166 0 281 -112.5t115 -288.5q0 -102 -49.5 -194.5t-171.5 -223.5l-535 -578h-31z" glyph-name="heart" horiz-adv-x="1761" unicode="♥"/><glyph d="M811 872q184 0 315 -130t131 -316q0 -182 -129 -314t-348 -132q-274 0 -469.5 201.5t-195.5 492.5q0 293 197.5 496.5t498.5 203.5q238 0 420 -143l-66 -105q-154 117 -346 117q-242 0 -402.5 -164t-160.5 -405q0 -215 127 -375q-18 61 -18 127q0 184 131 315t315 131z " glyph-name="uni275B" horiz-adv-x="1372" unicode="❛"/><glyph d="M592 1372q274 0 469.5 -201.5t195.5 -492.5q0 -293 -197.5 -497t-498.5 -204q-238 0 -420 144l66 104q154 -117 346 -116q242 0 402.5 163.5t160.5 405.5q0 215 -127 375q18 -61 19 -127q0 -184 -131.5 -315.5t-315.5 -131.5t-315 130t-131 317q0 182 129 314t348 132z " glyph-name="uni275C" horiz-adv-x="1372" unicode="❜"/><glyph d="M811 872q184 0 315 -130t131 -316q0 -182 -129 -314t-348 -132q-274 0 -469.5 201.5t-195.5 492.5q0 293 197.5 496.5t498.5 203.5q238 0 420 -143l-66 -105q-154 117 -346 117q-242 0 -402.5 -164t-160.5 -405q0 -215 127 -375q-18 61 -18 127q0 184 131 315t315 131z M2080.5 872q184.5 0 315.5 -130t131 -316q0 -182 -129 -314t-348 -132q-274 0 -470 201.5t-196 492.5q0 293 198 496.5t499 203.5q238 0 420 -143l-66 -105q-154 117 -346 117q-242 0 -402.5 -164t-160.5 -405q0 -215 127 -375q-18 61 -19 127q0 184 131 315t315.5 131z" glyph-name="uni275D" horiz-adv-x="2641" unicode="❝"/><glyph d="M592 1372q274 0 469.5 -201.5t195.5 -492.5q0 -293 -197.5 -497t-498.5 -204q-238 0 -420 144l66 104q152 -117 346 -116q242 0 401.5 163.5t159.5 405.5q0 211 -125 373q18 -61 19 -125q0 -184 -131.5 -315.5t-315.5 -131.5t-315 130t-131 317q0 182 129 314t348 132z M1862 1372q274 0 469.5 -201.5t195.5 -492.5q0 -293 -197.5 -497t-498.5 -204q-238 0 -420 144l66 104q154 -117 346 -116q242 0 402.5 163.5t160.5 405.5q0 215 -127 375q18 -61 18 -127q0 -184 -131 -315.5t-315 -131.5t-315.5 130t-131.5 317q0 182 129.5 314t348.5 132z " glyph-name="uni275E" horiz-adv-x="2641" unicode="❞"/><glyph d="M999 -207q-365 0 -622.5 258t-257.5 624.5t258 625t622 258.5q367 0 625 -259.5t258 -624t-258 -623.5t-625 -259zM731 215h541v125h-191v795h-336v-125h191v-670h-205v-125z" glyph-name="uni2776" horiz-adv-x="2002" unicode="❶"/><glyph d="M999 -207q-365 0 -622.5 258t-257.5 624.5t258 625t622 258.5q367 0 625 -259.5t258 -624t-258 -623.5t-625 -259zM674 215h661v125h-407l190 199q86 88 132 163.5t46 163.5q0 123 -85 203t-220 80q-139 0 -227 -87t-88 -206q0 -41 10 -88h133q-8 49 -8 78q0 72 47 122 t127 50q76 0 119 -45t43 -115q0 -63 -36 -121.5t-110 -136.5l-327 -352v-33z" glyph-name="uni2777" horiz-adv-x="2002" unicode="❷"/><glyph d="M999 -207q-365 0 -622.5 258t-257.5 624.5t258 625t622 258.5q367 0 625 -259.5t258 -624t-258 -623.5t-625 -259zM973 201q139 0 238.5 86t99.5 223q0 119 -74 191.5t-180 86.5l231 306v41h-573v-129h352l-223 -293v-41h100q104 0 158.5 -42t54.5 -120q0 -80 -53 -129 t-133 -49q-125 0 -219 139l-101 -74q47 -88 130 -142t192 -54z" glyph-name="uni2778" horiz-adv-x="2002" unicode="❸"/><glyph d="M999 -207q-365 0 -622.5 258t-257.5 624.5t258 625t622 258.5q367 0 625 -259.5t258 -624t-258 -623.5t-625 -259zM1077 215h144v160h125v129h-125v272h-144v-272h-284l258 631h-154l-283 -719v-41h463v-160z" glyph-name="uni2779" horiz-adv-x="2002" unicode="❹"/><glyph d="M999 -207q-365 0 -622.5 258t-257.5 624.5t258 625t622 258.5q367 0 625 -259.5t258 -624t-258 -623.5t-625 -259zM993 199q139 0 237.5 87t98.5 226q0 137 -92 212t-219 75q-72 0 -123 -8v215h385v129h-524v-463h209q213 0 213 -162q0 -80 -53.5 -130t-137.5 -50 q-129 0 -221 141l-102 -74q47 -88 130.5 -143t198.5 -55z" glyph-name="uni277A" horiz-adv-x="2002" unicode="❺"/><glyph d="M999 -207q-365 0 -622.5 258t-257.5 624.5t258 625t622 258.5q367 0 625 -259.5t258 -624t-258 -623.5t-625 -259zM979 201q135 0 231.5 90t96.5 225q0 113 -72 195t-178 98q-59 10 -111 -10l238 336h-172l-230 -324q-68 -94 -97.5 -156.5t-29.5 -136.5q0 -137 94.5 -227 t229.5 -90zM979 332q-76 0 -127 54t-51 132q0 76 51 129t127 53t128 -52t52 -130t-52 -132t-128 -54z" glyph-name="uni277B" horiz-adv-x="2002" unicode="❻"/><glyph d="M999 -207q-365 0 -622.5 258t-257.5 624.5t258 625t622 258.5q367 0 625 -259.5t258 -624t-258 -623.5t-625 -259zM733 217h160l444 879v41h-630v-133h436z" glyph-name="uni277C" horiz-adv-x="2002" unicode="❼"/><glyph d="M999 -207q-365 0 -622.5 258t-257.5 624.5t258 625t622 258.5q367 0 625 -259.5t258 -624t-258 -623.5t-625 -259zM1001 201q147 0 240.5 69.5t93.5 184.5q0 162 -202 241q160 76 159 217q0 111 -82 173.5t-209 62.5t-208.5 -62.5t-81.5 -173.5q0 -141 161 -219 q-205 -76 -204 -237q0 -117 91.5 -186.5t241.5 -69.5zM999 756q-74 27 -110.5 60.5t-36.5 88.5q0 59 41 93t108 34q66 0 108 -33.5t42 -93.5q0 -55 -38 -88.5t-114 -60.5zM1001 317q-90 0 -139 40t-49 108q0 66 47 103.5t139 72.5q94 -35 141.5 -73t47.5 -105 q0 -66 -49.5 -106t-137.5 -40z" glyph-name="uni277D" horiz-adv-x="2002" unicode="❽"/><glyph d="M1001 -207q-367 0 -624.5 259t-257.5 623.5t258 624t624 259.5q365 0 623 -258.5t258 -625t-258 -624.5t-623 -258zM819 217h170l230 324q68 94 97.5 156.5t29.5 136.5q0 137 -94.5 227t-229.5 90t-230.5 -90t-95.5 -225q0 -113 71 -195t177 -98q59 -10 111 10zM1022 651 q-76 0 -128 52.5t-52 130t52 132t128 54.5t127 -54.5t51 -131.5q0 -76 -51 -129.5t-127 -53.5z" glyph-name="uni277E" horiz-adv-x="2002" unicode="❾"/><glyph d="M999 -207q-365 0 -622.5 258t-257.5 624.5t258 625t622 258.5q367 0 625 -259.5t258 -624t-258 -623.5t-625 -259zM999 -70q311 0 527.5 216t216.5 529.5t-216 529.5t-528 216q-309 0 -525 -215t-216 -530.5t216 -530.5t525 -215zM731 215v125h205v670h-191v125h336v-795 h191v-125h-541z" glyph-name="uni2780" horiz-adv-x="2002" unicode="➀"/><glyph d="M999 -207q-365 0 -622.5 258t-257.5 624.5t258 625t622 258.5q367 0 625 -259.5t258 -624t-258 -623.5t-625 -259zM999 -70q311 0 527.5 216t216.5 529.5t-216 529.5t-528 216q-309 0 -525 -215t-216 -530.5t216 -530.5t525 -215zM674 215v33l327 352q74 78 110 136.5 t36 121.5q0 70 -43 115t-119 45q-80 0 -127 -50t-47 -122q0 -29 8 -78h-133q-10 47 -10 88q0 119 88 206t227 87q135 0 220 -80t85 -203q0 -88 -46 -163.5t-132 -163.5l-190 -199h407v-125h-661z" glyph-name="uni2781" horiz-adv-x="2002" unicode="➁"/><glyph d="M999 -207q-365 0 -622.5 258t-257.5 624.5t258 625t622 258.5q367 0 625 -259.5t258 -624t-258 -623.5t-625 -259zM999 -70q311 0 527.5 216t216.5 529.5t-216 529.5t-528 216q-309 0 -525 -215t-216 -530.5t216 -530.5t525 -215zM973 201q-109 0 -192 54t-130 142 l101 74q94 -139 219 -139q80 0 133 49t53 129q0 78 -54 120t-159 42h-100v41l223 293h-352v129h573v-41l-231 -306q106 -14 180 -86.5t74 -191.5q0 -137 -99.5 -223t-238.5 -86z" glyph-name="uni2782" horiz-adv-x="2002" unicode="➂"/><glyph d="M999 -207q-365 0 -622.5 258t-257.5 624.5t258 625t622 258.5q367 0 625 -259.5t258 -624t-258 -623.5t-625 -259zM999 -70q311 0 527.5 216t216.5 529.5t-216 529.5t-528 216q-309 0 -525 -215t-216 -530.5t216 -530.5t525 -215zM1077 215v160h-463v41l283 719h154 l-258 -631h284v272h144v-272h125v-129h-125v-160h-144z" glyph-name="uni2783" horiz-adv-x="2002" unicode="➃"/><glyph d="M999 -207q-365 0 -622.5 258t-257.5 624.5t258 625t622 258.5q367 0 625 -259.5t258 -624t-258 -623.5t-625 -259zM999 -70q311 0 527.5 216t216.5 529.5t-216 529.5t-528 216q-309 0 -525 -215t-216 -530.5t216 -530.5t525 -215zM993 199q-221 0 -329 198l102 74 q96 -141 221 -141q84 0 138.5 50t54.5 130q0 78 -55.5 120t-157.5 42h-211v463h526v-129h-385v-215q51 8 121 8q129 0 222 -76t93 -211q0 -139 -99.5 -226t-240.5 -87z" glyph-name="uni2784" horiz-adv-x="2002" unicode="➄"/><glyph d="M999 -207q-365 0 -622.5 258t-257.5 624.5t258 625t622 258.5q367 0 625 -259.5t258 -624t-258 -623.5t-625 -259zM999 -70q311 0 527.5 216t216.5 529.5t-216 529.5t-528 216q-309 0 -525 -215t-216 -530.5t216 -530.5t525 -215zM979 201q-135 0 -229.5 90t-94.5 227 q0 74 30 136.5t97 156.5l230 324h172l-238 -336q51 18 111 10q106 -16 178 -98t72 -195q0 -135 -96.5 -225t-231.5 -90zM979 332q76 0 128 54t52 132t-52 130t-128 52t-127 -53t-51 -129q0 -78 51 -132t127 -54z" glyph-name="uni2785" horiz-adv-x="2002" unicode="➅"/><glyph d="M999 -207q-365 0 -622.5 258t-257.5 624.5t258 625t622 258.5q367 0 625 -259.5t258 -624t-258 -623.5t-625 -259zM999 -70q311 0 527.5 216t216.5 529.5t-216 529.5t-528 216q-309 0 -525 -215t-216 -530.5t216 -530.5t525 -215zM731 217l410 787h-434v133h628v-41 l-444 -879h-160z" glyph-name="uni2786" horiz-adv-x="2002" unicode="➆"/><glyph d="M999 -207q-365 0 -622.5 258t-257.5 624.5t258 625t622 258.5q367 0 625 -259.5t258 -624t-258 -623.5t-625 -259zM999 -70q311 0 527.5 216t216.5 529.5t-216 529.5t-528 216q-309 0 -525 -215t-216 -530.5t216 -530.5t525 -215zM1001 201q-150 0 -241.5 69.5 t-91.5 186.5q0 162 204 237q-162 78 -161 219q0 111 81.5 173.5t208.5 62.5t209 -62.5t82 -173.5q0 -141 -159 -217q203 -80 202 -241q0 -115 -93.5 -184.5t-240.5 -69.5zM999 756q76 27 114 60.5t38 88.5q0 59 -42 93t-108 34q-68 0 -108.5 -33.5t-40.5 -93.5 q0 -55 36.5 -88.5t110.5 -60.5zM1001 317q88 0 137.5 40t49.5 106q0 68 -47 105.5t-142 72.5q-92 -35 -139 -73t-47 -103q0 -68 49 -108t139 -40z" glyph-name="uni2787" horiz-adv-x="2002" unicode="➇"/><glyph d="M1001 -207q-367 0 -624.5 259t-257.5 623.5t258 624t624 259.5q365 0 623 -258.5t258 -625t-258 -624.5t-623 -258zM1001 -70q309 0 525.5 215t216.5 530.5t-216 530.5t-526 215q-311 0 -527 -216t-216 -529.5t216 -529.5t527 -216zM819 217l236 336q-51 -18 -111 -10 q-106 16 -177 98t-71 195q0 135 95.5 225t230.5 90t229.5 -90t94.5 -227q0 -74 -30 -136.5t-97 -156.5l-230 -324h-170zM1022 651q76 0 127 53.5t51 129.5q0 78 -51 132t-127 54t-128 -54.5t-52 -132t52 -130t128 -52.5z" glyph-name="uni2788" horiz-adv-x="2002" unicode="➈"/><glyph d="M2384 578h-2011l399 -400l-94 -94l-543 543v37l543 540l94 -92l-399 -399h2011v-135z" glyph-name="uni27F5" horiz-adv-x="2490" unicode="⟵"/><glyph d="M1812 1204l543 -540v-37l-543 -543l-92 94l400 402l-2014 -2v135h2012l-398 399z" glyph-name="uni27F6" horiz-adv-x="2490" unicode="⟶"/><glyph d="M100 0v1352h482l49 -584l14 -297h41l16 297l50 584h493v-1352h-317v735h-43l-15 -221l-79 -514h-261l-75 514l-17 221h-43v-735h-295zM92 -344v270h1159v-270h-1159z" glyph-name="uniF8FF" horiz-adv-x="1343" unicode=""/><glyph d="M207 1483l174 381h192v-29l-245 -352h-121zM952 1483l174 381h193v-29l-246 -352h-121zM186 0v1352h160v-1352h-160zM758 -23q-80 0 -178 23v137q84 -12 147 -12q109 0 166 44t57 159v1024h160v-1039q0 -170 -94 -253t-258 -83z" glyph-name="Iacute_J.locl" horiz-adv-x="1296"/><glyph d="M739 1483l92 381h193v-29l-164 -352h-121zM801 -23q-295 0 -499 202t-204 497t204 496.5t499 201.5q180 0 327.5 -78.5t233.5 -212.5l-119 -94q-162 238 -440 238q-229 0 -384 -158t-155 -393.5t154.5 -393t384.5 -157.5q279 0 440 237l119 -94q-84 -133 -232.5 -212 t-328.5 -79z" glyph-name="Cacute.aalt" horiz-adv-x="1464"/><glyph d="M948 1835l-164 -352h-120l92 381h192v-29zM1104 1352h160v-1375h-58l-860 1037v-1014h-160v1374h58l860 -1038v1016z" glyph-name="Nacute.aalt" horiz-adv-x="1449"/><glyph d="M739 1483l92 381h193v-29l-164 -352h-121zM799 -23q-295 0 -498 202t-203 497t204 496.5t497 201.5t497.5 -201.5t204.5 -496.5t-204.5 -497t-497.5 -202zM801 125q229 0 381.5 157.5t152.5 395.5q0 233 -152.5 391t-381.5 158q-231 0 -384 -157t-153 -392 q0 -238 153 -395.5t384 -157.5z" glyph-name="Oacute.aalt" horiz-adv-x="1599"/><glyph d="M518 1483l92 381h193v-29l-164 -352h-121zM582 -23q-158 0 -288 78t-210 213l119 88q152 -231 377 -231q121 0 196.5 61.5t75.5 163.5q0 86 -52 133t-173 105l-152 71q-66 31 -109.5 58.5t-94 72t-76 102.5t-25.5 130q0 158 119 255t289 97q135 0 246.5 -63.5 t176.5 -165.5l-116 -88q-115 170 -310 170q-100 0 -169.5 -51.5t-69.5 -145.5q0 -45 14.5 -77.5t50 -61.5t64.5 -44.5t88 -43.5l149 -72q160 -78 238 -162t78 -215q0 -168 -123 -272.5t-313 -104.5z" glyph-name="Sacute.aalt" horiz-adv-x="1142"/><glyph d="M838 1835l-164 -352h-121l92 381h193v-29zM315 143h822v-143h-1071v47l815 1161h-727v144h981v-47z" glyph-name="Zacute.aalt" horiz-adv-x="1206"/><glyph d="M266 1544q-49 0 -84 33t-35 82q0 47 35 81t84 34q47 0 82 -34t35 -81q0 -49 -34 -82t-83 -33zM186 0v1352h160v-1352h-160z" glyph-name="Idotaccent.aalt" horiz-adv-x="530"/><glyph d="M692 500l-57 145h-381l-55 -145h-152l375 866h47l373 -866h-150zM592 756l-148 360l-149 -360h297z" glyph-name="ordfeminine.case" horiz-adv-x="888"/><glyph d="M518.5 485q-186.5 0 -315.5 127t-129 313.5t129 313.5t315.5 127t316.5 -127t130 -313.5t-130 -313.5t-316.5 -127zM520 614q129 0 216 88.5t87 223.5t-87 223t-216 88q-133 0 -218 -87t-85 -224.5t85 -224.5t218 -87z" glyph-name="ordmasculine.aalt" horiz-adv-x="1038"/><glyph d="M190 1159l113 438h193v-28l-185 -410h-121zM696 1159l113 438h192v-28l-184 -410h-121zM174 0v997h158v-997h-158zM508 -391q-68 0 -127 16v133q53 -6 92 -6q205 0 205 191v1054h158v-1065q0 -164 -89 -243.5t-239 -79.5z" glyph-name="iacute_j.locl" horiz-adv-x="1007"/><glyph d="M559 1159l92 438h193v-28l-164 -410h-121zM625 -23q-219 0 -371 152t-152 371q0 217 152 368.5t371 151.5q266 0 411 -217l-112 -90q-121 162 -297 161q-156 0 -259.5 -108.5t-103.5 -265.5q0 -160 103.5 -268.5t259.5 -108.5q176 0 295 160l112 -88q-145 -218 -409 -218 z" glyph-name="cacute.aalt" horiz-adv-x="1128"/><glyph d="M805 1569l-164 -410h-121l92 438h193v-28zM629 1020q174 0 272 -108.5t98 -284.5v-627h-157v608q0 119 -66.5 192.5t-181.5 73.5t-188.5 -74.5t-73.5 -191.5v-608h-158v997h148v-106q117 129 307 129z" glyph-name="nacute.aalt" horiz-adv-x="1159"/><glyph d="M561 1159l92 438h193v-28l-164 -410h-121zM623 -20q-217 0 -369 151.5t-152 368.5q0 219 152 369.5t371 150.5t370.5 -151.5t151.5 -368.5t-152.5 -368.5t-371.5 -151.5zM622.5 125q153.5 0 258 107.5t104.5 265.5q0 162 -103.5 269t-256.5 107q-156 0 -258.5 -107.5 t-102.5 -268.5q0 -160 102.5 -266.5t256 -106.5z" glyph-name="oacute.aalt" horiz-adv-x="1249"/><glyph d="M408 1159l92 438h192v-28l-164 -410h-120zM469 -23q-244 0 -389 195l100 104q145 -154 287 -153q82 0 136 38t54 103q0 59 -41 91t-133 69l-96 41q-125 51 -186.5 113.5t-61.5 162.5q0 131 96.5 205t239.5 74q207 0 334 -158l-96 -98q-106 111 -246 110q-74 0 -120 -32.5 t-46 -91.5q0 -47 36 -77t126 -69l92 -39q139 -59 201.5 -125.5t62.5 -169.5q0 -139 -101.5 -216t-248.5 -77z" glyph-name="sacute.aalt" horiz-adv-x="929"/><glyph d="M707 1569l-164 -410h-121l92 438h193v-28zM297 139h577v-139h-819v47l570 809h-523v141h766v-47z" glyph-name="zacute.aalt" horiz-adv-x="929"/><glyph d="M254 1264q-49 0 -84 32.5t-35 81.5q0 47 35 81t84 34q47 0 82 -34t35 -81q0 -49 -34 -81.5t-83 -32.5zM174 0v997h158v-997h-158z" glyph-name="i.locl" horiz-adv-x="503"/><glyph d="M973 997h149v-997h-157v145q-59 -80 -157.5 -124t-211.5 -44q-211 0 -352.5 151t-141.5 372t140.5 370.5t353.5 149.5q117 0 218 -48t159 -134v159zM618 123q143 0 246 96t103 280.5t-102.5 279.5t-246.5 95q-154 0 -254 -107.5t-100 -269t101 -268t253 -106.5z" glyph-name="a.salt" horiz-adv-x="1294"/><glyph d="M829 997h158v-950q0 -207 -122 -322.5t-312 -115.5q-246 0 -416 194l96 109q150 -156 314 -156q125 0 203.5 72t78.5 211v106q-111 -127 -303 -127q-174 0 -269 110t-95 286v583h155v-563q0 -121 66 -195.5t182 -74.5q115 0 189.5 73.5t74.5 190.5v569z" glyph-name="y.aalt" horiz-adv-x="1159"/><glyph d="M946 1569l-246 -410h-120l174 438h192v-28zM973 997h149v-997h-157v145q-59 -80 -157.5 -124t-211.5 -44q-211 0 -352.5 151t-141.5 372t140.5 370.5t353.5 149.5q117 0 218 -48t159 -134v159zM618 123q143 0 246 96t103 280.5t-102.5 279.5t-246.5 95 q-154 0 -254 -107.5t-100 -269t101 -268t253 -106.5z" glyph-name="aacute.aalt" horiz-adv-x="1294"/><glyph d="M633 1174q-137 0 -223 90t-86 233v64h129v-60q0 -94 49 -148.5t131 -54.5q84 0 133 54.5t49 148.5v60h129v-64q0 -145 -86 -234t-225 -89zM973 997h149v-997h-157v145q-59 -80 -157.5 -124t-211.5 -44q-211 0 -352.5 151t-141.5 372t140.5 370.5t353.5 149.5 q117 0 218 -48t159 -134v159zM618 123q143 0 246 96t103 280.5t-102.5 279.5t-246.5 95q-154 0 -254 -107.5t-100 -269t101 -268t253 -106.5z" glyph-name="abreve.aalt" horiz-adv-x="1294"/><glyph d="M637 1421l-207 -262h-121l279 438h96l277 -438h-119zM973 997h149v-997h-157v145q-59 -80 -157.5 -124t-211.5 -44q-211 0 -352.5 151t-141.5 372t140.5 370.5t353.5 149.5q117 0 218 -48t159 -134v159zM618 123q143 0 246 96t103 280.5t-102.5 279.5t-246.5 95 q-154 0 -254 -107.5t-100 -269t101 -268t253 -106.5z" glyph-name="acircumflex.aalt" horiz-adv-x="1294"/><glyph d="M416 1270q-43 0 -78 32.5t-35 75.5q0 45 35 78t78 33q47 0 80.5 -33t33.5 -78t-33.5 -76.5t-80.5 -31.5zM852 1270q-45 0 -80 32.5t-35 75.5q0 45 35 78t80 33q47 0 80 -33t33 -78t-33 -76.5t-80 -31.5zM973 997h149v-997h-157v145q-59 -80 -157.5 -124t-211.5 -44 q-211 0 -352.5 151t-141.5 372t140.5 370.5t353.5 149.5q117 0 218 -48t159 -134v159zM618 123q143 0 246 96t103 280.5t-102.5 279.5t-246.5 95q-154 0 -254 -107.5t-100 -269t101 -268t253 -106.5z" glyph-name="adieresis.aalt" horiz-adv-x="1294"/><glyph d="M696 1159h-121l-245 410v28h192zM973 997h149v-997h-157v145q-59 -80 -157.5 -124t-211.5 -44q-211 0 -352.5 151t-141.5 372t140.5 370.5t353.5 149.5q117 0 218 -48t159 -134v159zM618 123q143 0 246 96t103 280.5t-102.5 279.5t-246.5 95q-154 0 -254 -107.5 t-100 -269t101 -268t253 -106.5z" glyph-name="agrave.aalt" horiz-adv-x="1294"/></font>
</defs>
</svg>
